<?xml version="1.0" encoding="UTF-8"?> <svg xmlns="http://www.w3.org/2000/svg" width="40" height="40" viewBox="0 0 40 40" fill="none"><path d="M6.99884 40.0005L32.9998 40.0005C36.8659 40.0005 40 36.8665 40 33.0005L40 7.00049C40 3.13449 36.8659 0.000488281 32.9998 0.000488281L6.99884 0.000488281C3.13272 0.000488281 -0.00139999 3.13449 -0.00139999 7.00049L-0.00139999 33.0005C-0.00139999 36.8665 3.13272 40.0005 6.99884 40.0005Z" fill="url(#paint0_linear_1318_2151)"></path><path d="M27.5008 35.0005H12.5003C10.5111 35.0005 8.60335 34.2103 7.19678 32.8038C5.7902 31.3973 5 29.4896 5 27.5005V12.5005C5 10.5114 5.7902 8.60371 7.19678 7.19719C8.60335 5.79066 10.5111 5.00049 12.5003 5.00049H27.5008C29.49 5.00049 31.3977 5.79066 32.8043 7.19719C34.2108 8.60371 35.001 10.5114 35.001 12.5005V27.5005C35.001 29.4896 34.2108 31.3973 32.8043 32.8038C31.3977 34.2103 29.49 35.0005 27.5008 35.0005ZM12.5003 8.00049C11.3073 8.00214 10.1636 8.47678 9.32 9.32033C8.47641 10.1639 8.00176 11.3075 8.00011 12.5005V27.5005C8.00176 28.6935 8.47641 29.8371 9.32 30.6806C10.1636 31.5242 11.3073 31.9988 12.5003 32.0005H27.5008C28.6938 31.9988 29.8375 31.5242 30.6811 30.6806C31.5246 29.8371 31.9993 28.6935 32.0009 27.5005V12.5005C31.9993 11.3075 31.5246 10.1639 30.6811 9.32033C29.8375 8.47678 28.6938 8.00214 27.5008 8.00049H12.5003Z" fill="#171717"></path><path d="M20.0042 28.4981C18.323 28.4981 16.6796 27.9995 15.2817 27.0655C13.8838 26.1316 12.7943 24.804 12.151 23.2509C11.5076 21.6977 11.3393 19.9886 11.6672 18.3398C11.9952 16.6909 12.8048 15.1764 13.9936 13.9876C15.1824 12.7989 16.697 11.9894 18.3459 11.6614C19.9948 11.3334 21.7039 11.5017 23.2571 12.1451C24.8104 12.7884 26.1379 13.8779 27.0719 15.2757C28.006 16.6735 28.5045 18.3169 28.5045 19.9981C28.5028 22.2519 27.6068 24.4129 26.013 26.0066C24.4192 27.6003 22.2581 28.4964 20.0042 28.4981ZM20.0042 14.4981C18.9164 14.4981 17.853 14.8206 16.9485 15.425C16.044 16.0293 15.339 16.8883 14.9227 17.8933C14.5064 18.8983 14.3975 20.0042 14.6097 21.071C14.8219 22.1379 15.3458 23.118 16.115 23.8871C16.8842 24.6563 17.8642 25.1802 18.9312 25.3924C19.9981 25.6046 21.104 25.4957 22.109 25.0794C23.1141 24.6631 23.9731 23.9582 24.5775 23.0537C25.1818 22.1492 25.5044 21.0859 25.5044 19.9981C25.5027 18.5399 24.9227 17.1419 23.8916 16.1108C22.8605 15.0797 21.4624 14.4997 20.0042 14.4981Z" fill="#171717"></path><path d="M28.502 13.4985C29.3305 13.4985 30.0021 12.827 30.0021 11.9985C30.0021 11.1701 29.3305 10.4985 28.502 10.4985C27.6735 10.4985 27.002 11.1701 27.002 11.9985C27.002 12.827 27.6735 13.4985 28.502 13.4985Z" fill="#171717"></path><defs><linearGradient id="paint0_linear_1318_2151" x1="91.569" y1="39.188" x2="-93.1812" y2="39.188" gradientUnits="userSpaceOnUse"><stop offset="1" stop-color="white"></stop></linearGradient></defs></svg> 