<?xml version="1.0" encoding="UTF-8"?> <svg xmlns="http://www.w3.org/2000/svg" width="950" height="815" viewBox="0 0 950 815" fill="none"><path d="M4.55752 754.608C11.1966 803.689 44.3922 813.186 60.1601 811.8H92.5258H406.224H897.518C922.415 811.8 944.822 771.246 946.482 746.29C948.141 721.334 931.544 511.102 931.544 434.336C931.544 319.953 938.183 183.733 927.394 102.625C925.458 88.0672 909.967 50.8405 863.493 18.3972C805.401 -22.1568 545.645 29.8354 477.594 29.8354C409.543 29.8354 94.1856 31.9151 68.459 29.8354C42.7324 27.7557 31.114 43.3534 13.6863 80.7879C-3.74138 118.222 4.55752 305.395 13.6863 414.579C22.8151 523.762 -3.74137 693.257 4.55752 754.608Z" fill="#E9E9E9" stroke="white" stroke-width="5.85525"></path><rect x="64.8958" y="71.7262" width="111.25" height="111.25" rx="9.27081" fill="white" stroke="black" stroke-width="0.975875"></rect><rect x="64.4157" y="189.414" width="575.024" height="112.024" rx="9.27081" fill="white" stroke="black" stroke-width="0.975875"></rect><rect x="650.421" y="189.808" width="111.25" height="111.25" rx="9.27081" fill="white" stroke="black" stroke-width="0.975875"></rect><rect x="767.525" y="189.808" width="111.25" height="111.25" rx="9.27081" fill="white" stroke="black" stroke-width="0.975875"></rect><rect x="64.8958" y="307.886" width="111.25" height="111.25" rx="9.27081" fill="white" stroke="black" stroke-width="0.975875"></rect><rect x="64.8958" y="425.964" width="111.25" height="111.25" rx="9.27081" fill="white" stroke="black" stroke-width="0.975875"></rect><rect x="64.8958" y="543.074" width="111.25" height="111.25" rx="9.27081" fill="white" stroke="black" stroke-width="0.975875"></rect><rect x="64.8958" y="661.152" width="111.25" height="111.25" rx="9.27081" fill="white" stroke="black" stroke-width="0.975875"></rect><rect x="182.001" y="307.886" width="111.25" height="111.25" rx="9.27081" fill="white" stroke="black" stroke-width="0.975875"></rect><rect x="182.001" y="425.964" width="111.25" height="111.25" rx="9.27081" fill="white" stroke="black" stroke-width="0.975875"></rect><rect x="182.001" y="543.074" width="111.25" height="111.25" rx="9.27081" fill="white" stroke="black" stroke-width="0.975875"></rect><rect x="182.001" y="661.152" width="111.25" height="111.25" rx="9.27081" fill="white" stroke="black" stroke-width="0.975875"></rect><rect x="299.106" y="307.886" width="111.25" height="111.25" rx="9.27081" fill="white" stroke="black" stroke-width="0.975875"></rect><rect x="299.106" y="425.964" width="111.25" height="111.25" rx="9.27081" fill="white" stroke="black" stroke-width="0.975875"></rect><rect x="299.106" y="543.074" width="111.25" height="111.25" rx="9.27081" fill="white" stroke="black" stroke-width="0.975875"></rect><rect x="299.106" y="661.152" width="111.25" height="111.25" rx="9.27081" fill="white" stroke="black" stroke-width="0.975875"></rect><rect x="416.21" y="307.886" width="111.25" height="111.25" rx="9.27081" fill="white" stroke="black" stroke-width="0.975875"></rect><rect x="416.21" y="425.964" width="111.25" height="111.25" rx="9.27081" fill="white" stroke="black" stroke-width="0.975875"></rect><rect x="416.21" y="543.074" width="111.25" height="111.25" rx="9.27081" fill="white" stroke="black" stroke-width="0.975875"></rect><rect x="416.21" y="661.152" width="111.25" height="111.25" rx="9.27081" fill="white" stroke="black" stroke-width="0.975875"></rect><rect x="533.315" y="307.886" width="111.25" height="111.25" rx="9.27081" fill="white" stroke="black" stroke-width="0.975875"></rect><rect x="533.416" y="426.414" width="111.024" height="111.024" rx="9.27081" fill="white" stroke="black" stroke-width="0.975875"></rect><rect x="533.315" y="543.074" width="111.25" height="111.25" rx="9.27081" fill="white" stroke="black" stroke-width="0.975875"></rect><rect x="533.315" y="661.152" width="111.25" height="111.25" rx="9.27081" fill="white" stroke="black" stroke-width="0.975875"></rect><rect x="650.421" y="307.886" width="111.25" height="111.25" rx="9.27081" fill="white" stroke="black" stroke-width="0.975875"></rect><rect x="650.421" y="426.414" width="111.25" height="111.25" rx="9.27081" fill="white" stroke="black" stroke-width="0.975875"></rect><rect x="650.421" y="543.074" width="111.25" height="111.25" rx="9.27081" fill="white" stroke="black" stroke-width="0.975875"></rect><rect x="650.421" y="660.414" width="111.25" height="111.25" rx="9.27081" fill="white" stroke="black" stroke-width="0.975875"></rect><rect x="767.525" y="307.886" width="111.25" height="111.25" rx="9.27081" fill="white" stroke="black" stroke-width="0.975875"></rect><rect x="767.525" y="543.074" width="111.25" height="111.25" rx="9.27081" fill="white" stroke="black" stroke-width="0.975875"></rect><rect x="767.525" y="425.964" width="111.25" height="111.25" rx="9.27081" fill="white" stroke="black" stroke-width="0.975875"></rect><rect x="767.525" y="660.414" width="111.25" height="111.25" rx="9.27081" fill="white" stroke="black" stroke-width="0.975875"></rect><path d="M669.919 232.32V226.84H675.932V210.741H670.718V206.554C673.763 205.983 675.742 205.222 677.721 203.966H682.707V226.84H687.807V232.32H669.919Z" fill="#CC2936"></path><path d="M786.63 232.32V228.438C793.709 222.006 798.466 216.868 798.466 212.758C798.466 210.17 797.058 208.762 794.774 208.762C792.833 208.762 791.349 210.056 789.979 211.502L786.287 207.848C789.065 204.88 791.653 203.472 795.688 203.472C801.168 203.472 804.974 206.973 804.974 212.377C804.974 217.249 800.788 222.615 796.449 226.992C797.857 226.802 799.798 226.611 801.092 226.611H806.268V232.32H786.63Z" fill="#CC2936"></path><rect x="182.001" y="71.7262" width="111.25" height="111.25" rx="9.27081" fill="white" stroke="black" stroke-width="0.975875"></rect><rect x="299.106" y="71.7262" width="111.25" height="111.25" rx="9.27081" fill="white" stroke="black" stroke-width="0.975875"></rect><rect x="416.21" y="71.7262" width="111.25" height="111.25" rx="9.27081" fill="white" stroke="black" stroke-width="0.975875"></rect><rect x="533.315" y="71.7262" width="111.25" height="111.25" rx="9.27081" fill="white" stroke="black" stroke-width="0.975875"></rect><rect x="650.421" y="71.7262" width="111.25" height="111.25" rx="9.27081" fill="white" stroke="black" stroke-width="0.975875"></rect><rect x="767.525" y="71.7262" width="111.25" height="111.25" rx="9.27081" fill="white" stroke="black" stroke-width="0.975875"></rect><path d="M96.2541 331.033H96.6347C98.7152 331.033 100.403 331.731 101.697 333.126C103.016 334.496 103.676 336.336 103.676 338.645C103.676 341.613 102.762 343.884 100.935 345.457C99.1085 347.005 96.4698 347.779 93.0191 347.779C89.6191 347.779 86.4475 347.018 83.5043 345.495L85.3692 339.787C88.0333 341.106 90.3296 341.766 92.2579 341.766C93.5519 341.766 94.5414 341.512 95.2265 341.005C95.9116 340.472 96.2541 339.749 96.2541 338.835C96.2541 338.074 96.0765 337.503 95.7213 337.122C95.366 336.742 94.6937 336.463 93.7041 336.285C92.74 336.082 91.3064 335.981 89.4034 335.981H87.8811V331.033L94.3511 325.781V325.705H84.0752V319.615H103.295V325.705L96.2541 330.957V331.033Z" fill="#CC2936"></path><path d="M79.8175 446.447H79.7794L74.1086 451.775L71.8251 445.305L79.8175 437.693H87.8099V465.477H79.8175V446.447ZM115.827 462.508C113.95 464.741 111.083 465.857 107.226 465.857C103.369 465.857 100.502 464.741 98.6247 462.508C96.7471 460.275 95.8083 456.634 95.8083 451.585C95.8083 446.536 96.7471 442.895 98.6247 440.662C100.502 438.429 103.369 437.313 107.226 437.313C111.083 437.313 113.95 438.429 115.827 440.662C117.705 442.895 118.644 446.536 118.644 451.585C118.644 456.634 117.705 460.275 115.827 462.508ZM104.448 458.321C105.031 459.539 105.957 460.148 107.226 460.148C108.495 460.148 109.408 459.539 109.966 458.321C110.55 457.078 110.842 454.833 110.842 451.585C110.842 448.337 110.55 446.104 109.966 444.887C109.408 443.643 108.495 443.022 107.226 443.022C105.957 443.022 105.031 443.643 104.448 444.887C103.889 446.104 103.61 448.337 103.61 451.585C103.61 454.833 103.889 457.078 104.448 458.321Z" fill="#241A08"></path><path d="M82.0576 563.556H82.0196L76.3488 568.885L74.0652 562.415L82.0576 554.803H90.05V582.586H82.0576V563.556ZM112.321 561.083V560.892H99.3805V554.803H119.552V560.892C117.497 564.394 115.721 567.781 114.224 571.054C112.727 574.302 111.204 578.146 109.656 582.586H101.474C104.544 574.72 108.159 567.553 112.321 561.083Z" fill="black"></path><path d="M73.6601 694.575C77.0601 692.012 79.61 689.957 81.31 688.409C83.01 686.836 84.1264 685.58 84.6592 684.641C85.192 683.702 85.4585 682.7 85.4585 681.635C85.4585 679.732 84.3801 678.78 82.2234 678.78C80.3205 678.78 77.8466 679.732 74.8019 681.635L72.899 675.545C74.193 674.682 75.8295 673.959 77.8086 673.376C79.7877 672.792 81.6399 672.5 83.3652 672.5C86.5368 672.5 88.9726 673.249 90.6726 674.746C92.3979 676.217 93.2606 678.26 93.2606 680.873C93.2606 682.954 92.6009 684.933 91.2815 686.811C89.9621 688.688 87.3868 691.251 83.5555 694.498V694.575H93.4509V700.664H73.6601V694.575ZM102.781 689.741V689.817H108.49V681.635H108.414L102.781 689.741ZM115.721 695.716V700.664H108.49V695.716H96.3113V689.817L108.49 672.881H115.721V689.817H119.527V695.716H115.721Z" fill="#CC2936"></path><path d="M113.317 125.825V128.899V129.997H129.566V125.825H113.317ZM113.317 119.457H129.566V115.505H113.317V119.457ZM105.852 149.538L99.4845 144.708C101.768 142.219 103.29 139.716 104.052 137.198C104.813 134.651 105.193 130.641 105.193 125.166V108.918H137.69V140.536C137.69 142.029 137.661 143.2 137.602 144.049C137.573 144.898 137.441 145.689 137.207 146.421C136.973 147.152 136.709 147.679 136.416 148.001C136.124 148.323 135.626 148.602 134.923 148.836C134.25 149.07 133.533 149.202 132.772 149.231C132.01 149.29 130.942 149.319 129.566 149.319C128.307 149.319 125.672 149.246 121.661 149.099L121.222 142.293C125.087 142.439 127.355 142.512 128.029 142.512C128.731 142.512 129.156 142.439 129.302 142.293C129.478 142.146 129.566 141.707 129.566 140.975V136.364H112.747C111.868 141.487 109.57 145.879 105.852 149.538Z" fill="black"></path><path d="M205.391 336.475V336.552H211.1V328.369H211.024L205.391 336.475ZM218.331 342.451V347.398H211.1V342.451H198.921V336.552L211.1 319.615H218.331V336.552H222.137V342.451H218.331Z" fill="black"></path><path d="M195.995 446.447H195.957L190.286 451.775L188.002 445.305L195.995 437.693H203.987V465.477H195.995V446.447ZM221.12 446.447H221.082L215.411 451.775L213.127 445.305L221.12 437.693H229.112V465.477H221.12V446.447Z" fill="black"></path><path d="M198.09 563.556H198.052L192.381 568.885L190.098 562.415L198.09 554.803H206.083V582.586H198.09V563.556ZM233.91 580.797C231.905 582.243 229.102 582.967 225.499 582.967C221.896 582.967 219.092 582.243 217.088 580.797C215.083 579.351 214.081 577.41 214.081 574.974C214.081 573.655 214.462 572.5 215.223 571.511C215.984 570.496 217.303 569.519 219.181 568.58V568.504C216.288 566.703 214.842 564.419 214.842 561.653C214.842 559.573 215.781 557.848 217.659 556.477C219.561 555.107 222.175 554.422 225.499 554.422C228.823 554.422 231.423 555.107 233.301 556.477C235.204 557.848 236.155 559.573 236.155 561.653C236.155 563.912 234.582 565.891 231.436 567.591V567.667C235.09 569.291 236.916 571.726 236.916 574.974C236.916 577.41 235.914 579.351 233.91 580.797ZM225.879 565.764C227.072 565.206 227.871 564.685 228.277 564.203C228.708 563.721 228.924 563.125 228.924 562.415C228.924 561.603 228.607 560.93 227.973 560.397C227.338 559.839 226.514 559.56 225.499 559.56C224.484 559.56 223.659 559.839 223.025 560.397C222.391 560.93 222.073 561.603 222.073 562.415C222.073 563.125 222.327 563.734 222.835 564.241C223.367 564.724 224.382 565.231 225.879 565.764ZM224.623 570.75C223.355 571.409 222.517 572.018 222.111 572.576C221.705 573.135 221.503 573.807 221.503 574.594C221.503 575.482 221.883 576.243 222.644 576.877C223.431 577.511 224.382 577.829 225.499 577.829C226.615 577.829 227.554 577.511 228.315 576.877C229.102 576.243 229.495 575.482 229.495 574.594C229.495 573.756 229.216 573.097 228.658 572.614C228.099 572.107 226.755 571.485 224.623 570.75Z" fill="black"></path><path d="M191.741 694.575C195.141 692.012 197.691 689.957 199.391 688.409C201.091 686.836 202.207 685.58 202.74 684.641C203.273 683.702 203.539 682.7 203.539 681.635C203.539 679.732 202.461 678.78 200.304 678.78C198.401 678.78 195.927 679.732 192.883 681.635L190.98 675.545C192.274 674.682 193.91 673.959 195.889 673.376C197.868 672.792 199.721 672.5 201.446 672.5C204.618 672.5 207.053 673.249 208.753 674.746C210.479 676.217 211.341 678.26 211.341 680.873C211.341 682.954 210.682 684.933 209.362 686.811C208.043 688.688 205.468 691.251 201.636 694.498V694.575H211.532V700.664H191.741V694.575ZM224.478 682.967H224.554C225.645 682.586 226.698 682.396 227.713 682.396C230.656 682.396 232.914 683.157 234.487 684.679C236.06 686.176 236.847 688.333 236.847 691.149C236.847 697.746 232.787 701.045 224.668 701.045C221.75 701.045 218.959 700.537 216.295 699.522L217.817 693.509C220.405 694.524 222.562 695.031 224.287 695.031C227.713 695.031 229.425 693.737 229.425 691.149C229.425 689.119 228.347 688.105 226.19 688.105C225.378 688.105 224.49 688.549 223.526 689.437H217.056L217.817 672.881H235.515V678.97H224.668L224.478 682.967Z" fill="black"></path><path d="M325.111 329.701H325.187C326.278 329.32 327.331 329.13 328.346 329.13C331.29 329.13 333.548 329.891 335.121 331.414C336.694 332.911 337.481 335.067 337.481 337.884C337.481 344.481 333.421 347.779 325.302 347.779C322.384 347.779 319.593 347.272 316.929 346.257L318.451 340.243C321.039 341.258 323.196 341.766 324.921 341.766C328.346 341.766 330.059 340.472 330.059 337.884C330.059 335.854 328.981 334.839 326.824 334.839C326.012 334.839 325.124 335.283 324.16 336.171H317.69L318.451 319.615H336.148V325.705H325.302L325.111 329.701Z" fill="black"></path><path d="M314.076 446.447H314.038L308.367 451.775L306.083 445.305L314.076 437.693H322.068V465.477H314.076V446.447ZM331.779 459.387C335.179 456.824 337.729 454.769 339.429 453.222C341.129 451.648 342.245 450.392 342.778 449.454C343.311 448.515 343.577 447.513 343.577 446.447C343.577 444.544 342.499 443.593 340.342 443.593C338.439 443.593 335.965 444.544 332.921 446.447L331.018 440.358C332.312 439.495 333.948 438.772 335.927 438.188C337.907 437.605 339.759 437.313 341.484 437.313C344.656 437.313 347.091 438.061 348.791 439.558C350.517 441.03 351.379 443.072 351.379 445.686C351.379 447.766 350.72 449.745 349.4 451.623C348.081 453.501 345.506 456.063 341.674 459.311V459.387H351.57V465.477H331.779V459.387Z" fill="black"></path><path d="M316.243 563.556H316.205L310.534 568.885L308.251 562.415L316.243 554.803H324.236V582.586H316.243V563.556ZM339.846 564.127C339.846 565.497 340.176 566.576 340.835 567.362C341.52 568.123 342.459 568.504 343.652 568.504C344.844 568.504 345.77 568.123 346.43 567.362C347.115 566.576 347.458 565.497 347.458 564.127C347.458 562.732 347.115 561.653 346.43 560.892C345.745 560.131 344.819 559.75 343.652 559.75C342.485 559.75 341.559 560.131 340.873 560.892C340.188 561.653 339.846 562.732 339.846 564.127ZM343.652 554.422C347.077 554.422 349.767 555.374 351.72 557.277C353.699 559.18 354.689 561.844 354.689 565.269C354.689 570.775 353.179 575.101 350.16 578.247C347.166 581.393 343.094 582.967 337.943 582.967L336.611 576.877C339.351 576.877 341.52 576.509 343.119 575.773C344.743 575.038 345.948 573.896 346.735 572.348L346.658 572.272C345.085 573.058 343.449 573.452 341.749 573.452C335.659 573.452 332.615 570.344 332.615 564.127C332.615 561.286 333.63 558.964 335.659 557.162C337.715 555.336 340.379 554.422 343.652 554.422Z" fill="black"></path><path d="M307.846 694.575C311.246 692.012 313.796 689.957 315.496 688.409C317.196 686.836 318.312 685.58 318.845 684.641C319.378 683.702 319.644 682.7 319.644 681.635C319.644 679.732 318.566 678.78 316.409 678.78C314.506 678.78 312.032 679.732 308.988 681.635L307.085 675.545C308.379 674.682 310.015 673.959 311.994 673.376C313.973 672.792 315.826 672.5 317.551 672.5C320.723 672.5 323.158 673.249 324.858 674.746C326.584 676.217 327.446 678.26 327.446 680.873C327.446 682.954 326.787 684.933 325.467 686.811C324.148 688.688 321.573 691.251 317.741 694.498V694.575H327.637V700.664H307.846V694.575ZM346.482 691.149C346.482 689.855 346.139 688.84 345.454 688.105C344.769 687.343 343.843 686.963 342.676 686.963C341.509 686.963 340.583 687.343 339.898 688.105C339.213 688.84 338.87 689.855 338.87 691.149C338.87 692.621 339.2 693.75 339.86 694.537C340.545 695.323 341.483 695.716 342.676 695.716C343.868 695.716 344.795 695.323 345.454 694.537C346.139 693.75 346.482 692.621 346.482 691.149ZM342.676 701.045C339.276 701.045 336.587 700.093 334.607 698.19C332.628 696.262 331.639 693.534 331.639 690.008C331.639 684.603 333.11 680.34 336.054 677.22C338.997 674.073 342.98 672.5 348.004 672.5L349.336 678.59C346.723 678.59 344.642 678.97 343.095 679.732C341.547 680.467 340.38 681.596 339.593 683.119L339.669 683.195C341.242 682.408 342.879 682.015 344.579 682.015C350.668 682.015 353.713 685.06 353.713 691.149C353.713 694.118 352.686 696.516 350.63 698.342C348.575 700.144 345.924 701.045 342.676 701.045Z" fill="black"></path><path d="M449.091 337.884C449.091 336.59 448.749 335.575 448.064 334.839C447.379 334.078 446.453 333.697 445.285 333.697C444.118 333.697 443.192 334.078 442.507 334.839C441.822 335.575 441.479 336.59 441.479 337.884C441.479 339.355 441.809 340.484 442.469 341.271C443.154 342.057 444.093 342.451 445.285 342.451C446.478 342.451 447.404 342.057 448.064 341.271C448.749 340.484 449.091 339.355 449.091 337.884ZM445.285 347.779C441.885 347.779 439.196 346.828 437.217 344.925C435.238 342.996 434.248 340.269 434.248 336.742C434.248 331.337 435.72 327.075 438.663 323.954C441.606 320.808 445.59 319.235 450.614 319.235L451.946 325.324C449.332 325.324 447.252 325.705 445.704 326.466C444.156 327.202 442.989 328.331 442.203 329.853L442.279 329.929C443.852 329.143 445.488 328.749 447.188 328.749C453.278 328.749 456.322 331.794 456.322 337.884C456.322 340.852 455.295 343.25 453.24 345.077C451.185 346.878 448.533 347.779 445.285 347.779Z" fill="black"></path><path d="M431.156 446.447H431.118L425.448 451.775L423.164 445.305L431.156 437.693H439.149V465.477H431.156V446.447ZM460.849 449.111H461.229C463.31 449.111 464.997 449.809 466.291 451.204C467.61 452.575 468.27 454.414 468.27 456.723C468.27 459.692 467.357 461.962 465.53 463.536C463.703 465.083 461.064 465.857 457.614 465.857C454.214 465.857 451.042 465.096 448.099 463.574L449.964 457.865C452.628 459.184 454.924 459.844 456.852 459.844C458.146 459.844 459.136 459.59 459.821 459.083C460.506 458.55 460.849 457.827 460.849 456.913C460.849 456.152 460.671 455.581 460.316 455.201C459.961 454.82 459.288 454.541 458.299 454.363C457.334 454.16 455.901 454.059 453.998 454.059H452.476V449.111L458.946 443.859V443.783H448.67V437.693H467.889V443.783L460.849 449.035V449.111Z" fill="black"></path><path d="M424.927 576.496C428.327 573.934 430.877 571.879 432.577 570.331C434.277 568.758 435.393 567.502 435.926 566.563C436.459 565.624 436.725 564.622 436.725 563.556C436.725 561.653 435.647 560.702 433.49 560.702C431.587 560.702 429.113 561.653 426.069 563.556L424.166 557.467C425.46 556.604 427.096 555.881 429.075 555.298C431.054 554.714 432.906 554.422 434.632 554.422C437.803 554.422 440.239 555.171 441.939 556.668C443.665 558.139 444.527 560.182 444.527 562.795C444.527 564.876 443.867 566.855 442.548 568.732C441.229 570.61 438.653 573.173 434.822 576.42V576.496H444.717V582.586H424.927V576.496ZM468.358 579.617C466.481 581.85 463.613 582.967 459.757 582.967C455.9 582.967 453.033 581.85 451.155 579.617C449.278 577.385 448.339 573.744 448.339 568.694C448.339 563.645 449.278 560.004 451.155 557.771C453.033 555.539 455.9 554.422 459.757 554.422C463.613 554.422 466.481 555.539 468.358 557.771C470.236 560.004 471.175 563.645 471.175 568.694C471.175 573.744 470.236 577.385 468.358 579.617ZM456.978 575.431C457.562 576.649 458.488 577.258 459.757 577.258C461.025 577.258 461.939 576.649 462.497 575.431C463.081 574.188 463.372 571.942 463.372 568.694C463.372 565.447 463.081 563.214 462.497 561.996C461.939 560.753 461.025 560.131 459.757 560.131C458.488 560.131 457.562 560.753 456.978 561.996C456.42 563.214 456.141 565.447 456.141 568.694C456.141 571.942 456.42 574.188 456.978 575.431Z" fill="black"></path><path d="M424.951 694.575C428.351 692.012 430.901 689.957 432.601 688.409C434.301 686.836 435.417 685.58 435.95 684.641C436.483 683.702 436.749 682.7 436.749 681.635C436.749 679.732 435.671 678.78 433.514 678.78C431.611 678.78 429.137 679.732 426.093 681.635L424.19 675.545C425.484 674.682 427.12 673.959 429.099 673.376C431.078 672.792 432.931 672.5 434.656 672.5C437.827 672.5 440.263 673.249 441.963 674.746C443.689 676.217 444.551 678.26 444.551 680.873C444.551 682.954 443.892 684.933 442.572 686.811C441.253 688.688 438.677 691.251 434.846 694.498V694.575H444.742V700.664H424.951V694.575ZM462.635 679.161V678.97H449.695V672.881H469.866V678.97C467.811 682.472 466.035 685.859 464.538 689.132C463.041 692.38 461.519 696.224 459.971 700.664H451.788C454.859 692.799 458.474 685.631 462.635 679.161Z" fill="black"></path><path d="M564.486 325.895V325.705H551.546V319.615H571.717V325.705C569.662 329.206 567.886 332.593 566.389 335.867C564.892 339.114 563.37 342.958 561.822 347.398H553.639C556.709 339.533 560.325 332.365 564.486 325.895Z" fill="black"></path><path d="M548.286 446.447H548.248L542.577 451.775L540.293 445.305L548.286 437.693H556.278V465.477H548.286V446.447ZM569.985 454.554V454.63H575.694V446.447H575.618L569.985 454.554ZM582.925 460.529V465.477H575.694V460.529H563.515V454.63L575.694 437.693H582.925V454.63H586.731V460.529H582.925Z" fill="black"></path><path d="M542.08 576.496C545.48 573.934 548.03 571.879 549.73 570.331C551.43 568.758 552.546 567.502 553.079 566.563C553.612 565.624 553.878 564.622 553.878 563.556C553.878 561.653 552.8 560.702 550.643 560.702C548.74 560.702 546.266 561.653 543.222 563.556L541.319 557.467C542.613 556.604 544.249 555.881 546.228 555.298C548.207 554.714 550.06 554.422 551.785 554.422C554.957 554.422 557.392 555.171 559.092 556.668C560.818 558.139 561.68 560.182 561.68 562.795C561.68 564.876 561.021 566.855 559.701 568.732C558.382 570.61 555.807 573.173 551.975 576.42V576.496H561.871V582.586H542.08V576.496ZM574.626 563.556H574.588L568.918 568.885L566.634 562.415L574.626 554.803H582.619V582.586H574.626V563.556Z" fill="black"></path><path d="M542.959 694.575C546.359 692.012 548.909 689.957 550.609 688.409C552.309 686.836 553.425 685.58 553.958 684.641C554.491 683.702 554.758 682.7 554.758 681.635C554.758 679.732 553.679 678.78 551.523 678.78C549.62 678.78 547.146 679.732 544.101 681.635L542.198 675.545C543.492 674.682 545.129 673.959 547.108 673.376C549.087 672.792 550.939 672.5 552.664 672.5C555.836 672.5 558.272 673.249 559.972 674.746C561.697 676.217 562.56 678.26 562.56 680.873C562.56 682.954 561.9 684.933 560.581 686.811C559.261 688.688 556.686 691.251 552.855 694.498V694.575H562.75V700.664H542.959V694.575ZM586.2 698.875C584.196 700.322 581.392 701.045 577.789 701.045C574.186 701.045 571.383 700.322 569.378 698.875C567.374 697.429 566.372 695.488 566.372 693.052C566.372 691.733 566.752 690.578 567.513 689.589C568.274 688.574 569.594 687.597 571.471 686.658V686.582C568.579 684.781 567.133 682.497 567.133 679.732C567.133 677.651 568.071 675.926 569.949 674.556C571.852 673.185 574.465 672.5 577.789 672.5C581.113 672.5 583.714 673.185 585.591 674.556C587.494 675.926 588.446 677.651 588.446 679.732C588.446 681.99 586.873 683.969 583.726 685.669V685.745C587.38 687.369 589.207 689.805 589.207 693.052C589.207 695.488 588.205 697.429 586.2 698.875ZM578.17 683.842C579.362 683.284 580.162 682.764 580.568 682.282C580.999 681.799 581.215 681.203 581.215 680.493C581.215 679.681 580.897 679.008 580.263 678.476C579.629 677.917 578.804 677.638 577.789 677.638C576.774 677.638 575.95 677.917 575.315 678.476C574.681 679.008 574.364 679.681 574.364 680.493C574.364 681.203 574.618 681.812 575.125 682.32C575.658 682.802 576.673 683.309 578.17 683.842ZM576.914 688.828C575.645 689.487 574.808 690.096 574.402 690.655C573.996 691.213 573.793 691.885 573.793 692.672C573.793 693.56 574.174 694.321 574.935 694.955C575.721 695.59 576.673 695.907 577.789 695.907C578.906 695.907 579.844 695.59 580.606 694.955C581.392 694.321 581.785 693.56 581.785 692.672C581.785 691.834 581.506 691.175 580.948 690.693C580.39 690.185 579.045 689.563 576.914 688.828Z" fill="black"></path><path d="M659.185 577.469C662.585 574.906 665.135 572.851 666.835 571.304C668.535 569.73 669.651 568.474 670.184 567.536C670.717 566.597 670.983 565.595 670.983 564.529C670.983 562.626 669.905 561.675 667.748 561.675C665.845 561.675 663.371 562.626 660.327 564.529L658.424 558.44C659.718 557.577 661.354 556.854 663.333 556.27C665.312 555.687 667.165 555.395 668.89 555.395C672.061 555.395 674.497 556.143 676.197 557.64C677.923 559.112 678.785 561.154 678.785 563.768C678.785 565.848 678.126 567.827 676.806 569.705C675.487 571.583 672.911 574.145 669.08 577.393V577.469H678.976V583.559H659.185V577.469ZM684.31 577.469C687.71 574.906 690.26 572.851 691.96 571.304C693.66 569.73 694.776 568.474 695.309 567.536C695.842 566.597 696.108 565.595 696.108 564.529C696.108 562.626 695.03 561.675 692.873 561.675C690.97 561.675 688.496 562.626 685.452 564.529L683.549 558.44C684.843 557.577 686.479 556.854 688.458 556.27C690.437 555.687 692.289 555.395 694.015 555.395C697.186 555.395 699.622 556.143 701.322 557.64C703.048 559.112 703.91 561.154 703.91 563.768C703.91 565.848 703.251 567.827 701.931 569.705C700.612 571.583 698.036 574.145 694.205 577.393V577.469H704.1V583.559H684.31V577.469Z" fill="#CC2936"></path><path d="M687.075 345.61C685.071 347.056 682.267 347.779 678.664 347.779C675.061 347.779 672.258 347.056 670.253 345.61C668.249 344.163 667.247 342.222 667.247 339.787C667.247 338.467 667.627 337.313 668.388 336.323C669.149 335.308 670.469 334.331 672.346 333.393V333.317C669.454 331.515 668.008 329.232 668.008 326.466C668.008 324.385 668.947 322.66 670.824 321.29C672.727 319.92 675.34 319.235 678.664 319.235C681.988 319.235 684.589 319.92 686.466 321.29C688.369 322.66 689.321 324.385 689.321 326.466C689.321 328.724 687.748 330.703 684.601 332.403V332.479C688.255 334.103 690.082 336.539 690.082 339.787C690.082 342.222 689.08 344.163 687.075 345.61ZM679.045 330.576C680.237 330.018 681.037 329.498 681.443 329.016C681.874 328.534 682.09 327.938 682.09 327.227C682.09 326.415 681.772 325.743 681.138 325.21C680.504 324.652 679.679 324.373 678.664 324.373C677.649 324.373 676.825 324.652 676.19 325.21C675.556 325.743 675.239 326.415 675.239 327.227C675.239 327.938 675.493 328.546 676 329.054C676.533 329.536 677.548 330.043 679.045 330.576ZM677.789 335.562C676.52 336.222 675.683 336.831 675.277 337.389C674.871 337.947 674.668 338.619 674.668 339.406C674.668 340.294 675.049 341.055 675.81 341.69C676.596 342.324 677.548 342.641 678.664 342.641C679.781 342.641 680.719 342.324 681.481 341.69C682.267 341.055 682.66 340.294 682.66 339.406C682.66 338.569 682.381 337.909 681.823 337.427C681.265 336.919 679.92 336.298 677.789 335.562Z" fill="#CC2936"></path><path d="M664.391 446.447H664.352L658.682 451.775L656.398 445.305L664.391 437.693H672.383V465.477H664.391V446.447ZM689.706 447.779H689.782C690.873 447.398 691.926 447.208 692.941 447.208C695.884 447.208 698.142 447.969 699.715 449.492C701.288 450.989 702.075 453.145 702.075 455.962C702.075 462.559 698.015 465.857 689.896 465.857C686.978 465.857 684.187 465.35 681.523 464.335L683.045 458.321C685.633 459.336 687.79 459.844 689.515 459.844C692.941 459.844 694.653 458.55 694.653 455.962C694.653 453.932 693.575 452.917 691.418 452.917C690.606 452.917 689.718 453.361 688.754 454.249H682.284L683.045 437.693H700.743V443.783H689.896L689.706 447.779Z" fill="#CC2936"></path><path d="M776.266 576.496C779.666 573.934 782.216 571.879 783.915 570.331C785.615 568.758 786.732 567.502 787.265 566.563C787.798 565.624 788.064 564.622 788.064 563.556C788.064 561.653 786.986 560.702 784.829 560.702C782.926 560.702 780.452 561.653 777.407 563.556L775.504 557.467C776.798 556.604 778.435 555.881 780.414 555.298C782.393 554.714 784.245 554.422 785.971 554.422C789.142 554.422 791.578 555.171 793.278 556.668C795.003 558.139 795.866 560.182 795.866 562.795C795.866 564.876 795.206 566.855 793.887 568.732C792.568 570.61 789.992 573.173 786.161 576.42V576.496H796.056V582.586H776.266V576.496ZM813.379 566.221H813.76C815.84 566.221 817.528 566.918 818.822 568.314C820.141 569.684 820.801 571.523 820.801 573.832C820.801 576.801 819.887 579.072 818.06 580.645C816.234 582.193 813.595 582.967 810.144 582.967C806.744 582.967 803.573 582.205 800.629 580.683L802.494 574.974C805.158 576.293 807.455 576.953 809.383 576.953C810.677 576.953 811.667 576.699 812.352 576.192C813.037 575.659 813.379 574.936 813.379 574.023C813.379 573.261 813.202 572.691 812.846 572.31C812.491 571.929 811.819 571.65 810.829 571.473C809.865 571.27 808.432 571.168 806.529 571.168H805.006V566.221L811.476 560.968V560.892H801.2V554.803H820.42V560.892L813.379 566.144V566.221Z" fill="#CC2936"></path><path d="M659.185 694.809C662.585 692.246 665.135 690.191 666.835 688.643C668.535 687.07 669.651 685.814 670.184 684.876C670.717 683.937 670.983 682.935 670.983 681.869C670.983 679.966 669.905 679.014 667.748 679.014C665.845 679.014 663.371 679.966 660.327 681.869L658.424 675.779C659.718 674.917 661.354 674.194 663.333 673.61C665.312 673.026 667.165 672.735 668.89 672.735C672.061 672.735 674.497 673.483 676.197 674.98C677.923 676.452 678.785 678.494 678.785 681.108C678.785 683.188 678.126 685.167 676.806 687.045C675.487 688.923 672.911 691.485 669.08 694.733V694.809H678.976V700.898H659.185V694.809ZM690.209 682.44C690.209 683.81 690.539 684.888 691.198 685.675C691.884 686.436 692.822 686.817 694.015 686.817C695.207 686.817 696.133 686.436 696.793 685.675C697.478 684.888 697.821 683.81 697.821 682.44C697.821 681.044 697.478 679.966 696.793 679.205C696.108 678.444 695.182 678.063 694.015 678.063C692.848 678.063 691.922 678.444 691.237 679.205C690.551 679.966 690.209 681.044 690.209 682.44ZM694.015 672.735C697.44 672.735 700.13 673.686 702.083 675.589C704.062 677.492 705.052 680.156 705.052 683.582C705.052 689.087 703.542 693.413 700.523 696.56C697.529 699.706 693.457 701.279 688.306 701.279L686.974 695.19C689.714 695.19 691.884 694.822 693.482 694.086C695.106 693.35 696.311 692.208 697.098 690.661L697.021 690.584C695.448 691.371 693.812 691.764 692.112 691.764C686.022 691.764 682.978 688.656 682.978 682.44C682.978 679.598 683.993 677.276 686.022 675.475C688.078 673.648 690.742 672.735 694.015 672.735Z" fill="#CC2936"></path><path d="M792.011 328.94C792.011 330.31 792.341 331.388 793.001 332.175C793.686 332.936 794.625 333.317 795.817 333.317C797.01 333.317 797.936 332.936 798.596 332.175C799.281 331.388 799.623 330.31 799.623 328.94C799.623 327.544 799.281 326.466 798.596 325.705C797.911 324.944 796.984 324.563 795.817 324.563C794.65 324.563 793.724 324.944 793.039 325.705C792.354 326.466 792.011 327.544 792.011 328.94ZM795.817 319.235C799.243 319.235 801.932 320.186 803.886 322.089C805.865 323.992 806.854 326.656 806.854 330.082C806.854 335.587 805.345 339.913 802.325 343.06C799.331 346.206 795.259 347.779 790.108 347.779L788.776 341.69C791.517 341.69 793.686 341.322 795.285 340.586C796.908 339.85 798.114 338.708 798.9 337.161L798.824 337.084C797.251 337.871 795.614 338.264 793.914 338.264C787.825 338.264 784.78 335.156 784.78 328.94C784.78 326.098 785.795 323.776 787.825 321.975C789.88 320.148 792.544 319.235 795.817 319.235Z" fill="#CC2936"></path><path d="M782.471 446.447H782.433L776.762 451.775L774.479 445.305L782.471 437.693H790.464V465.477H782.471V446.447ZM813.686 455.962C813.686 454.668 813.343 453.653 812.658 452.917C811.973 452.156 811.047 451.775 809.88 451.775C808.713 451.775 807.787 452.156 807.102 452.917C806.416 453.653 806.074 454.668 806.074 455.962C806.074 457.433 806.404 458.562 807.063 459.349C807.749 460.136 808.687 460.529 809.88 460.529C811.072 460.529 811.998 460.136 812.658 459.349C813.343 458.562 813.686 457.433 813.686 455.962ZM809.88 465.857C806.48 465.857 803.79 464.906 801.811 463.003C799.832 461.074 798.843 458.347 798.843 454.82C798.843 449.416 800.314 445.153 803.258 442.032C806.201 438.886 810.184 437.313 815.208 437.313L816.54 443.402C813.927 443.402 811.846 443.783 810.298 444.544C808.751 445.28 807.584 446.409 806.797 447.931L806.873 448.007C808.446 447.221 810.083 446.828 811.783 446.828C817.872 446.828 820.917 449.872 820.917 455.962C820.917 458.93 819.889 461.328 817.834 463.155C815.779 464.956 813.128 465.857 809.88 465.857Z" fill="#CC2936"></path><path d="M788.254 683.56H788.635C790.715 683.56 792.403 684.258 793.697 685.654C795.016 687.024 795.676 688.863 795.676 691.172C795.676 694.141 794.762 696.412 792.935 697.985C791.109 699.533 788.47 700.306 785.019 700.306C781.619 700.306 778.448 699.545 775.504 698.023L777.369 692.314C780.033 693.633 782.33 694.293 784.258 694.293C785.552 694.293 786.542 694.039 787.227 693.532C787.912 692.999 788.254 692.276 788.254 691.362C788.254 690.601 788.077 690.03 787.721 689.65C787.366 689.269 786.694 688.99 785.704 688.813C784.74 688.61 783.307 688.508 781.404 688.508H779.881V683.56L786.351 678.308V678.232H776.075V672.143H795.295V678.232L788.254 683.484V683.56ZM819.697 696.957C817.819 699.19 814.952 700.306 811.096 700.306C807.239 700.306 804.372 699.19 802.494 696.957C800.617 694.724 799.678 691.083 799.678 686.034C799.678 680.985 800.617 677.344 802.494 675.111C804.372 672.878 807.239 671.762 811.096 671.762C814.952 671.762 817.819 672.878 819.697 675.111C821.575 677.344 822.513 680.985 822.513 686.034C822.513 691.083 821.575 694.724 819.697 696.957ZM808.317 692.771C808.901 693.989 809.827 694.598 811.096 694.598C812.364 694.598 813.278 693.989 813.836 692.771C814.419 691.527 814.711 689.282 814.711 686.034C814.711 682.786 814.419 680.554 813.836 679.336C813.278 678.093 812.364 677.471 811.096 677.471C809.827 677.471 808.901 678.093 808.317 679.336C807.759 680.554 807.48 682.786 807.48 686.034C807.48 689.282 807.759 691.527 808.317 692.771Z" fill="#CC2936"></path><path d="M238.02 133.114C236.234 136.657 233.95 139.804 231.169 142.556C228.417 145.308 225.387 147.416 222.079 148.88L217.468 142.512C223.001 139.672 227.056 136.276 229.632 132.324C232.208 128.372 233.496 123.497 233.496 117.701V108.479H241.84V117.701C241.84 123.497 243.128 128.372 245.705 132.324C248.281 136.276 252.336 139.672 257.869 142.512L253.258 148.88C250.096 147.387 247.183 145.264 244.519 142.512C241.884 139.76 239.718 136.628 238.02 133.114ZM251.721 131.534L244.782 128.46C247.154 123.98 248.998 119.223 250.316 114.187L257.869 116.164C256.376 121.843 254.327 126.966 251.721 131.534ZM217.468 129.557C219.751 125.166 221.581 120.335 222.957 115.066L230.291 117.042C228.798 122.809 226.748 128.006 224.143 132.631L217.468 129.557Z" fill="black"></path><path d="M351.48 148.88C349.811 148.88 347.469 148.807 344.453 148.66L344.014 141.853C347.381 142 349.357 142.073 349.943 142.073C350.704 142.073 351.143 142.014 351.26 141.897C351.406 141.751 351.48 141.297 351.48 140.536V108.479H359.604V115.505C360.365 117.788 361.346 120.101 362.546 122.443C364.947 120.218 367.406 117.393 369.924 113.968L375.852 118.579C373.129 122.648 370.041 126.161 366.586 129.118C369.543 133.275 372.778 136.789 376.291 139.658L371.022 145.806C366.689 142.175 362.883 137.564 359.604 131.973V140.097C359.604 141.59 359.574 142.761 359.516 143.61C359.487 144.459 359.355 145.249 359.121 145.981C358.887 146.713 358.623 147.24 358.33 147.562C358.037 147.884 357.54 148.162 356.837 148.397C356.164 148.631 355.447 148.763 354.685 148.792C353.924 148.85 352.856 148.88 351.48 148.88ZM335.012 123.629V116.822H349.723V123.629C349.196 127.815 347.849 131.841 345.683 135.705C343.546 139.57 340.867 142.79 337.647 145.367L333.255 138.56C335.48 136.745 337.427 134.49 339.096 131.797C340.794 129.074 341.95 126.352 342.565 123.629H335.012Z" fill="black"></path><path d="M475.918 108.039V115.066H491.2V121.872H477.367C481.29 127.874 486.633 133.51 493.396 138.779L488.566 145.147C483.647 141.048 479.431 136.54 475.918 131.621V148.88H467.838V131.621C464.325 136.54 460.109 141.048 455.191 145.147L450.36 138.779C457.123 133.51 462.466 127.874 466.389 121.872H452.556V115.066H467.838V108.039H475.918Z" fill="black"></path><path d="M579.629 141.853H584.811V133.51H580.244C581.532 135.647 582.689 137.769 583.713 139.877L579.629 141.853ZM597.503 133.51H593.155V141.853H598.337L594.253 139.438C595.541 137.36 596.624 135.383 597.503 133.51ZM600.181 121.126V124.068H593.155V127.362H606.768V133.51H600.269L604.353 135.486C603.416 137.535 602.26 139.658 600.884 141.853H608.525V148.221H569.441V141.853H576.819C575.706 139.687 574.565 137.711 573.394 135.925L577.609 133.51H571.198V127.362H584.811V124.068H577.785V121.126C575.384 122.414 572.823 123.614 570.1 124.727L567.246 118.579C573.569 115.71 579.059 112.416 583.713 108.698H594.253C598.908 112.416 604.397 115.71 610.721 118.579L607.866 124.727C605.144 123.614 602.582 122.414 600.181 121.126ZM594.78 117.92C592.877 116.661 590.945 115.271 588.983 113.748C587.022 115.271 585.089 116.661 583.186 117.92H594.78Z" fill="black"></path><path d="M710.26 140.536H726.289V147.562H685.888V140.536H701.916V126.044H688.962V119.238H701.916V109.137H710.26V119.238H723.215V126.044H710.26V140.536Z" fill="#CC2936"></path><path d="M814.19 139.658H832.195V130.875H814.19V139.658ZM814.19 146.245V148.441H806.066V109.357H840.319V148.441H832.195V146.245H814.19ZM832.195 124.288V116.164H814.19V124.288H832.195Z" fill="#CC2936"></path><path d="M213.676 391.12L212.817 387.685C213.962 387.499 214.764 387.227 215.222 386.869C215.694 386.511 215.93 385.996 215.93 385.323C215.93 384.794 215.637 384.343 215.05 383.971C214.478 383.584 213.733 383.391 212.817 383.391H212.173V386.826C212.173 388.415 211.887 389.489 211.314 390.047C210.742 390.619 209.668 390.905 208.094 390.905C206.505 390.905 205.174 390.44 204.101 389.51C203.042 388.58 202.512 387.399 202.512 385.968C202.512 384.694 203.013 383.549 204.015 382.532C205.031 381.502 206.462 380.743 208.309 380.257V378.024H203.585V374.804H208.309V372.442H212.173V374.804H216.252V378.024H212.173V379.741H212.817C214.907 379.741 216.61 380.264 217.927 381.309C219.244 382.339 219.902 383.606 219.902 385.109C219.902 388.601 217.827 390.605 213.676 391.12ZM222.478 379.205L219.687 380.665C218.771 379.033 217.762 377.337 216.66 375.576L219.322 373.945C220.625 376.006 221.677 377.759 222.478 379.205ZM208.309 383.992C207.021 384.45 206.376 385.109 206.376 385.968C206.376 386.311 206.512 386.633 206.784 386.934C207.056 387.22 207.35 387.363 207.665 387.363C207.937 387.363 208.108 387.313 208.18 387.213C208.266 387.113 208.309 386.876 208.309 386.504V383.992ZM232.225 379.205H229.241V376.221C229.012 376.965 228.833 377.509 228.705 377.852V385.238C230.15 383.305 231.324 381.294 232.225 379.205ZM243.518 375.877V379.205H240.105C241.049 381.438 242.366 383.62 244.055 385.753L241.908 389.617C240.362 387.356 239.096 384.98 238.108 382.49V391.979H234.244V382.49C233.27 384.923 231.996 387.299 230.422 389.617L228.705 387.771V391.979H224.947V383.52C224.475 384.264 224.046 384.83 223.659 385.216L222.8 380.493C224.475 378.375 225.656 375.584 226.343 372.12L229.993 372.764C229.821 373.895 229.606 374.932 229.349 375.877H234.244V372.227H238.108V375.877H243.518ZM246.846 376.95V373.515H256.507V376.95C256.407 377.895 256.3 378.775 256.185 379.591C256.801 379.634 257.438 379.72 258.096 379.849C258.11 378.99 258.117 377.451 258.117 375.233H261.982C261.982 377.638 261.953 379.548 261.896 380.965C263.041 381.438 264.071 381.96 264.988 382.532L263.377 385.86C262.79 385.474 262.189 385.13 261.574 384.83C261.431 385.76 261.238 386.547 260.994 387.191C260.765 387.835 260.429 388.415 259.985 388.93C259.556 389.446 259.098 389.882 258.611 390.24C258.125 390.612 257.459 391.049 256.615 391.55L254.682 388.329C255.326 387.957 255.792 387.664 256.078 387.449C256.378 387.234 256.679 386.948 256.979 386.59C257.294 386.218 257.516 385.796 257.645 385.323C257.774 384.851 257.874 384.236 257.946 383.477C257.273 383.305 256.5 383.184 255.627 383.112C255.326 384.758 255.004 386.104 254.661 387.148C254.332 388.193 253.945 388.988 253.501 389.531C253.072 390.075 252.628 390.44 252.17 390.626C251.727 390.812 251.168 390.905 250.496 390.905C249.179 390.905 247.97 390.34 246.867 389.209C245.78 388.064 245.236 386.769 245.236 385.323C245.236 383.907 245.83 382.69 247.018 381.674C248.206 380.658 249.88 379.999 252.042 379.699C252.127 378.911 252.213 377.995 252.299 376.95H246.846ZM251.548 383.348C249.916 383.706 249.1 384.365 249.1 385.323C249.1 385.653 249.215 385.989 249.444 386.333C249.673 386.662 249.88 386.826 250.066 386.826C250.639 386.826 251.133 385.667 251.548 383.348Z" fill="#CC2936"></path><path d="M97.676 509.198L96.8173 505.763C97.9623 505.577 98.7638 505.305 99.2218 504.947C99.6941 504.59 99.9303 504.074 99.9303 503.402C99.9303 502.872 99.6369 502.421 99.0501 502.049C98.4776 501.663 97.7333 501.469 96.8173 501.469H96.1732V504.904C96.1732 506.493 95.8869 507.567 95.3144 508.125C94.7419 508.697 93.6684 508.984 92.094 508.984C90.5053 508.984 89.1742 508.518 88.1008 507.588C87.0416 506.658 86.512 505.477 86.512 504.046C86.512 502.772 87.013 501.627 88.0149 500.611C89.0311 499.58 90.4624 498.822 92.3087 498.335V496.102H87.5855V492.882H92.3087V490.52H96.1732V492.882H100.252V496.102H96.1732V497.82H96.8173C98.9069 497.82 100.61 498.342 101.927 499.387C103.244 500.417 103.902 501.684 103.902 503.187C103.902 506.679 101.827 508.683 97.676 509.198ZM106.478 497.283L103.687 498.743C102.771 497.111 101.762 495.415 100.66 493.655L103.322 492.023C104.625 494.084 105.677 495.837 106.478 497.283ZM92.3087 502.071C91.0206 502.529 90.3765 503.187 90.3765 504.046C90.3765 504.389 90.5125 504.711 90.7844 505.012C91.0564 505.298 91.3498 505.441 91.6646 505.441C91.9366 505.441 92.1083 505.391 92.1799 505.291C92.2658 505.191 92.3087 504.955 92.3087 504.582V502.071ZM116.225 497.283H113.241V494.299C113.012 495.043 112.833 495.587 112.705 495.93V503.316C114.15 501.384 115.324 499.373 116.225 497.283ZM127.518 493.955V497.283H124.105C125.049 499.516 126.366 501.698 128.055 503.831L125.908 507.695C124.362 505.434 123.096 503.058 122.108 500.568V510.057H118.244V500.568C117.27 503.001 115.996 505.377 114.422 507.695L112.705 505.849V510.057H108.947V501.598C108.475 502.342 108.046 502.908 107.659 503.294L106.8 498.571C108.475 496.453 109.656 493.662 110.343 490.198L113.993 490.842C113.821 491.973 113.606 493.011 113.349 493.955H118.244V490.305H122.108V493.955H127.518ZM130.846 495.029V491.594H140.507V495.029C140.407 495.973 140.3 496.853 140.185 497.669C140.801 497.712 141.438 497.798 142.096 497.927C142.11 497.068 142.117 495.53 142.117 493.311H145.982C145.982 495.716 145.953 497.626 145.896 499.043C147.041 499.516 148.071 500.038 148.988 500.611L147.377 503.938C146.79 503.552 146.189 503.208 145.574 502.908C145.431 503.838 145.238 504.625 144.994 505.269C144.765 505.914 144.429 506.493 143.985 507.008C143.556 507.524 143.098 507.96 142.611 508.318C142.125 508.69 141.459 509.127 140.615 509.628L138.682 506.407C139.326 506.035 139.792 505.742 140.078 505.527C140.378 505.312 140.679 505.026 140.979 504.668C141.294 504.296 141.516 503.874 141.645 503.402C141.774 502.929 141.874 502.314 141.946 501.555C141.273 501.384 140.5 501.262 139.627 501.19C139.326 502.836 139.004 504.182 138.661 505.227C138.332 506.271 137.945 507.066 137.501 507.61C137.072 508.153 136.628 508.518 136.17 508.705C135.727 508.891 135.168 508.984 134.496 508.984C133.179 508.984 131.97 508.418 130.867 507.288C129.78 506.143 129.236 504.847 129.236 503.402C129.236 501.985 129.83 500.768 131.018 499.752C132.206 498.736 133.88 498.077 136.042 497.777C136.127 496.989 136.213 496.073 136.299 495.029H130.846ZM135.548 501.426C133.916 501.784 133.1 502.443 133.1 503.402C133.1 503.731 133.215 504.067 133.444 504.411C133.673 504.74 133.88 504.904 134.066 504.904C134.639 504.904 135.133 503.745 135.548 501.426Z" fill="#CC2936"></path><path d="M100.676 626.304L99.8173 622.869C100.962 622.683 101.764 622.411 102.222 622.053C102.694 621.695 102.93 621.18 102.93 620.507C102.93 619.978 102.637 619.527 102.05 619.155C101.478 618.768 100.733 618.575 99.8173 618.575H99.1732V622.01C99.1732 623.599 98.8869 624.672 98.3144 625.23C97.7419 625.803 96.6684 626.089 95.094 626.089C93.5053 626.089 92.1742 625.624 91.1008 624.694C90.0416 623.763 89.512 622.582 89.512 621.151C89.512 619.877 90.013 618.732 91.0149 617.716C92.0311 616.686 93.4624 615.927 95.3087 615.44V613.208H90.5855V609.987H95.3087V607.626H99.1732V609.987H103.252V613.208H99.1732V614.925H99.8173C101.907 614.925 103.61 615.447 104.927 616.492C106.244 617.523 106.902 618.79 106.902 620.292C106.902 623.785 104.827 625.789 100.676 626.304ZM109.478 614.388L106.687 615.848C105.771 614.217 104.762 612.521 103.66 610.76L106.322 609.128C107.625 611.189 108.677 612.943 109.478 614.388ZM95.3087 619.176C94.0206 619.634 93.3765 620.292 93.3765 621.151C93.3765 621.495 93.5125 621.817 93.7844 622.117C94.0564 622.404 94.3498 622.547 94.6646 622.547C94.9366 622.547 95.1083 622.497 95.1799 622.396C95.2658 622.296 95.3087 622.06 95.3087 621.688V619.176ZM119.225 614.388H116.241V611.404C116.012 612.148 115.833 612.692 115.705 613.036V620.421C117.15 618.489 118.324 616.478 119.225 614.388ZM130.518 611.061V614.388H127.105C128.049 616.621 129.366 618.804 131.055 620.936L128.908 624.801C127.362 622.54 126.096 620.164 125.108 617.673V627.163H121.244V617.673C120.27 620.106 118.996 622.482 117.422 624.801L115.705 622.955V627.163H111.947V618.704C111.475 619.448 111.046 620.013 110.659 620.4L109.8 615.677C111.475 613.558 112.656 610.767 113.343 607.304L116.993 607.948C116.821 609.078 116.606 610.116 116.349 611.061H121.244V607.411H125.108V611.061H130.518ZM133.846 612.134V608.699H143.507V612.134C143.407 613.079 143.3 613.959 143.185 614.775C143.801 614.818 144.438 614.904 145.096 615.032C145.11 614.174 145.117 612.635 145.117 610.417H148.982C148.982 612.821 148.953 614.732 148.896 616.149C150.041 616.621 151.071 617.144 151.988 617.716L150.377 621.044C149.79 620.657 149.189 620.314 148.574 620.013C148.431 620.944 148.238 621.731 147.994 622.375C147.765 623.019 147.429 623.599 146.985 624.114C146.556 624.629 146.098 625.066 145.611 625.424C145.125 625.796 144.459 626.232 143.615 626.733L141.682 623.513C142.326 623.141 142.792 622.847 143.078 622.633C143.378 622.418 143.679 622.132 143.979 621.774C144.294 621.402 144.516 620.979 144.645 620.507C144.774 620.035 144.874 619.419 144.946 618.661C144.273 618.489 143.5 618.367 142.627 618.296C142.326 619.942 142.004 621.287 141.661 622.332C141.332 623.377 140.945 624.171 140.501 624.715C140.072 625.259 139.628 625.624 139.17 625.81C138.727 625.996 138.168 626.089 137.496 626.089C136.179 626.089 134.97 625.524 133.867 624.393C132.78 623.248 132.236 621.953 132.236 620.507C132.236 619.09 132.83 617.874 134.018 616.857C135.206 615.841 136.88 615.183 139.042 614.882C139.127 614.095 139.213 613.179 139.299 612.134H133.846ZM138.548 618.532C136.916 618.89 136.1 619.548 136.1 620.507C136.1 620.836 136.215 621.173 136.444 621.516C136.673 621.845 136.88 622.01 137.066 622.01C137.639 622.01 138.133 620.851 138.548 618.532Z" fill="#CC2936"></path><path d="M217.676 626.304L216.817 622.869C217.962 622.683 218.764 622.411 219.222 622.053C219.694 621.695 219.93 621.18 219.93 620.507C219.93 619.978 219.637 619.527 219.05 619.155C218.478 618.768 217.733 618.575 216.817 618.575H216.173V622.01C216.173 623.599 215.887 624.672 215.314 625.23C214.742 625.803 213.668 626.089 212.094 626.089C210.505 626.089 209.174 625.624 208.101 624.694C207.042 623.763 206.512 622.582 206.512 621.151C206.512 619.877 207.013 618.732 208.015 617.716C209.031 616.686 210.462 615.927 212.309 615.44V613.208H207.585V609.987H212.309V607.626H216.173V609.987H220.252V613.208H216.173V614.925H216.817C218.907 614.925 220.61 615.447 221.927 616.492C223.244 617.523 223.902 618.79 223.902 620.292C223.902 623.785 221.827 625.789 217.676 626.304ZM226.478 614.388L223.687 615.848C222.771 614.217 221.762 612.521 220.66 610.76L223.322 609.128C224.625 611.189 225.677 612.943 226.478 614.388ZM212.309 619.176C211.021 619.634 210.376 620.292 210.376 621.151C210.376 621.495 210.512 621.817 210.784 622.117C211.056 622.404 211.35 622.547 211.665 622.547C211.937 622.547 212.108 622.497 212.18 622.396C212.266 622.296 212.309 622.06 212.309 621.688V619.176ZM236.225 614.388H233.241V611.404C233.012 612.148 232.833 612.692 232.705 613.036V620.421C234.15 618.489 235.324 616.478 236.225 614.388ZM247.518 611.061V614.388H244.105C245.049 616.621 246.366 618.804 248.055 620.936L245.908 624.801C244.362 622.54 243.096 620.164 242.108 617.673V627.163H238.244V617.673C237.27 620.106 235.996 622.482 234.422 624.801L232.705 622.955V627.163H228.947V618.704C228.475 619.448 228.046 620.013 227.659 620.4L226.8 615.677C228.475 613.558 229.656 610.767 230.343 607.304L233.993 607.948C233.821 609.078 233.606 610.116 233.349 611.061H238.244V607.411H242.108V611.061H247.518ZM250.846 612.134V608.699H260.507V612.134C260.407 613.079 260.3 613.959 260.185 614.775C260.801 614.818 261.438 614.904 262.096 615.032C262.11 614.174 262.117 612.635 262.117 610.417H265.982C265.982 612.821 265.953 614.732 265.896 616.149C267.041 616.621 268.071 617.144 268.988 617.716L267.377 621.044C266.79 620.657 266.189 620.314 265.574 620.013C265.431 620.944 265.238 621.731 264.994 622.375C264.765 623.019 264.429 623.599 263.985 624.114C263.556 624.629 263.098 625.066 262.611 625.424C262.125 625.796 261.459 626.232 260.615 626.733L258.682 623.513C259.326 623.141 259.792 622.847 260.078 622.633C260.378 622.418 260.679 622.132 260.979 621.774C261.294 621.402 261.516 620.979 261.645 620.507C261.774 620.035 261.874 619.419 261.946 618.661C261.273 618.489 260.5 618.367 259.627 618.296C259.326 619.942 259.004 621.287 258.661 622.332C258.332 623.377 257.945 624.171 257.501 624.715C257.072 625.259 256.628 625.624 256.17 625.81C255.727 625.996 255.168 626.089 254.496 626.089C253.179 626.089 251.97 625.524 250.867 624.393C249.78 623.248 249.236 621.953 249.236 620.507C249.236 619.09 249.83 617.874 251.018 616.857C252.206 615.841 253.88 615.183 256.042 614.882C256.127 614.095 256.213 613.179 256.299 612.134H250.846ZM255.548 618.532C253.916 618.89 253.1 619.548 253.1 620.507C253.1 620.836 253.215 621.173 253.444 621.516C253.673 621.845 253.88 622.01 254.066 622.01C254.639 622.01 255.133 620.851 255.548 618.532Z" fill="#CC2936"></path><path d="M217.676 743.644L216.817 740.209C217.962 740.022 218.764 739.751 219.222 739.393C219.694 739.035 219.93 738.52 219.93 737.847C219.93 737.317 219.637 736.866 219.05 736.494C218.478 736.108 217.733 735.915 216.817 735.915H216.173V739.35C216.173 740.938 215.887 742.012 215.314 742.57C214.742 743.143 213.668 743.429 212.094 743.429C210.505 743.429 209.174 742.964 208.101 742.033C207.042 741.103 206.512 739.922 206.512 738.491C206.512 737.217 207.013 736.072 208.015 735.056C209.031 734.025 210.462 733.267 212.309 732.78V730.547H207.585V727.327H212.309V724.965H216.173V727.327H220.252V730.547H216.173V732.265H216.817C218.907 732.265 220.61 732.787 221.927 733.832C223.244 734.863 223.902 736.129 223.902 737.632C223.902 741.125 221.827 743.128 217.676 743.644ZM226.478 731.728L223.687 733.188C222.771 731.556 221.762 729.86 220.66 728.1L223.322 726.468C224.625 728.529 225.677 730.283 226.478 731.728ZM212.309 736.516C211.021 736.974 210.376 737.632 210.376 738.491C210.376 738.835 210.512 739.157 210.784 739.457C211.056 739.743 211.35 739.887 211.665 739.887C211.937 739.887 212.108 739.836 212.18 739.736C212.266 739.636 212.309 739.4 212.309 739.028V736.516ZM236.225 731.728H233.241V728.744C233.012 729.488 232.833 730.032 232.705 730.376V737.761C234.15 735.829 235.324 733.818 236.225 731.728ZM247.518 728.4V731.728H244.105C245.049 733.961 246.366 736.144 248.055 738.276L245.908 742.141C244.362 739.879 243.096 737.503 242.108 735.013V744.502H238.244V735.013C237.27 737.446 235.996 739.822 234.422 742.141L232.705 740.294V744.502H228.947V736.044C228.475 736.788 228.046 737.353 227.659 737.74L226.8 733.016C228.475 730.898 229.656 728.107 230.343 724.643L233.993 725.287C233.821 726.418 233.606 727.456 233.349 728.4H238.244V724.751H242.108V728.4H247.518ZM250.846 729.474V726.039H260.507V729.474C260.407 730.419 260.3 731.299 260.185 732.115C260.801 732.158 261.438 732.243 262.096 732.372C262.11 731.514 262.117 729.975 262.117 727.756H265.982C265.982 730.161 265.953 732.072 265.896 733.489C267.041 733.961 268.071 734.483 268.988 735.056L267.377 738.384C266.79 737.997 266.189 737.654 265.574 737.353C265.431 738.283 265.238 739.071 264.994 739.715C264.765 740.359 264.429 740.938 263.985 741.454C263.556 741.969 263.098 742.406 262.611 742.763C262.125 743.136 261.459 743.572 260.615 744.073L258.682 740.853C259.326 740.48 259.792 740.187 260.078 739.972C260.378 739.758 260.679 739.471 260.979 739.114C261.294 738.741 261.516 738.319 261.645 737.847C261.774 737.375 261.874 736.759 261.946 736.001C261.273 735.829 260.5 735.707 259.627 735.636C259.326 737.282 259.004 738.627 258.661 739.672C258.332 740.717 257.945 741.511 257.501 742.055C257.072 742.599 256.628 742.964 256.17 743.15C255.727 743.336 255.168 743.429 254.496 743.429C253.179 743.429 251.97 742.864 250.867 741.733C249.78 740.588 249.236 739.293 249.236 737.847C249.236 736.43 249.83 735.213 251.018 734.197C252.206 733.181 253.88 732.523 256.042 732.222C256.127 731.435 256.213 730.519 256.299 729.474H250.846ZM255.548 735.872C253.916 736.23 253.1 736.888 253.1 737.847C253.1 738.176 253.215 738.512 253.444 738.856C253.673 739.185 253.88 739.35 254.066 739.35C254.639 739.35 255.133 738.19 255.548 735.872Z" fill="#CC2936"></path></svg> 