<?xml version="1.0" encoding="UTF-8"?> <svg xmlns="http://www.w3.org/2000/svg" width="41" height="40" viewBox="0 0 41 40" fill="none"><path d="M35.8576 40H5.1833C2.60748 40 0.519531 37.9122 0.519531 35.3365V4.66355C0.519531 2.08785 2.60748 0 5.1833 0H35.8572C38.433 0 40.5209 2.08785 40.5209 4.66355V35.336C40.5214 37.9122 38.4334 40 35.8576 40Z" fill="white"></path><g clip-path="url(#clip0_1318_2156)"><path d="M27.753 18.9957C27.6335 18.9386 27.5128 18.884 27.391 18.8319C27.1779 14.9208 25.0325 12.6817 21.4301 12.6588C19.3517 12.6451 17.4912 13.4893 16.3316 15.242L18.3127 16.5958C19.1367 15.3505 20.4298 15.0851 21.3822 15.0851C21.3932 15.0851 21.4042 15.0851 21.4151 15.0852C22.6013 15.0927 23.4963 15.4363 24.0756 16.1061C24.4972 16.5939 24.7792 17.2679 24.9188 18.1185C23.8671 17.9405 22.7298 17.8857 21.514 17.9552C18.089 18.1517 15.8872 20.1415 16.035 22.9064C16.1101 24.3089 16.8115 25.5155 18.01 26.3037C19.0233 26.9699 20.3284 27.2957 21.6847 27.222C23.4759 27.1242 24.8811 26.4434 25.8614 25.1986C26.606 24.2533 27.0768 23.0283 27.2848 21.4847C28.1384 21.9979 28.7711 22.6732 29.1204 23.485C29.7145 24.865 29.7492 27.1328 27.8917 28.9816C26.2642 30.6012 24.3079 31.3019 21.3513 31.3235C18.0717 31.2993 15.5913 30.2516 13.9787 28.2094C12.4686 26.2972 11.6881 23.5351 11.659 20C11.6881 16.4648 12.4686 13.7027 13.9787 11.7905C15.5913 9.74833 18.0716 8.70066 21.3513 8.67641C24.6546 8.70087 27.1782 9.7536 28.8526 11.8056C29.6736 12.8118 30.2925 14.0773 30.7006 15.5528L33.0223 14.9357C32.5277 13.1196 31.7494 11.5545 30.6903 10.2567C28.5437 7.62599 25.4043 6.27791 21.3594 6.25H21.3432C17.3063 6.27785 14.2022 7.631 12.1167 10.2718C10.261 12.6218 9.30376 15.8915 9.27159 19.9903L9.27148 20L9.27159 20.0097C9.30376 24.1084 10.261 27.3783 12.1167 29.7283C14.2022 32.369 17.3063 33.7222 21.3432 33.75H21.3594C24.9482 33.7252 27.478 32.7892 29.562 30.7151C32.2885 28.0016 32.2065 24.6004 31.3078 22.5124C30.663 21.015 29.4339 19.799 27.753 18.9957ZM21.5564 24.7992C20.0554 24.8834 18.4959 24.2122 18.419 22.7746C18.362 21.7087 19.1805 20.5194 21.6486 20.3777C21.9258 20.3616 22.2034 20.3536 22.4811 20.3535C23.3776 20.3535 24.2162 20.4402 24.9787 20.6063C24.6944 24.1443 23.0262 24.7188 21.5564 24.7992Z" fill="#171717"></path></g><defs><clipPath id="clip0_1318_2156"><rect width="23.7508" height="27.5" fill="white" transform="translate(9.27148 6.25)"></rect></clipPath></defs></svg> 