<?xml version="1.0" encoding="UTF-8"?> <svg xmlns="http://www.w3.org/2000/svg" width="358" height="307" viewBox="0 0 358 307" fill="none"><path d="M1.71467 283.878C4.21224 302.341 16.7001 305.914 22.6318 305.392H34.8075H152.818H337.638C347.004 305.392 355.433 290.137 356.058 280.748C356.682 271.36 350.438 192.273 350.438 163.394C350.438 120.364 352.936 69.1196 348.877 38.6075C348.149 33.131 342.321 19.1266 324.838 6.92178C302.984 -8.33426 205.267 11.2247 179.667 11.2247C154.067 11.2247 35.4319 12.0071 25.7538 11.2247C16.0757 10.4424 11.705 16.3101 5.14883 30.3926C-1.40729 44.4751 1.71467 114.888 5.14883 155.961C8.58299 197.035 -1.40729 260.798 1.71467 283.878Z" fill="#E9E9E9" fill-opacity="0.6" stroke="white" stroke-width="2.20269"></path><rect x="24.414" y="26.9834" width="41.8511" height="41.8511" rx="3.48759" fill="white" stroke="black" stroke-width="0.367115"></rect><rect x="24.414" y="71.4043" width="85.9049" height="41.8511" rx="3.48759" fill="white" stroke="black" stroke-width="0.367115"></rect><rect x="112.519" y="71.4043" width="41.8511" height="41.8511" rx="3.48759" fill="white" stroke="black" stroke-width="0.367115"></rect><rect x="156.574" y="71.4043" width="41.8511" height="41.8511" rx="3.48759" fill="white" stroke="black" stroke-width="0.367115"></rect><rect x="200.629" y="71.4043" width="41.8511" height="41.8511" rx="3.48759" fill="white" stroke="black" stroke-width="0.367115"></rect><rect x="244.682" y="71.4043" width="41.8511" height="41.8511" rx="3.48759" fill="white" stroke="black" stroke-width="0.367115"></rect><rect x="288.285" y="71.4052" width="41.8511" height="41.8511" rx="3.48759" fill="white" stroke="black" stroke-width="0.367115"></rect><rect x="24.2851" y="115.824" width="41.8511" height="41.8511" rx="3.48759" fill="white" stroke="black" stroke-width="0.367115"></rect><rect x="24.2851" y="160.246" width="41.8511" height="41.8511" rx="3.48759" fill="white" stroke="black" stroke-width="0.367115"></rect><rect x="24.2851" y="204.301" width="41.8511" height="41.8511" rx="3.48759" fill="white" stroke="black" stroke-width="0.367115"></rect><rect x="24.2851" y="248.721" width="41.8511" height="41.8511" rx="3.48759" fill="white" stroke="black" stroke-width="0.367115"></rect><rect x="68.4668" y="115.824" width="41.8511" height="41.8511" rx="3.48759" fill="white" stroke="black" stroke-width="0.367115"></rect><rect x="68.2851" y="160.246" width="41.8511" height="41.8511" rx="3.48759" fill="white" stroke="black" stroke-width="0.367115"></rect><rect x="68.4668" y="204.301" width="41.8511" height="41.8511" rx="3.48759" fill="white" stroke="black" stroke-width="0.367115"></rect><rect x="68.4668" y="248.721" width="41.8511" height="41.8511" rx="3.48759" fill="white" stroke="black" stroke-width="0.367115"></rect><rect x="112.519" y="115.824" width="41.8511" height="41.8511" rx="3.48759" fill="white" stroke="black" stroke-width="0.367115"></rect><rect x="112.519" y="160.246" width="41.8511" height="41.8511" rx="3.48759" fill="white" stroke="black" stroke-width="0.367115"></rect><rect x="112.519" y="204.301" width="41.8511" height="41.8511" rx="3.48759" fill="white" stroke="black" stroke-width="0.367115"></rect><rect x="112.519" y="248.721" width="41.8511" height="41.8511" rx="3.48759" fill="white" stroke="black" stroke-width="0.367115"></rect><rect x="156.574" y="115.824" width="41.8511" height="41.8511" rx="3.48759" fill="white" stroke="black" stroke-width="0.367115"></rect><rect x="156.574" y="160.246" width="41.8511" height="41.8511" rx="3.48759" fill="white" stroke="black" stroke-width="0.367115"></rect><rect x="156.574" y="204.301" width="41.8511" height="41.8511" rx="3.48759" fill="white" stroke="black" stroke-width="0.367115"></rect><rect x="156.574" y="248.721" width="41.8511" height="41.8511" rx="3.48759" fill="white" stroke="black" stroke-width="0.367115"></rect><rect x="200.629" y="115.824" width="41.8511" height="41.8511" rx="3.48759" fill="white" stroke="black" stroke-width="0.367115"></rect><rect x="200.629" y="160.246" width="85.9049" height="41.8511" rx="3.48759" fill="white" stroke="black" stroke-width="0.367115"></rect><path d="M229.606 180.901C229.612 180.919 229.616 180.947 229.616 180.984C229.616 181.1 229.536 181.17 229.377 181.195L229.111 181.231C228.915 181.256 228.796 181.192 228.753 181.039L228.285 179.552C228.279 179.533 228.272 179.518 228.266 179.506C228.266 179.488 228.266 179.472 228.266 179.46C228.266 179.35 228.349 179.28 228.514 179.249L228.78 179.212C228.976 179.188 229.095 179.255 229.138 179.414L229.606 180.901ZM228.597 181.36C228.603 181.384 228.606 181.412 228.606 181.442C228.606 181.571 228.523 181.644 228.358 181.663L228.092 181.69C227.902 181.715 227.786 181.647 227.743 181.488L227.266 179.901C227.26 179.876 227.257 179.849 227.257 179.818C227.257 179.69 227.339 179.619 227.505 179.607L227.771 179.57C227.967 179.546 228.086 179.613 228.129 179.772L228.597 181.36ZM228.936 186.426C228.942 186.444 228.946 186.463 228.946 186.481C228.952 186.5 228.955 186.518 228.955 186.536C228.955 186.683 228.872 186.766 228.707 186.784L228.165 186.848C227.982 186.873 227.866 186.796 227.817 186.619L226.293 181.222C226.287 181.204 226.281 181.186 226.275 181.167C226.275 181.149 226.275 181.13 226.275 181.112C226.275 180.965 226.357 180.883 226.523 180.864L227.064 180.8C227.248 180.776 227.364 180.855 227.413 181.039L228.936 186.426ZM222.851 186.637C222.796 186.815 222.68 186.891 222.503 186.867L221.97 186.802C221.799 186.784 221.713 186.698 221.713 186.545C221.713 186.527 221.719 186.493 221.732 186.444L223.283 181.057C223.338 180.88 223.454 180.803 223.632 180.828L224.164 180.892C224.335 180.91 224.421 180.996 224.421 181.149C224.421 181.167 224.415 181.201 224.402 181.25L222.851 186.637ZM236.659 183.462C236.861 183.462 236.962 183.553 236.962 183.737C236.962 183.921 236.861 184.012 236.659 184.012H230.473C230.272 184.012 230.171 183.921 230.171 183.737C230.171 183.553 230.272 183.462 230.473 183.462H236.659ZM239.29 187.078C239.217 187.157 239.134 187.197 239.043 187.197C239 187.197 238.942 187.182 238.868 187.151L238.602 187.032C238.48 186.977 238.419 186.903 238.419 186.812C238.419 186.756 238.452 186.689 238.519 186.61L243.632 181.378H238.419C238.217 181.378 238.116 181.286 238.116 181.103C238.116 180.919 238.217 180.828 238.419 180.828H244.871C245.042 180.828 245.128 180.886 245.128 181.002C245.128 181.057 245.094 181.124 245.027 181.204L242.237 184.067L245.155 186.61C245.229 186.671 245.265 186.738 245.265 186.812C245.265 186.891 245.213 186.965 245.109 187.032L244.898 187.151C244.861 187.169 244.825 187.185 244.788 187.197C244.757 187.209 244.727 187.215 244.696 187.215C244.629 187.215 244.555 187.182 244.476 187.114L241.649 184.655L239.29 187.078ZM254.892 180.277C254.898 180.301 254.901 180.332 254.901 180.369C254.901 180.491 254.822 180.564 254.663 180.589L254.396 180.626C254.201 180.656 254.081 180.589 254.039 180.424L253.57 178.873C253.564 178.854 253.558 178.839 253.552 178.827C253.552 178.808 253.552 178.79 253.552 178.772C253.552 178.655 253.635 178.585 253.8 178.561L254.066 178.524C254.262 178.493 254.381 178.561 254.424 178.726L254.892 180.277ZM253.883 180.763C253.889 180.782 253.892 180.812 253.892 180.855C253.892 180.984 253.809 181.057 253.644 181.075L253.378 181.103C253.188 181.127 253.072 181.06 253.029 180.901L252.552 179.231C252.546 179.212 252.543 179.185 252.543 179.148C252.543 179.013 252.625 178.94 252.79 178.928L253.057 178.891C253.252 178.867 253.372 178.937 253.414 179.102L253.883 180.763ZM253.488 180.194C253.69 180.194 253.791 180.286 253.791 180.47C253.791 180.653 253.69 180.745 253.488 180.745H247.44C247.238 180.745 247.137 180.653 247.137 180.47C247.137 180.286 247.238 180.194 247.44 180.194H253.488ZM250.523 186.857C250.468 187.035 250.346 187.108 250.156 187.078L249.642 186.995C249.483 186.965 249.404 186.885 249.404 186.756C249.404 186.732 249.404 186.711 249.404 186.692C249.41 186.674 249.416 186.652 249.422 186.628L250.523 183.15H246.816C246.614 183.15 246.513 183.058 246.513 182.874C246.513 182.691 246.614 182.599 246.816 182.599H253.928C254.13 182.599 254.231 182.691 254.231 182.874C254.231 183.058 254.13 183.15 253.928 183.15H251.671C251.671 183.174 251.671 183.195 251.671 183.214C251.671 183.232 251.665 183.254 251.652 183.278L250.523 186.857ZM262.096 183.462C262.298 183.462 262.399 183.553 262.399 183.737C262.399 183.921 262.298 184.012 262.096 184.012H255.91C255.708 184.012 255.607 183.921 255.607 183.737C255.607 183.553 255.708 183.462 255.91 183.462H262.096ZM213.405 195.857C213.344 195.893 213.279 195.912 213.212 195.912C213.126 195.912 213.05 195.881 212.983 195.82L212.891 195.747C212.805 195.673 212.762 195.603 212.762 195.535C212.762 195.462 212.814 195.392 212.918 195.324L219.361 191.598C219.428 191.561 219.493 191.543 219.554 191.543C219.64 191.543 219.716 191.574 219.783 191.635L219.875 191.708C219.961 191.782 220.004 191.852 220.004 191.919C220.004 191.993 219.952 192.063 219.848 192.13L217.296 193.608C217.345 193.657 217.37 193.727 217.37 193.819V197.949C217.37 198.151 217.269 198.252 217.067 198.252H216.498C216.296 198.252 216.195 198.151 216.195 197.949V194.241L213.405 195.857ZM228.483 193.333C228.489 193.357 228.492 193.391 228.492 193.434C228.492 193.574 228.413 193.66 228.254 193.691L227.988 193.737C227.792 193.767 227.672 193.688 227.63 193.498L227.162 191.699C227.155 191.681 227.149 191.662 227.143 191.644C227.143 191.626 227.143 191.607 227.143 191.589C227.143 191.454 227.226 191.372 227.391 191.341L227.657 191.295C227.853 191.265 227.972 191.344 228.015 191.534L228.483 193.333ZM227.474 193.893C227.48 193.917 227.483 193.951 227.483 193.994C227.483 194.147 227.4 194.232 227.235 194.251L226.969 194.287C226.779 194.318 226.663 194.238 226.62 194.049L226.143 192.121C226.137 192.097 226.134 192.063 226.134 192.02C226.134 191.867 226.216 191.782 226.381 191.763L226.648 191.727C226.843 191.696 226.963 191.776 227.005 191.965L227.474 193.893ZM228.364 197.408C228.413 197.463 228.437 197.524 228.437 197.591C228.437 197.689 228.373 197.763 228.245 197.812L227.896 197.931C227.841 197.949 227.792 197.958 227.749 197.958C227.651 197.958 227.565 197.909 227.492 197.812L224.188 193.525L221.939 197.279C221.86 197.395 221.765 197.454 221.655 197.454C221.636 197.454 221.618 197.454 221.6 197.454C221.581 197.447 221.563 197.441 221.545 197.435L221.132 197.325C220.991 197.288 220.921 197.215 220.921 197.105C220.921 197.05 220.939 196.992 220.976 196.93L223.848 192.121C223.903 192.023 223.971 191.974 224.05 191.974C224.13 191.974 224.203 192.017 224.27 192.103L228.364 197.408ZM232.907 193.085C233.011 193.152 233.063 193.223 233.063 193.296C233.063 193.369 233.02 193.44 232.935 193.507L232.825 193.599C232.751 193.654 232.678 193.682 232.604 193.682C232.537 193.682 232.47 193.66 232.402 193.617L229.97 192.14C229.866 192.072 229.814 192.002 229.814 191.929C229.814 191.855 229.857 191.785 229.943 191.717L230.053 191.626C230.126 191.571 230.2 191.543 230.273 191.543C230.34 191.543 230.408 191.564 230.475 191.607L232.907 193.085ZM235.872 194.076C235.939 194.033 236.009 194.012 236.083 194.012C236.156 194.012 236.226 194.036 236.294 194.085L236.413 194.177C236.499 194.244 236.542 194.315 236.542 194.388C236.542 194.468 236.493 194.538 236.395 194.599L230.998 197.995C230.931 198.038 230.86 198.059 230.787 198.059C230.714 198.059 230.643 198.035 230.576 197.986L230.457 197.894C230.371 197.827 230.328 197.756 230.328 197.683C230.328 197.604 230.377 197.533 230.475 197.472L235.872 194.076ZM239.856 198.032C239.856 198.234 239.755 198.335 239.553 198.335H238.984C238.782 198.335 238.682 198.234 238.682 198.032V191.653C238.682 191.451 238.782 191.35 238.984 191.35H239.553C239.755 191.35 239.856 191.451 239.856 191.653V194.26L243.179 195.334C243.319 195.382 243.39 195.456 243.39 195.554C243.39 195.603 243.371 195.655 243.335 195.71L243.298 195.756C243.231 195.86 243.142 195.912 243.032 195.912C243.013 195.912 242.992 195.912 242.968 195.912C242.949 195.906 242.928 195.899 242.903 195.893L239.856 194.911V198.032ZM246.052 198.124C246.052 198.326 245.951 198.426 245.75 198.426H245.181C244.979 198.426 244.878 198.326 244.878 198.124V190.855C244.878 190.653 244.979 190.552 245.181 190.552H245.75C245.903 190.552 245.997 190.613 246.034 190.735H248.228C248.43 190.735 248.53 190.836 248.53 191.038V194.095C248.53 194.296 248.43 194.397 248.228 194.397H247.659C247.579 194.397 247.515 194.379 247.466 194.342H246.052V198.124ZM251.073 198.27C250.901 198.252 250.816 198.176 250.816 198.041C250.816 198.029 250.816 198.013 250.816 197.995C250.822 197.983 250.828 197.968 250.834 197.949V197.94C250.895 197.756 250.975 197.674 251.073 197.692L251.22 197.72V194.278H249.907C249.858 194.358 249.773 194.397 249.65 194.397H249.081C248.879 194.397 248.778 194.296 248.778 194.095V190.855C248.778 190.653 248.879 190.552 249.081 190.552H249.65C249.773 190.552 249.858 190.592 249.907 190.671H252.091C252.293 190.671 252.394 190.772 252.394 190.974V198.142C252.394 198.362 252.287 198.457 252.073 198.426L251.073 198.27ZM251.22 191.222H249.953V192.268H251.22V191.222ZM247.356 191.286H246.052V192.305H247.356V191.286ZM249.953 193.727H251.22V192.819H249.953V193.727ZM246.052 193.792H247.356V192.856H246.052V193.792ZM247.961 197.958C247.925 198.154 247.812 198.243 247.622 198.225L247.071 198.179C246.857 198.16 246.768 198.047 246.805 197.839L246.961 196.995H246.594C246.392 196.995 246.291 196.903 246.291 196.719C246.291 196.536 246.392 196.444 246.594 196.444H247.062L247.236 195.471H246.759C246.557 195.471 246.456 195.379 246.456 195.196C246.456 195.012 246.557 194.921 246.759 194.921H250.605C250.807 194.921 250.908 195.012 250.908 195.196C250.908 195.379 250.807 195.471 250.605 195.471H250.329V195.499V196.444H250.724C250.926 196.444 251.027 196.536 251.027 196.719C251.027 196.903 250.926 196.995 250.724 196.995H250.329V197.922C250.329 198.124 250.228 198.225 250.026 198.225H249.457C249.256 198.225 249.155 198.124 249.155 197.922V196.995H248.136L247.961 197.958ZM248.402 195.554L248.237 196.444H249.155V195.499V195.471H248.411C248.411 195.49 248.408 195.517 248.402 195.554ZM259.764 191.965V191.993H260.407V191.057C260.407 190.855 260.508 190.754 260.71 190.754H261.279C261.48 190.754 261.581 190.855 261.581 191.057V192.296C261.581 192.498 261.48 192.599 261.279 192.599H260.71C260.63 192.599 260.566 192.58 260.517 192.543H257.029C256.827 192.543 256.726 192.442 256.726 192.241V191.057C256.726 190.855 256.827 190.754 257.029 190.754H257.598C257.8 190.754 257.901 190.855 257.901 191.057V191.993H258.589V191.965V190.781C258.589 190.579 258.69 190.478 258.892 190.478H259.461C259.663 190.478 259.764 190.579 259.764 190.781V191.965ZM255.864 198.114C255.864 198.316 255.763 198.417 255.561 198.417H254.992C254.79 198.417 254.689 198.316 254.689 198.114V194.921C254.658 194.933 254.622 194.939 254.579 194.939C254.536 194.939 254.502 194.936 254.478 194.93L254.01 194.829C253.857 194.792 253.78 194.712 253.78 194.59C253.78 194.541 253.792 194.492 253.817 194.443L255.552 190.68C255.607 190.552 255.698 190.488 255.827 190.488C255.87 190.488 255.903 190.491 255.928 190.497L256.396 190.598C256.543 190.634 256.616 190.711 256.616 190.827C256.616 190.882 256.604 190.934 256.579 190.983L255.809 192.672C255.845 192.721 255.864 192.788 255.864 192.874V198.114ZM260.397 197.646V197.674H261.379C261.581 197.674 261.682 197.766 261.682 197.949C261.682 198.133 261.581 198.225 261.379 198.225H257.965C257.941 198.378 257.843 198.454 257.672 198.454H257.103C256.901 198.454 256.8 198.353 256.8 198.151V195.811C256.763 195.811 256.735 195.808 256.717 195.802L256.249 195.691C256.102 195.655 256.029 195.578 256.029 195.462C256.029 195.407 256.041 195.355 256.065 195.306L257.277 192.828C257.344 192.693 257.445 192.626 257.58 192.626C257.617 192.626 257.644 192.629 257.662 192.635L258.131 192.745C258.277 192.782 258.351 192.859 258.351 192.975C258.351 193.03 258.339 193.082 258.314 193.131L258.121 193.525H259.461V193.489C259.461 193.446 259.477 193.394 259.507 193.333L259.792 192.837C259.859 192.715 259.951 192.654 260.067 192.654C260.085 192.654 260.104 192.657 260.122 192.663C260.14 192.663 260.159 192.666 260.177 192.672L260.609 192.782C260.749 192.819 260.82 192.895 260.82 193.012C260.82 193.06 260.804 193.116 260.774 193.177L260.581 193.525H261.379C261.581 193.525 261.682 193.617 261.682 193.801C261.682 193.984 261.581 194.076 261.379 194.076H260.379C260.391 194.107 260.397 194.143 260.397 194.186V194.847H261.196C261.398 194.847 261.499 194.939 261.499 195.122C261.499 195.306 261.398 195.398 261.196 195.398H260.397V196.251H261.196C261.398 196.251 261.499 196.343 261.499 196.527C261.499 196.71 261.398 196.802 261.196 196.802H260.397V197.646ZM257.974 194.251V194.847H259.223V194.186C259.223 194.143 259.229 194.107 259.241 194.076H257.929C257.959 194.119 257.974 194.177 257.974 194.251ZM257.974 196.251H259.223V195.398H257.974V196.251ZM259.223 197.646V196.802H257.974V197.674H259.223V197.646ZM267.584 195.545C267.584 195.63 267.553 195.704 267.492 195.765C267.431 195.826 267.357 195.857 267.272 195.857H266.721C266.635 195.857 266.562 195.826 266.501 195.765C266.44 195.704 266.409 195.63 266.409 195.545V191.286C266.409 191.2 266.44 191.127 266.501 191.066C266.562 191.005 266.635 190.974 266.721 190.974H267.272C267.357 190.974 267.431 191.005 267.492 191.066C267.553 191.127 267.584 191.2 267.584 191.286V195.545ZM267.584 197.656C267.584 197.741 267.553 197.815 267.492 197.876C267.431 197.937 267.357 197.968 267.272 197.968H266.721C266.635 197.968 266.562 197.937 266.501 197.876C266.44 197.815 266.409 197.741 266.409 197.656V197.454C266.409 197.368 266.44 197.295 266.501 197.233C266.562 197.172 266.635 197.142 266.721 197.142H267.272C267.357 197.142 267.431 197.172 267.492 197.233C267.553 197.295 267.584 197.368 267.584 197.454V197.656Z" fill="#265278"></path><rect x="200.629" y="204.301" width="41.8511" height="41.8511" rx="3.48759" fill="white" stroke="black" stroke-width="0.367115"></rect><rect x="200.629" y="248.721" width="41.8511" height="41.8511" rx="3.48759" fill="white" stroke="black" stroke-width="0.367115"></rect><rect x="244.682" y="115.824" width="41.8511" height="41.8511" rx="3.48759" fill="white" stroke="black" stroke-width="0.367115"></rect><rect x="244.682" y="204.301" width="41.8511" height="41.8511" rx="3.48759" fill="white" stroke="black" stroke-width="0.367115"></rect><rect x="288.736" y="115.824" width="41.8511" height="41.8511" rx="3.48759" fill="white" stroke="black" stroke-width="0.367115"></rect><rect x="288.285" y="160.246" width="41.8511" height="41.8511" rx="3.48759" fill="white" stroke="black" stroke-width="0.367115"></rect><rect x="288.285" y="204.299" width="41.8511" height="41.8511" rx="3.48759" fill="white" stroke="black" stroke-width="0.367115"></rect><rect x="246.518" y="248.721" width="84.0693" height="41.8511" rx="3.48759" fill="white" stroke="black" stroke-width="0.367115"></rect><path d="M121.547 86.2217V78.1037H121.533L119.027 80.3945L118.354 78.7336L121.547 75.7699H123.609V86.2217H121.547Z" fill="black"></path><path d="M162.479 84.6028C163.787 83.5815 164.789 82.7272 165.486 82.04C166.192 81.3432 166.665 80.7657 166.903 80.3076C167.142 79.8494 167.261 79.3722 167.261 78.8758C167.261 77.8163 166.693 77.2866 165.557 77.2866C164.756 77.2866 163.844 77.6159 162.823 78.2745L162.293 76.6709C162.77 76.3464 163.324 76.0935 163.954 75.9121C164.593 75.7212 165.223 75.6258 165.844 75.6258C166.96 75.6258 167.819 75.8978 168.421 76.4419C169.032 76.9764 169.337 77.7209 169.337 78.6754C169.337 79.5726 169.051 80.4364 168.478 81.2669C167.915 82.0973 166.808 83.1997 165.156 84.5742V84.6028H169.351V86.2207H162.479V84.6028Z" fill="black"></path><path d="M206.87 75.7689H213.571V77.3868L210.636 80.0499V80.0785H210.879C211.757 80.0785 212.449 80.3314 212.955 80.8373C213.461 81.3337 213.714 82.0305 213.714 82.9277C213.714 84.0254 213.38 84.8749 212.712 85.4762C212.044 86.068 211.089 86.3639 209.848 86.3639C208.732 86.3639 207.715 86.1109 206.799 85.6051L207.314 84.0301C208.202 84.5074 209.018 84.746 209.762 84.746C210.392 84.746 210.879 84.5933 211.223 84.2878C211.566 83.9824 211.738 83.5386 211.738 82.9563C211.738 82.4218 211.543 82.04 211.151 81.8109C210.769 81.5723 210.092 81.453 209.118 81.453H208.259V80.0212L211.123 77.4155V77.3868H206.87V75.7689Z" fill="black"></path><path d="M255.705 82.4991V78.39H255.676L252.841 82.4705V82.4991H255.705ZM257.638 82.4991H259.241V84.0741H257.638V86.2217H255.705V84.0741H250.98V82.4991L255.705 75.7699H257.638V82.4991Z" fill="#CC2936"></path><path d="M302.917 77.3878H298.636L298.521 79.8074H298.55C299.027 79.5688 299.552 79.4495 300.125 79.4495C301.156 79.4495 301.953 79.7311 302.516 80.2942C303.079 80.8574 303.361 81.6544 303.361 82.6853C303.361 85.1383 301.962 86.3649 299.166 86.3649C298.144 86.3649 297.19 86.1596 296.302 85.7492L296.732 84.1313C297.591 84.5418 298.388 84.747 299.123 84.747C300.631 84.747 301.385 84.0597 301.385 82.6853C301.385 81.5494 300.836 80.9815 299.738 80.9815C299.175 80.9815 298.683 81.1772 298.264 81.5685H296.545L296.832 75.7699H302.917V77.3878Z" fill="#CC2936"></path><rect x="68.4668" y="26.9834" width="41.8511" height="41.8511" rx="3.48759" fill="white" stroke="black" stroke-width="0.367115"></rect><rect x="112.519" y="26.9834" width="41.8511" height="41.8511" rx="3.48759" fill="white" stroke="black" stroke-width="0.367115"></rect><rect x="156.574" y="26.9834" width="41.8511" height="41.8511" rx="3.48759" fill="white" stroke="black" stroke-width="0.367115"></rect><rect x="200.629" y="26.9834" width="41.8511" height="41.8511" rx="3.48759" fill="white" stroke="black" stroke-width="0.367115"></rect><rect x="244.682" y="26.9834" width="41.8511" height="41.8511" rx="3.48759" fill="white" stroke="black" stroke-width="0.367115"></rect><rect x="288.736" y="26.9834" width="41.8511" height="41.8511" rx="3.48759" fill="white" stroke="black" stroke-width="0.367115"></rect><path d="M36.6874 120.046L37.0453 121.664C36.0144 121.73 35.1888 121.974 34.5684 122.394C33.948 122.804 33.4802 123.42 33.1653 124.241L33.1796 124.255C33.7905 123.806 34.5207 123.582 35.3702 123.582C36.4678 123.582 37.3126 123.883 37.9043 124.484C38.5057 125.085 38.8063 125.944 38.8063 127.061C38.8063 128.188 38.4436 129.09 37.7182 129.767C37.0023 130.445 36.0574 130.784 34.8834 130.784C33.6521 130.784 32.6928 130.431 32.0055 129.724C31.3183 129.008 30.9747 127.963 30.9747 126.589C30.9747 124.632 31.4853 123.071 32.5067 121.907C33.528 120.742 34.9215 120.122 36.6874 120.046ZM34.8834 129.252C35.5038 129.252 35.9858 129.066 36.3294 128.693C36.673 128.321 36.8449 127.777 36.8449 127.061C36.8449 126.412 36.6683 125.906 36.3151 125.544C35.9715 125.171 35.4942 124.985 34.8834 124.985C34.2916 124.985 33.8191 125.171 33.4659 125.544C33.1223 125.916 32.9505 126.422 32.9505 127.061C32.9505 127.777 33.1175 128.321 33.4516 128.693C33.7952 129.066 34.2725 129.252 34.8834 129.252Z" fill="black"></path><path d="M30.4229 175.062V166.944H30.4086L27.9031 169.235L27.2301 167.574L30.4229 164.611H32.4847V175.062H30.4229ZM36.5315 164.611H43.2321V166.229L40.297 168.892V168.92H40.5404C41.4185 168.92 42.1105 169.173 42.6164 169.679C43.1223 170.175 43.3752 170.872 43.3752 171.769C43.3752 172.867 43.0412 173.717 42.373 174.318C41.7049 174.91 40.7504 175.206 39.5095 175.206C38.3927 175.206 37.3762 174.953 36.4599 174.447L36.9753 172.872C37.863 173.349 38.6791 173.588 39.4236 173.588C40.0536 173.588 40.5404 173.435 40.884 173.13C41.2276 172.824 41.3994 172.38 41.3994 171.798C41.3994 171.264 41.2037 170.882 40.8124 170.653C40.4306 170.414 39.7529 170.295 38.7793 170.295H37.9203V168.863L40.7838 166.257V166.229H36.5315V164.611Z" fill="#CC2936"></path><path d="M28.7398 217.499C30.0475 216.478 31.0497 215.624 31.7465 214.936C32.4528 214.24 32.9253 213.662 33.1639 213.204C33.4026 212.746 33.5219 212.269 33.5219 211.772C33.5219 210.713 32.954 210.183 31.8181 210.183C31.0163 210.183 30.1048 210.512 29.0835 211.171L28.5537 209.567C29.031 209.243 29.5846 208.99 30.2145 208.809C30.8541 208.618 31.484 208.522 32.1045 208.522C33.2212 208.522 34.0803 208.794 34.6816 209.338C35.2925 209.873 35.5979 210.617 35.5979 211.572C35.5979 212.469 35.3116 213.333 34.7389 214.163C34.1757 214.994 33.0685 216.096 31.4172 217.471V217.499H35.6122V219.117H28.7398V217.499ZM38.2989 209.797C38.967 208.947 39.974 208.522 41.3199 208.522C42.6657 208.522 43.6679 208.947 44.3265 209.797C44.9947 210.646 45.3288 212.011 45.3288 213.891C45.3288 215.772 44.9947 217.137 44.3265 217.986C43.6679 218.836 42.6657 219.26 41.3199 219.26C39.974 219.26 38.967 218.836 38.2989 217.986C37.6403 217.137 37.311 215.772 37.311 213.891C37.311 212.011 37.6403 210.646 38.2989 209.797ZM39.8309 216.841C40.1554 217.413 40.6517 217.7 41.3199 217.7C41.988 217.7 42.4844 217.413 42.8089 216.841C43.1334 216.268 43.2957 215.285 43.2957 213.891C43.2957 212.498 43.1334 211.515 42.8089 210.942C42.4844 210.369 41.988 210.083 41.3199 210.083C40.6517 210.083 40.1554 210.369 39.8309 210.942C39.5063 211.515 39.3441 212.498 39.3441 213.891C39.3441 215.285 39.5063 216.268 39.8309 216.841Z" fill="black"></path><path d="M28.3727 261.919C29.6803 260.898 30.6825 260.044 31.3793 259.356C32.0857 258.66 32.5581 258.082 32.7968 257.624C33.0354 257.166 33.1547 256.689 33.1547 256.192C33.1547 255.133 32.5868 254.603 31.4509 254.603C30.6491 254.603 29.7376 254.932 28.7163 255.591L28.1865 253.987C28.6638 253.663 29.2174 253.41 29.8474 253.229C30.4869 253.038 31.1168 252.942 31.7373 252.942C32.854 252.942 33.7131 253.214 34.3144 253.758C34.9253 254.293 35.2307 255.037 35.2307 255.992C35.2307 256.889 34.9444 257.753 34.3717 258.583C33.8085 259.414 32.7013 260.516 31.05 261.891V261.919H35.245V263.537H28.3727V261.919ZM37.4449 253.085H44.5607V254.703C42.9762 257.309 41.6686 260.254 40.6377 263.537H38.5187C39.6068 260.34 40.9813 257.409 42.6421 254.746V254.703H37.4449V253.085Z" fill="black"></path><path d="M42.3237 46.6344V47.9891C42.3237 48.4186 42.3181 48.7325 42.3071 48.9307H49.4934V46.6344H42.3237ZM42.3237 44.8833H49.4934V42.7522H42.3237V44.8833ZM39.5648 55.7701L37.8302 54.4815C38.7112 53.5454 39.3115 52.5652 39.6309 51.5409C39.9613 50.5167 40.1265 49.0189 40.1265 47.0475V40.935H51.6906V52.9452C51.6906 53.617 51.6686 54.1071 51.6245 54.4154C51.5915 54.7348 51.4758 54.9992 51.2776 55.2084C51.0793 55.4177 50.8315 55.5388 50.5342 55.5719C50.2478 55.6159 49.7908 55.6379 49.163 55.6379C48.7996 55.6379 47.8634 55.6104 46.3546 55.5553L46.2389 53.6886C47.6927 53.7436 48.5187 53.7712 48.717 53.7712C49.0914 53.7712 49.3117 53.7381 49.3778 53.672C49.4549 53.5949 49.4934 53.3692 49.4934 52.9947V50.6819H42.1419C41.8115 52.6973 40.9525 54.3934 39.5648 55.7701Z" fill="black"></path><path d="M76.0182 120.189H83.134V121.807C81.5495 124.413 80.2418 127.357 79.211 130.641H77.092C78.1801 127.443 79.5546 124.513 81.2154 121.85V121.807H76.0182V120.189Z" fill="black"></path><path d="M74.3761 175.062V166.944H74.3617L71.8562 169.235L71.1833 167.574L74.3761 164.611H76.4378V175.062H74.3761ZM84.2644 171.34V167.231H84.2358L81.4009 171.311V171.34H84.2644ZM86.1973 171.34H87.8008V172.915H86.1973V175.062H84.2644V172.915H79.5396V171.34L84.2644 164.611H86.1973V171.34Z" fill="black"></path><path d="M72.8961 217.499C74.2038 216.478 75.206 215.624 75.9028 214.936C76.6091 214.24 77.0816 213.662 77.3202 213.204C77.5588 212.746 77.6781 212.269 77.6781 211.772C77.6781 210.713 77.1102 210.183 75.9744 210.183C75.1726 210.183 74.261 210.512 73.2397 211.171L72.71 209.567C73.1872 209.243 73.7408 208.99 74.3708 208.809C75.0103 208.618 75.6403 208.522 76.2607 208.522C77.3775 208.522 78.2365 208.794 78.8378 209.338C79.4487 209.873 79.7542 210.617 79.7542 211.572C79.7542 212.469 79.4678 213.333 78.8951 214.163C78.332 214.994 77.2247 216.096 75.5735 217.471V217.499H79.7685V219.117H72.8961V217.499ZM85.0752 219.117V210.999H85.0609L82.5554 213.29L81.8824 211.629L85.0752 208.665H87.137V219.117H85.0752Z" fill="black"></path><path d="M72.7945 261.919C74.1022 260.898 75.1044 260.044 75.8012 259.356C76.5075 258.66 76.98 258.082 77.2186 257.624C77.4573 257.166 77.5766 256.689 77.5766 256.192C77.5766 255.133 77.0086 254.603 75.8728 254.603C75.071 254.603 74.1595 254.932 73.1382 255.591L72.6084 253.987C73.0857 253.663 73.6393 253.41 74.2692 253.229C74.9087 253.038 75.5387 252.942 76.1591 252.942C77.2759 252.942 78.135 253.214 78.7363 253.758C79.3472 254.293 79.6526 255.037 79.6526 255.992C79.6526 256.889 79.3663 257.753 78.7936 258.583C78.2304 259.414 77.1232 260.516 75.4719 261.891V261.919H79.6669V263.537H72.7945V261.919ZM82.6686 253.672C83.3176 253.186 84.2196 252.942 85.3746 252.942C86.5295 252.942 87.4315 253.186 88.0806 253.672C88.7296 254.15 89.0542 254.78 89.0542 255.562C89.0542 256.564 88.4576 257.338 87.2645 257.882V257.91C88.6771 258.445 89.3835 259.366 89.3835 260.674C89.3835 261.59 89.0303 262.32 88.324 262.864C87.6176 263.408 86.6345 263.68 85.3746 263.68C84.1146 263.68 83.1315 263.408 82.4252 262.864C81.7188 262.32 81.3657 261.59 81.3657 260.674C81.3657 260.139 81.5375 259.652 81.8811 259.213C82.2343 258.765 82.7545 258.397 83.4417 258.111V258.082C82.8881 257.805 82.4586 257.447 82.1531 257.008C81.8477 256.569 81.695 256.087 81.695 255.562C81.695 254.78 82.0195 254.15 82.6686 253.672ZM85.4175 257.323C86.582 256.98 87.1642 256.46 87.1642 255.763C87.1642 255.352 87.0068 255.023 86.6918 254.775C86.3768 254.527 85.9377 254.403 85.3746 254.403C84.821 254.403 84.3867 254.527 84.0717 254.775C83.7662 255.023 83.6135 255.352 83.6135 255.763C83.6135 256.479 84.2148 256.999 85.4175 257.323ZM85.2171 258.755C83.9285 259.146 83.2842 259.753 83.2842 260.573C83.2842 261.07 83.4751 261.471 83.8569 261.776C84.2387 262.072 84.7446 262.22 85.3746 262.22C86.0045 262.22 86.5009 262.072 86.8636 261.776C87.2358 261.471 87.422 261.07 87.422 260.573C87.422 260.134 87.2597 259.776 86.9352 259.5C86.6202 259.213 86.0475 258.965 85.2171 258.755Z" fill="black"></path><path d="M120.875 120.776C121.524 120.289 122.426 120.046 123.581 120.046C124.736 120.046 125.638 120.289 126.287 120.776C126.936 121.253 127.26 121.883 127.26 122.666C127.26 123.668 126.664 124.441 125.471 124.985V125.014C126.883 125.548 127.59 126.469 127.59 127.777C127.59 128.693 127.236 129.424 126.53 129.968C125.824 130.512 124.841 130.784 123.581 130.784C122.321 130.784 121.338 130.512 120.631 129.968C119.925 129.424 119.572 128.693 119.572 127.777C119.572 127.243 119.744 126.756 120.087 126.317C120.44 125.868 120.961 125.501 121.648 125.214V125.186C121.094 124.909 120.665 124.551 120.359 124.112C120.054 123.673 119.901 123.191 119.901 122.666C119.901 121.883 120.226 121.253 120.875 120.776ZM123.624 124.427C124.788 124.083 125.37 123.563 125.37 122.866C125.37 122.456 125.213 122.126 124.898 121.878C124.583 121.63 124.144 121.506 123.581 121.506C123.027 121.506 122.593 121.63 122.278 121.878C121.972 122.126 121.82 122.456 121.82 122.866C121.82 123.582 122.421 124.102 123.624 124.427ZM123.423 125.859C122.135 126.25 121.49 126.856 121.49 127.677C121.49 128.173 121.681 128.574 122.063 128.88C122.445 129.175 122.951 129.323 123.581 129.323C124.211 129.323 124.707 129.175 125.07 128.88C125.442 128.574 125.628 128.173 125.628 127.677C125.628 127.238 125.466 126.88 125.141 126.603C124.826 126.317 124.254 126.069 123.423 125.859Z" fill="black"></path><path d="M118.796 175.062V166.944H118.782L116.276 169.235L115.603 167.574L118.796 164.611H120.858V175.062H118.796ZM131.476 166.229H127.195L127.081 168.648H127.109C127.587 168.41 128.112 168.29 128.684 168.29C129.715 168.29 130.512 168.572 131.075 169.135C131.639 169.698 131.92 170.495 131.92 171.526C131.92 173.979 130.522 175.206 127.725 175.206C126.704 175.206 125.749 175 124.862 174.59L125.291 172.972C126.15 173.383 126.947 173.588 127.682 173.588C129.19 173.588 129.944 172.901 129.944 171.526C129.944 170.39 129.395 169.822 128.298 169.822C127.735 169.822 127.243 170.018 126.823 170.409H125.105L125.391 164.611H131.476V166.229Z" fill="black"></path><path d="M117.214 217.499C118.522 216.478 119.524 215.624 120.221 214.936C120.927 214.24 121.4 213.662 121.639 213.204C121.877 212.746 121.996 212.269 121.996 211.772C121.996 210.713 121.429 210.183 120.293 210.183C119.491 210.183 118.579 210.512 117.558 211.171L117.028 209.567C117.506 209.243 118.059 208.99 118.689 208.809C119.329 208.618 119.959 208.522 120.579 208.522C121.696 208.522 122.555 208.794 123.156 209.338C123.767 209.873 124.073 210.617 124.073 211.572C124.073 212.469 123.786 213.333 123.213 214.163C122.65 214.994 121.543 216.096 119.892 217.471V217.499H124.087V219.117H117.214V217.499ZM126.373 217.499C127.68 216.478 128.682 215.624 129.379 214.936C130.086 214.24 130.558 213.662 130.797 213.204C131.035 212.746 131.155 212.269 131.155 211.772C131.155 210.713 130.587 210.183 129.451 210.183C128.649 210.183 127.738 210.512 126.716 211.171L126.186 209.567C126.664 209.243 127.217 208.99 127.847 208.809C128.487 208.618 129.117 208.522 129.737 208.522C130.854 208.522 131.713 208.794 132.314 209.338C132.925 209.873 133.231 210.617 133.231 211.572C133.231 212.469 132.944 213.333 132.372 214.163C131.808 214.994 130.701 216.096 129.05 217.471V217.499H133.245V219.117H126.373V217.499Z" fill="black"></path><path d="M116.847 261.919C118.155 260.898 119.157 260.044 119.854 259.356C120.56 258.66 121.033 258.082 121.271 257.624C121.51 257.166 121.629 256.689 121.629 256.192C121.629 255.133 121.061 254.603 119.926 254.603C119.124 254.603 118.212 254.932 117.191 255.591L116.661 253.987C117.138 253.663 117.692 253.41 118.322 253.229C118.961 253.038 119.591 252.942 120.212 252.942C121.329 252.942 122.188 253.214 122.789 253.758C123.4 254.293 123.705 255.037 123.705 255.992C123.705 256.889 123.419 257.753 122.846 258.583C122.283 259.414 121.176 260.516 119.525 261.891V261.919H123.72V263.537H116.847V261.919ZM127.079 262.062C128.167 261.996 129.026 261.757 129.656 261.347C130.296 260.936 130.778 260.316 131.102 259.485L131.088 259.471C130.458 259.92 129.728 260.144 128.898 260.144C127.8 260.144 126.95 259.843 126.349 259.242C125.757 258.631 125.461 257.748 125.461 256.593C125.461 255.495 125.819 254.613 126.535 253.944C127.251 253.276 128.196 252.942 129.37 252.942C130.611 252.942 131.575 253.3 132.262 254.016C132.949 254.722 133.293 255.739 133.293 257.066C133.293 259.089 132.768 260.678 131.718 261.833C130.678 262.988 129.251 263.604 127.437 263.68L127.079 262.062ZM129.37 254.474C128.75 254.474 128.268 254.656 127.924 255.018C127.59 255.381 127.423 255.906 127.423 256.593C127.423 257.28 127.595 257.81 127.938 258.182C128.282 258.555 128.759 258.741 129.37 258.741C129.962 258.741 130.434 258.55 130.787 258.168C131.141 257.786 131.317 257.261 131.317 256.593C131.317 255.915 131.145 255.395 130.802 255.033C130.458 254.66 129.981 254.474 129.37 254.474Z" fill="black"></path><path d="M164.654 129.166C165.743 129.099 166.602 128.86 167.232 128.45C167.871 128.04 168.353 127.419 168.678 126.589L168.663 126.574C168.033 127.023 167.303 127.247 166.473 127.247C165.375 127.247 164.526 126.947 163.924 126.345C163.332 125.735 163.037 124.852 163.037 123.697C163.037 122.599 163.395 121.716 164.11 121.048C164.826 120.38 165.771 120.046 166.945 120.046C168.186 120.046 169.15 120.404 169.837 121.12C170.525 121.826 170.868 122.842 170.868 124.169C170.868 126.193 170.343 127.782 169.293 128.937C168.253 130.092 166.826 130.707 165.012 130.784L164.654 129.166ZM166.945 121.578C166.325 121.578 165.843 121.759 165.499 122.122C165.165 122.484 164.998 123.009 164.998 123.697C164.998 124.384 165.17 124.914 165.513 125.286C165.857 125.658 166.334 125.844 166.945 125.844C167.537 125.844 168.01 125.653 168.363 125.272C168.716 124.89 168.892 124.365 168.892 123.697C168.892 123.019 168.721 122.499 168.377 122.136C168.033 121.764 167.556 121.578 166.945 121.578Z" fill="black"></path><path d="M163.218 175.062V166.944H163.204L160.698 169.235L160.025 167.574L163.218 164.611H165.28V175.062H163.218ZM174.624 164.468L174.982 166.085C173.951 166.152 173.125 166.396 172.505 166.816C171.884 167.226 171.417 167.842 171.102 168.663L171.116 168.677C171.727 168.228 172.457 168.004 173.307 168.004C174.404 168.004 175.249 168.305 175.841 168.906C176.442 169.507 176.743 170.366 176.743 171.483C176.743 172.609 176.38 173.511 175.655 174.189C174.939 174.867 173.994 175.206 172.82 175.206C171.589 175.206 170.629 174.853 169.942 174.146C169.255 173.43 168.911 172.385 168.911 171.011C168.911 169.054 169.422 167.493 170.443 166.329C171.464 165.164 172.858 164.544 174.624 164.468ZM172.82 173.674C173.44 173.674 173.922 173.488 174.266 173.115C174.61 172.743 174.781 172.199 174.781 171.483C174.781 170.834 174.605 170.328 174.252 169.965C173.908 169.593 173.431 169.407 172.82 169.407C172.228 169.407 171.756 169.593 171.402 169.965C171.059 170.338 170.887 170.844 170.887 171.483C170.887 172.199 171.054 172.743 171.388 173.115C171.732 173.488 172.209 173.674 172.82 173.674Z" fill="black"></path><path d="M160.269 217.499C161.577 216.478 162.579 215.624 163.276 214.936C163.982 214.24 164.455 213.662 164.693 213.204C164.932 212.746 165.051 212.269 165.051 211.772C165.051 210.713 164.483 210.183 163.347 210.183C162.546 210.183 161.634 210.512 160.613 211.171L160.083 209.567C160.56 209.243 161.114 208.99 161.744 208.809C162.383 208.618 163.013 208.522 163.634 208.522C164.751 208.522 165.61 208.794 166.211 209.338C166.822 209.873 167.127 210.617 167.127 211.572C167.127 212.469 166.841 213.333 166.268 214.163C165.705 214.994 164.598 216.096 162.947 217.471V217.499H167.142V219.117H160.269V217.499ZM169.399 208.665H176.099V210.283L173.164 212.946V212.975H173.408C174.286 212.975 174.978 213.228 175.484 213.734C175.989 214.23 176.242 214.927 176.242 215.824C176.242 216.922 175.908 217.771 175.24 218.373C174.572 218.964 173.618 219.26 172.377 219.26C171.26 219.26 170.243 219.007 169.327 218.502L169.843 216.927C170.73 217.404 171.546 217.642 172.291 217.642C172.921 217.642 173.408 217.49 173.751 217.184C174.095 216.879 174.267 216.435 174.267 215.853C174.267 215.318 174.071 214.936 173.68 214.707C173.298 214.469 172.62 214.349 171.647 214.349H170.787V212.918L173.651 210.312V210.283H169.399V208.665Z" fill="black"></path><path d="M160.873 253.085H167.574V254.703L164.639 257.366V257.395H164.882C165.76 257.395 166.452 257.648 166.958 258.154C167.464 258.65 167.717 259.347 167.717 260.244C167.717 261.342 167.383 262.191 166.715 262.793C166.047 263.384 165.092 263.68 163.851 263.68C162.735 263.68 161.718 263.427 160.802 262.921L161.317 261.347C162.205 261.824 163.021 262.062 163.765 262.062C164.395 262.062 164.882 261.91 165.226 261.604C165.569 261.299 165.741 260.855 165.741 260.273C165.741 259.738 165.546 259.356 165.154 259.127C164.772 258.889 164.095 258.769 163.121 258.769H162.262V257.338L165.126 254.732V254.703H160.873V253.085ZM170.461 254.216C171.129 253.367 172.136 252.942 173.482 252.942C174.828 252.942 175.83 253.367 176.489 254.216C177.157 255.066 177.491 256.431 177.491 258.311C177.491 260.192 177.157 261.557 176.489 262.406C175.83 263.256 174.828 263.68 173.482 263.68C172.136 263.68 171.129 263.256 170.461 262.406C169.802 261.557 169.473 260.192 169.473 258.311C169.473 256.431 169.802 255.066 170.461 254.216ZM171.993 261.261C172.317 261.833 172.814 262.12 173.482 262.12C174.15 262.12 174.646 261.833 174.971 261.261C175.296 260.688 175.458 259.705 175.458 258.311C175.458 256.918 175.296 255.935 174.971 255.362C174.646 254.789 174.15 254.503 173.482 254.503C172.814 254.503 172.317 254.789 171.993 255.362C171.668 255.935 171.506 256.918 171.506 258.311C171.506 259.705 171.668 260.688 171.993 261.261Z" fill="black"></path><path d="M206.905 130.641V122.523H206.891L204.385 124.813L203.713 123.153L206.905 120.189H208.967V130.641H206.905ZM213.443 121.32C214.112 120.47 215.119 120.046 216.464 120.046C217.81 120.046 218.812 120.47 219.471 121.32C220.139 122.169 220.473 123.534 220.473 125.415C220.473 127.295 220.139 128.66 219.471 129.51C218.812 130.359 217.81 130.784 216.464 130.784C215.119 130.784 214.112 130.359 213.443 129.51C212.785 128.66 212.456 127.295 212.456 125.415C212.456 123.534 212.785 122.169 213.443 121.32ZM214.975 128.364C215.3 128.937 215.796 129.223 216.464 129.223C217.133 129.223 217.629 128.937 217.953 128.364C218.278 127.791 218.44 126.808 218.44 125.415C218.44 124.021 218.278 123.038 217.953 122.465C217.629 121.893 217.133 121.606 216.464 121.606C215.796 121.606 215.3 121.893 214.975 122.465C214.651 123.038 214.489 124.021 214.489 125.415C214.489 126.808 214.651 127.791 214.975 128.364Z" fill="black"></path><path d="M206.905 175.062V166.944H206.891L204.385 169.235L203.713 167.574L206.905 164.611H208.967V175.062H206.905ZM212.957 164.611H220.072V166.229C218.488 168.834 217.18 171.779 216.149 175.062H214.03C215.119 171.865 216.493 168.935 218.154 166.272V166.229H212.957V164.611Z" fill="black"></path><path d="M204.588 217.499C205.895 216.478 206.897 215.624 207.594 214.936C208.301 214.24 208.773 213.662 209.012 213.204C209.25 212.746 209.37 212.269 209.37 211.772C209.37 210.713 208.802 210.183 207.666 210.183C206.864 210.183 205.952 210.512 204.931 211.171L204.401 209.567C204.879 209.243 205.432 208.99 206.062 208.809C206.702 208.618 207.332 208.522 207.952 208.522C209.069 208.522 209.928 208.794 210.529 209.338C211.14 209.873 211.446 210.617 211.446 211.572C211.446 212.469 211.159 213.333 210.587 214.163C210.023 214.994 208.916 216.096 207.265 217.471V217.499H211.46V219.117H204.588V217.499ZM217.497 215.395V211.286H217.468L214.633 215.366V215.395H217.497ZM219.43 215.395H221.033V216.97H219.43V219.117H217.497V216.97H212.772V215.395L217.497 208.665H219.43V215.395Z" fill="black"></path><path d="M204.395 253.085H211.095V254.703L208.16 257.366V257.395H208.404C209.282 257.395 209.974 257.648 210.48 258.154C210.986 258.65 211.239 259.347 211.239 260.244C211.239 261.342 210.904 262.191 210.236 262.793C209.568 263.384 208.614 263.68 207.373 263.68C206.256 263.68 205.24 263.427 204.323 262.921L204.839 261.347C205.726 261.824 206.542 262.062 207.287 262.062C207.917 262.062 208.404 261.91 208.747 261.604C209.091 261.299 209.263 260.855 209.263 260.273C209.263 259.738 209.067 259.356 208.676 259.127C208.294 258.889 207.616 258.769 206.643 258.769H205.784V257.338L208.647 254.732V254.703H204.395V253.085ZM216.603 263.537V255.419H216.588L214.083 257.71L213.41 256.049L216.603 253.085H218.664V263.537H216.603Z" fill="black"></path><path d="M251.06 130.641V122.523H251.045L248.54 124.813L247.867 123.153L251.06 120.189H253.121V130.641H251.06ZM260.218 130.641V122.523H260.203L257.698 124.813L257.025 123.153L260.218 120.189H262.28V130.641H260.218Z" fill="#CC2936"></path><path d="M250.958 175.062V166.944H250.944L248.438 169.235L247.765 167.574L250.958 164.611H253.02V175.062H250.958ZM257.811 165.198C258.46 164.711 259.362 164.468 260.517 164.468C261.672 164.468 262.574 164.711 263.223 165.198C263.872 165.675 264.197 166.305 264.197 167.088C264.197 168.09 263.6 168.863 262.407 169.407V169.436C263.82 169.97 264.526 170.891 264.526 172.199C264.526 173.115 264.173 173.846 263.467 174.39C262.76 174.934 261.777 175.206 260.517 175.206C259.257 175.206 258.274 174.934 257.568 174.39C256.861 173.846 256.508 173.115 256.508 172.199C256.508 171.664 256.68 171.178 257.024 170.739C257.377 170.29 257.897 169.923 258.584 169.636V169.608C258.031 169.331 257.601 168.973 257.296 168.534C256.99 168.095 256.838 167.613 256.838 167.088C256.838 166.305 257.162 165.675 257.811 165.198ZM260.56 168.849C261.725 168.505 262.307 167.985 262.307 167.288C262.307 166.878 262.149 166.548 261.834 166.3C261.519 166.052 261.08 165.928 260.517 165.928C259.964 165.928 259.529 166.052 259.214 166.3C258.909 166.548 258.756 166.878 258.756 167.288C258.756 168.004 259.357 168.524 260.56 168.849ZM260.36 170.28C259.071 170.672 258.427 171.278 258.427 172.099C258.427 172.595 258.618 172.996 258.999 173.301C259.381 173.597 259.887 173.745 260.517 173.745C261.147 173.745 261.643 173.597 262.006 173.301C262.378 172.996 262.565 172.595 262.565 172.099C262.565 171.66 262.402 171.302 262.078 171.025C261.763 170.739 261.19 170.49 260.36 170.28Z" fill="#CC2936"></path><path d="M248.642 217.865C249.95 216.843 250.952 215.989 251.649 215.302C252.355 214.605 252.828 214.027 253.066 213.569C253.305 213.111 253.424 212.634 253.424 212.138C253.424 211.078 252.856 210.548 251.72 210.548C250.919 210.548 250.007 210.878 248.986 211.536L248.456 209.933C248.933 209.608 249.487 209.355 250.117 209.174C250.756 208.983 251.386 208.887 252.007 208.887C253.124 208.887 253.983 209.16 254.584 209.704C255.195 210.238 255.5 210.983 255.5 211.937C255.5 212.834 255.214 213.698 254.641 214.529C254.078 215.359 252.971 216.461 251.32 217.836V217.865H255.515V219.482H248.642V217.865ZM264.343 210.649H260.063L259.948 213.068H259.977C260.454 212.83 260.979 212.71 261.552 212.71C262.582 212.71 263.379 212.992 263.943 213.555C264.506 214.118 264.787 214.915 264.787 215.946C264.787 218.399 263.389 219.626 260.592 219.626C259.571 219.626 258.616 219.42 257.729 219.01L258.158 217.392C259.017 217.803 259.814 218.008 260.549 218.008C262.057 218.008 262.811 217.32 262.811 215.946C262.811 214.81 262.263 214.242 261.165 214.242C260.602 214.242 260.11 214.438 259.69 214.829H257.972L258.259 209.031H264.343V210.649Z" fill="#CC2936"></path><path d="M295.378 130.641V122.523H295.364L292.858 124.813L292.185 123.153L295.378 120.189H297.44V130.641H295.378ZM301.515 129.023C302.823 128.001 303.825 127.147 304.522 126.46C305.228 125.763 305.701 125.186 305.939 124.728C306.178 124.269 306.297 123.792 306.297 123.296C306.297 122.236 305.729 121.707 304.593 121.707C303.792 121.707 302.88 122.036 301.859 122.694L301.329 121.091C301.806 120.766 302.36 120.513 302.99 120.332C303.629 120.141 304.259 120.046 304.88 120.046C305.997 120.046 306.856 120.318 307.457 120.862C308.068 121.396 308.373 122.141 308.373 123.095C308.373 123.993 308.087 124.856 307.514 125.687C306.951 126.517 305.844 127.62 304.193 128.994V129.023H308.388V130.641H301.515V129.023Z" fill="#CC2936"></path><path d="M295.378 175.062V166.944H295.364L292.858 169.235L292.185 167.574L295.378 164.611H297.44V175.062H295.378ZM302.589 173.588C303.677 173.521 304.536 173.282 305.166 172.872C305.806 172.461 306.288 171.841 306.612 171.011L306.598 170.996C305.968 171.445 305.238 171.669 304.407 171.669C303.31 171.669 302.46 171.369 301.859 170.767C301.267 170.156 300.971 169.273 300.971 168.119C300.971 167.021 301.329 166.138 302.045 165.47C302.761 164.802 303.706 164.468 304.88 164.468C306.121 164.468 307.085 164.826 307.772 165.541C308.459 166.248 308.803 167.264 308.803 168.591C308.803 170.615 308.278 172.204 307.228 173.359C306.187 174.514 304.76 175.129 302.947 175.206L302.589 173.588ZM304.88 166C304.259 166 303.777 166.181 303.434 166.544C303.1 166.906 302.933 167.431 302.933 168.119C302.933 168.806 303.104 169.336 303.448 169.708C303.792 170.08 304.269 170.266 304.88 170.266C305.472 170.266 305.944 170.075 306.297 169.693C306.65 169.312 306.827 168.787 306.827 168.119C306.827 167.441 306.655 166.921 306.312 166.558C305.968 166.186 305.491 166 304.88 166Z" fill="#CC2936"></path><path d="M293.064 217.499C294.372 216.478 295.374 215.624 296.071 214.936C296.777 214.24 297.25 213.662 297.488 213.204C297.727 212.746 297.846 212.269 297.846 211.772C297.846 210.713 297.278 210.183 296.142 210.183C295.341 210.183 294.429 210.512 293.408 211.171L292.878 209.567C293.355 209.243 293.909 208.99 294.539 208.809C295.178 208.618 295.808 208.522 296.429 208.522C297.545 208.522 298.404 208.794 299.006 209.338C299.617 209.873 299.922 210.617 299.922 211.572C299.922 212.469 299.636 213.333 299.063 214.163C298.5 214.994 297.393 216.096 295.741 217.471V217.499H299.936V219.117H293.064V217.499ZM307.491 208.522L307.849 210.14C306.818 210.207 305.992 210.45 305.372 210.87C304.752 211.281 304.284 211.896 303.969 212.717L303.983 212.732C304.594 212.283 305.324 212.059 306.174 212.059C307.272 212.059 308.116 212.359 308.708 212.961C309.309 213.562 309.61 214.421 309.61 215.538C309.61 216.664 309.247 217.566 308.522 218.244C307.806 218.922 306.861 219.26 305.687 219.26C304.456 219.26 303.496 218.907 302.809 218.201C302.122 217.485 301.778 216.44 301.778 215.065C301.778 213.109 302.289 211.548 303.31 210.384C304.332 209.219 305.725 208.599 307.491 208.522ZM305.687 217.728C306.307 217.728 306.789 217.542 307.133 217.17C307.477 216.798 307.649 216.254 307.649 215.538C307.649 214.889 307.472 214.383 307.119 214.02C306.775 213.648 306.298 213.462 305.687 213.462C305.095 213.462 304.623 213.648 304.27 214.02C303.926 214.392 303.754 214.898 303.754 215.538C303.754 216.254 303.921 216.798 304.255 217.17C304.599 217.542 305.076 217.728 305.687 217.728Z" fill="#CC2936"></path><path d="M88.5094 40.7498H90.7562V44.3181C90.7562 48.6464 92.8653 51.8458 97.0834 53.9163L95.8774 55.6179C94.5338 55.0012 93.3278 54.1256 92.2595 52.9912C91.1912 51.8568 90.3487 50.5683 89.7319 49.1255C89.1042 50.5683 88.2341 51.8568 87.1217 52.9912C86.0204 54.1256 84.7759 55.0012 83.3882 55.6179L82.1822 53.9163C86.4004 51.8458 88.5094 48.6464 88.5094 44.3181V40.7498ZM94.8201 42.9635L96.8191 43.4756C96.2684 45.5792 95.4479 47.4514 94.3576 49.0925L92.5734 48.1508C93.5536 46.664 94.3025 44.9349 94.8201 42.9635ZM86.494 43.7564C86.0314 45.9151 85.2825 47.8534 84.2472 49.5715L82.4631 48.696C83.3992 47.088 84.082 45.2818 84.5116 43.2774L86.494 43.7564Z" fill="black"></path><path d="M141.599 52.6443L140.211 54.2798C138.129 52.6498 136.395 50.5352 135.007 47.936V52.9747C135.007 53.6355 134.985 54.1256 134.941 54.445C134.908 54.7644 134.792 55.0232 134.594 55.2214C134.396 55.4307 134.148 55.5573 133.851 55.6014C133.564 55.6455 133.113 55.6675 132.496 55.6675C132.166 55.6675 131.312 55.6399 129.935 55.5849L129.836 53.7181C131.048 53.7732 131.791 53.8007 132.067 53.8007C132.43 53.8007 132.645 53.7677 132.711 53.7016C132.777 53.6245 132.81 53.3987 132.81 53.0243V40.7498H135.007V43.4426C135.349 44.4558 135.806 45.48 136.378 46.5153C137.524 45.5681 138.614 44.4062 139.649 43.0296L141.235 44.2686C140.123 45.8325 138.873 47.1651 137.485 48.2664C138.697 49.9956 140.068 51.4548 141.599 52.6443ZM126.367 45.871V43.9877H132.034V45.871C131.725 47.4459 131.125 48.9603 130.233 50.4141C129.352 51.8568 128.278 53.0738 127.011 54.065L125.772 52.3139C126.72 51.565 127.595 50.5958 128.399 49.4063C129.203 48.2059 129.77 47.0274 130.101 45.871H126.367Z" fill="black"></path><path d="M185.62 52.4956L184.315 54.1476C182.091 52.2864 180.268 50.2103 178.847 47.9195V55.717H176.633V47.9195C175.213 50.2103 173.39 52.2864 171.165 54.1476L169.86 52.4956C172.647 50.2268 174.767 47.8259 176.22 45.2928H170.587V43.4095H176.633V40.5846H178.847V43.4095H184.893V45.2928H179.26C180.714 47.8259 182.834 50.2268 185.62 52.4956Z" fill="black"></path><path d="M225.047 44.4668C223.858 43.7399 222.773 42.991 221.793 42.2201C220.813 42.991 219.728 43.7399 218.538 44.4668H225.047ZM216.374 50.4967L218.125 49.5055C218.742 50.4746 219.309 51.4879 219.827 52.5452L218.026 53.4042C217.542 52.391 216.991 51.4218 216.374 50.4967ZM227.129 50.348C226.633 51.3832 226.061 52.3965 225.411 53.3877L223.726 52.3965C224.398 51.3502 224.932 50.381 225.328 49.4889L227.129 50.348ZM222.916 53.5694H228.979V55.3701H214.607V53.5694H220.67V49.3568H215.268V47.6222H220.67V46.2014H217.498V45.0615C216.551 45.5792 215.592 46.0472 214.623 46.4657L213.863 44.7642C216.264 43.6518 218.445 42.3302 220.405 40.7993H223.181C225.141 42.3302 227.322 43.6518 229.723 44.7642L228.963 46.4657C227.994 46.0472 227.035 45.5792 226.088 45.0615V46.2014H222.916V47.6222H228.318V49.3568H222.916V53.5694Z" fill="black"></path><path d="M266.971 41.0141V45.0615H272.125V46.9448H266.971V53.1895H273.282V55.1223H258.414V53.1895H264.724V46.9448H259.57V45.0615H264.724V41.0141H266.971Z" fill="#CC2936"></path><path d="M305.987 48.6794V52.8095H313.818V48.6794H305.987ZM305.987 46.8622H313.818V43.0626H305.987V46.8622ZM303.79 41.1793H316.015V55.5518H313.818V54.6267H305.987V55.5518H303.79V41.1793Z" fill="#CC2936"></path><path d="M34.4317 139.585H36.3136V138.584H37.3393V139.585H39.1161V140.441H37.3393V141.459C37.5439 141.448 37.7054 141.443 37.8239 141.443C38.6208 141.443 39.2642 141.629 39.7542 142C40.2441 142.372 40.4891 142.821 40.4891 143.349C40.4891 143.984 40.2926 144.485 39.8995 144.851C39.5119 145.217 38.9357 145.443 38.1712 145.53L37.9531 144.617C38.47 144.552 38.8469 144.423 39.0838 144.229C39.3207 144.03 39.4392 143.755 39.4392 143.405C39.4392 143.136 39.2911 142.905 38.995 142.711C38.7042 142.512 38.3138 142.412 37.8239 142.412C37.7054 142.412 37.5439 142.417 37.3393 142.428V144.108C37.3393 144.604 37.2424 144.945 37.0485 145.134C36.8547 145.328 36.5101 145.425 36.0147 145.425C35.4763 145.425 35.0186 145.26 34.6417 144.932C34.2648 144.598 34.0764 144.189 34.0764 143.704C34.0764 143.231 34.2702 142.805 34.6579 142.428C35.0509 142.046 35.6028 141.771 36.3136 141.604V140.441H34.4317V139.585ZM39.3746 139.771L40.0934 139.262C40.5726 139.898 40.9899 140.511 41.3452 141.104L40.586 141.556C40.2091 140.931 39.8053 140.336 39.3746 139.771ZM36.3136 142.59C35.9151 142.703 35.6136 142.859 35.409 143.058C35.2044 143.252 35.1021 143.467 35.1021 143.704C35.1021 143.914 35.1855 144.103 35.3525 144.27C35.5248 144.431 35.7105 144.512 35.9097 144.512C36.0659 144.512 36.1709 144.48 36.2247 144.415C36.2839 144.35 36.3136 144.229 36.3136 144.052V142.59ZM49.3814 139.989V140.902H47.6853C48.0945 141.887 48.7218 142.867 49.5671 143.842L48.9614 144.867C48.1914 143.898 47.5884 142.894 47.1523 141.855V145.853H46.1023V141.863C45.65 142.897 45.0174 143.901 44.2043 144.875L43.5259 144.14V145.853H42.4921V142.428C42.309 142.73 42.1367 142.975 41.9752 143.163L41.636 141.952C42.3413 141.026 42.8286 139.876 43.0978 138.503L44.0913 138.681C43.9728 139.435 43.7843 140.124 43.5259 140.748V143.979C44.4466 142.967 45.1358 141.941 45.5935 140.902H43.9216V139.989H46.1023V138.535H47.1523V139.989H49.3814ZM50.714 139.957V139.044H54.0577V139.957C54.0308 140.231 53.9715 140.713 53.88 141.403C54.2677 141.424 54.6877 141.489 55.1399 141.596C55.1507 141.246 55.1561 140.611 55.1561 139.69H56.1818C56.1818 140.487 56.1684 141.228 56.1414 141.911C56.5668 142.078 56.9895 142.291 57.4094 142.549L56.9572 143.422C56.6556 143.222 56.3595 143.058 56.0687 142.929C56.0203 143.338 55.9557 143.683 55.8749 143.963C55.7941 144.237 55.673 144.48 55.5115 144.69C55.3553 144.894 55.1857 145.064 55.0026 145.198C54.8196 145.333 54.5692 145.489 54.2515 145.667L53.7265 144.811C53.985 144.671 54.1788 144.555 54.3081 144.464C54.4427 144.367 54.5719 144.237 54.6957 144.076C54.8196 143.909 54.9084 143.71 54.9623 143.478C55.0161 143.247 55.0592 142.945 55.0915 142.574C54.6284 142.439 54.1788 142.361 53.7427 142.339C53.6566 142.862 53.565 143.306 53.4681 143.672C53.3712 144.038 53.2716 144.334 53.1693 144.56C53.067 144.781 52.9485 144.956 52.8139 145.085C52.6847 145.209 52.5555 145.293 52.4262 145.336C52.297 145.379 52.1409 145.4 51.9578 145.4C51.5109 145.4 51.0936 145.193 50.7059 144.779C50.3183 144.359 50.1244 143.887 50.1244 143.365C50.1244 142.864 50.3613 142.434 50.8352 142.073C51.3144 141.712 51.9739 141.491 52.8139 141.411C52.8785 140.904 52.9324 140.42 52.9754 139.957H50.714ZM52.6766 142.372C52.1866 142.436 51.8124 142.56 51.554 142.743C51.3009 142.921 51.1744 143.128 51.1744 143.365C51.1744 143.586 51.2578 143.807 51.4247 144.027C51.5917 144.243 51.7505 144.35 51.9013 144.35C52.1974 144.35 52.4558 143.691 52.6766 142.372Z" fill="#CC2936"></path><path d="M299.432 139.585H301.314V138.584H302.339V139.585H304.116V140.441H302.339V141.459C302.544 141.448 302.705 141.443 302.824 141.443C303.621 141.443 304.264 141.629 304.754 142C305.244 142.372 305.489 142.821 305.489 143.349C305.489 143.984 305.293 144.485 304.9 144.851C304.512 145.217 303.936 145.443 303.171 145.53L302.953 144.617C303.47 144.552 303.847 144.423 304.084 144.229C304.321 144.03 304.439 143.755 304.439 143.405C304.439 143.136 304.291 142.905 303.995 142.711C303.704 142.512 303.314 142.412 302.824 142.412C302.705 142.412 302.544 142.417 302.339 142.428V144.108C302.339 144.604 302.242 144.945 302.049 145.134C301.855 145.328 301.51 145.425 301.015 145.425C300.476 145.425 300.019 145.26 299.642 144.932C299.265 144.598 299.076 144.189 299.076 143.704C299.076 143.231 299.27 142.805 299.658 142.428C300.051 142.046 300.603 141.771 301.314 141.604V140.441H299.432V139.585ZM304.375 139.771L305.093 139.262C305.573 139.898 305.99 140.511 306.345 141.104L305.586 141.556C305.209 140.931 304.805 140.336 304.375 139.771ZM301.314 142.59C300.915 142.703 300.614 142.859 300.409 143.058C300.204 143.252 300.102 143.467 300.102 143.704C300.102 143.914 300.186 144.103 300.352 144.27C300.525 144.431 300.711 144.512 300.91 144.512C301.066 144.512 301.171 144.48 301.225 144.415C301.284 144.35 301.314 144.229 301.314 144.052V142.59ZM314.381 139.989V140.902H312.685C313.095 141.887 313.722 142.867 314.567 143.842L313.961 144.867C313.191 143.898 312.588 142.894 312.152 141.855V145.853H311.102V141.863C310.65 142.897 310.017 143.901 309.204 144.875L308.526 144.14V145.853H307.492V142.428C307.309 142.73 307.137 142.975 306.975 143.163L306.636 141.952C307.341 141.026 307.829 139.876 308.098 138.503L309.091 138.681C308.973 139.435 308.784 140.124 308.526 140.748V143.979C309.447 142.967 310.136 141.941 310.593 140.902H308.922V139.989H311.102V138.535H312.152V139.989H314.381ZM315.714 139.957V139.044H319.058V139.957C319.031 140.231 318.972 140.713 318.88 141.403C319.268 141.424 319.688 141.489 320.14 141.596C320.151 141.246 320.156 140.611 320.156 139.69H321.182C321.182 140.487 321.168 141.228 321.141 141.911C321.567 142.078 321.989 142.291 322.409 142.549L321.957 143.422C321.656 143.222 321.359 143.058 321.069 142.929C321.02 143.338 320.956 143.683 320.875 143.963C320.794 144.237 320.673 144.48 320.511 144.69C320.355 144.894 320.186 145.064 320.003 145.198C319.82 145.333 319.569 145.489 319.252 145.667L318.727 144.811C318.985 144.671 319.179 144.555 319.308 144.464C319.443 144.367 319.572 144.237 319.696 144.076C319.82 143.909 319.908 143.71 319.962 143.478C320.016 143.247 320.059 142.945 320.091 142.574C319.628 142.439 319.179 142.361 318.743 142.339C318.657 142.862 318.565 143.306 318.468 143.672C318.371 144.038 318.272 144.334 318.169 144.56C318.067 144.781 317.949 144.956 317.814 145.085C317.685 145.209 317.555 145.293 317.426 145.336C317.297 145.379 317.141 145.4 316.958 145.4C316.511 145.4 316.094 145.193 315.706 144.779C315.318 144.359 315.124 143.887 315.124 143.365C315.124 142.864 315.361 142.434 315.835 142.073C316.314 141.712 316.974 141.491 317.814 141.411C317.879 140.904 317.932 140.42 317.975 139.957H315.714ZM317.677 142.372C317.187 142.436 316.812 142.56 316.554 142.743C316.301 142.921 316.174 143.128 316.174 143.365C316.174 143.586 316.258 143.807 316.425 144.027C316.592 144.243 316.75 144.35 316.901 144.35C317.197 144.35 317.456 143.691 317.677 142.372Z" fill="#CC2936"></path><path d="M299.432 184.585H301.314V183.584H302.339V184.585H304.116V185.441H302.339V186.459C302.544 186.448 302.705 186.443 302.824 186.443C303.621 186.443 304.264 186.629 304.754 187C305.244 187.372 305.489 187.821 305.489 188.349C305.489 188.984 305.293 189.485 304.9 189.851C304.512 190.217 303.936 190.443 303.171 190.53L302.953 189.617C303.47 189.552 303.847 189.423 304.084 189.229C304.321 189.03 304.439 188.755 304.439 188.405C304.439 188.136 304.291 187.905 303.995 187.711C303.704 187.512 303.314 187.412 302.824 187.412C302.705 187.412 302.544 187.417 302.339 187.428V189.108C302.339 189.604 302.242 189.945 302.049 190.134C301.855 190.328 301.51 190.425 301.015 190.425C300.476 190.425 300.019 190.26 299.642 189.932C299.265 189.598 299.076 189.189 299.076 188.704C299.076 188.231 299.27 187.805 299.658 187.428C300.051 187.046 300.603 186.771 301.314 186.604V185.441H299.432V184.585ZM304.375 184.771L305.093 184.262C305.573 184.898 305.99 185.511 306.345 186.104L305.586 186.556C305.209 185.931 304.805 185.336 304.375 184.771ZM301.314 187.59C300.915 187.703 300.614 187.859 300.409 188.058C300.204 188.252 300.102 188.467 300.102 188.704C300.102 188.914 300.186 189.103 300.352 189.27C300.525 189.431 300.711 189.512 300.91 189.512C301.066 189.512 301.171 189.48 301.225 189.415C301.284 189.35 301.314 189.229 301.314 189.052V187.59ZM314.381 184.989V185.902H312.685C313.095 186.887 313.722 187.867 314.567 188.842L313.961 189.867C313.191 188.898 312.588 187.894 312.152 186.855V190.853H311.102V186.863C310.65 187.897 310.017 188.901 309.204 189.875L308.526 189.14V190.853H307.492V187.428C307.309 187.73 307.137 187.975 306.975 188.163L306.636 186.952C307.341 186.026 307.829 184.876 308.098 183.503L309.091 183.681C308.973 184.435 308.784 185.124 308.526 185.748V188.979C309.447 187.967 310.136 186.941 310.593 185.902H308.922V184.989H311.102V183.535H312.152V184.989H314.381ZM315.714 184.957V184.044H319.058V184.957C319.031 185.231 318.972 185.713 318.88 186.403C319.268 186.424 319.688 186.489 320.14 186.596C320.151 186.246 320.156 185.611 320.156 184.69H321.182C321.182 185.487 321.168 186.228 321.141 186.911C321.567 187.078 321.989 187.291 322.409 187.549L321.957 188.422C321.656 188.222 321.359 188.058 321.069 187.929C321.02 188.338 320.956 188.683 320.875 188.963C320.794 189.237 320.673 189.48 320.511 189.69C320.355 189.894 320.186 190.064 320.003 190.198C319.82 190.333 319.569 190.489 319.252 190.667L318.727 189.811C318.985 189.671 319.179 189.555 319.308 189.464C319.443 189.367 319.572 189.237 319.696 189.076C319.82 188.909 319.908 188.71 319.962 188.478C320.016 188.247 320.059 187.945 320.091 187.574C319.628 187.439 319.179 187.361 318.743 187.339C318.657 187.862 318.565 188.306 318.468 188.672C318.371 189.038 318.272 189.334 318.169 189.56C318.067 189.781 317.949 189.956 317.814 190.085C317.685 190.209 317.555 190.293 317.426 190.336C317.297 190.379 317.141 190.4 316.958 190.4C316.511 190.4 316.094 190.193 315.706 189.779C315.318 189.359 315.124 188.887 315.124 188.365C315.124 187.864 315.361 187.434 315.835 187.073C316.314 186.712 316.974 186.491 317.814 186.411C317.879 185.904 317.932 185.42 317.975 184.957H315.714ZM317.677 187.372C317.187 187.436 316.812 187.56 316.554 187.743C316.301 187.921 316.174 188.128 316.174 188.365C316.174 188.586 316.258 188.807 316.425 189.027C316.592 189.243 316.75 189.35 316.901 189.35C317.197 189.35 317.456 188.691 317.677 187.372Z" fill="#CC2936"></path><path d="M299.432 228.585H301.314V227.584H302.339V228.585H304.116V229.441H302.339V230.459C302.544 230.448 302.705 230.443 302.824 230.443C303.621 230.443 304.264 230.629 304.754 231C305.244 231.372 305.489 231.821 305.489 232.349C305.489 232.984 305.293 233.485 304.9 233.851C304.512 234.217 303.936 234.443 303.171 234.53L302.953 233.617C303.47 233.552 303.847 233.423 304.084 233.229C304.321 233.03 304.439 232.755 304.439 232.405C304.439 232.136 304.291 231.905 303.995 231.711C303.704 231.512 303.314 231.412 302.824 231.412C302.705 231.412 302.544 231.417 302.339 231.428V233.108C302.339 233.604 302.242 233.945 302.049 234.134C301.855 234.328 301.51 234.425 301.015 234.425C300.476 234.425 300.019 234.26 299.642 233.932C299.265 233.598 299.076 233.189 299.076 232.704C299.076 232.231 299.27 231.805 299.658 231.428C300.051 231.046 300.603 230.771 301.314 230.604V229.441H299.432V228.585ZM304.375 228.771L305.093 228.262C305.573 228.898 305.99 229.511 306.345 230.104L305.586 230.556C305.209 229.931 304.805 229.336 304.375 228.771ZM301.314 231.59C300.915 231.703 300.614 231.859 300.409 232.058C300.204 232.252 300.102 232.467 300.102 232.704C300.102 232.914 300.186 233.103 300.352 233.27C300.525 233.431 300.711 233.512 300.91 233.512C301.066 233.512 301.171 233.48 301.225 233.415C301.284 233.35 301.314 233.229 301.314 233.052V231.59ZM314.381 228.989V229.902H312.685C313.095 230.887 313.722 231.867 314.567 232.842L313.961 233.867C313.191 232.898 312.588 231.894 312.152 230.855V234.853H311.102V230.863C310.65 231.897 310.017 232.901 309.204 233.875L308.526 233.14V234.853H307.492V231.428C307.309 231.73 307.137 231.975 306.975 232.163L306.636 230.952C307.341 230.026 307.829 228.876 308.098 227.503L309.091 227.681C308.973 228.435 308.784 229.124 308.526 229.748V232.979C309.447 231.967 310.136 230.941 310.593 229.902H308.922V228.989H311.102V227.535H312.152V228.989H314.381ZM315.714 228.957V228.044H319.058V228.957C319.031 229.231 318.972 229.713 318.88 230.403C319.268 230.424 319.688 230.489 320.14 230.596C320.151 230.246 320.156 229.611 320.156 228.69H321.182C321.182 229.487 321.168 230.228 321.141 230.911C321.567 231.078 321.989 231.291 322.409 231.549L321.957 232.422C321.656 232.222 321.359 232.058 321.069 231.929C321.02 232.338 320.956 232.683 320.875 232.963C320.794 233.237 320.673 233.48 320.511 233.69C320.355 233.894 320.186 234.064 320.003 234.198C319.82 234.333 319.569 234.489 319.252 234.667L318.727 233.811C318.985 233.671 319.179 233.555 319.308 233.464C319.443 233.367 319.572 233.237 319.696 233.076C319.82 232.909 319.908 232.71 319.962 232.478C320.016 232.247 320.059 231.945 320.091 231.574C319.628 231.439 319.179 231.361 318.743 231.339C318.657 231.862 318.565 232.306 318.468 232.672C318.371 233.038 318.272 233.334 318.169 233.56C318.067 233.781 317.949 233.956 317.814 234.085C317.685 234.209 317.555 234.293 317.426 234.336C317.297 234.379 317.141 234.4 316.958 234.4C316.511 234.4 316.094 234.193 315.706 233.779C315.318 233.359 315.124 232.887 315.124 232.365C315.124 231.864 315.361 231.434 315.835 231.073C316.314 230.712 316.974 230.491 317.814 230.411C317.879 229.904 317.932 229.42 317.975 228.957H315.714ZM317.677 231.372C317.187 231.436 316.812 231.56 316.554 231.743C316.301 231.921 316.174 232.128 316.174 232.365C316.174 232.586 316.258 232.807 316.425 233.027C316.592 233.243 316.75 233.35 316.901 233.35C317.197 233.35 317.456 232.691 317.677 231.372Z" fill="#CC2936"></path></svg> 