<?xml version="1.0" encoding="UTF-8"?> <svg xmlns="http://www.w3.org/2000/svg" width="28" height="28" viewBox="0 0 28 28" fill="none"><path d="M4.90047 27.9512L23.1016 27.9512C25.808 27.9512 28.002 25.7612 28.002 23.0598L28.002 4.89181C28.002 2.19038 25.808 0.000432968 23.1016 0.000432968L4.90047 0.000432968C2.1941 0.000432968 0.000152588 2.19038 0.000152588 4.89181L0.000152588 23.0598C0.000152588 25.7612 2.1941 27.9512 4.90047 27.9512Z" fill="url(#paint0_linear_1438_1928)"></path><path d="M16.0756 12.6953H15.6795C15.6651 12.6953 15.6508 12.6981 15.6374 12.7037C15.624 12.7092 15.6119 12.7173 15.6017 12.7275C15.5915 12.7377 15.5834 12.7499 15.5778 12.7632C15.5723 12.7766 15.5695 12.7909 15.5695 12.8054V14.3078L14.414 12.7603C14.3989 12.7402 14.3794 12.7238 14.3569 12.7126C14.3345 12.7013 14.3097 12.6955 14.2846 12.6955H13.9186C13.9041 12.6955 13.8898 12.6983 13.8765 12.7039C13.8631 12.7094 13.851 12.7175 13.8408 12.7277C13.8306 12.7379 13.8225 12.7501 13.817 12.7634C13.8114 12.7768 13.8086 12.7911 13.8086 12.8055V15.3045C13.8086 15.3336 13.8202 15.3616 13.8408 15.3823C13.8614 15.4029 13.8894 15.4145 13.9186 15.4145H14.3147C14.3439 15.4145 14.3719 15.4029 14.3925 15.3823C14.4132 15.3616 14.4248 15.3336 14.4248 15.3045V13.8161L15.5695 15.3493C15.5845 15.3694 15.604 15.3858 15.6264 15.397C15.6489 15.4083 15.6736 15.4141 15.6988 15.4141H16.0756C16.1048 15.4141 16.1328 15.4025 16.1534 15.3819C16.1741 15.3613 16.1857 15.3333 16.1857 15.3041V12.8051C16.1856 12.776 16.174 12.748 16.1534 12.7275C16.1327 12.7069 16.1047 12.6953 16.0756 12.6953Z" fill="black"></path><path d="M12.3297 14.7981H11.2353V12.8054C11.2353 12.7909 11.2325 12.7766 11.2269 12.7632C11.2214 12.7499 11.2133 12.7378 11.2031 12.7275C11.1929 12.7173 11.1807 12.7092 11.1674 12.7037C11.154 12.6982 11.1397 12.6953 11.1253 12.6953H10.7291C10.7147 12.6953 10.7004 12.6982 10.687 12.7037C10.6737 12.7092 10.6616 12.7173 10.6513 12.7275C10.6411 12.7378 10.633 12.7499 10.6275 12.7632C10.622 12.7766 10.6191 12.7909 10.6191 12.8054V15.3043C10.6191 15.3335 10.6307 15.3615 10.6514 15.3821C10.672 15.4027 10.7 15.4143 10.7291 15.4143H12.3298C12.359 15.4143 12.387 15.4027 12.4076 15.3821C12.4283 15.3615 12.4399 15.3335 12.4399 15.3043V14.9082C12.4399 14.8937 12.437 14.8794 12.4315 14.866C12.4259 14.8527 12.4178 14.8405 12.4076 14.8303C12.3974 14.8201 12.3852 14.812 12.3718 14.8065C12.3585 14.801 12.3441 14.7981 12.3297 14.7981Z" fill="black"></path><path d="M12.903 12.6953H13.2991C13.3283 12.6953 13.3563 12.7069 13.3769 12.7275C13.3976 12.7482 13.4092 12.7762 13.4092 12.8054V15.3043C13.4092 15.3335 13.3976 15.3615 13.3769 15.3821C13.3563 15.4027 13.3283 15.4143 13.2991 15.4143H12.903C12.8739 15.4143 12.8459 15.4027 12.8252 15.3821C12.8046 15.3615 12.793 15.3335 12.793 15.3043V12.8054C12.793 12.7762 12.8046 12.7482 12.8252 12.7275C12.8459 12.7069 12.8739 12.6953 12.903 12.6953Z" fill="black"></path><path d="M14.48 4C8.69205 4 4 8.69205 4 14.48C4 20.2679 8.69205 24.96 14.48 24.96C20.2679 24.96 24.96 20.2679 24.96 14.48C24.96 8.69205 20.2679 4 14.48 4ZM17.4442 18.1976C15.9131 19.4192 14.8305 19.9726 14.2779 20.2061C14.2392 20.2224 14.1967 20.2279 14.1551 20.2218C14.1135 20.2157 14.0744 20.1984 14.042 20.1717C14.0095 20.145 13.985 20.1099 13.9711 20.0702C13.9571 20.0305 13.9543 19.9878 13.963 19.9467C14.0202 19.6672 14.0629 19.3849 14.0908 19.1009C14.1042 18.9688 14.0654 18.8366 13.9828 18.7326C13.9001 18.6286 13.7801 18.561 13.6483 18.5442C10.9059 18.193 8.74875 16.2838 8.74875 13.9541C8.74875 11.3733 11.3147 9.28114 14.48 9.28114C17.6453 9.28114 20.2112 11.3733 20.2112 13.9541C20.2112 15.7267 19.0453 16.9202 17.4442 18.1976Z" fill="black"></path><path d="M18.2908 12.6953H16.6902C16.6757 12.6953 16.6614 12.6981 16.648 12.7037C16.6347 12.7092 16.6225 12.7173 16.6123 12.7275C16.6021 12.7377 16.594 12.7499 16.5885 12.7632C16.5829 12.7766 16.5801 12.7909 16.5801 12.8054V15.3043C16.5801 15.3335 16.5917 15.3615 16.6123 15.3821C16.633 15.4027 16.661 15.4143 16.6902 15.4143H18.2908C18.3053 15.4143 18.3196 15.4115 18.3329 15.406C18.3463 15.4004 18.3584 15.3923 18.3687 15.3821C18.3789 15.3719 18.387 15.3597 18.3925 15.3464C18.398 15.333 18.4009 15.3187 18.4009 15.3043V14.908C18.4009 14.8935 18.398 14.8792 18.3925 14.8659C18.387 14.8525 18.3789 14.8404 18.3687 14.8302C18.3584 14.8199 18.3463 14.8118 18.3329 14.8063C18.3196 14.8008 18.3053 14.7979 18.2908 14.7979H17.1964V14.3627H18.2908C18.32 14.3627 18.348 14.3511 18.3686 14.3305C18.3893 14.3098 18.4009 14.2818 18.4009 14.2527V13.8565C18.4009 13.8421 18.398 13.8278 18.3925 13.8144C18.387 13.8011 18.3789 13.7889 18.3687 13.7787C18.3584 13.7685 18.3463 13.7604 18.3329 13.7548C18.3196 13.7493 18.3053 13.7465 18.2908 13.7465H17.1964V13.3113H18.2908C18.3053 13.3113 18.3196 13.3085 18.3329 13.3029C18.3463 13.2974 18.3584 13.2893 18.3687 13.2791C18.3789 13.2688 18.387 13.2567 18.3925 13.2433C18.398 13.23 18.4009 13.2157 18.4009 13.2012V12.8051C18.4008 12.776 18.3892 12.748 18.3686 12.7275C18.3479 12.7069 18.32 12.6953 18.2908 12.6953Z" fill="black"></path><defs><linearGradient id="paint0_linear_1438_1928" x1="64.1013" y1="27.3834" x2="-65.2276" y2="27.3834" gradientUnits="userSpaceOnUse"><stop offset="1" stop-color="white"></stop></linearGradient></defs></svg> 