<?xml version="1.0" encoding="UTF-8"?> <svg xmlns="http://www.w3.org/2000/svg" width="28" height="28" viewBox="0 0 28 28" fill="none"><path d="M4.90047 27.9512L23.1016 27.9512C25.808 27.9512 28.002 25.7612 28.002 23.0598L28.002 4.89181C28.002 2.19038 25.808 0.000432968 23.1016 0.000432968L4.90047 0.000432968C2.1941 0.000432968 0.000152588 2.19038 0.000152588 4.89181L0.000152588 23.0598C0.000152588 25.7612 2.1941 27.9512 4.90047 27.9512Z" fill="url(#paint0_linear_1438_1929)"></path><path d="M24.2277 9.77282C23.5769 9.77282 23.1154 10.2819 23.1154 11.0635V13.9303H22.122V8.88424H23.1035V9.50042C23.2245 9.29619 23.398 9.12806 23.6059 9.01344C23.8138 8.89882 24.0486 8.84189 24.286 8.84855H24.6428V9.77282H24.2277ZM21.4356 11.4073C21.4356 9.90249 20.365 8.77718 18.916 8.77718C18.5736 8.7795 18.2351 8.84949 17.9199 8.98312C17.6047 9.11675 17.3191 9.31138 17.0794 9.55581C16.8397 9.80025 16.6507 10.0897 16.5232 10.4074C16.3958 10.7251 16.3325 11.0649 16.3369 11.4073C16.3369 12.9108 17.4968 14.048 19.01 14.048C19.4327 14.056 19.8511 13.9623 20.23 13.7747C20.6088 13.5872 20.9371 13.3113 21.187 12.9703L20.4661 12.4422C20.3007 12.673 20.0818 12.8603 19.8283 12.9881C19.5747 13.1159 19.2939 13.1804 19.01 13.1761C18.6056 13.1742 18.2152 13.0275 17.9097 12.7626C17.6042 12.4976 17.4036 12.132 17.3445 11.732H21.438L21.4356 11.4073ZM17.3659 10.9445C17.5432 10.1749 18.1582 9.65387 18.9041 9.65387C19.65 9.65387 20.2638 10.1749 20.4304 10.9445H17.3659ZM13.1903 8.77718C12.8584 8.77746 12.5298 8.84351 12.2235 8.97153C11.9172 9.09955 11.6393 9.28699 11.4059 9.52302V7H10.4126V13.9303H11.394V13.2903C11.8695 13.7713 12.5164 14.0438 13.1927 14.048C13.5435 14.0555 13.8923 13.9928 14.2186 13.8637C14.5449 13.7346 14.8421 13.5417 15.0929 13.2963C15.3436 13.0508 15.5429 12.7577 15.6789 12.4343C15.8149 12.1108 15.8849 11.7635 15.8849 11.4126C15.8849 11.0617 15.8149 10.7144 15.6789 10.3909C15.5429 10.0675 15.3436 9.77442 15.0929 9.52896C14.8421 9.2835 14.5449 9.09057 14.2186 8.96148C13.8923 8.83238 13.5435 8.76972 13.1927 8.77718H13.1903ZM13.119 13.1606C12.7727 13.1623 12.4338 13.0611 12.1452 12.8698C11.8566 12.6785 11.6313 12.4058 11.4979 12.0863C11.3646 11.7668 11.3291 11.4149 11.3961 11.0752C11.4631 10.7356 11.6294 10.4234 11.8741 10.1784C12.1187 9.93346 12.4307 9.76668 12.7703 9.69925C13.1099 9.63182 13.4619 9.66678 13.7816 9.79971C14.1013 9.93263 14.3743 10.1575 14.566 10.4459C14.7577 10.7342 14.8594 11.0729 14.8582 11.4192C14.8585 11.6475 14.8137 11.8737 14.7264 12.0847C14.6391 12.2957 14.5109 12.4874 14.3493 12.6487C14.1877 12.8101 13.9959 12.938 13.7847 13.025C13.5736 13.112 13.3473 13.1565 13.119 13.1559V13.1606ZM6.75447 13.1131C7.71331 13.1131 8.45802 12.3779 8.45802 11.2764V7H9.48704V13.9303H8.46991V13.2748C8.23228 13.5204 7.94729 13.7152 7.63219 13.8475C7.3171 13.9798 6.97844 14.0468 6.6367 14.0445C5.158 14.0445 4.01953 12.9667 4.01953 11.3323V7H5.06759V11.2824C5.06759 12.3898 5.78136 13.1131 6.75447 13.1131Z" fill="black"></path><path d="M4 14.9395H8.86199V16.129H5.31334V17.8181H8.76325V18.9672H5.31334V20.6849H8.86199V21.8745H4V14.9395ZM22.2893 21.9994C23.7799 21.9994 24.6197 21.2857 24.6197 20.3055C24.6197 19.6072 24.1225 19.0862 23.0816 18.8602L21.9812 18.6354C21.3423 18.5164 21.1413 18.3975 21.1413 18.1595C21.1413 17.8515 21.4494 17.6623 22.0168 17.6623C22.6319 17.6623 23.0875 17.8277 23.2065 18.3963H24.496C24.4258 17.3257 23.6561 16.6191 22.0954 16.6191C20.7463 16.6191 19.7994 17.1758 19.7994 18.2547C19.7994 19.0006 20.3204 19.4859 21.4446 19.7226L22.6747 20.0069C23.1601 20.1021 23.2897 20.2329 23.2897 20.434C23.2897 20.7539 22.9233 20.955 22.3309 20.955C21.5862 20.955 21.1603 20.7896 20.995 20.221H19.6983C19.8874 21.2892 20.6797 21.9994 22.2893 21.9994ZM19.3235 21.8697H17.9281C17.0525 21.8697 16.5672 21.3249 16.5672 20.6374V17.9133H15.5857V16.7523H16.5719V15.2951H17.8686V16.7523H19.3235V17.9133H17.8686V20.3055C17.8686 20.5779 18.0578 20.7087 18.354 20.7087H19.3235V21.8697ZM13.7323 16.7547V17.2162C13.2758 16.8303 12.6968 16.6195 12.099 16.6215C11.7411 16.6139 11.3852 16.6779 11.0524 16.8097C10.7195 16.9414 10.4163 17.1383 10.1606 17.3887C9.90478 17.6392 9.70157 17.9381 9.56284 18.2681C9.42411 18.5981 9.35265 18.9525 9.35265 19.3104C9.35265 19.6684 9.42411 20.0227 9.56284 20.3527C9.70157 20.6827 9.90478 20.9817 10.1606 21.2321C10.4163 21.4826 10.7195 21.6794 11.0524 21.8112C11.3852 21.9429 11.7411 22.0069 12.099 21.9994C12.6969 22.002 13.2761 21.7911 13.7323 21.4046V21.8674H15.0254V16.7523L13.7323 16.7547ZM12.206 20.8765C11.8958 20.88 11.5916 20.7912 11.332 20.6215C11.0724 20.4517 10.8691 20.2086 10.748 19.923C10.6269 19.6374 10.5934 19.3223 10.6518 19.0177C10.7102 18.7131 10.8579 18.4327 11.0761 18.2122C11.2943 17.9917 11.5731 17.841 11.8771 17.7793C12.1811 17.7176 12.4966 17.7477 12.7835 17.8657C13.0703 17.9838 13.3156 18.1844 13.4882 18.4422C13.6607 18.7 13.7527 19.0032 13.7525 19.3134C13.7544 19.5179 13.7157 19.7207 13.6387 19.9101C13.5617 20.0995 13.4479 20.2718 13.3038 20.417C13.1598 20.5621 12.9884 20.6772 12.7995 20.7557C12.6107 20.8342 12.4081 20.8744 12.2036 20.8741L12.206 20.8765Z" fill="black"></path><defs><linearGradient id="paint0_linear_1438_1929" x1="64.1013" y1="27.3834" x2="-65.2276" y2="27.3834" gradientUnits="userSpaceOnUse"><stop offset="1" stop-color="white"></stop></linearGradient></defs></svg> 