<?xml version="1.0" encoding="UTF-8"?> <svg xmlns="http://www.w3.org/2000/svg" width="49" height="49" viewBox="0 0 49 49" fill="none"><path d="M43.274 48.869H5.71112C2.55684 48.869 0 46.3182 0 43.1714V5.69758C0 2.55078 2.55684 0 5.71112 0H43.2735C46.4277 0 48.9846 2.55078 48.9846 5.69758V43.1709C48.9852 46.3182 46.4283 48.869 43.274 48.869Z" fill="white"></path><g clip-path="url(#clip0_92_3356)"><path d="M33.1281 22.6037C32.9817 22.5338 32.8339 22.4669 32.6847 22.4031C32.4238 17.6138 29.7966 14.8719 25.3852 14.8439C22.84 14.8271 20.5617 15.8608 19.1417 18.0071L21.5677 19.6649C22.5768 18.14 24.1603 17.815 25.3265 17.815C25.34 17.815 25.3535 17.815 25.3669 17.8151C26.8194 17.8243 27.9154 18.245 28.6248 19.0653C29.141 19.6626 29.4864 20.4879 29.6574 21.5295C28.3695 21.3115 26.9768 21.2445 25.4879 21.3295C21.2938 21.5701 18.5975 24.0068 18.7785 27.3924C18.8705 29.1098 19.7294 30.5874 21.197 31.5525C22.4378 32.3684 24.036 32.7674 25.697 32.6771C27.8904 32.5573 29.6112 31.7237 30.8117 30.1994C31.7234 29.0418 32.3 27.5417 32.5547 25.6516C33.6 26.28 34.3748 27.1069 34.8026 28.101C35.5301 29.7909 35.5725 32.5678 33.2978 34.8318C31.3049 36.8151 28.9092 37.673 25.2887 37.6995C21.2725 37.6699 18.2352 36.3869 16.2604 33.8862C14.4111 31.5446 13.4555 28.1623 13.4198 23.8335C13.4555 19.5045 14.4111 16.1222 16.2604 13.7806C18.2352 11.2799 21.2725 9.99701 25.2887 9.96732C29.3339 9.99728 32.4242 11.2864 34.4746 13.7991C35.48 15.0313 36.2379 16.5809 36.7376 18.3877L39.5807 17.6321C38.975 15.4082 38.0219 13.4917 36.7249 11.9025C34.0963 8.68105 30.2519 7.03027 25.2986 6.99609H25.2787C20.3354 7.0302 16.5341 8.68717 13.9802 11.9209C11.7078 14.7986 10.5356 18.8025 10.4962 23.8216L10.4961 23.8335L10.4962 23.8453C10.5356 28.8643 11.7078 32.8684 13.9802 35.7461C16.5341 38.9797 20.3354 40.6368 25.2787 40.6708H25.2986C29.6934 40.6404 32.7913 39.4943 35.3433 36.9545C38.6821 33.6318 38.5816 29.4668 37.4812 26.91C36.6916 25.0764 35.1864 23.5873 33.1281 22.6037ZM25.5399 29.7102C23.7018 29.8134 21.792 28.9914 21.6978 27.2311C21.628 25.9259 22.6304 24.4695 25.6527 24.296C25.9922 24.2763 26.3321 24.2664 26.6722 24.2663C27.77 24.2663 28.797 24.3725 29.7307 24.5759C29.3825 28.9083 27.3397 29.6118 25.5399 29.7102Z" fill="#EB53A2"></path></g><defs><clipPath id="clip0_92_3356"><rect width="29.0846" height="33.6567" fill="white" transform="translate(10.4961 6.99219)"></rect></clipPath></defs></svg> 