<?xml version="1.0" encoding="UTF-8"?> <svg xmlns="http://www.w3.org/2000/svg" width="30" height="30" viewBox="0 0 30 30" fill="none"><circle cx="15" cy="15" r="15" fill="white"></circle><path d="M17.8602 26.1911C17.8175 25.4125 17.7875 25.0791 17.6598 24.9322C17.5128 24.7631 17.308 24.6179 17.1959 24.5924C16.9258 24.5534 16.7326 24.6131 16.6073 24.6871C16.4417 24.785 16.1718 24.9216 16.114 25.189C16.0492 25.488 16.0039 27.6597 16.1225 28.0069C16.1737 28.1163 16.276 28.322 16.36 28.4186C16.4948 28.5735 16.843 28.8369 17.1076 28.7037C17.233 28.6405 17.462 28.5056 17.5212 28.3305C17.6945 27.8182 17.7917 27.5391 17.8241 27.2377C17.8581 26.9202 17.8828 26.6026 17.8602 26.1911Z" fill="black"></path><path d="M17.8265 24.7638C17.7297 24.6631 17.6159 24.5713 17.5069 24.4997C17.4065 24.4339 17.2793 24.3646 17.1568 24.3394L17.1449 24.337L17.1331 24.3354C16.7682 24.2876 16.4867 24.3595 16.2902 24.4645C16.2128 24.5059 16.0635 24.5788 15.9345 24.6765C15.8006 24.7777 15.6585 24.9265 15.6077 25.1389C15.5834 25.24 15.5667 25.4563 15.5543 25.6988C15.5416 25.9526 15.5326 26.265 15.5301 26.5784C15.5275 26.8915 15.5313 27.2084 15.5441 27.4706C15.5505 27.6016 15.5594 27.7217 15.5713 27.822C15.5824 27.9159 15.5982 28.0137 15.6262 28.0878L15.6315 28.1016L15.6384 28.1148C15.668 28.1722 15.7132 28.2564 15.7642 28.3401C15.8123 28.4193 15.8763 28.5159 15.9446 28.587C16.0407 28.687 16.2036 28.8147 16.3939 28.9009C16.5771 28.9838 16.8565 29.0585 17.1279 28.9349C17.2059 28.8994 17.3232 28.8407 17.4338 28.7615C17.5384 28.6867 17.6712 28.5695 17.7312 28.4091C17.9177 27.9104 18.0386 27.6001 18.0785 27.2639C18.1168 26.9408 18.1455 26.6086 18.1194 26.1787C18.0961 25.794 18.0756 25.5046 18.0417 25.2925C18.0093 25.0899 17.9579 24.9006 17.8265 24.7638ZM17.3745 25.1163C17.3837 25.1258 17.419 25.1755 17.4499 25.3692C17.4794 25.5534 17.4989 25.8177 17.5225 26.2081C17.5462 26.5974 17.5207 26.8977 17.4841 27.2067C17.4528 27.4705 17.3597 27.7159 17.1647 28.2373C17.1595 28.2512 17.1338 28.2883 17.0619 28.3399C16.9958 28.3872 16.918 28.4272 16.858 28.4544C16.8383 28.4634 16.7806 28.4732 16.6624 28.4197C16.5514 28.3694 16.4487 28.2889 16.3965 28.2346C16.3724 28.2095 16.3338 28.1558 16.2884 28.0814C16.2505 28.0189 16.2153 27.9541 16.1893 27.9043C16.1838 27.8841 16.1746 27.84 16.1656 27.7651C16.1556 27.6799 16.1474 27.572 16.1412 27.4469C16.129 27.1972 16.1253 26.8902 16.1278 26.5824C16.1303 26.2748 16.1391 25.9693 16.1515 25.7232C16.1645 25.466 16.1805 25.3002 16.192 25.2524C16.2048 25.1988 16.243 25.1463 16.3191 25.0887C16.3999 25.0274 16.4903 24.9837 16.5951 24.9277C16.6721 24.8866 16.81 24.841 17.0283 24.8661C17.034 24.8683 17.0439 24.8723 17.0582 24.8791C17.0847 24.8919 17.1178 24.9106 17.155 24.935C17.2299 24.9841 17.3096 25.0487 17.3745 25.1163Z" fill="black"></path><path d="M13.1766 25.9314C13.1339 25.1527 13.1039 24.8193 12.9762 24.6724C12.8292 24.5033 12.6244 24.3582 12.5123 24.3326C12.2423 24.2936 12.049 24.3533 11.9238 24.4273C11.7581 24.5252 11.4882 24.6618 11.4304 24.9292C11.3656 25.2282 11.3204 27.3999 11.4389 27.7472C11.49 27.8565 11.5924 28.0622 11.6764 28.1588C11.8112 28.3137 12.1594 28.5771 12.424 28.4439C12.5494 28.3808 12.7784 28.2459 12.8376 28.0707C13.0109 27.5584 13.1081 27.2793 13.1405 26.978C13.1745 26.6605 13.1992 26.3429 13.1766 25.9314Z" fill="black"></path><path d="M13.1749 24.5021C13.0878 24.4014 12.9853 24.3095 12.8873 24.238C12.7969 24.1722 12.6825 24.1029 12.5721 24.0777L12.5616 24.0753L12.5509 24.0737C12.2225 24.0259 11.9691 24.0978 11.7922 24.2028C11.7226 24.2442 11.5882 24.3171 11.4721 24.4148C11.3516 24.516 11.2237 24.6648 11.1779 24.8772C11.1562 24.9783 11.141 25.1945 11.13 25.4371C11.1184 25.6909 11.1104 26.0033 11.1081 26.3167C11.1058 26.6298 11.1092 26.9467 11.1208 27.2089C11.1265 27.3399 11.1345 27.4599 11.1452 27.5603C11.1552 27.6542 11.1695 27.752 11.1946 27.8261L11.1994 27.8399L11.2056 27.8531C11.2323 27.9105 11.273 27.9946 11.3188 28.0784C11.3622 28.1576 11.4197 28.2542 11.4812 28.3252C11.5676 28.4253 11.7143 28.553 11.8856 28.6392C12.0505 28.7221 12.3019 28.7968 12.5461 28.6732C12.6163 28.6377 12.7219 28.579 12.8215 28.4998C12.9156 28.425 13.0351 28.3078 13.0892 28.1473C13.257 27.6487 13.3658 27.3384 13.4017 27.0021C13.4361 26.6791 13.462 26.3468 13.4385 25.9169C13.4175 25.5323 13.3991 25.2429 13.3686 25.0307C13.3394 24.8282 13.2931 24.6389 13.1749 24.5021ZM12.7681 24.8546C12.7764 24.864 12.8081 24.9138 12.836 25.1075C12.8626 25.2917 12.8801 25.556 12.9013 25.9463C12.9226 26.3356 12.8997 26.636 12.8668 26.945C12.8386 27.2088 12.7548 27.4541 12.5793 27.9756C12.5746 27.9895 12.5515 28.0266 12.4868 28.0782C12.4272 28.1255 12.3573 28.1654 12.3033 28.1927C12.2855 28.2017 12.2336 28.2115 12.1273 28.158C12.0273 28.1077 11.9349 28.0272 11.8879 27.9729C11.8663 27.9478 11.8315 27.8941 11.7907 27.8196C11.7565 27.7572 11.7249 27.6923 11.7014 27.6426C11.6964 27.6223 11.6881 27.5783 11.6801 27.5033C11.6711 27.4182 11.6637 27.3103 11.6582 27.1852C11.6472 26.9355 11.6438 26.6285 11.6461 26.3207C11.6483 26.0131 11.6563 25.7076 11.6675 25.4615C11.6792 25.2042 11.6936 25.0385 11.7039 24.9907C11.7154 24.9371 11.7498 24.8846 11.8182 24.827C11.8911 24.7657 11.9723 24.722 12.0667 24.666C12.1359 24.6249 12.26 24.5793 12.4565 24.6044C12.4617 24.6065 12.4706 24.6105 12.4834 24.6174C12.5073 24.6301 12.537 24.6489 12.5705 24.6733C12.638 24.7224 12.7097 24.7869 12.7681 24.8546Z" fill="black"></path><path d="M10.3246 22.2729C10.1029 23.0086 10.0195 23.3271 10.0962 23.5016C10.1844 23.7024 10.3379 23.8983 10.4402 23.9554C10.6944 24.0722 10.9059 24.0743 11.055 24.043C11.2522 24.0016 11.5657 23.9552 11.7136 23.7242C11.879 23.4658 12.0836 23.0215 12.0841 22.6637C12.0844 22.3743 12.1071 21.9713 12.3761 21.7675C12.6047 21.5942 12.6979 21.4262 12.6604 21.1048C12.6468 20.9881 12.6152 20.7665 12.5648 20.6518C12.4839 20.4677 12.2284 20.1193 11.9213 20.1641C11.7758 20.1853 11.5034 20.2424 11.3855 20.3873C11.0402 20.8113 10.8493 21.0415 10.7151 21.3117C10.5738 21.5963 10.4417 21.8839 10.3246 22.2729Z" fill="black"></path><path d="M9.85708 23.5998C9.90945 23.7203 9.98003 23.837 10.0531 23.9334C10.1162 24.0167 10.1994 24.1092 10.2926 24.1672L10.3112 24.1784L10.3208 24.1837L10.3308 24.1884C10.6388 24.3314 10.9115 24.34 11.1187 24.296C11.2021 24.2783 11.358 24.2511 11.5043 24.1955C11.6556 24.1381 11.8297 24.0394 11.9452 23.8572C12.1181 23.5843 12.3505 23.0909 12.351 22.6626C12.3512 22.5214 12.3573 22.3731 12.3889 22.2411C12.4208 22.1083 12.4715 22.0219 12.5368 21.9718C12.6686 21.8709 12.7854 21.7535 12.8566 21.5952C12.928 21.4365 12.9409 21.2651 12.9192 21.0766C12.912 21.0151 12.9 20.9243 12.8829 20.8324C12.8667 20.7456 12.8423 20.6377 12.8052 20.5524C12.7532 20.4326 12.6507 20.269 12.5101 20.1367C12.3737 20.0086 12.1514 19.8655 11.8732 19.9066C11.7922 19.9184 11.6691 19.9413 11.5453 19.9847C11.4281 20.0257 11.2731 20.0977 11.1675 20.2288C10.8337 20.6431 10.6221 20.8987 10.4738 21.2006C10.3311 21.4911 10.1938 21.7926 10.0723 22.2001C9.9636 22.5648 9.8845 22.8399 9.84325 23.0468C9.80397 23.2437 9.78555 23.4351 9.85708 23.5998ZM10.3652 23.3987C10.3609 23.3888 10.3459 23.3339 10.3836 23.1449C10.4194 22.9653 10.4911 22.7138 10.6014 22.3438C10.7115 21.9745 10.8353 21.7015 10.9719 21.4234C11.0888 21.1855 11.2548 20.9814 11.6035 20.5486C11.6146 20.535 11.6525 20.5062 11.7349 20.4773C11.8109 20.4507 11.8943 20.4344 11.9572 20.4251C11.9825 20.4214 12.0383 20.43 12.124 20.5106C12.2055 20.5871 12.2692 20.6893 12.2971 20.7535C12.3098 20.7826 12.3261 20.8428 12.3413 20.9244C12.3556 21.0008 12.366 21.0791 12.3723 21.1341C12.3876 21.2666 12.373 21.3395 12.351 21.3883C12.3289 21.4375 12.2867 21.4905 12.1924 21.5626C11.9919 21.7161 11.8986 21.9326 11.8527 22.1242C11.8066 22.3166 11.8011 22.5141 11.8009 22.662C11.8006 22.9484 11.6286 23.3426 11.4745 23.5857C11.4437 23.6343 11.3897 23.6742 11.3008 23.708C11.207 23.7436 11.1105 23.7601 10.9991 23.7839C10.9139 23.8019 10.774 23.8064 10.5877 23.7236C10.5834 23.7201 10.5759 23.714 10.5656 23.7038C10.5465 23.6849 10.5236 23.6586 10.4988 23.626C10.4489 23.5602 10.4 23.4788 10.3652 23.3987Z" fill="black"></path><path d="M11.3621 25.5762C11.7815 26.5771 12.4074 26.7884 12.7254 26.8708C12.8159 26.8943 13.1264 26.9202 13.212 26.9202H14.3083C14.7707 26.9202 16.0412 26.8031 16.9266 26.3737C17.0869 26.268 17.2183 26.161 17.3724 26.0288C17.621 25.8153 17.8272 25.5203 17.9901 25.1429C18.139 24.7978 18.2535 24.3328 18.3293 23.9251C18.3844 23.6284 18.4037 23.0553 18.3736 22.7018C18.3551 22.2501 17.958 20.6844 17.0701 19.8917C17.0701 19.8917 16.7331 19.3167 15.6079 19.125C15.6079 19.125 13.7067 19.0318 12.8957 19.6627C12.1604 20.2349 11.3541 21.3091 11.1074 23.8107C11.1074 23.8107 11.1074 25.1429 11.3621 25.5762Z" fill="white"></path><path d="M15.296 18.8585C15.394 18.858 15.4739 18.8593 15.5297 18.8607C15.5576 18.8613 15.5795 18.862 15.5947 18.8626C15.6023 18.8629 15.6082 18.8631 15.6123 18.8633C15.6143 18.8634 15.616 18.8635 15.6172 18.8635C15.6178 18.8636 15.6182 18.8636 15.6186 18.8636H15.6191C15.6192 18.8636 15.6192 18.8636 15.607 19.1189L15.6191 18.8636L15.6359 18.8644L15.6521 18.8672C16.2541 18.9697 16.6588 19.1775 16.9185 19.3711C17.0477 19.4675 17.1393 19.559 17.2006 19.6299C17.2311 19.6654 17.2541 19.6955 17.2705 19.7185C17.2711 19.7195 17.2718 19.7206 17.2725 19.7216C17.7468 20.157 18.078 20.777 18.2925 21.329C18.5073 21.8813 18.6209 22.4072 18.6349 22.6777L18.6402 22.7498C18.6639 23.1226 18.6437 23.6656 18.5871 23.9703C18.5104 24.3829 18.3918 24.8698 18.2313 25.2419C18.0563 25.6473 17.8282 25.979 17.5416 26.2249C17.3854 26.359 17.2442 26.4744 17.0701 26.5892L17.0547 26.5993L17.0384 26.6073C16.1029 27.0608 14.7904 27.1785 14.3128 27.1785H13.2221C13.1653 27.1785 13.0555 27.171 12.9559 27.1615C12.8616 27.1526 12.7389 27.1388 12.6686 27.1206C12.4941 27.0753 12.2195 26.9907 11.9304 26.7719C11.6433 26.5547 11.3572 26.2166 11.132 25.6865C11.049 25.5373 10.997 25.3421 10.9616 25.1582C10.9233 24.9594 10.8985 24.7423 10.8822 24.5444C10.8659 24.3455 10.8578 24.1612 10.8537 24.027C10.8517 23.9597 10.8507 23.9047 10.8502 23.8662C10.8499 23.847 10.8498 23.8319 10.8497 23.8214C10.8497 23.8163 10.8496 23.8122 10.8496 23.8094V23.8048C10.8496 23.8047 10.8496 23.8047 11.1282 23.8047L10.8496 23.8048V23.7908L10.851 23.7768C11.1023 21.2296 11.9322 20.0829 12.7374 19.4567C12.9798 19.268 13.2885 19.1439 13.5965 19.0596C13.9074 18.9746 14.2362 18.9252 14.5327 18.8966C14.83 18.8681 15.1002 18.8598 15.296 18.8585ZM15.2992 19.4207C15.1151 19.4218 14.8622 19.4297 14.5857 19.4563C14.3083 19.483 14.0129 19.5282 13.7423 19.6023C13.4687 19.677 13.2385 19.7767 13.0776 19.9019C12.4207 20.4128 11.648 21.3997 11.4068 23.8177L11.4069 23.818C11.4069 23.8271 11.407 23.8409 11.4072 23.8587C11.4077 23.8943 11.4087 23.9461 11.4106 24.0099C11.4144 24.1375 11.4221 24.3115 11.4375 24.4978C11.4529 24.6849 11.4756 24.8799 11.5085 25.0509C11.5386 25.207 11.5734 25.3213 11.6069 25.3905L11.6212 25.4173L11.6307 25.4337L11.6381 25.4512C11.8293 25.9071 12.06 26.1673 12.2647 26.3222C12.4704 26.4779 12.6653 26.5393 12.8072 26.5761C12.8074 26.5762 12.8091 26.5765 12.8123 26.5772C12.816 26.578 12.821 26.5789 12.8274 26.58C12.8403 26.5823 12.8566 26.5846 12.8759 26.5872C12.9143 26.5923 12.9604 26.5973 13.0078 26.6017C13.1063 26.611 13.1936 26.6163 13.2221 26.6163H14.3128C14.7523 26.6163 15.9546 26.5024 16.7804 26.1083C16.9186 26.016 17.0358 25.921 17.1807 25.7967C17.3889 25.618 17.5712 25.3628 17.7203 25.0175C17.8559 24.7033 17.9653 24.2652 18.0394 23.8666C18.0886 23.6016 18.108 23.0579 18.0796 22.726L18.0791 22.7197L18.0788 22.7133C18.0715 22.5307 17.9787 22.0612 17.7739 21.5342C17.5697 21.0088 17.2701 20.4695 16.8759 20.1176L16.843 20.0882L16.8207 20.0502V20.0503L16.8209 20.0507C16.8211 20.0509 16.8212 20.051 16.8213 20.0512C16.8215 20.0516 16.8217 20.0518 16.8218 20.0521C16.8222 20.0526 16.8224 20.0531 16.8226 20.0534C16.8227 20.0535 16.8228 20.0537 16.8228 20.0537C16.8223 20.0529 16.8205 20.0501 16.8173 20.0456C16.8109 20.0366 16.7989 20.0205 16.7806 19.9994C16.7441 19.9571 16.6819 19.8937 16.5874 19.8232C16.4014 19.6847 16.0834 19.5133 15.575 19.4244C15.5747 19.4243 15.5743 19.4244 15.574 19.4244C15.5611 19.4238 15.5416 19.4232 15.5162 19.4226C15.4654 19.4214 15.391 19.4202 15.2992 19.4207Z" fill="black"></path><path d="M18.7126 21.5162C18.4978 20.6613 18.3929 20.2979 18.2201 20.1654C18.0212 20.0128 17.7637 19.9007 17.6343 19.8994C17.3275 19.9209 17.1268 20.0338 17.0043 20.1461C16.8422 20.2946 16.5733 20.5113 16.567 20.8224C16.5597 21.1703 16.6227 21.725 16.8284 22.0825C16.9948 22.3715 17.0693 22.7848 17.0693 23.1359C17.0693 23.4548 16.9624 23.6515 17.1828 23.9519C17.263 24.0611 17.4204 24.265 17.5339 24.3521C17.7162 24.492 18.1578 24.701 18.4216 24.4893C18.5466 24.3889 18.7705 24.1839 18.7983 23.9752C18.8796 23.3642 18.927 23.0308 18.8979 22.688C18.8672 22.327 18.826 21.9681 18.7126 21.5162Z" fill="black"></path><path d="M18.3816 19.961C18.2651 19.8715 18.1335 19.7952 18.0111 19.7403C17.9045 19.6923 17.7773 19.6479 17.6626 19.6416L17.6398 19.6408L17.6291 19.6406L17.6184 19.6415C17.2522 19.6673 16.9959 19.8047 16.8305 19.9567C16.76 20.0214 16.6306 20.1316 16.5259 20.2643C16.4179 20.4011 16.3141 20.5875 16.3092 20.8216C16.3017 21.1862 16.3643 21.7977 16.6049 22.2165C16.7392 22.4505 16.8094 22.8116 16.8094 23.1351C16.8094 23.2005 16.804 23.2611 16.7974 23.3289C16.7913 23.3929 16.7831 23.4714 16.7836 23.551C16.7848 23.7291 16.8288 23.9082 16.9738 24.1063C17.0156 24.1634 17.0786 24.2466 17.147 24.3281C17.212 24.4054 17.2949 24.497 17.3757 24.5592C17.4907 24.6475 17.6776 24.7521 17.8818 24.8054C18.0804 24.8572 18.3594 24.8752 18.5868 24.6924C18.6559 24.6369 18.7577 24.5482 18.8482 24.4397C18.9343 24.3363 19.035 24.1859 19.0588 24.0076C19.1381 23.4097 19.1913 23.0433 19.1592 22.6658C19.1281 22.2988 19.0855 21.925 18.9676 21.4547C18.8614 21.0309 18.779 20.7149 18.7 20.4878C18.6244 20.2704 18.5348 20.0788 18.3816 19.961ZM18.059 20.3821C18.0779 20.3966 18.1266 20.4523 18.1996 20.6625C18.2693 20.863 18.3462 21.1546 18.4537 21.5839C18.5618 22.0152 18.6014 22.3576 18.6314 22.7108C18.6573 23.0172 18.6159 23.3162 18.5334 23.9376C18.5294 23.9676 18.5048 24.0235 18.4414 24.0995C18.3824 24.1703 18.3105 24.2341 18.255 24.2785C18.2198 24.3069 18.1477 24.3263 18.0153 24.2917C17.8887 24.2587 17.765 24.1893 17.6983 24.1381C17.6661 24.1134 17.6141 24.0598 17.5524 23.9865C17.4943 23.9171 17.439 23.8442 17.4011 23.7925C17.3266 23.6908 17.314 23.6219 17.3135 23.5474C17.3132 23.5007 17.318 23.4516 17.3249 23.38C17.3314 23.3122 17.3393 23.2289 17.3393 23.1351C17.3393 22.7583 17.2611 22.2949 17.0642 21.9519C16.8951 21.6576 16.8322 21.162 16.839 20.8326C16.8406 20.7563 16.8737 20.6794 16.9415 20.5935C17.0127 20.5035 17.0978 20.4313 17.1886 20.3478C17.2655 20.2772 17.4046 20.1921 17.6398 20.1724C17.6468 20.1733 17.6604 20.1758 17.6813 20.1818C17.7122 20.1907 17.7508 20.2049 17.7942 20.2245C17.8819 20.2639 17.9775 20.3195 18.059 20.3821Z" fill="black"></path><path d="M25.8884 10.7975C25.4521 10.7828 25.0028 10.3324 24.5239 10.1514C22.9465 9.55521 23.0127 8.25528 23.1078 8.02031C23.339 7.44974 23.8695 6.99109 24.2449 6.7692C24.6202 6.54731 25.0352 6.3767 25.4925 6.37794C26.0391 6.37941 27.8568 7.2755 28.0005 8.48189C28.0679 9.04859 27.5675 9.76639 27.1226 10.218C26.808 10.5374 26.3073 10.8115 25.8884 10.7975Z" fill="black"></path><path d="M27.9999 8.33997C27.9217 7.68261 27.3934 7.12822 26.8411 6.74499C26.5619 6.55128 26.2697 6.39636 26.011 6.28946C25.7558 6.18403 25.522 6.12055 25.3626 6.12012C24.874 6.1188 24.4358 6.30127 24.0491 6.53001C23.659 6.7607 23.1021 7.23936 22.8567 7.84561C22.8245 7.92486 22.8021 8.06864 22.8074 8.24219C22.8129 8.41921 22.8474 8.63696 22.9377 8.86648C23.1196 9.32902 23.5241 9.8294 24.3473 10.1407C24.5767 10.2274 24.7974 10.378 25.0337 10.521C25.2608 10.6583 25.5064 10.7911 25.7579 10.7996C25.9925 10.8075 26.2424 10.7349 26.4711 10.6224C26.7006 10.5094 26.9162 10.3524 27.0835 10.1825C27.313 9.94944 27.5579 9.64673 27.7375 9.32682C27.9155 9.00976 28.038 8.66057 27.9999 8.33997ZM26.9291 10.0271C26.7791 10.1794 26.5836 10.3219 26.3756 10.4243C26.1669 10.527 25.9531 10.5857 25.7652 10.5794C25.5768 10.5731 25.3758 10.4712 25.1456 10.3319C24.9246 10.1983 24.6773 10.0304 24.4236 9.93444C23.6561 9.6442 23.2986 9.18803 23.1402 8.78512C23.0603 8.58192 23.03 8.38972 23.0253 8.23533C23.0204 8.07754 23.0424 7.96845 23.0583 7.92914C23.279 7.38405 23.7922 6.93721 24.1591 6.72013C24.5294 6.50112 24.9282 6.33922 25.3621 6.34038C25.4783 6.34069 25.6803 6.39078 25.9285 6.49332C26.1731 6.59441 26.4517 6.74193 26.7178 6.92658C27.2561 7.3001 27.7169 7.80639 27.7836 8.36621C27.8134 8.61737 27.7176 8.91619 27.5481 9.21809C27.3802 9.51715 27.1483 9.80448 26.9291 10.0271Z" fill="black"></path><path d="M7.12455 9.68839C6.96148 10.0901 6.39173 10.3562 6.06045 10.7413C4.96939 12.0095 3.79214 11.5073 3.60787 11.339C3.16042 10.9302 2.91889 10.2802 2.84271 9.85523C2.76654 9.4302 2.7513 8.9856 2.9092 8.55975C3.09797 8.05068 4.54822 6.66008 5.71105 6.93505C6.25728 7.06422 6.74835 7.77386 7.0127 8.34159C7.19966 8.74312 7.28114 9.30265 7.12455 9.68839Z" fill="black"></path><path d="M5.61323 6.6816C4.9791 6.52383 4.28563 6.84472 3.74206 7.25026C3.46727 7.45528 3.22386 7.68696 3.03634 7.90281C2.85136 8.11572 2.71246 8.32268 2.65736 8.47903C2.48844 8.95832 2.50662 9.45369 2.58521 9.91503C2.66447 10.3803 2.91551 11.0979 3.39133 11.5553C3.45352 11.6151 3.57864 11.6884 3.74081 11.7451C3.90622 11.803 4.11923 11.8467 4.36225 11.84C4.85197 11.8264 5.45305 11.6078 6.0232 10.9106C6.18203 10.7163 6.39689 10.5533 6.61007 10.3722C6.81485 10.1983 7.02188 10.0045 7.11602 9.76056C7.20383 9.53298 7.22257 9.26176 7.19706 8.99707C7.17145 8.73141 7.10046 8.46378 7.00089 8.2388C6.86436 7.93029 6.66875 7.58186 6.43485 7.29135C6.20304 7.00345 5.9225 6.75855 5.61323 6.6816ZM6.80432 8.33491C6.89353 8.53651 6.95813 8.77943 6.98132 9.02009C7.00461 9.2617 6.9854 9.49263 6.9151 9.67485C6.84458 9.85763 6.6815 10.0186 6.47383 10.195C6.27457 10.3643 6.03453 10.5472 5.85882 10.7621C5.32728 11.4121 4.78317 11.6004 4.35657 11.6122C4.14143 11.6181 3.95348 11.5792 3.80923 11.5288C3.66179 11.4773 3.56854 11.4168 3.53769 11.3872C3.10988 10.9759 2.87319 10.3127 2.7986 9.87486C2.72336 9.43314 2.71066 8.98375 2.86064 8.5582C2.90084 8.44414 3.01647 8.26358 3.19636 8.05651C3.37371 7.85238 3.60558 7.63152 3.8675 7.4361C4.39733 7.0408 5.02318 6.76906 5.56322 6.9034C5.80549 6.96367 6.04866 7.1644 6.2694 7.43854C6.48806 7.71011 6.67392 8.04026 6.80432 8.33491Z" fill="black"></path><path d="M4.89016 17.9989C6.20852 19.8004 8.1754 20.1808 9.17481 20.3292C9.45933 20.3714 10.4351 20.4181 10.7043 20.4181H14.1499C15.6032 20.4181 19.596 20.2072 22.3787 19.4345C22.8826 19.2441 23.2957 19.0514 23.7797 18.8135C24.5612 18.4293 25.2094 17.8981 25.7211 17.2188C26.1891 16.5978 26.549 15.7607 26.7872 15.0268C26.9605 14.4928 27.021 13.4613 26.9262 12.8249C26.8683 12.012 25.6205 9.19368 22.8296 7.76679C22.8296 7.76679 21.7707 6.73168 18.2345 6.38665C18.2345 6.38665 12.259 6.21893 9.71039 7.35467C7.39909 8.38468 4.86515 10.3181 4.08984 14.8208C4.08984 14.8208 4.08984 17.2188 4.89016 17.9989Z" fill="white"></path><path d="M17.2566 6.12037C17.5579 6.11936 17.8027 6.12154 17.9722 6.12392C18.057 6.12511 18.123 6.12631 18.168 6.12726C18.1904 6.12775 18.2078 6.12816 18.2194 6.12844C18.2252 6.12859 18.2296 6.1288 18.2327 6.12887C18.2342 6.12892 18.2353 6.12885 18.2361 6.12887C18.2365 6.12889 18.2368 6.12899 18.2371 6.12899H18.2373C18.2373 6.12947 18.2372 6.13851 18.2325 6.30959L18.2373 6.12899L18.2467 6.12921L18.256 6.13018C20.0454 6.30456 21.2203 6.65454 21.9554 6.96816C22.3229 7.12496 22.5801 7.27248 22.7487 7.38409C22.8329 7.43987 22.8949 7.48665 22.9374 7.52097C22.9519 7.53266 22.964 7.54311 22.974 7.55178C24.4013 8.28872 25.4321 9.37451 26.1142 10.3785C26.458 10.8845 26.7151 11.3726 26.8909 11.7897C27.061 12.1932 27.1624 12.5484 27.1826 12.7955C27.2326 13.1371 27.2406 13.5702 27.2151 13.9825C27.1895 14.3959 27.129 14.8129 27.032 15.1116C26.7896 15.8574 26.4186 16.7252 25.9249 17.3799C25.3869 18.0932 24.7054 18.6502 23.888 19.0516C23.4014 19.2906 22.9798 19.4872 22.4646 19.6816L22.4533 19.6857L22.4415 19.6892C19.627 20.4697 15.6101 20.6803 14.1498 20.6803H10.7078C10.4337 20.6803 9.44384 20.6337 9.14047 20.5887C8.13425 20.4394 6.07974 20.0497 4.69342 18.1715C4.45764 17.9334 4.29523 17.5981 4.17999 17.256C4.06022 16.9005 3.98219 16.5104 3.93088 16.1532C3.87939 15.7949 3.85379 15.4627 3.841 15.2205C3.83459 15.0993 3.83134 15.0001 3.82973 14.9307C3.82891 14.8961 3.82855 14.8687 3.82834 14.85C3.82823 14.8406 3.82816 14.8332 3.82812 14.8283V14.82C3.82812 14.82 3.82812 14.8198 4.10043 14.8198H3.82812V14.7961L3.83217 14.7725C4.22735 12.48 5.07405 10.827 6.1278 9.61374C7.17996 8.40235 8.42717 7.64249 9.60529 7.11808C10.9294 6.52869 13.1055 6.28686 14.9124 6.18725C15.8234 6.13702 16.6539 6.1224 17.2566 6.12037ZM17.2584 6.67178C16.6623 6.67379 15.8413 6.68821 14.9419 6.7378C13.1277 6.83782 11.0462 7.07904 9.82451 7.62285C8.69385 8.12614 7.52103 8.84465 6.53679 9.97787C5.55766 11.1052 4.75381 12.6559 4.37284 14.8436L4.37295 14.8438C4.37312 14.8605 4.37347 14.8855 4.37422 14.9177C4.37572 14.9822 4.37877 15.076 4.38485 15.1912C4.39705 15.4219 4.4214 15.7366 4.46984 16.0737C4.51845 16.412 4.59036 16.766 4.69545 17.078C4.80215 17.3948 4.93444 17.642 5.08859 17.7921L5.10507 17.8081L5.11859 17.8266C6.36602 19.5293 8.23188 19.8966 9.21939 20.0432C9.48447 20.0824 10.4441 20.1289 10.7078 20.1289H14.1498C15.5907 20.1289 19.5409 19.9192 22.2852 19.1607C22.772 18.9765 23.1735 18.7896 23.6502 18.5555C24.3941 18.1902 25.0078 17.6873 25.4921 17.0452C25.9332 16.4603 26.2812 15.658 26.5147 14.9392C26.5908 14.7051 26.6472 14.3413 26.6716 13.948C26.6956 13.5571 26.6866 13.1617 26.643 12.8695L26.6414 12.859L26.6406 12.8482C26.6294 12.6902 26.554 12.3952 26.3901 12.006C26.2287 11.6232 25.9892 11.1672 25.6656 10.6909C25.0179 9.7376 24.0417 8.7143 22.6974 8.0278L22.6607 8.00906L22.6315 7.98052L22.6316 7.98063C22.6307 7.97986 22.6294 7.9787 22.6278 7.97718C22.6223 7.97239 22.6125 7.96393 22.5979 7.95219C22.5688 7.92869 22.5206 7.89197 22.4506 7.84557C22.3104 7.75279 22.0823 7.62068 21.7439 7.47628C21.0681 7.18793 19.9507 6.85002 18.2129 6.67985C18.2109 6.67981 18.2086 6.67981 18.206 6.67975C18.1949 6.67948 18.1782 6.67904 18.1565 6.67856C18.1127 6.67763 18.048 6.6764 17.9646 6.67522C17.7979 6.67288 17.5563 6.67078 17.2584 6.67178ZM22.6326 7.98159C22.6324 7.98147 22.6322 7.9813 22.632 7.98106L22.6316 7.98063C22.632 7.98106 22.6324 7.98141 22.6326 7.98159Z" fill="black"></path><path d="M11.3652 12.9462C11.3902 13.2802 11.7306 13.4315 12.3914 13.3937C12.5974 13.3819 13.4347 13.469 13.1123 12.6181C12.9324 12.298 12.5116 12.3601 12.1912 12.3722C11.6906 12.3911 11.3652 12.6084 11.3652 12.9462Z" fill="black"></path><path d="M12.3202 12.1132C12.4455 12.1077 12.6483 12.0853 12.8266 12.1137C13.0135 12.1433 13.2168 12.2333 13.3423 12.4718L13.3541 12.4954L13.3612 12.5101L13.3664 12.5258C13.4477 12.7748 13.469 12.9926 13.4172 13.1769C13.3627 13.3709 13.2389 13.4883 13.1094 13.5546C12.986 13.6178 12.852 13.6382 12.7491 13.6461C12.6961 13.6502 12.647 13.6512 12.6074 13.6517C12.5638 13.6521 12.5404 13.6521 12.5239 13.6532C12.2103 13.674 11.9404 13.6461 11.7375 13.5431C11.6329 13.49 11.542 13.4147 11.4754 13.3125C11.4084 13.2096 11.3738 13.0914 11.3657 12.9663L11.3652 12.9582V12.9501C11.3652 12.692 11.4761 12.4784 11.6572 12.3341C11.8321 12.1947 12.0649 12.1244 12.3202 12.1132ZM12.7662 12.57C12.6707 12.5548 12.5708 12.5605 12.4566 12.5674L12.337 12.5739C12.1361 12.5827 11.9924 12.6372 11.9049 12.7069C11.826 12.7697 11.7884 12.8467 11.7863 12.9417C11.7904 12.9888 11.8025 13.0208 11.8181 13.0447C11.8349 13.0705 11.8636 13.0989 11.9147 13.1248C12.0232 13.18 12.2097 13.2121 12.4984 13.1929C12.5288 13.1909 12.5703 13.191 12.6031 13.1907C12.6401 13.1903 12.6792 13.1893 12.7196 13.1862C12.8033 13.1797 12.877 13.1647 12.9311 13.137C12.9792 13.1124 13.0029 13.0834 13.0147 13.0413C13.0288 12.9911 13.035 12.8879 12.9753 12.6982C12.9352 12.6249 12.8729 12.5869 12.7662 12.57Z" fill="black"></path><path d="M15.3451 12.1619C15.5107 12.5977 16.1094 12.9931 16.4534 13.4513C17.5866 14.9602 18.842 14.7348 19.0401 14.6106C19.5212 14.3091 19.7884 13.7209 19.8765 13.3174C19.9646 12.9139 19.9886 12.4769 19.8288 12.0185C19.638 11.4704 18.1266 9.75721 16.8904 9.76075C16.3096 9.7624 15.7772 10.352 15.4872 10.8534C15.2822 11.208 15.1861 11.7435 15.3451 12.1619Z" fill="black"></path><path d="M16.8452 9.76075C17.5439 9.75895 18.3006 10.1895 18.8962 10.6677C19.1969 10.9091 19.4625 11.1673 19.6663 11.3994C19.8676 11.6284 20.0169 11.8409 20.0746 11.9903C20.2546 12.4549 20.2263 12.8957 20.1295 13.2945C20.0319 13.6967 19.7353 14.291 19.1879 14.5997C19.1141 14.6413 18.9715 14.679 18.7916 14.694C18.6069 14.7093 18.3709 14.7015 18.1039 14.6431C17.5679 14.5259 16.9112 14.2054 16.2935 13.4653C16.1174 13.2545 15.877 13.0588 15.6445 12.8524C15.42 12.653 15.1974 12.4392 15.0987 12.2053C14.913 11.7659 15.0264 11.2175 15.2582 10.8569C15.4175 10.6092 15.6439 10.3384 15.9128 10.1282C16.1808 9.91868 16.501 9.76164 16.8452 9.76075ZM15.4488 10.9698C15.2447 11.2875 15.1538 11.7636 15.3063 12.1245C15.3836 12.3074 15.5674 12.4911 15.7966 12.6945C16.0179 12.891 16.2786 13.1036 16.4683 13.3309C17.0553 14.0341 17.6684 14.3274 18.1537 14.4335C18.3972 14.4867 18.6098 14.4932 18.7723 14.4796C18.9394 14.4659 19.0429 14.4321 19.0745 14.4144C19.5499 14.1463 19.8215 13.6153 19.9113 13.2457C20.0019 12.8726 20.0245 12.4776 19.8648 12.0652C19.8211 11.9525 19.6933 11.7636 19.4951 11.538C19.2996 11.3155 19.0432 11.066 18.7525 10.8326C18.1653 10.3613 17.4613 9.97415 16.8457 9.97573C16.5725 9.97644 16.3009 10.1022 16.0543 10.2949C15.8088 10.4869 15.5979 10.7379 15.4488 10.9698Z" fill="black"></path><path d="M10.7736 12.2712C10.625 12.6383 10.092 12.9777 9.78494 13.366C8.77359 14.6451 7.65925 14.4734 7.48372 14.3721C7.05749 14.1261 6.82212 13.6373 6.74517 13.3005C6.66823 12.9638 6.6484 12.5982 6.79178 12.2121C6.96318 11.7505 8.31114 10.2952 9.4091 10.2813C9.92485 10.2748 10.3959 10.7613 10.6517 11.1772C10.8326 11.4714 10.9162 11.9186 10.7736 12.2712Z" fill="black"></path><path d="M9.28626 10.2813C8.69195 10.2884 8.04931 10.6581 7.54478 11.0633C7.28975 11.2681 7.06429 11.4866 6.89097 11.6825C6.72027 11.8756 6.5923 12.0555 6.54208 12.1827C6.38729 12.5747 6.40993 12.9444 6.49076 13.277C6.57242 13.613 6.82254 14.1086 7.28914 14.3619C7.35442 14.3974 7.47718 14.4272 7.62972 14.4374C7.78685 14.448 7.98733 14.4387 8.21417 14.3865C8.66953 14.2819 9.22707 14.0059 9.75251 13.3809C9.90098 13.2043 10.1034 13.0396 10.3009 12.8646C10.4907 12.6964 10.6813 12.5141 10.7668 12.3154C10.9272 11.9425 10.8321 11.4823 10.6353 11.1814C10.501 10.976 10.3096 10.752 10.0815 10.5789C9.85427 10.4065 9.58112 10.2778 9.28626 10.2813ZM10.45 11.292C10.6186 11.5499 10.6923 11.9392 10.5646 12.236C10.5001 12.386 10.3465 12.5392 10.1522 12.7115C9.96545 12.877 9.74371 13.0579 9.58205 13.2502C9.08608 13.8401 8.57013 14.09 8.1631 14.1836C7.95879 14.2305 7.7808 14.2383 7.64514 14.2292C7.50491 14.2198 7.42043 14.1931 7.39708 14.1804C7.00277 13.9664 6.77751 13.5334 6.70373 13.2297C6.62914 12.9228 6.61173 12.5978 6.74656 12.2564C6.78287 12.1644 6.89003 12.0072 7.0579 11.8173C7.22319 11.6304 7.43983 11.4202 7.68538 11.223C8.18201 10.8242 8.77446 10.4962 9.289 10.49C9.51502 10.4874 9.74023 10.5867 9.94564 10.7425C10.1502 10.8977 10.3259 11.1023 10.45 11.292Z" fill="black"></path><path d="M4.89827 14.5753C5.01336 15.0395 5.54827 14.954 5.95128 14.954C6.38134 14.8607 6.54903 14.2905 6.32777 13.94C6.1438 13.6485 5.86726 13.6602 5.56364 13.6602C5.23947 13.6602 4.86536 13.7562 4.86536 14.1297C4.86536 14.2834 4.86132 14.4263 4.89827 14.5753Z" fill="#F050A3"></path><path d="M20.5053 14.5753C20.6396 15.0395 21.2637 14.954 21.7339 14.954C22.2356 14.8608 22.4312 14.2905 22.1731 13.9399C21.9585 13.6484 21.6358 13.6602 21.2816 13.6602C20.9034 13.6602 20.467 13.7562 20.467 14.1296C20.467 14.2834 20.4622 14.4263 20.5053 14.5753Z" fill="#F050A3"></path><path d="M18.831 4.78769C18.895 4.99436 18.9183 5.28188 18.9057 5.42085C18.8181 6.37837 18.6553 6.95381 18.5555 7.13713C18.4598 7.31274 18.3647 7.45284 18.2525 7.58328C18.1473 7.70541 18.0353 7.82996 17.8031 7.92458C17.543 8.03064 17.2703 8.13125 17.0527 8.18316C16.781 8.24792 15.9439 8.1039 15.3285 7.90263C14.9999 7.79517 14.7836 7.7164 14.472 7.45686C14.3016 7.31493 14.1462 7.21613 14.0394 7.08483C13.9773 7.00865 13.8795 6.40724 14.1402 6.18712C14.215 6.12397 14.3921 6.14374 14.4845 6.00011C14.5107 5.95935 14.53 5.89638 14.5185 5.84522C14.4976 5.75123 14.4147 5.6604 14.3772 5.54108C14.3492 5.45216 14.3395 5.05078 14.5071 4.55067C14.6042 4.26052 14.6653 4.11072 14.7567 3.97962C14.8604 3.83089 14.9556 3.61655 15.2186 3.49858C15.5028 3.37111 15.8723 3.23487 16.0856 3.26236C16.7312 3.34555 17.7355 3.55985 17.8905 3.68706C18.0229 3.79589 18.1794 3.87033 18.297 3.9961C18.5268 4.24176 18.7769 4.61287 18.831 4.78769Z" fill="#F050A3"></path><path d="M16.1211 3.00566C16.4518 3.04821 16.8712 3.12382 17.2284 3.20493C17.4069 3.24545 17.5738 3.28826 17.7085 3.33016C17.7757 3.35106 17.8386 3.37283 17.8924 3.39529C17.9343 3.41273 17.9876 3.43738 18.0345 3.47136L18.0543 3.48649L18.0952 3.51818C18.1371 3.54902 18.1831 3.57868 18.2432 3.61945C18.3161 3.66909 18.4053 3.73256 18.4855 3.8181C18.6113 3.95249 18.7397 4.11759 18.8439 4.27196C18.9431 4.41881 19.0393 4.58319 19.0791 4.71184C19.1535 4.95146 19.1809 5.27397 19.1648 5.44911C19.1202 5.93539 19.0562 6.32852 18.9894 6.62673C18.9242 6.91727 18.8522 7.13705 18.7834 7.26328C18.6803 7.45234 18.5749 7.60821 18.4485 7.75469C18.3347 7.88677 18.1889 8.04949 17.8984 8.16769C17.6371 8.27402 17.3497 8.38065 17.112 8.43723C17.0047 8.46275 16.8696 8.46351 16.7386 8.4557C16.601 8.44751 16.4425 8.42806 16.2769 8.40065C15.9461 8.34591 15.5712 8.25696 15.2505 8.15231C14.911 8.04146 14.658 7.95043 14.3091 7.66034C14.224 7.5896 14.1604 7.54393 14.0738 7.47462C13.9965 7.41284 13.9131 7.34125 13.8412 7.25315C13.8003 7.20296 13.7794 7.14472 13.7697 7.11584C13.7568 7.07763 13.7462 7.03508 13.7376 6.99152C13.7205 6.90414 13.7088 6.79726 13.709 6.68535C13.7094 6.48457 13.7487 6.16783 13.9771 5.97532C14.0374 5.92457 14.1038 5.90126 14.1391 5.88981C14.1589 5.88342 14.1788 5.87785 14.1934 5.87372C14.2095 5.86914 14.2215 5.86568 14.233 5.86204C14.235 5.86136 14.2369 5.86045 14.2389 5.8598C14.2357 5.8542 14.2326 5.84777 14.2286 5.84082C14.2033 5.79608 14.1577 5.71872 14.1287 5.62671C14.1102 5.56791 14.1035 5.49575 14.1012 5.43273C14.0984 5.36223 14.1002 5.27686 14.1086 5.18026C14.1253 4.98688 14.1687 4.74093 14.2596 4.46994C14.3566 4.18145 14.4278 3.99816 14.5437 3.83211C14.616 3.72854 14.7651 3.41829 15.115 3.26169C15.2623 3.19576 15.4365 3.1252 15.6055 3.07439C15.7651 3.02638 15.956 2.98443 16.1211 3.00566ZM17.1111 3.73859C16.7686 3.66082 16.3658 3.58841 16.0534 3.54823C16.0058 3.54213 15.9063 3.55429 15.758 3.59887C15.619 3.64067 15.4677 3.70135 15.3318 3.76219C15.1574 3.84026 15.1166 3.95635 14.9823 4.14863C14.9161 4.24333 14.8657 4.35801 14.7689 4.64658C14.6928 4.87299 14.6576 5.07543 14.6445 5.22811C14.6378 5.3045 14.637 5.36661 14.6387 5.41136C14.6399 5.4431 14.6421 5.4596 14.6428 5.46438C14.6514 5.48965 14.6657 5.51673 14.6944 5.56718C14.7174 5.60778 14.7668 5.69062 14.788 5.78533C14.8207 5.9319 14.7678 6.07045 14.7167 6.14971C14.6194 6.30053 14.4795 6.35642 14.3944 6.38366C14.3734 6.39041 14.3531 6.39616 14.3381 6.40042C14.325 6.40411 14.316 6.40678 14.3085 6.40909C14.2975 6.42324 14.2839 6.44725 14.272 6.48684C14.2555 6.54182 14.247 6.61122 14.2469 6.68653C14.2467 6.76099 14.2547 6.83161 14.2651 6.88451C14.2687 6.90248 14.2723 6.9166 14.2752 6.92694C14.3076 6.96226 14.3496 6.9994 14.4064 7.04481C14.4661 7.09257 14.5649 7.16662 14.6496 7.23701C14.9216 7.46319 15.0998 7.52877 15.415 7.63167C15.7077 7.72719 16.0563 7.81005 16.3634 7.86087C16.5168 7.88626 16.656 7.90301 16.77 7.9098C16.8907 7.917 16.9613 7.91148 16.9894 7.90481C17.1854 7.85815 17.4414 7.76467 17.6985 7.66004C17.8707 7.59003 17.9484 7.505 18.0439 7.39416C18.1414 7.28117 18.2255 7.15837 18.3129 6.99812C18.3434 6.94203 18.4023 6.78447 18.4649 6.50521C18.5259 6.23362 18.5865 5.86442 18.6292 5.3984C18.6384 5.29713 18.6193 5.04768 18.5661 4.87621C18.5522 4.83098 18.4966 4.72386 18.4006 4.58163C18.3095 4.44691 18.1988 4.30519 18.0959 4.19525C18.0589 4.15575 18.0114 4.11974 17.9442 4.07405C17.8854 4.03411 17.7997 3.97924 17.7229 3.91704C17.7262 3.91954 17.7179 3.91369 17.6882 3.90129C17.6553 3.88755 17.6096 3.87129 17.5511 3.85311C17.4347 3.8169 17.2825 3.7775 17.1111 3.73859Z" fill="black"></path><path d="M20.5478 5.26093C20.4091 5.43181 20.2804 5.69379 20.2418 5.82929C19.976 6.76298 19.9245 7.36484 19.9551 7.57431C19.9845 7.77498 20.0265 7.94202 20.0888 8.10633C20.1472 8.26016 20.2116 8.41886 20.4049 8.59379C20.6214 8.78986 20.8522 8.9854 21.0471 9.11477C21.2901 9.27624 22.1652 9.45023 22.8437 9.48843C23.206 9.50883 23.4474 9.51469 23.8489 9.38566C24.0685 9.3151 24.2574 9.27955 24.4106 9.19549C24.4995 9.14673 24.8166 8.61682 24.6414 8.31322C24.5911 8.2261 24.41 8.17922 24.3719 8.00984C24.3612 7.96177 24.3654 7.89539 24.3955 7.85145C24.4505 7.77072 24.5654 7.71588 24.646 7.61744C24.7061 7.54408 24.8632 7.16988 24.8824 6.63716C24.8934 6.3281 24.8886 6.16452 24.847 6.00732C24.7999 5.82898 24.785 5.59198 24.5699 5.38364C24.3375 5.15852 24.0248 4.89365 23.805 4.84061C23.1403 4.68012 22.0751 4.51038 21.8762 4.57282C21.706 4.62625 21.525 4.63843 21.3631 4.71332C21.0473 4.85959 20.6652 5.11639 20.5478 5.26093Z" fill="#F050A3"></path><path d="M23.8581 4.58855C23.5193 4.50666 23.0818 4.42321 22.7031 4.3678C22.5139 4.34011 22.3351 4.31879 22.1882 4.30853C22.115 4.30342 22.0458 4.30082 21.985 4.30207C21.9378 4.30305 21.8768 4.30636 21.8186 4.32093L21.7939 4.32791L21.7423 4.34269C21.69 4.35622 21.6341 4.36703 21.5606 4.3832C21.4712 4.40291 21.3608 4.42984 21.2512 4.48065C21.0789 4.56051 20.893 4.66824 20.7344 4.77487C20.5837 4.87622 20.4294 4.99539 20.3428 5.102C20.182 5.30019 20.0367 5.59371 19.988 5.76502C19.8534 6.23842 19.7719 6.63158 19.728 6.93666C19.6852 7.23372 19.6751 7.46745 19.6962 7.61226C19.7278 7.82818 19.7738 8.0138 19.8437 8.19824C19.9068 8.36467 19.9897 8.57152 20.2304 8.78965C20.4469 8.98583 20.6887 9.19177 20.9003 9.33246C20.9955 9.39578 21.127 9.44624 21.2577 9.48712C21.3951 9.53008 21.5568 9.57012 21.7286 9.60536C22.0719 9.67582 22.4708 9.73046 22.8222 9.75027C23.1945 9.77124 23.4747 9.77886 23.9218 9.63503C24.0308 9.59994 24.1097 9.58036 24.2197 9.54722C24.3179 9.51768 24.4255 9.48122 24.528 9.42491C24.5867 9.39271 24.6288 9.34545 24.649 9.32171C24.6756 9.29035 24.7019 9.25409 24.7263 9.21617C24.7753 9.14013 24.8259 9.04377 24.8669 8.9382C24.9402 8.74886 25.0186 8.43454 24.8649 8.16777L24.849 8.14263C24.8106 8.08639 24.764 8.04824 24.7376 8.02752C24.7207 8.01425 24.7032 8.00156 24.6905 7.99233C24.6764 7.9821 24.6661 7.97452 24.6563 7.96691C24.6557 7.96649 24.6553 7.96593 24.6547 7.96553C24.6585 7.96246 24.6626 7.95894 24.667 7.95538C24.7082 7.9228 24.7812 7.86659 24.8435 7.79046C24.8836 7.74151 24.9168 7.67572 24.9423 7.61726C24.9709 7.55176 25.0004 7.47061 25.0278 7.37655C25.0824 7.18827 25.1301 6.94077 25.1405 6.65214C25.1515 6.34542 25.1491 6.14623 25.0965 5.94671C25.0638 5.82319 25.0314 5.47552 24.7465 5.19916C24.6267 5.08298 24.4822 4.95262 24.3358 4.84267C24.1973 4.73871 24.0265 4.62927 23.8581 4.58855ZM22.6208 4.91876C22.9841 4.97191 23.4043 5.05227 23.7245 5.12967C23.7738 5.14159 23.867 5.18995 23.9955 5.28643C24.1161 5.37694 24.242 5.48977 24.3525 5.597C24.4939 5.7342 24.491 5.85711 24.5519 6.08759C24.5816 6.20009 24.589 6.32566 24.5779 6.63241C24.5694 6.87249 24.5296 7.075 24.4867 7.22278C24.4652 7.29675 24.4436 7.35523 24.4256 7.39636C24.4129 7.42557 24.4048 7.44 24.4025 7.44402C24.3852 7.46404 24.3615 7.4839 24.3154 7.52043C24.2781 7.54992 24.199 7.60986 24.1432 7.6917C24.0563 7.81912 24.0572 7.97079 24.0784 8.06497C24.1185 8.24384 24.2356 8.3481 24.3082 8.40469C24.3263 8.41879 24.3441 8.43166 24.3571 8.44121C24.3684 8.44934 24.3762 8.45516 24.3826 8.46004C24.388 8.47682 24.3923 8.50346 24.3895 8.54383C24.3855 8.60071 24.3686 8.66831 24.3414 8.7387C24.3144 8.8083 24.2809 8.87137 24.2515 8.91697C24.2419 8.93202 24.2334 8.94361 24.227 8.95209C24.1824 8.97327 24.1279 8.99265 24.0559 9.01435C23.9799 9.03722 23.8563 9.07034 23.7478 9.10526C23.3988 9.21756 23.2003 9.21358 22.8543 9.19409C22.5331 9.17598 22.1618 9.12538 21.843 9.05995C21.6837 9.02726 21.5414 8.99158 21.4274 8.95591C21.3067 8.91816 21.2394 8.88695 21.2141 8.87017C21.0395 8.75404 20.8236 8.5719 20.6106 8.37889C20.4682 8.24979 20.4235 8.14154 20.3708 8.00261C20.3171 7.86089 20.28 7.71483 20.2533 7.53243C20.244 7.46928 20.2443 7.30033 20.2854 7.01518C20.3252 6.73794 20.401 6.36908 20.5299 5.91584C20.5577 5.81817 20.6673 5.59161 20.7817 5.4506C20.8117 5.41375 20.9048 5.33381 21.0508 5.23558C21.189 5.14262 21.349 5.0503 21.49 4.98498C21.5406 4.96147 21.6003 4.94511 21.6828 4.92694C21.755 4.91104 21.8589 4.89119 21.9568 4.86106C21.9524 4.86221 21.9628 4.85957 21.9968 4.85887C22.0341 4.8581 22.0848 4.85977 22.1487 4.86422C22.2758 4.8731 22.4391 4.89217 22.6208 4.91876Z" fill="black"></path><path d="M18.316 6.10993C18.1378 7.07075 18.0655 7.53648 18.1874 7.68795C18.6146 8.21915 19.6042 8.17584 20.0494 8.1963C20.4946 8.21674 20.6655 8.11706 20.7822 7.88363C20.9598 7.29381 21.0258 6.82554 20.965 6.62011C20.8368 6.18765 20.73 5.56008 20.3168 5.49264C19.8471 5.41599 19.2037 5.18219 18.8539 5.50472C18.6885 5.65729 18.3798 5.76596 18.316 6.10993Z" fill="#F050A3"></path><path d="M20.2872 5.23494C20.6524 5.28955 20.8499 5.57153 20.9636 5.81387C21.075 6.0512 21.151 6.35446 21.2104 6.5378C21.2646 6.70567 21.2527 6.92806 21.2183 7.14754C21.1819 7.37998 21.1119 7.65604 21.0131 7.9568L21.0052 7.98092L20.9931 8.00327C20.9076 8.15992 20.7872 8.29442 20.5935 8.37545C20.4148 8.45015 20.1996 8.46796 19.9459 8.45728C19.7276 8.44809 19.3098 8.45299 18.9063 8.39268C18.5079 8.33313 18.0403 8.20078 17.7417 7.86047C17.6538 7.76027 17.624 7.63631 17.6133 7.53257C17.6022 7.42534 17.6079 7.302 17.6221 7.16839C17.6508 6.90098 17.7212 6.53567 17.8165 6.06474C17.8692 5.80478 18.0251 5.6405 18.1678 5.53016C18.2368 5.4769 18.3087 5.43175 18.3633 5.39693C18.4233 5.3586 18.4613 5.33348 18.489 5.31002C18.769 5.07338 19.1382 5.06261 19.4366 5.09141C19.5923 5.10643 19.7491 5.13464 19.8922 5.16216C20.0401 5.19061 20.1684 5.21718 20.2872 5.23494ZM19.786 5.70954C19.6452 5.68248 19.5103 5.65873 19.3826 5.64641C19.1141 5.62051 18.9483 5.65346 18.8516 5.73511C18.7903 5.78691 18.72 5.83168 18.6655 5.8664C18.6057 5.90463 18.5567 5.93572 18.5116 5.97051C18.4265 6.03629 18.3819 6.09544 18.3657 6.1749C18.2691 6.65213 18.2047 6.99079 18.1793 7.2276C18.1666 7.34607 18.1655 7.42495 18.1706 7.47555C18.1722 7.49062 18.1741 7.50068 18.1756 7.50679C18.3393 7.68278 18.6291 7.7874 18.9896 7.84128C19.3536 7.89569 19.7084 7.88922 19.9695 7.90021C20.1952 7.90971 20.3118 7.88845 20.3764 7.86142C20.421 7.84275 20.4534 7.81656 20.4888 7.75754C20.5765 7.4871 20.6352 7.2503 20.6647 7.06151C20.6973 6.85386 20.6883 6.74373 20.6771 6.70881C20.5983 6.46539 20.5477 6.24557 20.456 6.04994C20.3664 5.85929 20.2837 5.79827 20.204 5.78632C20.0698 5.76627 19.9219 5.73568 19.786 5.70954Z" fill="black"></path><path fill-rule="evenodd" clip-rule="evenodd" d="M16.8797 13.0857C16.8895 13.0893 16.8992 13.0926 16.9092 13.0957C17.1951 13.185 17.5 13.1232 17.7245 13.0171C17.9562 12.9075 18.2332 12.6879 18.3398 12.3215C18.3814 12.1784 18.4083 12.0033 18.3717 11.8174C18.332 11.6158 18.2273 11.4502 18.0853 11.3317C17.8476 11.1332 17.539 11.0976 17.3666 11.0829C17.3476 11.0813 17.3253 11.0792 17.3013 11.077C17.2363 11.071 17.1582 11.0637 17.0935 11.0607C16.9998 11.0563 16.8626 11.0553 16.7186 11.0952C16.5576 11.1397 16.4002 11.2316 16.2759 11.3884C16.1614 11.533 16.1021 11.6985 16.0679 11.8484C16.0154 12.0791 16.083 12.2762 16.1315 12.3831C16.1846 12.5006 16.2561 12.6004 16.3191 12.6761C16.433 12.8127 16.6053 12.9712 16.7824 13.0516C16.8144 13.0661 16.847 13.0774 16.8797 13.0857Z" fill="white"></path><path fill-rule="evenodd" clip-rule="evenodd" d="M8.46709 13.0857C8.4757 13.0893 8.48443 13.0926 8.49328 13.0957C8.74744 13.185 9.01838 13.1232 9.21799 13.0171C9.42395 12.9075 9.67017 12.6879 9.76495 12.3215C9.80196 12.1784 9.8258 12.0033 9.79327 11.8173C9.75803 11.6158 9.66493 11.4502 9.53875 11.3317C9.32744 11.1332 9.05305 11.0976 8.89986 11.0829C8.88293 11.0813 8.86318 11.0792 8.84181 11.077C8.78408 11.071 8.71454 11.0637 8.65706 11.0607C8.57377 11.0563 8.45192 11.0553 8.32387 11.0952C8.18072 11.1397 8.04086 11.2316 7.93035 11.3884C7.8285 11.533 7.77582 11.6985 7.74546 11.8484C7.69874 12.0791 7.75891 12.2762 7.80192 12.3831C7.84921 12.5006 7.91268 12.6004 7.9688 12.6761C8.06999 12.8127 8.22314 12.9712 8.38056 13.0516C8.409 13.0661 8.43794 13.0774 8.46709 13.0857Z" fill="white"></path><path d="M26.9809 13.4238C27.059 13.3753 27.1602 13.4013 27.2073 13.4819C27.2542 13.5625 27.229 13.6672 27.151 13.7157C25.2439 14.9011 21.985 16.3781 18.3503 16.712C14.9618 17.0232 12.3274 17.376 7.9578 16.4048C7.86661 16.3846 7.58162 16.2902 7.22144 16.1661C6.85514 16.0397 6.39709 15.8773 5.94926 15.7153C5.50156 15.5533 5.06312 15.3912 4.73624 15.2654C4.57308 15.2026 4.4363 15.1483 4.33966 15.1073C4.2918 15.0871 4.25114 15.0691 4.22136 15.0542C4.20716 15.0471 4.19096 15.0384 4.17658 15.0291C4.17006 15.0248 4.15785 15.0165 4.14535 15.0046C4.13916 14.9987 4.12823 14.9876 4.11787 14.9714C4.1086 14.957 4.08984 14.9232 4.08984 14.8756C4.08984 14.7816 4.16366 14.7053 4.25474 14.7053C4.29511 14.7053 4.33204 14.7204 4.3607 14.7452C4.362 14.7459 4.36347 14.7467 4.36511 14.7475C4.38555 14.7577 4.41866 14.7727 4.46484 14.7922C4.55638 14.8311 4.68916 14.8838 4.85143 14.9462C5.17545 15.0709 5.61158 15.2321 6.05834 15.3938C6.505 15.5554 6.96145 15.7172 7.3259 15.8429C7.69646 15.9707 7.95863 16.0564 8.02716 16.0716C12.3422 17.0308 14.9307 16.6841 18.3211 16.3727C21.8935 16.0445 25.1046 14.5902 26.9809 13.4238ZM4.41417 14.8329C4.41376 14.8313 4.41342 14.8298 4.41298 14.8282C4.41342 14.8298 4.41377 14.8314 4.41417 14.8329ZM4.41964 14.8756C4.41964 14.8639 4.41841 14.853 4.41653 14.8431C4.4185 14.8537 4.41964 14.8645 4.41964 14.8756Z" fill="black"></path><path d="M19.1695 15.8375C19.1795 15.7747 19.2359 15.7323 19.2956 15.7428C19.4294 15.7664 19.6103 15.8361 19.7783 15.9049C19.931 15.9673 20.0748 16.0299 20.1856 16.0705L20.231 16.0864L20.2335 16.0872L20.2359 16.0882C20.5013 16.192 20.7181 16.2807 21.1777 16.4145L21.3904 16.4749L21.3926 16.4755C21.5361 16.5183 21.5832 16.5388 21.6735 16.5519C21.7334 16.5606 21.7753 16.6189 21.7671 16.6819C21.7587 16.7449 21.7034 16.7889 21.6435 16.7801C21.5335 16.7642 21.4598 16.7351 21.3348 16.6976L21.1182 16.6363C20.6501 16.4999 20.4271 16.4088 20.1594 16.3041H20.1593C20.0357 16.2621 19.8619 16.1862 19.6988 16.1194C19.5268 16.0492 19.3672 15.9891 19.2595 15.9701C19.1998 15.9596 19.1594 15.9001 19.1695 15.8375Z" fill="black"></path><path d="M21.4317 14.969C21.4951 14.9943 21.5232 15.0598 21.4942 15.1154C21.4293 15.2399 21.3017 15.3988 21.1788 15.5454C21.067 15.6787 20.9578 15.8033 20.8819 15.9012L20.8515 15.9415L20.8498 15.9437L20.8481 15.9458C20.659 16.1786 20.5004 16.3677 20.2216 16.7825L20.0942 16.9747L20.0931 16.9767C20.0048 17.1059 19.9691 17.1467 19.9283 17.2314C19.9011 17.2876 19.827 17.314 19.7627 17.2903C19.6984 17.2665 19.6684 17.2016 19.6955 17.1454C19.7452 17.0423 19.798 16.9777 19.875 16.8651L20.0045 16.6694C20.2885 16.2471 20.4516 16.0526 20.6422 15.8177C20.7236 15.7077 20.8558 15.557 20.9751 15.4145C21.101 15.2645 21.2121 15.1239 21.2644 15.0237C21.2933 14.9682 21.3682 14.9436 21.4317 14.969Z" fill="black"></path><path d="M15.2701 16.0778C15.2866 16.0192 15.3442 15.9861 15.3989 16.0038C15.5211 16.0435 15.6824 16.1332 15.8316 16.2204C15.9672 16.2995 16.0946 16.3777 16.1935 16.4307L16.2341 16.4517L16.2363 16.4528L16.2385 16.4542C16.4747 16.5873 16.6672 16.6997 17.0817 16.8865L17.2736 16.9715L17.2756 16.9722C17.4049 17.0317 17.4466 17.0573 17.5294 17.0813C17.5845 17.0974 17.617 17.1583 17.6021 17.2174C17.5872 17.2764 17.5304 17.3112 17.4753 17.2951C17.3745 17.2659 17.3088 17.2287 17.1961 17.1768L17.0007 17.0904C16.5787 16.9001 16.3806 16.7845 16.1424 16.6502C16.0316 16.5943 15.8777 16.4996 15.7327 16.4149C15.58 16.3257 15.4376 16.2478 15.3391 16.2158C15.2845 16.1981 15.2535 16.1363 15.2701 16.0778Z" fill="black"></path><path d="M17.2979 15.7573C17.349 15.7885 17.3647 15.8544 17.333 15.9047C17.2621 16.0172 17.1332 16.1561 17.01 16.2837C16.898 16.3996 16.7892 16.5075 16.7121 16.5933L16.6811 16.6288L16.6795 16.6307L16.6776 16.6325C16.4873 16.8357 16.3283 17.0003 16.0384 17.3685L15.9057 17.5394L15.9044 17.5411C15.8129 17.6557 15.7773 17.6911 15.7319 17.7679C15.7017 17.8191 15.6351 17.8364 15.5833 17.8067C15.5315 17.777 15.5139 17.7114 15.5441 17.6603C15.5993 17.5667 15.6524 17.5103 15.7323 17.4104L15.8673 17.2364C16.1625 16.8616 16.3259 16.6922 16.518 16.4873L16.5181 16.4872C16.6013 16.3903 16.733 16.2599 16.8526 16.136C16.9787 16.0055 17.0913 15.8824 17.1484 15.7918C17.1801 15.7416 17.247 15.7262 17.2979 15.7573Z" fill="black"></path><path d="M10.864 16.0464C10.8933 16.0008 10.9576 15.9854 11.0076 16.0121C11.1198 16.072 11.2592 16.1823 11.3874 16.2878C11.5039 16.3839 11.6125 16.4771 11.6986 16.5431L11.7341 16.5696L11.736 16.571L11.7379 16.5725C11.9419 16.7356 12.1073 16.8718 12.4756 17.1185L12.6466 17.2315L12.6483 17.2326C12.763 17.3105 12.7985 17.3411 12.8751 17.3792C12.9259 17.4046 12.9446 17.4629 12.9168 17.5092C12.889 17.5557 12.8252 17.5726 12.7742 17.5473C12.6811 17.5008 12.6245 17.4553 12.5246 17.3873L12.3505 17.2724C11.9755 17.0211 11.8053 16.8811 11.5995 16.7165C11.5024 16.6455 11.3711 16.5326 11.2466 16.43C11.1154 16.3219 10.9919 16.2257 10.9016 16.1774C10.8516 16.1507 10.8347 16.0921 10.864 16.0464Z" fill="black"></path><path d="M12.9003 16.0289C12.9398 16.0684 12.9395 16.1321 12.8995 16.1711C12.8098 16.2586 12.6613 16.3577 12.5206 16.4477C12.3927 16.5295 12.2695 16.6046 12.1802 16.6663L12.144 16.6919L12.1421 16.6933L12.14 16.6947C11.9212 16.8392 11.7397 16.9552 11.3935 17.229L11.2345 17.3566L11.2329 17.3579C11.124 17.4428 11.0837 17.4674 11.0252 17.5279C10.9864 17.5681 10.9218 17.5696 10.8811 17.5312C10.8404 17.4928 10.839 17.429 10.8778 17.3889C10.949 17.3153 11.01 17.2752 11.105 17.2013L11.2668 17.0714C11.6193 16.7926 11.806 16.6732 12.0268 16.5274L12.0268 16.5273C12.1242 16.4567 12.2732 16.3661 12.4099 16.2788C12.5539 16.1867 12.6839 16.0986 12.7562 16.028C12.7961 15.989 12.8607 15.9894 12.9003 16.0289Z" fill="black"></path><path d="M7.23957 14.9881C7.28274 14.9466 7.34967 14.9498 7.38901 14.9954C7.47719 15.0976 7.57505 15.2646 7.6636 15.4228C7.74408 15.5667 7.81783 15.705 7.87893 15.8057L7.90437 15.8464L7.90576 15.8486L7.90707 15.8509C8.04965 16.0971 8.16393 16.3012 8.43702 16.6928L8.56429 16.8727L8.5656 16.8745C8.65024 16.9976 8.6744 17.0429 8.73546 17.1097C8.77604 17.154 8.77488 17.2249 8.73285 17.2678C8.69082 17.3106 8.6238 17.3092 8.58322 17.2649C8.50889 17.1835 8.46938 17.1149 8.39568 17.0076L8.26607 16.8245C7.98802 16.4258 7.87042 16.2159 7.72656 15.9674C7.65651 15.8576 7.56746 15.6903 7.48143 15.5365C7.39083 15.3746 7.30366 15.2282 7.23268 15.146C7.19335 15.1004 7.19641 15.0297 7.23957 14.9881Z" fill="black"></path><path d="M9.27334 15.5402C9.30127 15.5944 9.28015 15.6611 9.22612 15.6891C9.10499 15.7519 8.91952 15.808 8.74493 15.8568C8.58624 15.9012 8.4346 15.9402 8.32223 15.9761L8.27656 15.9913L8.27414 15.9922L8.27155 15.993C7.99857 16.0737 7.77336 16.1369 7.32678 16.3121L7.12101 16.3946L7.11898 16.3954C6.97892 16.4493 6.92927 16.4621 6.84919 16.5066C6.79598 16.5362 6.72885 16.5169 6.69934 16.4635C6.66986 16.4102 6.6892 16.3429 6.74241 16.3132C6.83988 16.2591 6.91589 16.2368 7.038 16.1898L7.24741 16.1059C7.70217 15.9274 7.9338 15.8625 8.20922 15.7809C8.33272 15.7382 8.51617 15.6914 8.68578 15.6438C8.86442 15.5939 9.02733 15.5434 9.12485 15.4929C9.17889 15.4648 9.24539 15.486 9.27334 15.5402Z" fill="black"></path><path d="M16.3378 12.0971C16.3942 12.4078 16.8402 12.6949 17.05 12.8794C17.2053 12.7644 17.4242 12.69 17.5447 12.6254C17.7586 12.5109 18.1066 12.4262 18.127 12.0596C18.1473 11.693 17.9799 11.5173 17.8878 11.439C17.7383 11.312 17.4007 11.3075 17.2986 11.5309C17.2883 11.5535 17.2202 11.9421 17.1709 11.7226C17.1485 11.6233 17.0833 11.442 16.9867 11.3841C16.7987 11.2713 16.4941 11.3081 16.4095 11.4767C16.2756 11.7437 16.3014 11.8961 16.3378 12.0971Z" fill="#CC2936"></path><path d="M8.07504 12.2925C8.1897 12.5721 8.67722 12.7496 8.91621 12.8794C9.04442 12.7397 9.24201 12.625 9.34634 12.5397C9.53139 12.3884 9.85215 12.2375 9.80095 11.8897C9.74976 11.5419 9.55361 11.4117 9.44919 11.3572C9.27984 11.2689 8.95188 11.334 8.89622 11.5644C8.89061 11.5876 8.89979 11.966 8.80955 11.7703C8.76878 11.6818 8.67041 11.5254 8.56562 11.4909C8.36184 11.4238 8.07375 11.5209 8.02444 11.6963C7.94637 11.9741 8.00082 12.1116 8.07504 12.2925Z" fill="#CC2936"></path></svg> 