<svg width="30" height="30" viewBox="0 0 30 30" fill="none" xmlns="http://www.w3.org/2000/svg">
<circle cx="15" cy="15" r="15" fill="white"/>
<path d="M22.6154 8.84283C22.3048 8.83241 21.985 8.51176 21.644 8.38287C20.5211 7.9584 20.5682 7.03289 20.6359 6.86561C20.8005 6.45938 21.1782 6.13284 21.4454 5.97486C21.7126 5.81688 22.008 5.69542 22.3336 5.69629C22.7228 5.69734 24.0168 6.33533 24.1191 7.19424C24.167 7.5977 23.8108 8.10875 23.4941 8.43026C23.2701 8.65766 22.9137 8.85284 22.6154 8.84283Z" fill="black"/>
<path d="M24.119 7.09205C24.0633 6.62403 23.6872 6.22933 23.294 5.95649C23.0953 5.81857 22.8872 5.70827 22.7031 5.63217C22.5214 5.5571 22.3549 5.51191 22.2415 5.5116C21.8937 5.51066 21.5817 5.64057 21.3064 5.80343C21.0287 5.96767 20.6322 6.30846 20.4575 6.74009C20.4346 6.79651 20.4186 6.89887 20.4224 7.02244C20.4263 7.14847 20.4509 7.3035 20.5152 7.46691C20.6447 7.79622 20.9326 8.15247 21.5187 8.37412C21.682 8.43586 21.8391 8.54306 22.0074 8.64484C22.169 8.7426 22.3438 8.83719 22.5229 8.84321C22.6899 8.84881 22.8678 8.79717 23.0306 8.71703C23.194 8.63659 23.3475 8.52486 23.4666 8.40386C23.63 8.23794 23.8043 8.02242 23.9322 7.79465C24.0589 7.56892 24.1461 7.32031 24.119 7.09205ZM23.3567 8.2932C23.2499 8.40162 23.1107 8.50314 22.9627 8.57601C22.8141 8.64916 22.6619 8.69092 22.5281 8.68644C22.3939 8.68193 22.2509 8.6094 22.087 8.51027C21.9297 8.41514 21.7536 8.29556 21.573 8.22726C21.0266 8.02062 20.7721 7.69584 20.6593 7.40898C20.6024 7.26431 20.5809 7.12747 20.5775 7.01755C20.574 6.90521 20.5897 6.82754 20.601 6.79956C20.7581 6.41147 21.1235 6.09334 21.3847 5.93879C21.6483 5.78286 21.9322 5.66759 22.2411 5.66842C22.3238 5.66864 22.4677 5.7043 22.6443 5.77731C22.8185 5.84928 23.0168 5.95431 23.2063 6.08577C23.5895 6.3517 23.9175 6.71216 23.965 7.11074C23.9862 7.28955 23.918 7.5023 23.7973 7.71724C23.6778 7.93017 23.5127 8.13473 23.3567 8.2932Z" fill="black"/>
<path d="M9.25729 8.05291C9.1412 8.33892 8.7356 8.5284 8.49975 8.80257C7.72302 9.70549 6.88493 9.34792 6.75374 9.22806C6.4352 8.93702 6.26325 8.47428 6.20902 8.17169C6.15479 7.86909 6.14394 7.55255 6.25635 7.24936C6.39073 6.88692 7.42318 5.89686 8.25101 6.09263C8.63987 6.18459 8.98948 6.68984 9.17766 7.09404C9.31077 7.37991 9.36877 7.77828 9.25729 8.05291Z" fill="black"/>
<path d="M8.18027 5.91174C7.72882 5.79941 7.23514 6.02788 6.84816 6.31661C6.65254 6.46258 6.47925 6.62752 6.34575 6.7812C6.21407 6.93278 6.11518 7.08013 6.07596 7.19144C5.95571 7.53268 5.96864 7.88537 6.02459 8.21383C6.08102 8.54509 6.25974 9.05602 6.59848 9.38166C6.64275 9.42423 6.73183 9.47643 6.84728 9.5168C6.96503 9.55796 7.11667 9.58912 7.28968 9.58433C7.63832 9.57469 8.06623 9.41905 8.47213 8.92262C8.5852 8.78433 8.73816 8.66826 8.88993 8.53934C9.03571 8.41549 9.18309 8.27755 9.25012 8.10385C9.31263 7.94182 9.32597 7.74872 9.30781 7.56028C9.28958 7.37113 9.23904 7.18059 9.16815 7.02041C9.07096 6.80076 8.9317 6.55269 8.76519 6.34586C8.60016 6.14089 8.40044 5.96653 8.18027 5.91174ZM9.02821 7.08884C9.09172 7.23237 9.13771 7.40532 9.15422 7.57666C9.1708 7.74868 9.15713 7.91309 9.10708 8.04282C9.05687 8.17296 8.94078 8.28756 8.79294 8.41315C8.65108 8.53366 8.48019 8.6639 8.35511 8.81688C7.9767 9.2797 7.58934 9.41371 7.28564 9.42213C7.13248 9.42636 6.99868 9.39867 6.89599 9.36277C6.79102 9.32608 6.72464 9.28305 6.70267 9.26194C6.39811 8.96916 6.22961 8.49693 6.17651 8.18523C6.12294 7.87074 6.11391 7.55079 6.22068 7.24781C6.24929 7.1666 6.33161 7.03806 6.45968 6.89063C6.58594 6.7453 6.75101 6.58805 6.93747 6.44892C7.31466 6.16748 7.76021 5.97401 8.14467 6.06966C8.31714 6.11257 8.49026 6.25548 8.6474 6.45066C8.80306 6.644 8.93538 6.87906 9.02821 7.08884Z" fill="black"/>
<path d="M7.66594 13.97C8.60449 15.2526 10.0047 15.5234 10.7162 15.6291C10.9188 15.6592 11.6135 15.6924 11.8051 15.6924H14.258C15.2926 15.6924 18.1352 15.5422 20.1162 14.9921C20.4749 14.8566 20.769 14.7193 21.1136 14.55C21.6699 14.2764 22.1314 13.8983 22.4957 13.4146C22.8289 12.9724 23.085 12.3765 23.2546 11.854C23.378 11.4738 23.4211 10.7394 23.3536 10.2863C23.3124 9.70752 22.4241 7.701 20.4372 6.68511C20.4372 6.68511 19.6833 5.94814 17.1659 5.7025C17.1659 5.7025 12.9118 5.58309 11.0975 6.3917C9.45207 7.12503 7.64814 8.50154 7.09619 11.7073C7.09619 11.7073 7.09619 13.4146 7.66594 13.97Z" fill="white"/>
<path d="M16.47 5.51178C16.6845 5.51106 16.8588 5.51261 16.9794 5.51431C17.0398 5.51515 17.0868 5.516 17.1188 5.51669C17.1348 5.51703 17.1471 5.51732 17.1554 5.51753C17.1595 5.51763 17.1627 5.51778 17.1649 5.51783C17.166 5.51786 17.1668 5.51782 17.1673 5.51783C17.1676 5.51784 17.1678 5.51791 17.168 5.51791H17.1682C17.1682 5.51826 17.1681 5.52469 17.1647 5.6465L17.1682 5.51791L17.1749 5.51807L17.1815 5.51876C18.4553 5.64292 19.2918 5.89209 19.8151 6.11538C20.0767 6.22701 20.2598 6.33203 20.3798 6.4115C20.4398 6.45121 20.484 6.48452 20.5142 6.50896C20.5245 6.51728 20.5331 6.52471 20.5403 6.53089C21.5564 7.05557 22.2902 7.82861 22.7758 8.54341C23.0205 8.90368 23.2036 9.25118 23.3288 9.5481C23.4498 9.83539 23.522 10.0883 23.5364 10.2643C23.572 10.5074 23.5777 10.8158 23.5595 11.1093C23.5413 11.4036 23.4983 11.7006 23.4292 11.9132C23.2566 12.4442 22.9925 13.0621 22.641 13.5281C22.2581 14.036 21.7729 14.4326 21.1909 14.7184C20.8446 14.8885 20.5444 15.0285 20.1776 15.1669L20.1696 15.1698L20.1612 15.1723C18.1575 15.728 15.2978 15.8779 14.2582 15.8779H11.8079C11.6127 15.8779 10.908 15.8448 10.6921 15.8127C9.97572 15.7064 8.5131 15.4289 7.52617 14.0917C7.35832 13.9222 7.24269 13.6835 7.16065 13.44C7.07539 13.1868 7.01984 12.9091 6.98331 12.6548C6.94666 12.3997 6.92843 12.1632 6.91932 11.9908C6.91476 11.9045 6.91244 11.8338 6.9113 11.7844C6.91071 11.7598 6.91046 11.7403 6.91031 11.727C6.91023 11.7203 6.91018 11.715 6.91016 11.7115V11.7056C6.91016 11.7056 6.91016 11.7054 7.10401 11.7054H6.91016V11.6886L6.91303 11.6718C7.19437 10.0396 7.79714 8.86272 8.54732 7.99893C9.29635 7.13646 10.1843 6.59547 11.023 6.22211C11.9656 5.80249 13.5148 5.63031 14.8011 5.55939C15.4497 5.52363 16.0409 5.51322 16.47 5.51178ZM16.4713 5.90436C16.0469 5.90579 15.4625 5.91606 14.8221 5.95136C13.5306 6.02258 12.0488 6.19432 11.179 6.58149C10.3741 6.93981 9.53917 7.45137 8.83848 8.25818C8.14142 9.06079 7.56916 10.1648 7.29794 11.7224L7.29802 11.7226C7.29814 11.7344 7.29839 11.7522 7.29893 11.7752C7.3 11.8211 7.30217 11.8878 7.30649 11.9699C7.31518 12.1341 7.33251 12.3582 7.367 12.5982C7.40161 12.8391 7.4528 13.0911 7.52761 13.3132C7.60357 13.5387 7.69775 13.7148 7.80749 13.8216L7.81922 13.833L7.82885 13.8462C8.71691 15.0584 10.0452 15.32 10.7482 15.4243C10.937 15.4523 11.6201 15.4853 11.8079 15.4853H14.2582C15.284 15.4853 18.0962 15.3361 20.0499 14.796C20.3964 14.6649 20.6823 14.5318 21.0217 14.3651C21.5513 14.1051 21.9881 13.747 22.3329 13.2898C22.6469 12.8735 22.8947 12.3022 23.0609 11.7905C23.1151 11.6238 23.1552 11.3648 23.1726 11.0848C23.1897 10.8064 23.1833 10.525 23.1523 10.3169L23.1511 10.3094L23.1506 10.3018C23.1426 10.1893 23.0889 9.97921 22.9722 9.70214C22.8573 9.42961 22.6868 9.10496 22.4564 8.76585C21.9954 8.08711 21.3003 7.35856 20.3433 6.8698L20.3172 6.85646L20.2964 6.83614L20.2965 6.83621C20.2959 6.83566 20.2949 6.83484 20.2938 6.83376C20.2899 6.83035 20.2829 6.82433 20.2725 6.81596C20.2518 6.79923 20.2175 6.77309 20.1676 6.74005C20.0678 6.674 19.9054 6.57994 19.6645 6.47713C19.1835 6.27184 18.388 6.03126 17.1508 5.91011C17.1494 5.91008 17.1478 5.91008 17.1459 5.91004C17.138 5.90984 17.1261 5.90953 17.1106 5.90919C17.0794 5.90852 17.0334 5.90765 16.9741 5.90681C16.8553 5.90515 16.6834 5.90365 16.4713 5.90436ZM20.2972 6.8369C20.2971 6.83681 20.297 6.83669 20.2968 6.83652L20.2965 6.83621C20.2968 6.83652 20.2971 6.83677 20.2972 6.8369Z" fill="black"/>
<path d="M12.2764 10.3718C12.2942 10.6096 12.5365 10.7173 13.0069 10.6904C13.1536 10.682 13.7497 10.744 13.5201 10.1382C13.392 9.91028 13.0925 9.95448 12.8644 9.96311C12.508 9.97658 12.2764 10.1313 12.2764 10.3718Z" fill="black"/>
<path d="M12.9562 9.77884C13.0454 9.77493 13.1898 9.75899 13.3168 9.77916C13.4498 9.8003 13.5945 9.86437 13.6838 10.0342L13.6923 10.0509L13.6973 10.0614L13.701 10.0726C13.7589 10.2499 13.774 10.4049 13.7372 10.5362C13.6984 10.6743 13.6102 10.7578 13.5181 10.8051C13.4302 10.85 13.3348 10.8646 13.2615 10.8702C13.2238 10.8731 13.1888 10.8738 13.1607 10.8742C13.1296 10.8745 13.1129 10.8745 13.1012 10.8752C12.878 10.8901 12.6858 10.8702 12.5414 10.7969C12.4669 10.7591 12.4022 10.7055 12.3548 10.6327C12.3071 10.5595 12.2825 10.4753 12.2767 10.3862L12.2764 10.3805V10.3747C12.2764 10.191 12.3553 10.0388 12.4842 9.93608C12.6087 9.83689 12.7744 9.7868 12.9562 9.77884ZM13.2738 10.1041C13.2057 10.0933 13.1346 10.0973 13.0533 10.1022L12.9682 10.1069C12.8251 10.1131 12.7229 10.1519 12.6606 10.2015C12.6044 10.2463 12.5776 10.3011 12.5761 10.3687C12.579 10.4022 12.5877 10.425 12.5988 10.442C12.6107 10.4604 12.6311 10.4806 12.6675 10.4991C12.7448 10.5383 12.8775 10.5612 13.0831 10.5476C13.1047 10.5461 13.1343 10.5462 13.1576 10.546C13.184 10.5457 13.2118 10.545 13.2405 10.5428C13.3001 10.5382 13.3526 10.5275 13.3911 10.5077C13.4253 10.4902 13.4423 10.4696 13.4507 10.4396C13.4607 10.4039 13.4651 10.3304 13.4226 10.1953C13.394 10.1432 13.3497 10.1161 13.2738 10.1041Z" fill="black"/>
<path d="M15.1074 9.81294C15.2253 10.1232 15.6515 10.4047 15.8964 10.7309C16.7031 11.8052 17.5968 11.6448 17.7379 11.5563C18.0803 11.3417 18.2706 10.9229 18.3333 10.6356C18.396 10.3483 18.4131 10.0372 18.2994 9.71082C18.1635 9.32063 17.0875 8.10088 16.2075 8.1034C15.794 8.10457 15.415 8.52433 15.2085 8.8813C15.0626 9.13376 14.9941 9.51505 15.1074 9.81294Z" fill="black"/>
<path d="M16.1771 8.1034C16.6745 8.10212 17.2132 8.40867 17.6372 8.74911C17.8513 8.92095 18.0404 9.10484 18.1855 9.27005C18.3288 9.43309 18.435 9.5844 18.4762 9.69075C18.6043 10.0215 18.5841 10.3354 18.5153 10.6193C18.4457 10.9057 18.2346 11.3288 17.8449 11.5486C17.7924 11.5782 17.6909 11.605 17.5628 11.6157C17.4313 11.6266 17.2633 11.621 17.0732 11.5795C16.6916 11.496 16.2241 11.2678 15.7843 10.7409C15.659 10.5908 15.4878 10.4515 15.3223 10.3045C15.1625 10.1626 15.0041 10.0103 14.9337 9.84386C14.8015 9.531 14.8823 9.14058 15.0473 8.8838C15.1607 8.70746 15.3219 8.5147 15.5134 8.36501C15.7041 8.21584 15.9321 8.10403 16.1771 8.1034ZM15.183 8.96417C15.0377 9.19036 14.973 9.52932 15.0816 9.78631C15.1366 9.91653 15.2675 10.0473 15.4306 10.1922C15.5881 10.332 15.7737 10.4834 15.9088 10.6452C16.3267 11.1458 16.7632 11.3547 17.1086 11.4302C17.282 11.4681 17.4334 11.4727 17.549 11.4631C17.668 11.4533 17.7417 11.4292 17.7641 11.4166C18.1026 11.2257 18.296 10.8477 18.3599 10.5846C18.4244 10.319 18.4405 10.0377 18.3268 9.74407C18.2957 9.66382 18.2047 9.52934 18.0636 9.36875C17.9244 9.21033 17.7419 9.0327 17.5349 8.86654C17.1169 8.53094 16.6157 8.25533 16.1775 8.25646C15.983 8.25697 15.7896 8.34648 15.6141 8.48369C15.4393 8.62038 15.2892 8.79909 15.183 8.96417Z" fill="black"/>
<path d="M11.8542 9.89038C11.7484 10.1518 11.3689 10.3934 11.1503 10.6699C10.4303 11.5805 9.63703 11.4583 9.51208 11.3862C9.20864 11.211 9.04108 10.863 8.9863 10.6233C8.93152 10.3835 8.9174 10.1232 9.01948 9.84831C9.1415 9.51969 10.1011 8.48355 10.8828 8.47368C11.2499 8.46904 11.5852 8.8154 11.7674 9.11153C11.8962 9.32097 11.9557 9.63936 11.8542 9.89038Z" fill="black"/>
<path d="M10.7953 8.47368C10.3722 8.47873 9.91467 8.74194 9.55549 9.03041C9.37393 9.17624 9.21342 9.33178 9.09003 9.47131C8.96852 9.60874 8.87741 9.73685 8.84166 9.82741C8.73146 10.1065 8.74758 10.3697 8.80512 10.6065C8.86326 10.8457 9.04132 11.1986 9.3735 11.3789C9.41997 11.4042 9.50736 11.4254 9.61596 11.4327C9.72782 11.4402 9.87054 11.4336 10.032 11.3964C10.3562 11.322 10.7531 11.1254 11.1272 10.6805C11.2329 10.5548 11.377 10.4375 11.5176 10.3129C11.6527 10.1931 11.7884 10.0633 11.8493 9.92187C11.9635 9.65639 11.8958 9.32873 11.7557 9.11448C11.6601 8.96827 11.5238 8.80876 11.3614 8.68558C11.1996 8.56283 11.0052 8.47119 10.7953 8.47368ZM11.6237 9.19323C11.7438 9.37685 11.7963 9.65403 11.7054 9.86535C11.6594 9.97214 11.5501 10.0812 11.4117 10.2039C11.2788 10.3217 11.1209 10.4505 11.0058 10.5874C10.6528 11.0074 10.2854 11.1853 9.99568 11.2519C9.85023 11.2854 9.72351 11.2909 9.62694 11.2844C9.5271 11.2777 9.46696 11.2587 9.45034 11.2497C9.16963 11.0973 9.00926 10.789 8.95674 10.5729C8.90364 10.3543 8.89124 10.123 8.98723 9.87986C9.01308 9.81437 9.08937 9.70242 9.20888 9.56727C9.32654 9.4342 9.48077 9.28456 9.65558 9.14416C10.0091 8.8602 10.4309 8.62665 10.7972 8.62228C10.9581 8.62037 11.1184 8.69108 11.2647 8.80202C11.4103 8.91254 11.5354 9.05818 11.6237 9.19323Z" fill="black"/>
<path d="M7.67244 11.5316C7.75437 11.8621 8.13518 11.8011 8.42209 11.8011C8.72825 11.7348 8.84764 11.3288 8.69011 11.0792C8.55915 10.8717 8.36227 10.8801 8.14613 10.8801C7.91535 10.8801 7.64902 10.9484 7.64902 11.2143C7.64902 11.3237 7.64614 11.4255 7.67244 11.5316Z" fill="#325530"/>
<path d="M18.7833 11.5316C18.8789 11.8621 19.3232 11.8011 19.6579 11.8011C20.0151 11.7348 20.1543 11.3288 19.9706 11.0792C19.8178 10.8716 19.5881 10.8801 19.3359 10.8801C19.0667 10.8801 18.756 10.9484 18.756 11.2143C18.756 11.3237 18.7526 11.4254 18.7833 11.5316Z" fill="#325530"/>
<path d="M17.5899 4.56399C17.6354 4.71113 17.6521 4.91583 17.6431 5.01478C17.5807 5.69649 17.4648 6.10618 17.3938 6.2367C17.3257 6.36173 17.2579 6.46147 17.1781 6.55435C17.1032 6.6413 17.0234 6.72997 16.8581 6.79734C16.6729 6.87285 16.4788 6.94448 16.3239 6.98143C16.1305 7.02754 15.5346 6.92501 15.0964 6.78171C14.8625 6.7052 14.7085 6.64912 14.4867 6.46434C14.3654 6.36329 14.2547 6.29295 14.1787 6.19947C14.1345 6.14523 14.0649 5.71705 14.2504 5.56033C14.3037 5.51537 14.4298 5.52944 14.4956 5.42718C14.5143 5.39817 14.5279 5.35333 14.5198 5.31691C14.5049 5.24999 14.4459 5.18533 14.4192 5.10038C14.3993 5.03707 14.3923 4.75129 14.5116 4.39524C14.5808 4.18866 14.6243 4.08201 14.6894 3.98867C14.7632 3.88278 14.831 3.73018 15.0182 3.64619C15.2206 3.55543 15.4836 3.45843 15.6354 3.47801C16.095 3.53723 16.81 3.68981 16.9203 3.78038C17.0146 3.85786 17.126 3.91086 17.2097 4.0004C17.3733 4.17531 17.5513 4.43952 17.5899 4.56399Z" fill="#325530"/>
<path d="M15.661 3.29468C15.8965 3.32497 16.195 3.37881 16.4493 3.43655C16.5764 3.4654 16.6953 3.49588 16.7912 3.52571C16.839 3.54059 16.8838 3.55609 16.9221 3.57208C16.9519 3.5845 16.9899 3.60205 17.0232 3.62624L17.0373 3.63702L17.0664 3.65958C17.0962 3.68153 17.129 3.70265 17.1718 3.73168C17.2237 3.76701 17.2872 3.81221 17.3443 3.87311C17.4339 3.96878 17.5252 4.08633 17.5995 4.19624C17.6701 4.30079 17.7386 4.41782 17.7669 4.50941C17.8198 4.68002 17.8394 4.90964 17.8279 5.03433C17.7962 5.38054 17.7506 5.66044 17.703 5.87275C17.6566 6.0796 17.6054 6.23608 17.5563 6.32595C17.483 6.46055 17.4079 6.57153 17.318 6.67582C17.2369 6.76985 17.1332 6.8857 16.9264 6.96985C16.7403 7.04556 16.5357 7.12148 16.3665 7.16176C16.2901 7.17993 16.1939 7.18047 16.1007 7.17491C16.0027 7.16908 15.8899 7.15523 15.772 7.13572C15.5365 7.09674 15.2695 7.03341 15.0413 6.95891C14.7996 6.87998 14.6195 6.81517 14.3711 6.60865C14.3105 6.55828 14.2652 6.52576 14.2036 6.47641C14.1485 6.43243 14.0891 6.38146 14.038 6.31874C14.0089 6.28301 13.9939 6.24154 13.987 6.22098C13.9779 6.19378 13.9704 6.16348 13.9642 6.13247C13.952 6.07026 13.9437 5.99416 13.9438 5.91449C13.9442 5.77153 13.9721 5.54603 14.1347 5.40897C14.1776 5.37284 14.225 5.35624 14.2501 5.34809C14.2642 5.34354 14.2783 5.33957 14.2887 5.33664C14.3002 5.33337 14.3087 5.33091 14.3169 5.32832C14.3183 5.32784 14.3197 5.32718 14.3211 5.32672C14.3189 5.32274 14.3166 5.31816 14.3138 5.31321C14.2957 5.28136 14.2633 5.22628 14.2426 5.16077C14.2295 5.11891 14.2247 5.06753 14.223 5.02266C14.221 4.97247 14.2223 4.91169 14.2283 4.84292C14.2402 4.70523 14.2711 4.53013 14.3359 4.3372C14.4049 4.1318 14.4556 4.0013 14.5381 3.88308C14.5895 3.80934 14.6957 3.58845 14.9448 3.47696C15.0496 3.43002 15.1736 3.37979 15.294 3.34361C15.4076 3.30943 15.5435 3.27956 15.661 3.29468ZM16.3658 3.8165C16.122 3.76113 15.8353 3.70958 15.6128 3.68097C15.579 3.67662 15.5081 3.68528 15.4026 3.71703C15.3036 3.74678 15.1959 3.78998 15.0991 3.8333C14.975 3.88888 14.9459 3.97153 14.8503 4.10843C14.8032 4.17586 14.7673 4.2575 14.6984 4.46296C14.6442 4.62415 14.6192 4.76828 14.6098 4.87698C14.6051 4.93137 14.6045 4.97559 14.6057 5.00745C14.6065 5.03005 14.6082 5.0418 14.6086 5.0452C14.6147 5.06319 14.6249 5.08247 14.6454 5.11839C14.6618 5.1473 14.6969 5.20627 14.712 5.2737C14.7353 5.37806 14.6976 5.4767 14.6612 5.53313C14.592 5.64051 14.4924 5.6803 14.4318 5.69969C14.4168 5.7045 14.4024 5.70859 14.3917 5.71163C14.3824 5.71425 14.376 5.71615 14.3706 5.7178C14.3628 5.72787 14.3532 5.74496 14.3447 5.77315C14.3329 5.8123 14.3269 5.86171 14.3268 5.91533C14.3267 5.96834 14.3323 6.01862 14.3398 6.05628C14.3423 6.06908 14.3449 6.07913 14.347 6.08649C14.37 6.11163 14.3999 6.13808 14.4403 6.17041C14.4828 6.20441 14.5532 6.25713 14.6135 6.30725C14.8071 6.46828 14.934 6.51497 15.1584 6.58823C15.3667 6.65624 15.6149 6.71523 15.8336 6.75141C15.9427 6.76949 16.0418 6.78142 16.123 6.78625C16.209 6.79138 16.2592 6.78744 16.2792 6.78269C16.4188 6.74947 16.601 6.68292 16.784 6.60843C16.9066 6.55858 16.9619 6.49805 17.0299 6.41913C17.0993 6.33869 17.1592 6.25126 17.2214 6.13717C17.2431 6.09723 17.285 5.98505 17.3296 5.78624C17.3731 5.59287 17.4162 5.33001 17.4466 4.99822C17.4532 4.92612 17.4395 4.74852 17.4017 4.62645C17.3917 4.59424 17.3522 4.51797 17.2838 4.41671C17.219 4.3208 17.1402 4.2199 17.0669 4.14163C17.0406 4.1135 17.0068 4.08786 16.9589 4.05534C16.9171 4.0269 16.856 3.98783 16.8014 3.94355C16.8037 3.94533 16.7978 3.94116 16.7767 3.93233C16.7533 3.92255 16.7207 3.91097 16.6791 3.89803C16.5962 3.87225 16.4879 3.8442 16.3658 3.8165Z" fill="black"/>
<path d="M18.8143 4.9001C18.7155 5.02176 18.6239 5.20828 18.5964 5.30475C18.4072 5.9695 18.3705 6.39801 18.3923 6.54714C18.4133 6.69001 18.4431 6.80894 18.4875 6.92592C18.529 7.03544 18.5749 7.14843 18.7125 7.27298C18.8667 7.41257 19.0309 7.55179 19.1697 7.6439C19.3427 7.75885 19.9657 7.88273 20.4487 7.90993C20.7066 7.92445 20.8785 7.92862 21.1643 7.83676C21.3207 7.78653 21.4551 7.76121 21.5642 7.70136C21.6275 7.66665 21.8532 7.28937 21.7285 7.07322C21.6927 7.01119 21.5638 6.97782 21.5367 6.85722C21.529 6.823 21.532 6.77574 21.5534 6.74445C21.5926 6.68698 21.6744 6.64794 21.7318 6.57785C21.7745 6.52562 21.8864 6.2592 21.9001 5.87993C21.9079 5.65989 21.9045 5.54342 21.8749 5.4315C21.8413 5.30453 21.8307 5.1358 21.6776 4.98746C21.5122 4.82719 21.2895 4.63861 21.1331 4.60085C20.6599 4.48658 19.9015 4.36574 19.76 4.41019C19.6388 4.44823 19.5099 4.4569 19.3947 4.51022C19.1698 4.61436 18.8978 4.79719 18.8143 4.9001Z" fill="#325530"/>
<path d="M21.1707 4.42086C20.9295 4.36256 20.618 4.30314 20.3484 4.26369C20.2137 4.24398 20.0864 4.2288 19.9818 4.2215C19.9298 4.21786 19.8805 4.21601 19.8372 4.2169C19.8036 4.21759 19.7602 4.21995 19.7187 4.23032L19.7012 4.2353L19.6644 4.24581C19.6272 4.25545 19.5874 4.26314 19.535 4.27466C19.4714 4.28869 19.3928 4.30786 19.3148 4.34404C19.1922 4.4009 19.0598 4.4776 18.9469 4.55352C18.8396 4.62567 18.7297 4.71051 18.6681 4.78642C18.5536 4.92752 18.4502 5.1365 18.4155 5.25846C18.3197 5.59551 18.2617 5.87542 18.2304 6.09263C18.1999 6.30413 18.1927 6.47053 18.2078 6.57363C18.2302 6.72736 18.263 6.85952 18.3128 6.99083C18.3577 7.10932 18.4167 7.25659 18.5881 7.41189C18.7422 7.55156 18.9144 7.69819 19.065 7.79835C19.1328 7.84344 19.2264 7.87936 19.3194 7.90847C19.4172 7.93905 19.5324 7.96756 19.6547 7.99265C19.8991 8.04281 20.183 8.08171 20.4332 8.09582C20.6983 8.11075 20.8978 8.11618 21.216 8.01377C21.2936 7.98879 21.3498 7.97485 21.4281 7.95126C21.498 7.93022 21.5746 7.90426 21.6476 7.86418C21.6894 7.84125 21.7193 7.8076 21.7337 7.7907C21.7527 7.76837 21.7714 7.74256 21.7887 7.71556C21.8236 7.66142 21.8597 7.59282 21.8889 7.51766C21.941 7.38285 21.9968 7.15907 21.8874 6.96914L21.8761 6.95124C21.8488 6.9112 21.8156 6.88403 21.7968 6.86928C21.7847 6.85983 21.7723 6.8508 21.7633 6.84423C21.7532 6.83694 21.7459 6.83155 21.7389 6.82613C21.7385 6.82583 21.7382 6.82543 21.7378 6.82515C21.7405 6.82296 21.7434 6.82045 21.7465 6.81792C21.7758 6.79472 21.8279 6.75471 21.8722 6.70051C21.9007 6.66565 21.9244 6.61881 21.9425 6.57719C21.9629 6.53056 21.9839 6.47278 22.0034 6.40582C22.0423 6.27177 22.0762 6.09555 22.0836 5.89006C22.0915 5.67169 22.0898 5.52987 22.0523 5.38782C22.029 5.29988 22.0059 5.05235 21.8031 4.8556C21.7178 4.77288 21.615 4.68006 21.5107 4.60179C21.4121 4.52777 21.2906 4.44985 21.1707 4.42086ZM20.2898 4.65596C20.5485 4.6938 20.8476 4.75101 21.0755 4.80612C21.1106 4.81461 21.177 4.84904 21.2685 4.91772C21.3544 4.98217 21.444 5.0625 21.5227 5.13884C21.6233 5.23652 21.6212 5.32403 21.6646 5.48813C21.6858 5.56822 21.691 5.65762 21.6831 5.87602C21.677 6.04694 21.6487 6.19112 21.6182 6.29634C21.6029 6.349 21.5875 6.39064 21.5747 6.41992C21.5656 6.44072 21.5598 6.45099 21.5582 6.45385C21.5459 6.4681 21.5291 6.48225 21.4962 6.50825C21.4697 6.52925 21.4133 6.57193 21.3737 6.63019C21.3118 6.72091 21.3124 6.82889 21.3275 6.89595C21.356 7.02329 21.4394 7.09753 21.4911 7.13782C21.504 7.14785 21.5167 7.15702 21.5259 7.16382C21.534 7.16961 21.5395 7.17375 21.5441 7.17722C21.5479 7.18917 21.551 7.20814 21.549 7.23687C21.5461 7.27737 21.5341 7.3255 21.5147 7.37562C21.4955 7.42517 21.4717 7.47008 21.4508 7.50254C21.4439 7.51326 21.4379 7.5215 21.4333 7.52754C21.4016 7.54263 21.3628 7.55642 21.3115 7.57187C21.2574 7.58815 21.1694 7.61173 21.0921 7.6366C20.8437 7.71655 20.7024 7.71372 20.4561 7.69984C20.2274 7.68695 19.9631 7.65092 19.7361 7.60433C19.6227 7.58106 19.5214 7.55566 19.4402 7.53026C19.3543 7.50339 19.3064 7.48116 19.2884 7.46922C19.1641 7.38654 19.0104 7.25686 18.8588 7.11945C18.7574 7.02753 18.7255 6.95046 18.688 6.85155C18.6498 6.75065 18.6234 6.64666 18.6044 6.5168C18.5978 6.47184 18.598 6.35155 18.6272 6.14854C18.6556 5.95115 18.7095 5.68853 18.8013 5.36585C18.8211 5.2963 18.8991 5.135 18.9806 5.03461C19.0019 5.00837 19.0682 4.95146 19.1721 4.88152C19.2705 4.81534 19.3844 4.74961 19.4848 4.70311C19.5208 4.68637 19.5633 4.67472 19.6221 4.66178C19.6734 4.65046 19.7474 4.63633 19.8171 4.61487C19.814 4.6157 19.8214 4.61382 19.8456 4.61332C19.8721 4.61277 19.9083 4.61396 19.9537 4.61713C20.0442 4.62345 20.1605 4.63703 20.2898 4.65596Z" fill="black"/>
<path d="M17.2235 5.50552C17.0966 6.18958 17.0451 6.52116 17.1319 6.629C17.436 7.0072 18.1406 6.97637 18.4575 6.99093C18.7744 7.00548 18.8961 6.93451 18.9792 6.76832C19.1056 6.34839 19.1526 6.015 19.1093 5.86874C19.018 5.56084 18.942 5.11404 18.6478 5.06602C18.3135 5.01145 17.8554 4.84499 17.6064 5.07463C17.4886 5.18325 17.2689 5.26062 17.2235 5.50552Z" fill="#325530"/>
<path d="M18.6285 4.88125C18.8885 4.92013 19.029 5.12089 19.11 5.29343C19.1893 5.4624 19.2434 5.67831 19.2857 5.80884C19.3243 5.92836 19.3158 6.08669 19.2913 6.24296C19.2654 6.40844 19.2155 6.60498 19.1453 6.81912L19.1396 6.83629L19.131 6.8522C19.0701 6.96373 18.9844 7.05949 18.8465 7.11718C18.7193 7.17036 18.5661 7.18304 18.3855 7.17544C18.2301 7.1689 17.9327 7.17239 17.6454 7.12945C17.3618 7.08705 17.0289 6.99282 16.8163 6.75054C16.7537 6.6792 16.7325 6.59094 16.7249 6.51708C16.717 6.44074 16.721 6.35292 16.7312 6.2578C16.7516 6.06741 16.8017 5.80733 16.8696 5.47204C16.9071 5.28696 17.018 5.17 17.1197 5.09144C17.1687 5.05352 17.2199 5.02137 17.2588 4.99659C17.3016 4.9693 17.3286 4.95141 17.3483 4.9347C17.5477 4.76623 17.8104 4.75856 18.0229 4.77906C18.1338 4.78976 18.2454 4.80984 18.3473 4.82944C18.4526 4.84969 18.5439 4.8686 18.6285 4.88125ZM18.2716 5.21915C18.1714 5.19988 18.0754 5.18298 17.9844 5.17421C17.7933 5.15576 17.6753 5.17922 17.6065 5.23736C17.5628 5.27424 17.5127 5.30611 17.474 5.33083C17.4314 5.35805 17.3965 5.38019 17.3644 5.40495C17.3038 5.45179 17.272 5.4939 17.2606 5.55047C17.1918 5.89024 17.1459 6.13136 17.1278 6.29996C17.1188 6.3843 17.118 6.44046 17.1217 6.47649C17.1228 6.48721 17.1241 6.49438 17.1252 6.49873C17.2417 6.62402 17.448 6.69851 17.7047 6.73687C17.9639 6.77561 18.2164 6.771 18.4023 6.77882C18.563 6.78559 18.6459 6.77046 18.692 6.75121C18.7237 6.73792 18.7468 6.71927 18.772 6.67725C18.8345 6.48471 18.8762 6.31611 18.8972 6.1817C18.9204 6.03386 18.914 5.95546 18.906 5.93059C18.8499 5.75729 18.8139 5.60078 18.7486 5.4615C18.6849 5.32577 18.626 5.28232 18.5692 5.27382C18.4737 5.25954 18.3684 5.23776 18.2716 5.21915Z" fill="black"/>
<path fill-rule="evenodd" clip-rule="evenodd" d="M16.2009 10.4712C16.2078 10.4737 16.2148 10.4761 16.2219 10.4783C16.4254 10.5419 16.6425 10.4979 16.8023 10.4223C16.9673 10.3443 17.1645 10.188 17.2403 9.92708C17.27 9.82521 17.2891 9.70055 17.263 9.56816C17.2348 9.42469 17.1603 9.3068 17.0592 9.22238C16.8899 9.08104 16.6702 9.05571 16.5475 9.04528C16.534 9.04412 16.5181 9.04265 16.501 9.04106C16.4548 9.03676 16.3991 9.03159 16.3531 9.02943C16.2864 9.0263 16.1887 9.02564 16.0862 9.05401C15.9715 9.08573 15.8596 9.15113 15.7711 9.26279C15.6895 9.3657 15.6473 9.48358 15.6229 9.59029C15.5856 9.75452 15.6337 9.89487 15.6682 9.97095C15.706 10.0546 15.7569 10.1257 15.8018 10.1796C15.8829 10.2768 16.0056 10.3897 16.1316 10.4469C16.1544 10.4572 16.1776 10.4653 16.2009 10.4712Z" fill="white"/>
<path fill-rule="evenodd" clip-rule="evenodd" d="M10.2113 10.4712C10.2175 10.4737 10.2237 10.4761 10.23 10.4783C10.4109 10.5419 10.6038 10.4979 10.7459 10.4223C10.8925 10.3443 11.0678 10.188 11.1353 9.92708C11.1617 9.82521 11.1786 9.70054 11.1555 9.56815C11.1304 9.42469 11.0641 9.30679 10.9743 9.22238C10.8238 9.08104 10.6285 9.0557 10.5194 9.04528C10.5074 9.04412 10.4933 9.04265 10.4781 9.04105C10.437 9.03676 10.3875 9.03158 10.3466 9.02943C10.2873 9.0263 10.2005 9.02563 10.1094 9.05401C10.0075 9.08573 9.90791 9.15113 9.82924 9.26279C9.75673 9.36569 9.71923 9.48357 9.69761 9.59028C9.66435 9.75451 9.70718 9.89488 9.73781 9.97095C9.77147 10.0546 9.81665 10.1257 9.8566 10.1796C9.92864 10.2768 10.0377 10.3897 10.1497 10.4469C10.17 10.4572 10.1906 10.4653 10.2113 10.4712Z" fill="white"/>
<path d="M23.3925 10.7126C23.4481 10.678 23.5202 10.6966 23.5537 10.7539C23.5871 10.8113 23.5692 10.8858 23.5136 10.9203C22.1559 11.7644 19.8359 12.8159 17.2483 13.0536C14.836 13.2752 12.9606 13.5264 9.84982 12.8349C9.7849 12.8205 9.58202 12.7533 9.3256 12.665C9.06483 12.575 8.73874 12.4594 8.41993 12.344C8.1012 12.2287 7.78907 12.1133 7.55637 12.0237C7.44021 11.979 7.34284 11.9404 7.27404 11.9112C7.23997 11.8968 7.21102 11.8839 7.18982 11.8733C7.17971 11.8682 7.16818 11.8621 7.15794 11.8555C7.1533 11.8524 7.1446 11.8465 7.13571 11.838C7.1313 11.8338 7.12352 11.8259 7.11614 11.8144C7.10954 11.8041 7.09619 11.78 7.09619 11.7462C7.09619 11.6792 7.14874 11.6249 7.21359 11.6249C7.24232 11.6249 7.26861 11.6357 7.28901 11.6534C7.28994 11.6538 7.29099 11.6544 7.29215 11.655C7.30671 11.6623 7.33028 11.6729 7.36315 11.6868C7.42832 11.7145 7.52285 11.752 7.63837 11.7965C7.86904 11.8852 8.17953 12 8.49758 12.1152C8.81556 12.2302 9.14051 12.3454 9.39997 12.4349C9.66377 12.5258 9.85041 12.5869 9.8992 12.5977C12.9711 13.2806 14.8139 13.0338 17.2276 12.812C19.7708 12.5784 22.0568 11.543 23.3925 10.7126ZM7.32708 11.7158C7.32679 11.7146 7.32655 11.7136 7.32624 11.7125C7.32655 11.7136 7.3268 11.7147 7.32708 11.7158ZM7.33098 11.7462C7.33098 11.7378 7.3301 11.7301 7.32876 11.7231C7.33017 11.7306 7.33098 11.7383 7.33098 11.7462Z" fill="black"/>
<path d="M17.8322 12.4295C17.8393 12.3848 17.8794 12.3546 17.9219 12.3621C18.0172 12.3789 18.146 12.4285 18.2656 12.4775C18.3742 12.5219 18.4767 12.5665 18.5555 12.5954L18.5878 12.6067L18.5896 12.6073L18.5913 12.608C18.7803 12.6819 18.9346 12.7451 19.2618 12.8403L19.4132 12.8833L19.4148 12.8837C19.5169 12.9142 19.5505 12.9288 19.6147 12.9382C19.6574 12.9443 19.6872 12.9858 19.6814 13.0307C19.6754 13.0755 19.636 13.1069 19.5934 13.1006C19.5151 13.0893 19.4626 13.0686 19.3736 13.0419L19.2195 12.9982C18.8862 12.9011 18.7275 12.8362 18.5369 12.7617H18.5368C18.4488 12.7319 18.3251 12.6778 18.2089 12.6302C18.0865 12.5802 17.9729 12.5374 17.8962 12.5239C17.8537 12.5164 17.825 12.4741 17.8322 12.4295Z" fill="black"/>
<path d="M19.4433 11.8124C19.4884 11.8304 19.5084 11.8771 19.4878 11.9167C19.4416 12.0053 19.3507 12.1185 19.2633 12.2228C19.1837 12.3177 19.1059 12.4064 19.0519 12.4762L19.0302 12.5048L19.0291 12.5064L19.0278 12.5079C18.8932 12.6736 18.7803 12.8083 18.5818 13.1035L18.4911 13.2404L18.4903 13.2418C18.4275 13.3338 18.402 13.3629 18.373 13.4231C18.3537 13.4632 18.3009 13.482 18.2551 13.4651C18.2094 13.4482 18.188 13.402 18.2073 13.3619C18.2426 13.2886 18.2802 13.2425 18.3351 13.1624L18.4273 13.023C18.6295 12.7224 18.7455 12.5839 18.8813 12.4167C18.9392 12.3383 19.0333 12.2311 19.1182 12.1296C19.2079 12.0228 19.287 11.9227 19.3242 11.8514C19.3448 11.8118 19.3981 11.7944 19.4433 11.8124Z" fill="black"/>
<path d="M15.0539 12.6019C15.0657 12.5601 15.1067 12.5366 15.1456 12.5492C15.2327 12.5774 15.3475 12.6413 15.4537 12.7034C15.5502 12.7597 15.6409 12.8154 15.7113 12.8531L15.7402 12.8681L15.7418 12.8689L15.7434 12.8698C15.9116 12.9646 16.0486 13.0447 16.3437 13.1776L16.4803 13.2381L16.4817 13.2387C16.5737 13.281 16.6034 13.2992 16.6624 13.3163C16.7016 13.3278 16.7247 13.3712 16.7142 13.4132C16.7035 13.4552 16.6631 13.48 16.6239 13.4686C16.5521 13.4477 16.5053 13.4212 16.4251 13.3843L16.286 13.3228C15.9856 13.1873 15.8446 13.105 15.6749 13.0094C15.5961 12.9696 15.4865 12.9022 15.3833 12.8418C15.2746 12.7784 15.1732 12.7229 15.1031 12.7001C15.0642 12.6875 15.0422 12.6435 15.0539 12.6019Z" fill="black"/>
<path d="M16.4989 12.3724C16.5352 12.3946 16.5464 12.4415 16.5238 12.4774C16.4733 12.5574 16.3816 12.6564 16.2939 12.7472C16.2141 12.8297 16.1367 12.9065 16.0818 12.9677L16.0597 12.9929L16.0586 12.9942L16.0573 12.9955C15.9217 13.1402 15.8086 13.2574 15.6022 13.5195L15.5077 13.6412L15.5068 13.6424C15.4416 13.724 15.4163 13.7492 15.384 13.8039C15.3625 13.8403 15.3151 13.8527 15.2782 13.8315C15.2413 13.8104 15.2288 13.7637 15.2503 13.7273C15.2896 13.6607 15.3274 13.6205 15.3842 13.5494L15.4804 13.4255C15.6905 13.1586 15.8069 13.0381 15.9436 12.8921L15.9437 12.8921C16.0029 12.8231 16.0966 12.7303 16.1818 12.642C16.2716 12.5491 16.3517 12.4615 16.3924 12.397C16.4149 12.3612 16.4626 12.3502 16.4989 12.3724Z" fill="black"/>
<path d="M11.9174 12.5795C11.9383 12.5471 11.9841 12.5361 12.0197 12.5551C12.0995 12.5977 12.1988 12.6763 12.2901 12.7514C12.373 12.8198 12.4503 12.8862 12.5116 12.9332L12.5369 12.952L12.5383 12.953L12.5396 12.9541C12.6848 13.0702 12.8026 13.1671 13.0648 13.3428L13.1865 13.4233L13.1878 13.424C13.2694 13.4795 13.2946 13.5013 13.3492 13.5284C13.3854 13.5465 13.3987 13.588 13.3789 13.621C13.3591 13.6541 13.3136 13.6661 13.2774 13.6481C13.2111 13.615 13.1708 13.5826 13.0997 13.5342L12.9757 13.4524C12.7087 13.2734 12.5876 13.1738 12.4411 13.0566C12.3719 13.006 12.2785 12.9257 12.1899 12.8526C12.0965 12.7757 12.0085 12.7071 11.9442 12.6728C11.9086 12.6538 11.8966 12.612 11.9174 12.5795Z" fill="black"/>
<path d="M13.3671 12.567C13.3953 12.5952 13.395 12.6405 13.3665 12.6683C13.3027 12.7306 13.197 12.8012 13.0968 12.8652C13.0058 12.9234 12.9181 12.9769 12.8545 13.0208L12.8287 13.0391L12.8274 13.0401L12.8259 13.0411C12.6701 13.144 12.5409 13.2265 12.2944 13.4215L12.1812 13.5123L12.1801 13.5133C12.1026 13.5737 12.0739 13.5912 12.0323 13.6343C12.0046 13.6629 11.9586 13.664 11.9296 13.6366C11.9007 13.6093 11.8997 13.5639 11.9273 13.5353C11.978 13.4829 12.0214 13.4544 12.089 13.4017L12.2042 13.3093C12.4552 13.1108 12.5881 13.0258 12.7453 12.922L12.7453 12.9219C12.8146 12.8716 12.9207 12.8071 13.018 12.7449C13.1206 12.6794 13.2131 12.6167 13.2645 12.5664C13.293 12.5387 13.339 12.5389 13.3671 12.567Z" fill="black"/>
<path d="M9.3395 11.8261C9.37023 11.7965 9.41788 11.7988 9.44588 11.8312C9.50866 11.904 9.57833 12.0229 9.64137 12.1355C9.69866 12.238 9.75117 12.3364 9.79466 12.4081L9.81277 12.4371L9.81376 12.4386L9.81469 12.4403C9.9162 12.6156 9.99756 12.7609 10.192 13.0397L10.2826 13.1678L10.2835 13.1691C10.3438 13.2568 10.361 13.289 10.4044 13.3365C10.4333 13.3681 10.4325 13.4185 10.4026 13.4491C10.3727 13.4795 10.3249 13.4786 10.2961 13.447C10.2431 13.3891 10.215 13.3403 10.1625 13.2638L10.0703 13.1335C9.87232 12.8496 9.78861 12.7002 9.68619 12.5233C9.63632 12.4451 9.57292 12.3259 9.51168 12.2165C9.44718 12.1012 9.38513 11.997 9.33459 11.9384C9.30659 11.906 9.30877 11.8556 9.3395 11.8261Z" fill="black"/>
<path d="M10.7861 12.2188C10.806 12.2574 10.791 12.3049 10.7525 12.3248C10.6663 12.3695 10.5342 12.4094 10.4099 12.4442C10.297 12.4758 10.189 12.5036 10.109 12.5291L10.0765 12.54L10.0748 12.5406L10.0729 12.5411C9.8786 12.5987 9.71827 12.6436 9.40035 12.7684L9.25386 12.8271L9.25241 12.8276C9.1527 12.866 9.11736 12.8752 9.06035 12.9069C9.02247 12.9279 8.97467 12.9142 8.95367 12.8762C8.93268 12.8382 8.94645 12.7903 8.98433 12.7692C9.05372 12.7306 9.10783 12.7147 9.19476 12.6813L9.34384 12.6216C9.66759 12.4945 9.83249 12.4483 10.0286 12.3901C10.1165 12.3598 10.2471 12.3264 10.3678 12.2926C10.495 12.257 10.611 12.2211 10.6804 12.1851C10.7189 12.1651 10.7662 12.1802 10.7861 12.2188Z" fill="black"/>
<path d="M15.8153 9.76788C15.8553 9.98904 16.1729 10.1935 16.3223 10.3248C16.4328 10.2429 16.5886 10.19 16.6744 10.144C16.8267 10.0624 17.0744 10.0022 17.089 9.74116C17.1034 9.48014 16.9843 9.35505 16.9187 9.2993C16.8123 9.20887 16.5719 9.20566 16.4992 9.36475C16.4919 9.38079 16.4434 9.65753 16.4083 9.50119C16.3924 9.43054 16.3459 9.30147 16.2772 9.2602C16.1434 9.17995 15.9265 9.2061 15.8663 9.32617C15.771 9.51628 15.7893 9.62476 15.8153 9.76788Z" fill="#CC2936"/>
<path d="M9.93376 9.90699C10.0154 10.106 10.3625 10.2324 10.5326 10.3248C10.6239 10.2254 10.7645 10.1437 10.8388 10.083C10.9706 9.97524 11.1989 9.86783 11.1624 9.62022C11.126 9.3726 10.9864 9.27984 10.912 9.24106C10.7915 9.17817 10.558 9.22456 10.5184 9.3886C10.5144 9.40514 10.5209 9.67448 10.4567 9.53516C10.4276 9.47221 10.3576 9.36079 10.283 9.33624C10.1379 9.28849 9.93284 9.35759 9.89774 9.4825C9.84216 9.68028 9.88092 9.77818 9.93376 9.90699Z" fill="#CC2936"/>
<path d="M22.5298 15.6286C22.8315 15.359 22.8035 15.1326 22.8035 14.7616C22.9259 15.4777 22.8451 15.2786 23.0779 15.6042C23.2046 15.7814 23.8854 15.8335 23.7874 15.855C23.5898 15.8983 23.2806 16.0597 23.1539 16.2369C23.0272 16.5152 23.0526 16.5152 23.0019 16.6671C22.9392 16.855 22.8752 17.1958 22.8752 16.996C22.8752 16.487 22.5751 16.0328 22.0571 16.0041C21.9302 15.997 21.9275 15.8622 22.0571 15.855C22.2088 15.8466 22.42 15.7267 22.5298 15.6286Z" fill="#F4DB17"/>
<path fill-rule="evenodd" clip-rule="evenodd" d="M22.8375 14.578C22.903 14.5723 22.9619 14.6183 22.9732 14.684C23.0002 14.8415 23.0175 14.9557 23.0304 15.0402C23.0324 15.0533 23.0343 15.0657 23.036 15.0774C23.0499 15.168 23.0574 15.2108 23.0664 15.2407C23.0733 15.2635 23.0811 15.2791 23.1035 15.3107C23.1142 15.3258 23.127 15.3428 23.1441 15.3655C23.1467 15.369 23.1494 15.3726 23.1523 15.3763C23.173 15.404 23.1982 15.4376 23.2284 15.4797C23.2363 15.4906 23.2704 15.5167 23.3501 15.5466C23.4227 15.5738 23.5108 15.5963 23.5967 15.6149C23.6525 15.627 23.7018 15.6364 23.7453 15.6447C23.771 15.6496 23.7947 15.6542 23.8166 15.6586C23.8396 15.6633 23.8712 15.6699 23.8935 15.6789C23.899 15.6811 23.9136 15.6872 23.9287 15.6988C23.9357 15.7042 23.9957 15.7511 23.977 15.8328C23.9688 15.8686 23.9483 15.891 23.9356 15.9022C23.9228 15.9134 23.9104 15.9198 23.9035 15.923C23.8896 15.9294 23.8769 15.9324 23.8706 15.9338C23.7859 15.9523 23.6698 15.9982 23.5589 16.0619C23.4517 16.1235 23.3626 16.1941 23.3123 16.2595C23.234 16.4317 23.2219 16.4793 23.2061 16.5414C23.1979 16.5734 23.1888 16.6093 23.1691 16.6681C23.1492 16.7274 23.1303 16.7987 23.1122 16.8671C23.1022 16.9047 23.0925 16.9414 23.0829 16.9748C23.0767 16.9967 23.0702 17.0181 23.0638 17.0359C23.0606 17.0448 23.0566 17.055 23.0518 17.065L23.0517 17.0652C23.0486 17.0716 23.0386 17.0925 23.0196 17.111C23.0099 17.1204 22.9856 17.1413 22.9472 17.1468C22.9009 17.1535 22.8626 17.134 22.8392 17.111C22.8199 17.092 22.8111 17.0716 22.8075 17.0624C22.8033 17.0516 22.801 17.0418 22.7997 17.0351C22.795 17.0117 22.7943 16.9835 22.7943 16.9583C22.7943 16.491 22.5231 16.1109 22.0862 16.0868C21.982 16.081 21.8704 16.0122 21.8692 15.8846C21.8679 15.7544 21.9815 15.6856 22.0862 15.6798C22.138 15.677 22.2118 15.6532 22.2918 15.6129C22.37 15.5734 22.4417 15.5244 22.4879 15.4833C22.6233 15.3628 22.6765 15.2606 22.7009 15.1527C22.7234 15.0529 22.7228 14.946 22.722 14.7983C22.7219 14.7692 22.7217 14.7385 22.7217 14.7061C22.7217 14.6394 22.772 14.5837 22.8375 14.578ZM22.8694 15.4178C22.8207 15.5058 22.7515 15.5906 22.655 15.6766C22.59 15.7344 22.4993 15.7953 22.4045 15.8431C22.3842 15.8533 22.363 15.8633 22.3412 15.8727C22.6407 15.9657 22.8506 16.1958 22.9599 16.4783C22.978 16.409 22.9994 16.3331 23.088 16.139C23.0915 16.1314 23.0957 16.1242 23.1006 16.1174C23.1794 16.0076 23.3061 15.912 23.4313 15.8398C23.3741 15.8251 23.316 15.8079 23.2624 15.7878C23.18 15.7569 23.08 15.7095 23.0237 15.6311C22.995 15.5912 22.9712 15.5593 22.9509 15.5323C22.9482 15.5287 22.9456 15.5252 22.943 15.5218C22.9262 15.4995 22.9109 15.4792 22.8979 15.4608C22.8875 15.4463 22.8781 15.4321 22.8694 15.4178ZM22.0935 15.8292C22.0935 15.8292 22.0936 15.8293 22.0937 15.8293C22.0936 15.8293 22.0935 15.8292 22.0935 15.8292ZM22.0929 15.9374C22.0927 15.9375 22.0926 15.9375 22.0926 15.9375C22.0926 15.9375 22.0927 15.9375 22.0929 15.9374Z" fill="#F4DB17"/>
<path fill-rule="evenodd" clip-rule="evenodd" d="M22.8375 14.578C22.903 14.5723 22.9619 14.6183 22.9732 14.684C23.0002 14.8415 23.0175 14.9557 23.0304 15.0402C23.0324 15.0533 23.0343 15.0657 23.036 15.0774C23.0499 15.168 23.0574 15.2108 23.0664 15.2407C23.0733 15.2635 23.0811 15.2791 23.1035 15.3107C23.1142 15.3258 23.127 15.3428 23.1441 15.3655C23.1467 15.369 23.1494 15.3726 23.1523 15.3763C23.173 15.404 23.1982 15.4376 23.2284 15.4797C23.2363 15.4906 23.2704 15.5167 23.3501 15.5466C23.4227 15.5738 23.5108 15.5963 23.5967 15.6149C23.6525 15.627 23.7018 15.6364 23.7453 15.6447C23.771 15.6496 23.7947 15.6542 23.8166 15.6586C23.8396 15.6633 23.8712 15.6699 23.8935 15.6789C23.899 15.6811 23.9136 15.6872 23.9287 15.6988C23.9357 15.7042 23.9957 15.7511 23.977 15.8328C23.9688 15.8686 23.9483 15.891 23.9356 15.9022C23.9228 15.9134 23.9104 15.9198 23.9035 15.923C23.8896 15.9294 23.8769 15.9324 23.8706 15.9338C23.7859 15.9523 23.6698 15.9982 23.5589 16.0619C23.4517 16.1235 23.3626 16.1941 23.3123 16.2595C23.234 16.4317 23.2219 16.4793 23.2061 16.5414C23.1979 16.5734 23.1888 16.6093 23.1691 16.6681C23.1492 16.7274 23.1303 16.7987 23.1122 16.8671C23.1022 16.9047 23.0925 16.9414 23.0829 16.9748C23.0767 16.9967 23.0702 17.0181 23.0638 17.0359C23.0606 17.0448 23.0566 17.055 23.0518 17.065L23.0517 17.0652C23.0486 17.0716 23.0386 17.0925 23.0196 17.111C23.0099 17.1204 22.9856 17.1413 22.9472 17.1468C22.9009 17.1535 22.8626 17.134 22.8392 17.111C22.8199 17.092 22.8111 17.0716 22.8075 17.0624C22.8033 17.0516 22.801 17.0418 22.7997 17.0351C22.795 17.0117 22.7943 16.9835 22.7943 16.9583C22.7943 16.491 22.5231 16.1109 22.0862 16.0868C21.982 16.081 21.8704 16.0122 21.8692 15.8846C21.8679 15.7544 21.9815 15.6856 22.0862 15.6798C22.138 15.677 22.2118 15.6532 22.2918 15.6129C22.37 15.5734 22.4417 15.5244 22.4879 15.4833C22.6233 15.3628 22.6765 15.2606 22.7009 15.1527C22.7234 15.0529 22.7228 14.946 22.722 14.7983C22.7219 14.7692 22.7217 14.7385 22.7217 14.7061C22.7217 14.6394 22.772 14.5837 22.8375 14.578ZM22.8694 15.4178C22.8207 15.5058 22.7515 15.5906 22.655 15.6766C22.59 15.7344 22.4993 15.7953 22.4045 15.8431C22.3842 15.8533 22.363 15.8633 22.3412 15.8727C22.6407 15.9657 22.8506 16.1958 22.9599 16.4783C22.978 16.409 22.9994 16.3331 23.088 16.139C23.0915 16.1314 23.0957 16.1242 23.1006 16.1174C23.1794 16.0076 23.3061 15.912 23.4313 15.8398C23.3741 15.8251 23.316 15.8079 23.2624 15.7878C23.18 15.7569 23.08 15.7095 23.0237 15.6311C22.995 15.5912 22.9712 15.5593 22.9509 15.5323C22.9482 15.5287 22.9456 15.5252 22.943 15.5218C22.9262 15.4995 22.9109 15.4792 22.8979 15.4608C22.8875 15.4463 22.8781 15.4321 22.8694 15.4178Z" fill="#F4DB17"/>
<path d="M10.258 3.05142C10.5747 2.78186 10.5453 2.55549 10.5453 2.18445C10.6739 2.90056 10.589 2.70149 10.8335 3.02708C10.9665 3.20422 11.6813 3.25633 11.5784 3.27782C11.3709 3.32115 11.0463 3.48258 10.9133 3.65972C10.7803 3.93809 10.8069 3.93809 10.7537 4.08992C10.6878 4.2778 10.6206 4.61863 10.6206 4.41889C10.6206 3.90984 10.3055 3.45566 9.76159 3.42692C9.62842 3.41988 9.62558 3.28501 9.76159 3.27782C9.92092 3.2694 10.1426 3.14958 10.258 3.05142Z" fill="#F4DB17"/>
<path fill-rule="evenodd" clip-rule="evenodd" d="M10.5377 2.00158C10.6031 1.99584 10.6621 2.04188 10.6734 2.10759C10.7004 2.26509 10.7177 2.37927 10.7306 2.46383C10.7326 2.47692 10.7345 2.48929 10.7362 2.50101C10.7501 2.5916 10.7576 2.63439 10.7666 2.66428C10.7735 2.68712 10.7813 2.70268 10.8037 2.73424C10.8144 2.74938 10.8272 2.76641 10.8443 2.78911C10.8469 2.79258 10.8496 2.79617 10.8525 2.79991C10.8732 2.82754 10.8984 2.86117 10.9286 2.90332C10.9364 2.9142 10.9706 2.94031 11.0503 2.9702C11.1229 2.99738 11.211 3.01986 11.2969 3.03852C11.3527 3.05063 11.402 3.06002 11.4455 3.06832C11.4712 3.07322 11.4949 3.07774 11.5168 3.08222C11.5398 3.08691 11.5713 3.09352 11.5937 3.10249C11.5992 3.10472 11.6138 3.11076 11.6289 3.12237C11.6359 3.12774 11.6959 3.17472 11.6772 3.25642C11.669 3.29215 11.6485 3.3146 11.6358 3.32576C11.623 3.33701 11.6106 3.34337 11.6037 3.34658C11.5898 3.353 11.5771 3.35601 11.5708 3.35739C11.4861 3.37588 11.37 3.42182 11.2591 3.48549C11.1519 3.54707 11.0628 3.61768 11.0125 3.68305C10.9342 3.8553 10.9221 3.90293 10.9063 3.96501C10.8981 3.99703 10.889 4.03289 10.8693 4.09169C10.8494 4.15096 10.8305 4.22225 10.8124 4.29066C10.8024 4.32828 10.7927 4.36503 10.7831 4.39843C10.7769 4.42026 10.7704 4.44169 10.7639 4.45953C10.7608 4.46834 10.7568 4.4786 10.752 4.48859L10.7519 4.48877C10.7488 4.49519 10.7388 4.5161 10.7198 4.53455C10.7101 4.54396 10.6858 4.56492 10.6474 4.57041C10.6011 4.57705 10.5628 4.55759 10.5394 4.53463C10.5201 4.51562 10.5113 4.49519 10.5077 4.48602C10.5035 4.47515 10.5012 4.46537 10.4999 4.45872C10.4952 4.43529 10.4945 4.40705 10.4945 4.38192C10.4945 3.91459 10.2233 3.53451 9.7864 3.51036C9.68215 3.5046 9.57057 3.43583 9.56935 3.30819C9.5681 3.17799 9.68172 3.10918 9.7864 3.1034C9.8382 3.10054 9.91197 3.07681 9.99197 3.03646C10.0702 2.99703 10.1419 2.94802 10.1881 2.90691C10.3235 2.78639 10.3767 2.68422 10.4011 2.57626C10.4236 2.47646 10.423 2.36955 10.4222 2.22187C10.4221 2.19279 10.4219 2.16213 10.4219 2.12963C10.4219 2.06294 10.4722 2.00732 10.5377 2.00158ZM10.5696 2.84138C10.5209 2.92937 10.4517 3.01421 10.3552 3.10014C10.2902 3.15798 10.1995 3.21884 10.1047 3.26665C10.0844 3.27693 10.0632 3.28692 10.0414 3.29632C10.3409 3.38924 10.5507 3.61939 10.6601 3.90187C10.6782 3.83263 10.6996 3.75666 10.7882 3.56263C10.7917 3.55503 10.7959 3.54779 10.8008 3.54101C10.8796 3.43121 11.0063 3.33561 11.1315 3.26339C11.0743 3.24864 11.0162 3.23144 10.9626 3.21134C10.8802 3.18049 10.7801 3.13307 10.7239 3.05468C10.6952 3.01478 10.6714 2.98289 10.651 2.95585C10.6484 2.95231 10.6458 2.94882 10.6432 2.94537C10.6264 2.92311 10.6111 2.90277 10.5981 2.88443C10.5877 2.86984 10.5783 2.85573 10.5696 2.84138ZM9.79373 3.25282C9.79373 3.25282 9.7938 3.25283 9.79392 3.25288C9.79379 3.25284 9.79373 3.25282 9.79373 3.25282ZM9.79306 3.36101C9.79291 3.36106 9.79284 3.36108 9.79284 3.36108C9.79283 3.36107 9.79291 3.36105 9.79306 3.36101Z" fill="#F4DB17"/>
<path d="M5.88 17.66H11.44C11.6533 17.66 11.81 17.6867 11.91 17.74C12.01 17.7867 12.0767 17.8633 12.11 17.97C12.1433 18.0767 12.16 18.2167 12.16 18.39C12.16 18.5633 12.1433 18.7033 12.11 18.81C12.0767 18.91 12.02 18.98 11.94 19.02C11.82 19.08 11.65 19.11 11.43 19.11H9.52V24.14C9.52 24.2933 9.51333 24.4067 9.5 24.48C9.49333 24.5533 9.46333 24.64 9.41 24.74C9.36333 24.8333 9.27667 24.9 9.15 24.94C9.02333 24.98 8.85667 25 8.65 25C8.44333 25 8.27667 24.98 8.15 24.94C8.03 24.9 7.94333 24.8333 7.89 24.74C7.84333 24.64 7.81333 24.5533 7.8 24.48C7.79333 24.4 7.79 24.2833 7.79 24.13V19.11H5.87C5.65667 19.11 5.5 19.0867 5.4 19.04C5.3 18.9867 5.23333 18.9067 5.2 18.8C5.16667 18.6933 5.15 18.5533 5.15 18.38C5.15 18.2067 5.16667 18.07 5.2 17.97C5.23333 17.8633 5.29 17.79 5.37 17.75C5.49 17.69 5.66 17.66 5.88 17.66ZM15.5588 17.58C16.5454 17.58 17.4021 17.9367 18.1288 18.65C18.8554 19.3633 19.2188 20.25 19.2188 21.31C19.2188 22.3633 18.8721 23.2633 18.1788 24.01C17.4854 24.75 16.6321 25.12 15.6188 25.12C14.6054 25.12 13.7421 24.7533 13.0288 24.02C12.3221 23.2867 11.9688 22.4133 11.9688 21.4C11.9688 20.8467 12.0688 20.33 12.2688 19.85C12.4688 19.3633 12.7354 18.9567 13.0688 18.63C13.4021 18.3033 13.7854 18.0467 14.2188 17.86C14.6521 17.6733 15.0988 17.58 15.5588 17.58ZM13.7388 21.35C13.7388 21.9433 13.9288 22.4267 14.3088 22.8C14.6954 23.1667 15.1254 23.35 15.5988 23.35C16.0721 23.35 16.4988 23.17 16.8788 22.81C17.2588 22.45 17.4488 21.9667 17.4488 21.36C17.4488 20.7533 17.2554 20.2667 16.8688 19.9C16.4888 19.5333 16.0621 19.35 15.5888 19.35C15.1154 19.35 14.6888 19.5367 14.3088 19.91C13.9288 20.2767 13.7388 20.7567 13.7388 21.35ZM25.2827 19.15C25.456 19.5033 25.5427 19.8967 25.5427 20.33C25.5427 20.7633 25.456 21.1567 25.2827 21.51C25.1093 21.8567 24.886 22.1333 24.6127 22.34C24.0593 22.7667 23.486 22.98 22.8927 22.98H21.6427V24.11C21.6427 24.2633 21.636 24.38 21.6227 24.46C21.616 24.5333 21.586 24.62 21.5327 24.72C21.4393 24.9 21.1793 24.99 20.7527 24.99C20.286 24.99 20.0127 24.8667 19.9327 24.62C19.8927 24.5067 19.8727 24.3333 19.8727 24.1V18.55C19.8727 18.3967 19.876 18.2833 19.8827 18.21C19.896 18.13 19.9293 18.04 19.9827 17.94C20.076 17.76 20.336 17.67 20.7627 17.67H22.9027C23.4893 17.67 24.0593 17.8833 24.6127 18.31C24.886 18.5167 25.1093 18.7967 25.2827 19.15ZM22.9027 21.21C23.1027 21.21 23.2993 21.1367 23.4927 20.99C23.686 20.8433 23.7827 20.6233 23.7827 20.33C23.7827 20.0367 23.686 19.8167 23.4927 19.67C23.2993 19.5167 23.0993 19.44 22.8927 19.44H21.6427V21.21H22.9027Z" fill="black"/>
</svg>
