<svg width="248" height="30" viewBox="0 0 248 30" fill="none" xmlns="http://www.w3.org/2000/svg">
<circle cx="15" cy="15" r="15" fill="white"/>
<path d="M17.8604 26.1911C17.8177 25.4125 17.7877 25.0791 17.6601 24.9322C17.513 24.7631 17.3082 24.6179 17.1962 24.5924C16.9261 24.5534 16.7329 24.6131 16.6076 24.6871C16.442 24.785 16.1721 24.9216 16.1143 25.189C16.0495 25.488 16.0042 27.6597 16.1227 28.0069C16.1739 28.1163 16.2763 28.322 16.3603 28.4186C16.495 28.5735 16.8433 28.8369 17.1079 28.7037C17.2332 28.6405 17.4622 28.5056 17.5214 28.3305C17.6947 27.8182 17.792 27.5391 17.8244 27.2377C17.8584 26.9202 17.883 26.6026 17.8604 26.1911Z" fill="black"/>
<path d="M17.8265 24.7638C17.7297 24.6631 17.6159 24.5713 17.5069 24.4997C17.4065 24.4339 17.2793 24.3646 17.1568 24.3394L17.1449 24.337L17.1331 24.3354C16.7682 24.2876 16.4867 24.3595 16.2902 24.4645C16.2128 24.5059 16.0635 24.5788 15.9345 24.6765C15.8006 24.7777 15.6585 24.9265 15.6077 25.1389C15.5834 25.24 15.5667 25.4563 15.5543 25.6988C15.5416 25.9526 15.5326 26.265 15.5301 26.5784C15.5275 26.8915 15.5313 27.2084 15.5441 27.4706C15.5505 27.6016 15.5594 27.7217 15.5713 27.822C15.5824 27.9159 15.5982 28.0137 15.6262 28.0878L15.6315 28.1016L15.6384 28.1148C15.668 28.1722 15.7132 28.2564 15.7642 28.3401C15.8123 28.4193 15.8763 28.5159 15.9446 28.587C16.0407 28.687 16.2036 28.8147 16.3939 28.9009C16.5771 28.9838 16.8565 29.0585 17.1279 28.9349C17.2059 28.8994 17.3232 28.8407 17.4338 28.7615C17.5384 28.6867 17.6712 28.5695 17.7312 28.4091C17.9177 27.9104 18.0386 27.6001 18.0785 27.2639C18.1168 26.9408 18.1455 26.6086 18.1194 26.1787C18.0961 25.794 18.0756 25.5046 18.0417 25.2925C18.0093 25.0899 17.9579 24.9006 17.8265 24.7638ZM17.3745 25.1163C17.3837 25.1258 17.419 25.1755 17.4499 25.3692C17.4794 25.5534 17.4989 25.8177 17.5225 26.2081C17.5462 26.5974 17.5207 26.8977 17.4841 27.2067C17.4528 27.4705 17.3597 27.7159 17.1647 28.2373C17.1595 28.2512 17.1338 28.2883 17.0619 28.3399C16.9958 28.3872 16.918 28.4272 16.858 28.4544C16.8383 28.4634 16.7806 28.4732 16.6624 28.4197C16.5514 28.3694 16.4487 28.2889 16.3965 28.2346C16.3724 28.2095 16.3338 28.1558 16.2884 28.0814C16.2505 28.0189 16.2153 27.9541 16.1893 27.9043C16.1838 27.8841 16.1746 27.84 16.1656 27.7651C16.1556 27.6799 16.1474 27.572 16.1412 27.4469C16.129 27.1972 16.1253 26.8902 16.1278 26.5824C16.1303 26.2748 16.1391 25.9693 16.1515 25.7232C16.1645 25.466 16.1805 25.3002 16.192 25.2524C16.2048 25.1988 16.243 25.1463 16.3191 25.0887C16.3999 25.0274 16.4903 24.9837 16.5951 24.9277C16.6721 24.8866 16.81 24.841 17.0283 24.8661C17.034 24.8683 17.0439 24.8723 17.0582 24.8791C17.0847 24.8919 17.1178 24.9106 17.155 24.935C17.2299 24.9841 17.3096 25.0487 17.3745 25.1163Z" fill="black"/>
<path d="M13.1766 25.9314C13.1339 25.1527 13.1039 24.8193 12.9762 24.6724C12.8292 24.5033 12.6244 24.3582 12.5123 24.3326C12.2423 24.2936 12.049 24.3533 11.9238 24.4273C11.7581 24.5252 11.4882 24.6618 11.4304 24.9292C11.3656 25.2282 11.3204 27.3999 11.4389 27.7472C11.49 27.8565 11.5924 28.0622 11.6764 28.1588C11.8112 28.3137 12.1594 28.5771 12.424 28.4439C12.5494 28.3808 12.7784 28.2459 12.8376 28.0707C13.0109 27.5584 13.1081 27.2793 13.1405 26.978C13.1745 26.6605 13.1992 26.3429 13.1766 25.9314Z" fill="black"/>
<path d="M13.1749 24.5021C13.0878 24.4014 12.9853 24.3095 12.8873 24.238C12.7969 24.1722 12.6825 24.1029 12.5721 24.0777L12.5616 24.0753L12.5509 24.0737C12.2225 24.0259 11.9691 24.0978 11.7922 24.2028C11.7226 24.2442 11.5882 24.3171 11.4721 24.4148C11.3516 24.516 11.2237 24.6648 11.1779 24.8772C11.1562 24.9783 11.141 25.1945 11.13 25.4371C11.1184 25.6909 11.1104 26.0033 11.1081 26.3167C11.1058 26.6298 11.1092 26.9467 11.1208 27.2089C11.1265 27.3399 11.1345 27.4599 11.1452 27.5603C11.1552 27.6542 11.1695 27.752 11.1946 27.8261L11.1994 27.8399L11.2056 27.8531C11.2323 27.9105 11.273 27.9946 11.3188 28.0784C11.3622 28.1576 11.4197 28.2542 11.4812 28.3252C11.5676 28.4253 11.7143 28.553 11.8856 28.6392C12.0505 28.7221 12.3019 28.7968 12.5461 28.6732C12.6163 28.6377 12.7219 28.579 12.8215 28.4998C12.9156 28.425 13.0351 28.3078 13.0892 28.1473C13.257 27.6487 13.3658 27.3384 13.4017 27.0021C13.4361 26.6791 13.462 26.3468 13.4385 25.9169C13.4175 25.5323 13.3991 25.2429 13.3686 25.0307C13.3394 24.8282 13.2931 24.6389 13.1749 24.5021ZM12.7681 24.8546C12.7764 24.864 12.8081 24.9138 12.836 25.1075C12.8626 25.2917 12.8801 25.556 12.9013 25.9463C12.9226 26.3356 12.8997 26.636 12.8668 26.945C12.8386 27.2088 12.7548 27.4541 12.5793 27.9756C12.5746 27.9895 12.5515 28.0266 12.4868 28.0782C12.4272 28.1255 12.3573 28.1654 12.3033 28.1927C12.2855 28.2017 12.2336 28.2115 12.1273 28.158C12.0273 28.1077 11.9349 28.0272 11.8879 27.9729C11.8663 27.9478 11.8315 27.8941 11.7907 27.8196C11.7565 27.7572 11.7249 27.6923 11.7014 27.6426C11.6964 27.6223 11.6881 27.5783 11.6801 27.5033C11.6711 27.4182 11.6637 27.3103 11.6582 27.1852C11.6472 26.9355 11.6438 26.6285 11.6461 26.3207C11.6483 26.0131 11.6563 25.7076 11.6675 25.4615C11.6792 25.2042 11.6936 25.0385 11.7039 24.9907C11.7154 24.9371 11.7498 24.8846 11.8182 24.827C11.8911 24.7657 11.9723 24.722 12.0667 24.666C12.1359 24.6249 12.26 24.5793 12.4565 24.6044C12.4617 24.6065 12.4706 24.6105 12.4834 24.6174C12.5073 24.6301 12.537 24.6489 12.5705 24.6733C12.638 24.7224 12.7097 24.7869 12.7681 24.8546Z" fill="black"/>
<path d="M10.3246 22.2729C10.1029 23.0086 10.0195 23.3271 10.0962 23.5016C10.1844 23.7024 10.3379 23.8983 10.4402 23.9554C10.6944 24.0722 10.9059 24.0743 11.055 24.043C11.2522 24.0016 11.5657 23.9552 11.7136 23.7242C11.879 23.4658 12.0836 23.0215 12.0841 22.6637C12.0844 22.3743 12.1071 21.9713 12.3761 21.7675C12.6047 21.5942 12.6979 21.4262 12.6604 21.1048C12.6468 20.9881 12.6152 20.7665 12.5648 20.6518C12.4839 20.4677 12.2284 20.1193 11.9213 20.1641C11.7758 20.1853 11.5034 20.2424 11.3855 20.3873C11.0402 20.8113 10.8493 21.0415 10.7151 21.3117C10.5738 21.5963 10.4417 21.8839 10.3246 22.2729Z" fill="black"/>
<path d="M9.85708 23.5988C9.90945 23.7193 9.98003 23.836 10.0531 23.9324C10.1162 24.0157 10.1994 24.1082 10.2926 24.1662L10.3112 24.1774L10.3208 24.1828L10.3308 24.1874C10.6388 24.3304 10.9115 24.339 11.1187 24.2951C11.2021 24.2773 11.358 24.2501 11.5043 24.1945C11.6556 24.1371 11.8297 24.0385 11.9452 23.8562C12.1181 23.5834 12.3505 23.09 12.351 22.6616C12.3512 22.5205 12.3573 22.3722 12.3889 22.2401C12.4208 22.1074 12.4715 22.0209 12.5368 21.9708C12.6686 21.87 12.7854 21.7525 12.8566 21.5942C12.928 21.4355 12.9409 21.2642 12.9192 21.0756C12.912 21.0141 12.9 20.9234 12.8829 20.8314C12.8667 20.7446 12.8423 20.6367 12.8052 20.5514C12.7532 20.4316 12.6507 20.268 12.5101 20.1358C12.3737 20.0076 12.1514 19.8646 11.8732 19.9056C11.7922 19.9175 11.6691 19.9403 11.5453 19.9837C11.4281 20.0247 11.2731 20.0967 11.1675 20.2278C10.8337 20.6421 10.6221 20.8977 10.4738 21.1996C10.3311 21.4901 10.1938 21.7917 10.0723 22.1991C9.9636 22.5638 9.8845 22.8389 9.84325 23.0458C9.80397 23.2427 9.78555 23.4341 9.85708 23.5988ZM10.3652 23.3977C10.3609 23.3878 10.3459 23.3329 10.3836 23.1439C10.4194 22.9643 10.4911 22.7129 10.6014 22.3428C10.7115 21.9735 10.8353 21.7006 10.9719 21.4224C11.0888 21.1845 11.2548 20.9805 11.6035 20.5476C11.6146 20.534 11.6525 20.5052 11.7349 20.4764C11.8109 20.4497 11.8943 20.4334 11.9572 20.4241C11.9825 20.4204 12.0383 20.429 12.124 20.5096C12.2055 20.5861 12.2692 20.6884 12.2971 20.7525C12.3098 20.7817 12.3261 20.8418 12.3413 20.9235C12.3556 20.9999 12.366 21.0782 12.3723 21.1332C12.3876 21.2656 12.373 21.3386 12.351 21.3874C12.3289 21.4365 12.2867 21.4895 12.1924 21.5616C11.9919 21.7151 11.8986 21.9317 11.8527 22.1232C11.8066 22.3156 11.8011 22.5131 11.8009 22.661C11.8006 22.9474 11.6286 23.3416 11.4745 23.5847C11.4437 23.6333 11.3897 23.6732 11.3008 23.707C11.207 23.7426 11.1105 23.7592 10.9991 23.7829C10.9139 23.8009 10.774 23.8054 10.5877 23.7226C10.5834 23.7192 10.5759 23.713 10.5656 23.7028C10.5465 23.6839 10.5236 23.6577 10.4988 23.625C10.4489 23.5592 10.4 23.4778 10.3652 23.3977Z" fill="black"/>
<path d="M11.3621 25.5752C11.7815 26.5761 12.4074 26.7874 12.7254 26.8698C12.8159 26.8933 13.1264 26.9192 13.212 26.9192H14.3083C14.7707 26.9192 16.0412 26.8021 16.9266 26.3728C17.0869 26.2671 17.2183 26.16 17.3724 26.0279C17.621 25.8143 17.8272 25.5193 17.9901 25.1419C18.139 24.7968 18.2535 24.3319 18.3293 23.9241C18.3844 23.6275 18.4037 23.0543 18.3736 22.7008C18.3551 22.2491 17.958 20.6834 17.0701 19.8908C17.0701 19.8908 16.7331 19.3157 15.6079 19.124C15.6079 19.124 13.7067 19.0308 12.8957 19.6617C12.1604 20.234 11.3541 21.3081 11.1074 23.8097C11.1074 23.8097 11.1074 25.1419 11.3621 25.5752Z" fill="white"/>
<path d="M15.296 18.8595C15.394 18.8589 15.4739 18.8603 15.5297 18.8616C15.5576 18.8623 15.5795 18.863 15.5947 18.8636C15.6023 18.8639 15.6082 18.8641 15.6123 18.8642C15.6143 18.8643 15.616 18.8645 15.6172 18.8645C15.6178 18.8646 15.6182 18.8646 15.6186 18.8646H15.6191C15.6192 18.8646 15.6192 18.8646 15.607 19.1199L15.6191 18.8646L15.6359 18.8654L15.6521 18.8682C16.2541 18.9707 16.6588 19.1785 16.9185 19.3721C17.0477 19.4684 17.1393 19.56 17.2006 19.6309C17.2311 19.6663 17.2541 19.6965 17.2705 19.7195C17.2711 19.7205 17.2718 19.7215 17.2725 19.7225C17.7468 20.158 18.078 20.778 18.2925 21.33C18.5073 21.8823 18.6209 22.4081 18.6349 22.6786L18.6402 22.7508C18.6639 23.1235 18.6437 23.6666 18.5871 23.9713C18.5104 24.3839 18.3918 24.8708 18.2313 25.2429C18.0563 25.6482 17.8282 25.98 17.5416 26.2259C17.3854 26.3599 17.2442 26.4754 17.0701 26.5902L17.0547 26.6003L17.0384 26.6083C16.1029 27.0617 14.7904 27.1795 14.3128 27.1795H13.2221C13.1653 27.1795 13.0555 27.1719 12.9559 27.1625C12.8616 27.1536 12.7389 27.1398 12.6686 27.1216C12.4941 27.0762 12.2195 26.9917 11.9304 26.7729C11.6433 26.5557 11.3572 26.2176 11.132 25.6875C11.049 25.5383 10.997 25.3431 10.9616 25.1591C10.9233 24.9604 10.8985 24.7433 10.8822 24.5454C10.8659 24.3465 10.8578 24.1622 10.8537 24.028C10.8517 23.9607 10.8507 23.9056 10.8502 23.8672C10.8499 23.8479 10.8498 23.8329 10.8497 23.8224C10.8497 23.8173 10.8496 23.8132 10.8496 23.8104V23.8058C10.8496 23.8057 10.8496 23.8057 11.1282 23.8057L10.8496 23.8058V23.7917L10.851 23.7778C11.1023 21.2306 11.9322 20.0839 12.7374 19.4577C12.9798 19.269 13.2885 19.1449 13.5965 19.0605C13.9074 18.9755 14.2362 18.9262 14.5327 18.8976C14.83 18.8691 15.1002 18.8607 15.296 18.8595ZM15.2992 19.4217C15.1151 19.4228 14.8622 19.4307 14.5857 19.4573C14.3083 19.484 14.0129 19.5292 13.7423 19.6033C13.4687 19.678 13.2385 19.7776 13.0776 19.9029C12.4207 20.4138 11.648 21.4007 11.4068 23.8187L11.4069 23.8189C11.4069 23.828 11.407 23.8419 11.4072 23.8596C11.4077 23.8953 11.4087 23.9471 11.4106 24.0109C11.4144 24.1385 11.4221 24.3125 11.4375 24.4988C11.4529 24.6859 11.4756 24.8809 11.5085 25.0519C11.5386 25.2079 11.5734 25.3223 11.6069 25.3914L11.6212 25.4183L11.6307 25.4347L11.6381 25.4521C11.8293 25.9081 12.06 26.1682 12.2647 26.3232C12.4704 26.4789 12.6653 26.5403 12.8072 26.577C12.8074 26.5772 12.8091 26.5775 12.8123 26.5782C12.816 26.579 12.821 26.5799 12.8274 26.581C12.8403 26.5832 12.8566 26.5856 12.8759 26.5882C12.9143 26.5932 12.9604 26.5983 13.0078 26.6027C13.1063 26.612 13.1936 26.6173 13.2221 26.6173H14.3128C14.7523 26.6173 15.9546 26.5034 16.7804 26.1093C16.9186 26.017 17.0358 25.922 17.1807 25.7977C17.3889 25.619 17.5712 25.3638 17.7203 25.0185C17.8559 24.7042 17.9653 24.2662 18.0394 23.8676C18.0886 23.6026 18.108 23.0589 18.0796 22.727L18.0791 22.7207L18.0788 22.7143C18.0715 22.5317 17.9787 22.0622 17.7739 21.5352C17.5697 21.0098 17.2701 20.4705 16.8759 20.1185L16.843 20.0892L16.8207 20.0512V20.0513L16.8209 20.0516C16.8211 20.0519 16.8212 20.052 16.8213 20.0522C16.8215 20.0525 16.8217 20.0528 16.8218 20.0531C16.8222 20.0535 16.8224 20.0541 16.8226 20.0543C16.8227 20.0544 16.8228 20.0547 16.8228 20.0547C16.8223 20.0539 16.8205 20.0511 16.8173 20.0466C16.8109 20.0376 16.7989 20.0215 16.7806 20.0004C16.7441 19.9581 16.6819 19.8947 16.5874 19.8242C16.4014 19.6857 16.0834 19.5143 15.575 19.4254C15.5747 19.4253 15.5743 19.4254 15.574 19.4254C15.5611 19.4248 15.5416 19.4241 15.5162 19.4236C15.4654 19.4223 15.391 19.4212 15.2992 19.4217Z" fill="black"/>
<path d="M18.7126 21.5152C18.4978 20.6603 18.3929 20.2969 18.2201 20.1644C18.0212 20.0118 17.7637 19.8997 17.6343 19.8984C17.3275 19.9199 17.1268 20.0328 17.0043 20.1451C16.8422 20.2936 16.5733 20.5103 16.567 20.8214C16.5597 21.1693 16.6227 21.7241 16.8284 22.0815C16.9948 22.3705 17.0693 22.7838 17.0693 23.1349C17.0693 23.4538 16.9624 23.6505 17.1828 23.9509C17.263 24.0601 17.4204 24.264 17.5339 24.3511C17.7162 24.491 18.1578 24.7 18.4216 24.4883C18.5466 24.388 18.7705 24.183 18.7983 23.9742C18.8796 23.3632 18.927 23.0298 18.8979 22.687C18.8672 22.3261 18.826 21.9671 18.7126 21.5152Z" fill="black"/>
<path d="M18.3816 19.961C18.2651 19.8715 18.1335 19.7952 18.0111 19.7403C17.9045 19.6923 17.7773 19.6479 17.6626 19.6416L17.6398 19.6408L17.6291 19.6406L17.6184 19.6415C17.2522 19.6673 16.9959 19.8047 16.8305 19.9567C16.76 20.0214 16.6306 20.1316 16.5259 20.2643C16.4179 20.4011 16.3141 20.5875 16.3092 20.8216C16.3017 21.1862 16.3643 21.7977 16.6049 22.2165C16.7392 22.4505 16.8094 22.8116 16.8094 23.1351C16.8094 23.2005 16.804 23.2611 16.7974 23.3289C16.7913 23.3929 16.7831 23.4714 16.7836 23.551C16.7848 23.7291 16.8288 23.9082 16.9738 24.1063C17.0156 24.1634 17.0786 24.2466 17.147 24.3281C17.212 24.4054 17.2949 24.497 17.3757 24.5592C17.4907 24.6475 17.6776 24.7521 17.8818 24.8054C18.0804 24.8572 18.3594 24.8752 18.5868 24.6924C18.6559 24.6369 18.7577 24.5482 18.8482 24.4397C18.9343 24.3363 19.035 24.1859 19.0588 24.0076C19.1381 23.4097 19.1913 23.0433 19.1592 22.6658C19.1281 22.2988 19.0855 21.925 18.9676 21.4547C18.8614 21.0309 18.779 20.7149 18.7 20.4878C18.6244 20.2704 18.5348 20.0788 18.3816 19.961ZM18.059 20.3821C18.0779 20.3966 18.1266 20.4523 18.1996 20.6625C18.2693 20.863 18.3462 21.1546 18.4537 21.5839C18.5618 22.0152 18.6014 22.3576 18.6314 22.7108C18.6573 23.0172 18.6159 23.3162 18.5334 23.9376C18.5294 23.9676 18.5048 24.0235 18.4414 24.0995C18.3824 24.1703 18.3105 24.2341 18.255 24.2785C18.2198 24.3069 18.1477 24.3263 18.0153 24.2917C17.8887 24.2587 17.765 24.1893 17.6983 24.1381C17.6661 24.1134 17.6141 24.0598 17.5524 23.9865C17.4943 23.9171 17.439 23.8442 17.4011 23.7925C17.3266 23.6908 17.314 23.6219 17.3135 23.5474C17.3132 23.5007 17.318 23.4516 17.3249 23.38C17.3314 23.3122 17.3393 23.2289 17.3393 23.1351C17.3393 22.7583 17.2611 22.2949 17.0642 21.9519C16.8951 21.6576 16.8322 21.162 16.839 20.8326C16.8406 20.7563 16.8737 20.6794 16.9415 20.5935C17.0127 20.5035 17.0978 20.4313 17.1886 20.3478C17.2655 20.2772 17.4046 20.1921 17.6398 20.1724C17.6468 20.1733 17.6604 20.1758 17.6813 20.1818C17.7122 20.1907 17.7508 20.2049 17.7942 20.2245C17.8819 20.2639 17.9775 20.3195 18.059 20.3821Z" fill="black"/>
<path d="M25.8884 10.7984C25.4521 10.7838 25.0028 10.3334 24.5239 10.1524C22.9465 9.55619 23.0127 8.25626 23.1078 8.02129C23.339 7.45072 23.8695 6.99206 24.2449 6.77017C24.6202 6.54829 25.0352 6.37768 25.4925 6.37891C26.0391 6.38039 27.8568 7.27648 28.0005 8.48287C28.0679 9.04956 27.5675 9.76737 27.1226 10.2189C26.808 10.5383 26.3073 10.8125 25.8884 10.7984Z" fill="black"/>
<path d="M27.9999 8.34094C27.9217 7.68358 27.3934 7.12919 26.8411 6.74597C26.5619 6.55226 26.2697 6.39733 26.011 6.29044C25.7558 6.185 25.522 6.12153 25.3626 6.1211C24.874 6.11978 24.4358 6.30225 24.0491 6.53099C23.659 6.76168 23.1021 7.24033 22.8567 7.84659C22.8245 7.92584 22.8021 8.06961 22.8074 8.24317C22.8129 8.42019 22.8474 8.63794 22.9377 8.86746C23.1196 9.33 23.5241 9.83038 24.3473 10.1417C24.5767 10.2284 24.7974 10.379 25.0337 10.5219C25.2608 10.6592 25.5064 10.7921 25.7579 10.8006C25.9925 10.8084 26.2424 10.7359 26.4711 10.6233C26.7006 10.5104 26.9162 10.3534 27.0835 10.1835C27.313 9.95042 27.5579 9.64771 27.7375 9.3278C27.9155 9.01074 28.038 8.66155 27.9999 8.34094ZM26.9291 10.028C26.7791 10.1803 26.5836 10.3229 26.3756 10.4253C26.1669 10.528 25.9531 10.5867 25.7652 10.5804C25.5768 10.574 25.3758 10.4722 25.1456 10.3329C24.9246 10.1993 24.6773 10.0314 24.4236 9.93542C23.6561 9.64518 23.2986 9.18901 23.1402 8.7861C23.0603 8.5829 23.03 8.39069 23.0253 8.23631C23.0204 8.07851 23.0424 7.96943 23.0583 7.93012C23.279 7.38503 23.7922 6.93819 24.1591 6.72111C24.5294 6.5021 24.9282 6.34019 25.3621 6.34136C25.4783 6.34167 25.6803 6.39176 25.9285 6.4943C26.1731 6.59539 26.4517 6.74291 26.7178 6.92756C27.2561 7.30108 27.7169 7.80737 27.7836 8.36719C27.8134 8.61834 27.7176 8.91716 27.5481 9.21907C27.3802 9.51813 27.1483 9.80545 26.9291 10.028Z" fill="black"/>
<path d="M7.12455 9.68937C6.96148 10.0911 6.39173 10.3572 6.06045 10.7423C4.96939 12.0105 3.79214 11.5083 3.60787 11.3399C3.16042 10.9311 2.91889 10.2812 2.84271 9.8562C2.76654 9.43118 2.7513 8.98657 2.9092 8.56072C3.09797 8.05166 4.54822 6.66105 5.71105 6.93603C6.25728 7.06519 6.74835 7.77484 7.0127 8.34257C7.19966 8.7441 7.28114 9.30363 7.12455 9.68937Z" fill="black"/>
<path d="M5.61323 6.6816C4.9791 6.52383 4.28563 6.84472 3.74206 7.25026C3.46727 7.45528 3.22386 7.68696 3.03634 7.90281C2.85136 8.11572 2.71246 8.32268 2.65736 8.47903C2.48844 8.95832 2.50662 9.45369 2.58521 9.91503C2.66447 10.3803 2.91551 11.0979 3.39133 11.5553C3.45352 11.6151 3.57864 11.6884 3.74081 11.7451C3.90622 11.803 4.11923 11.8467 4.36225 11.84C4.85197 11.8264 5.45305 11.6078 6.0232 10.9106C6.18203 10.7163 6.39689 10.5533 6.61007 10.3722C6.81485 10.1983 7.02188 10.0045 7.11602 9.76056C7.20383 9.53298 7.22257 9.26176 7.19706 8.99707C7.17145 8.73141 7.10046 8.46378 7.00089 8.2388C6.86436 7.93029 6.66875 7.58186 6.43485 7.29135C6.20304 7.00345 5.9225 6.75855 5.61323 6.6816ZM6.80432 8.33491C6.89353 8.53651 6.95813 8.77943 6.98132 9.02009C7.00461 9.2617 6.9854 9.49263 6.9151 9.67485C6.84458 9.85763 6.6815 10.0186 6.47383 10.195C6.27457 10.3643 6.03453 10.5472 5.85882 10.7621C5.32728 11.4121 4.78317 11.6004 4.35657 11.6122C4.14143 11.6181 3.95348 11.5792 3.80923 11.5288C3.66179 11.4773 3.56854 11.4168 3.53769 11.3872C3.10988 10.9759 2.87319 10.3127 2.7986 9.87486C2.72336 9.43314 2.71066 8.98375 2.86064 8.5582C2.90084 8.44414 3.01647 8.26358 3.19636 8.05651C3.37371 7.85238 3.60558 7.63152 3.8675 7.4361C4.39733 7.0408 5.02318 6.76906 5.56322 6.9034C5.80549 6.96367 6.04866 7.1644 6.2694 7.43854C6.48806 7.71011 6.67392 8.04026 6.80432 8.33491Z" fill="black"/>
<path d="M4.89016 17.9999C6.20852 19.8014 8.1754 20.1817 9.17481 20.3302C9.45933 20.3724 10.4351 20.4191 10.7043 20.4191H14.1499C15.6032 20.4191 19.596 20.2082 22.3787 19.4355C22.8826 19.2451 23.2957 19.0524 23.7797 18.8145C24.5612 18.4303 25.2094 17.8991 25.7211 17.2198C26.1891 16.5987 26.549 15.7617 26.7872 15.0278C26.9605 14.4938 27.021 13.4623 26.9262 12.8259C26.8683 12.0129 25.6205 9.19466 22.8296 7.76777C22.8296 7.76777 21.7707 6.73265 18.2345 6.38763C18.2345 6.38763 12.259 6.21991 9.71039 7.35565C7.39909 8.38566 4.86515 10.3191 4.08984 14.8217C4.08984 14.8217 4.08984 17.2198 4.89016 17.9999Z" fill="white"/>
<path d="M17.2566 6.12135C17.5579 6.12033 17.8027 6.12252 17.9722 6.1249C18.057 6.12609 18.123 6.12728 18.168 6.12824C18.1904 6.12873 18.2078 6.12913 18.2194 6.12942C18.2252 6.12956 18.2296 6.12977 18.2327 6.12985C18.2342 6.1299 18.2353 6.12983 18.2361 6.12985C18.2365 6.12986 18.2368 6.12996 18.2371 6.12996H18.2373C18.2373 6.13045 18.2372 6.13949 18.2325 6.31057L18.2373 6.12996L18.2467 6.13018L18.256 6.13115C20.0454 6.30554 21.2203 6.65552 21.9554 6.96914C22.3229 7.12594 22.5801 7.27345 22.7487 7.38507C22.8329 7.44085 22.8949 7.48763 22.9374 7.52195C22.9519 7.53364 22.964 7.54408 22.974 7.55275C24.4013 8.2897 25.4321 9.37549 26.1142 10.3795C26.458 10.8855 26.7151 11.3736 26.8909 11.7906C27.061 12.1941 27.1624 12.5494 27.1826 12.7965C27.2326 13.1381 27.2406 13.5712 27.2151 13.9835C27.1895 14.3968 27.129 14.8139 27.032 15.1126C26.7896 15.8584 26.4186 16.7262 25.9249 17.3808C25.3869 18.0941 24.7054 18.6512 23.888 19.0526C23.4014 19.2916 22.9798 19.4882 22.4646 19.6825L22.4533 19.6867L22.4415 19.6901C19.627 20.4707 15.6101 20.6812 14.1498 20.6812H10.7078C10.4337 20.6812 9.44384 20.6347 9.14047 20.5897C8.13425 20.4404 6.07974 20.0507 4.69342 18.1724C4.45764 17.9343 4.29523 17.5991 4.17999 17.257C4.06022 16.9014 3.98219 16.5114 3.93088 16.1542C3.87939 15.7959 3.85379 15.4637 3.841 15.2215C3.83459 15.1003 3.83134 15.0011 3.82973 14.9317C3.82891 14.8971 3.82855 14.8697 3.82834 14.851C3.82823 14.8416 3.82816 14.8342 3.82812 14.8293V14.821C3.82812 14.821 3.82812 14.8208 4.10043 14.8208H3.82812V14.797L3.83217 14.7734C4.22735 12.481 5.07405 10.828 6.1278 9.61471C7.17996 8.40332 8.42717 7.64347 9.60529 7.11906C10.9294 6.52967 13.1055 6.28784 14.9124 6.18822C15.8234 6.138 16.6539 6.12338 17.2566 6.12135ZM17.2584 6.67276C16.6623 6.67477 15.8413 6.68919 14.9419 6.73877C13.1277 6.8388 11.0462 7.08002 9.82451 7.62383C8.69385 8.12711 7.52103 8.84563 6.53679 9.97884C5.55766 11.1062 4.75381 12.6569 4.37284 14.8446L4.37295 14.8448C4.37312 14.8615 4.37347 14.8865 4.37422 14.9187C4.37572 14.9832 4.37877 15.0769 4.38485 15.1922C4.39705 15.4229 4.4214 15.7375 4.46984 16.0747C4.51845 16.413 4.59036 16.767 4.69545 17.079C4.80215 17.3957 4.93444 17.643 5.08859 17.7931L5.10507 17.8091L5.11859 17.8276C6.36602 19.5302 8.23188 19.8976 9.21939 20.0442C9.48447 20.0834 10.4441 20.1298 10.7078 20.1298H14.1498C15.5907 20.1298 19.5409 19.9202 22.2852 19.1617C22.772 18.9775 23.1735 18.7906 23.6502 18.5564C24.3941 18.1912 25.0078 17.6883 25.4921 17.0461C25.9332 16.4613 26.2812 15.659 26.5147 14.9402C26.5908 14.7061 26.6472 14.3422 26.6716 13.949C26.6956 13.5581 26.6866 13.1627 26.643 12.8705L26.6414 12.86L26.6406 12.8492C26.6294 12.6912 26.554 12.3962 26.3901 12.007C26.2287 11.6242 25.9892 11.1682 25.6656 10.6919C25.0179 9.73857 24.0417 8.71528 22.6974 8.02877L22.6607 8.01004L22.6315 7.9815L22.6316 7.98161C22.6307 7.98083 22.6294 7.97968 22.6278 7.97815C22.6223 7.97337 22.6125 7.96491 22.5979 7.95316C22.5688 7.92966 22.5206 7.89295 22.4506 7.84654C22.3104 7.75376 22.0823 7.62166 21.7439 7.47725C21.0681 7.18891 19.9507 6.851 18.2129 6.68083C18.2109 6.68079 18.2086 6.68079 18.206 6.68073C18.1949 6.68046 18.1782 6.68001 18.1565 6.67954C18.1127 6.6786 18.048 6.67738 17.9646 6.6762C17.7979 6.67386 17.5563 6.67175 17.2584 6.67276ZM22.6326 7.98257C22.6324 7.98244 22.6322 7.98228 22.632 7.98204L22.6316 7.98161C22.632 7.98204 22.6324 7.98239 22.6326 7.98257Z" fill="black"/>
<path d="M11.3652 12.9462C11.3902 13.2802 11.7306 13.4315 12.3914 13.3937C12.5974 13.3819 13.4347 13.469 13.1123 12.6181C12.9324 12.298 12.5116 12.3601 12.1912 12.3722C11.6906 12.3911 11.3652 12.6084 11.3652 12.9462Z" fill="black"/>
<path d="M12.3202 12.1132C12.4455 12.1077 12.6483 12.0853 12.8266 12.1137C13.0135 12.1433 13.2168 12.2333 13.3423 12.4718L13.3541 12.4954L13.3612 12.5101L13.3664 12.5258C13.4477 12.7748 13.469 12.9926 13.4172 13.1769C13.3627 13.3709 13.2389 13.4883 13.1094 13.5546C12.986 13.6178 12.852 13.6382 12.7491 13.6461C12.6961 13.6502 12.647 13.6512 12.6074 13.6517C12.5638 13.6521 12.5404 13.6521 12.5239 13.6532C12.2103 13.674 11.9404 13.6461 11.7375 13.5431C11.6329 13.49 11.542 13.4147 11.4754 13.3125C11.4084 13.2096 11.3738 13.0914 11.3657 12.9663L11.3652 12.9582V12.9501C11.3652 12.692 11.4761 12.4784 11.6572 12.3341C11.8321 12.1947 12.0649 12.1244 12.3202 12.1132ZM12.7662 12.57C12.6707 12.5548 12.5708 12.5605 12.4566 12.5674L12.337 12.5739C12.1361 12.5827 11.9924 12.6372 11.9049 12.7069C11.826 12.7697 11.7884 12.8467 11.7863 12.9417C11.7904 12.9888 11.8025 13.0208 11.8181 13.0447C11.8349 13.0705 11.8636 13.0989 11.9147 13.1248C12.0232 13.18 12.2097 13.2121 12.4984 13.1929C12.5288 13.1909 12.5703 13.191 12.6031 13.1907C12.6401 13.1903 12.6792 13.1893 12.7196 13.1862C12.8033 13.1797 12.877 13.1647 12.9311 13.137C12.9792 13.1124 13.0029 13.0834 13.0147 13.0413C13.0288 12.9911 13.035 12.8879 12.9753 12.6982C12.9352 12.6249 12.8729 12.5869 12.7662 12.57Z" fill="black"/>
<path d="M15.3451 12.1609C15.5107 12.5967 16.1094 12.9921 16.4534 13.4503C17.5866 14.9592 18.842 14.7339 19.0401 14.6097C19.5212 14.3081 19.7884 13.7199 19.8765 13.3165C19.9646 12.913 19.9886 12.4759 19.8288 12.0175C19.638 11.4694 18.1266 9.75623 16.8904 9.75977C16.3096 9.76142 15.7772 10.351 15.4872 10.8524C15.2822 11.207 15.1861 11.7425 15.3451 12.1609Z" fill="black"/>
<path d="M16.8452 9.75977C17.5439 9.75798 18.3006 10.1886 18.8962 10.6667C19.1969 10.9081 19.4625 11.1664 19.6663 11.3984C19.8676 11.6274 20.0169 11.8399 20.0746 11.9893C20.2546 12.4539 20.2263 12.8948 20.1295 13.2935C20.0319 13.6957 19.7353 14.29 19.1879 14.5987C19.1141 14.6403 18.9715 14.6781 18.7916 14.693C18.6069 14.7083 18.3709 14.7005 18.1039 14.6422C17.5679 14.5249 16.9112 14.2044 16.2935 13.4644C16.1174 13.2535 15.877 13.0578 15.6445 12.8514C15.42 12.652 15.1974 12.4382 15.0987 12.2044C14.913 11.7649 15.0264 11.2166 15.2582 10.8559C15.4175 10.6082 15.6439 10.3375 15.9128 10.1272C16.1808 9.91771 16.501 9.76066 16.8452 9.75977ZM15.4488 10.9688C15.2447 11.2865 15.1538 11.7626 15.3063 12.1235C15.3836 12.3064 15.5674 12.4901 15.7966 12.6936C16.0179 12.89 16.2786 13.1026 16.4683 13.3299C17.0553 14.0331 17.6684 14.3264 18.1537 14.4325C18.3972 14.4858 18.6098 14.4922 18.7723 14.4787C18.9394 14.4649 19.0429 14.4311 19.0745 14.4134C19.5499 14.1453 19.8215 13.6144 19.9113 13.2447C20.0019 12.8717 20.0245 12.4766 19.8648 12.0642C19.8211 11.9515 19.6933 11.7626 19.4951 11.537C19.2996 11.3145 19.0432 11.065 18.7525 10.8317C18.1653 10.3603 17.4613 9.97318 16.8457 9.97476C16.5725 9.97547 16.3009 10.1012 16.0543 10.2939C15.8088 10.4859 15.5979 10.7369 15.4488 10.9688Z" fill="black"/>
<path d="M10.7736 12.2712C10.625 12.6383 10.092 12.9777 9.78494 13.366C8.77359 14.6451 7.65925 14.4734 7.48372 14.3721C7.05749 14.1261 6.82212 13.6373 6.74517 13.3005C6.66823 12.9638 6.6484 12.5982 6.79178 12.2121C6.96318 11.7505 8.31114 10.2952 9.4091 10.2813C9.92485 10.2748 10.3959 10.7613 10.6517 11.1772C10.8326 11.4714 10.9162 11.9186 10.7736 12.2712Z" fill="black"/>
<path d="M9.28626 10.2813C8.69195 10.2884 8.04931 10.6581 7.54478 11.0633C7.28975 11.2681 7.06429 11.4866 6.89097 11.6825C6.72027 11.8756 6.5923 12.0555 6.54208 12.1827C6.38729 12.5747 6.40993 12.9444 6.49076 13.277C6.57242 13.613 6.82254 14.1086 7.28914 14.3619C7.35442 14.3974 7.47718 14.4272 7.62972 14.4374C7.78685 14.448 7.98733 14.4387 8.21417 14.3865C8.66953 14.2819 9.22707 14.0059 9.75251 13.3809C9.90098 13.2043 10.1034 13.0396 10.3009 12.8646C10.4907 12.6964 10.6813 12.5141 10.7668 12.3154C10.9272 11.9425 10.8321 11.4823 10.6353 11.1814C10.501 10.976 10.3096 10.752 10.0815 10.5789C9.85427 10.4065 9.58112 10.2778 9.28626 10.2813ZM10.45 11.292C10.6186 11.5499 10.6923 11.9392 10.5646 12.236C10.5001 12.386 10.3465 12.5392 10.1522 12.7115C9.96545 12.877 9.74371 13.0579 9.58205 13.2502C9.08608 13.8401 8.57013 14.09 8.1631 14.1836C7.95879 14.2305 7.7808 14.2383 7.64514 14.2292C7.50491 14.2198 7.42043 14.1931 7.39708 14.1804C7.00277 13.9664 6.77751 13.5334 6.70373 13.2297C6.62914 12.9228 6.61173 12.5978 6.74656 12.2564C6.78287 12.1644 6.89003 12.0072 7.0579 11.8173C7.22319 11.6304 7.43983 11.4202 7.68538 11.223C8.18201 10.8242 8.77446 10.4962 9.289 10.49C9.51502 10.4874 9.74023 10.5867 9.94564 10.7425C10.1502 10.8977 10.3259 11.1023 10.45 11.292Z" fill="black"/>
<path d="M4.89827 14.5753C5.01336 15.0395 5.54827 14.954 5.95128 14.954C6.38134 14.8607 6.54903 14.2905 6.32777 13.94C6.1438 13.6485 5.86726 13.6602 5.56364 13.6602C5.23947 13.6602 4.86536 13.7562 4.86536 14.1297C4.86536 14.2834 4.86132 14.4263 4.89827 14.5753Z" fill="#325530"/>
<path d="M20.5053 14.5753C20.6396 15.0395 21.2637 14.954 21.7339 14.954C22.2356 14.8608 22.4312 14.2905 22.1731 13.9399C21.9585 13.6484 21.6358 13.6602 21.2816 13.6602C20.9034 13.6602 20.467 13.7562 20.467 14.1296C20.467 14.2834 20.4622 14.4263 20.5053 14.5753Z" fill="#325530"/>
<path d="M18.831 4.78867C18.895 4.99534 18.9183 5.28286 18.9057 5.42183C18.8181 6.37935 18.6553 6.95479 18.5555 7.13811C18.4598 7.31372 18.3647 7.45381 18.2525 7.58426C18.1473 7.70638 18.0353 7.83094 17.8031 7.92556C17.543 8.03161 17.2703 8.13223 17.0527 8.18413C16.781 8.2489 15.9439 8.10488 15.3285 7.90361C14.9999 7.79614 14.7836 7.71738 14.472 7.45784C14.3016 7.31591 14.1462 7.21711 14.0394 7.08581C13.9773 7.00963 13.8795 6.40822 14.1402 6.1881C14.215 6.12494 14.3921 6.14472 14.4845 6.00108C14.5107 5.96033 14.53 5.89736 14.5185 5.8462C14.4976 5.75221 14.4147 5.66138 14.3772 5.54206C14.3492 5.45314 14.3395 5.05175 14.5071 4.55165C14.6042 4.2615 14.6653 4.1117 14.7567 3.9806C14.8604 3.83186 14.9556 3.61753 15.2186 3.49956C15.5028 3.37209 15.8723 3.23585 16.0856 3.26334C16.7312 3.34652 17.7355 3.56083 17.8905 3.68804C18.0229 3.79687 18.1794 3.87131 18.297 3.99707C18.5268 4.24274 18.7769 4.61385 18.831 4.78867Z" fill="#325530"/>
<path d="M16.1213 3.00566C16.452 3.04821 16.8714 3.12382 17.2286 3.20493C17.4071 3.24545 17.5741 3.28826 17.7088 3.33016C17.7759 3.35106 17.8389 3.37283 17.8927 3.39529C17.9345 3.41273 17.9879 3.43738 18.0348 3.47136L18.0546 3.48649L18.0955 3.51818C18.1373 3.54902 18.1834 3.57868 18.2434 3.61945C18.3163 3.66909 18.4055 3.73256 18.4857 3.8181C18.6116 3.95249 18.7399 4.11759 18.8442 4.27196C18.9434 4.41881 19.0396 4.58319 19.0794 4.71184C19.1537 4.95146 19.1812 5.27397 19.165 5.44911C19.1205 5.93539 19.0565 6.32852 18.9896 6.62673C18.9244 6.91727 18.8525 7.13705 18.7836 7.26328C18.6805 7.45234 18.5751 7.60821 18.4488 7.75469C18.335 7.88677 18.1892 8.04949 17.8987 8.16769C17.6373 8.27402 17.35 8.38065 17.1122 8.43723C17.0049 8.46275 16.8698 8.46351 16.7389 8.4557C16.6013 8.44751 16.4428 8.42806 16.2772 8.40065C15.9464 8.34591 15.5714 8.25696 15.2508 8.15231C14.9112 8.04146 14.6583 7.95043 14.3094 7.66034C14.2243 7.5896 14.1607 7.54393 14.0741 7.47462C13.9967 7.41284 13.9133 7.34125 13.8415 7.25315C13.8006 7.20296 13.7796 7.14472 13.7699 7.11584C13.757 7.07763 13.7465 7.03508 13.7379 6.99152C13.7207 6.90414 13.709 6.79726 13.7092 6.68535C13.7097 6.48457 13.7489 6.16783 13.9773 5.97532C14.0376 5.92457 14.1041 5.90126 14.1394 5.88981C14.1592 5.88342 14.1791 5.87785 14.1936 5.87372C14.2097 5.86914 14.2218 5.86568 14.2332 5.86204C14.2352 5.86136 14.2372 5.86045 14.2391 5.8598C14.236 5.8542 14.2329 5.84777 14.2289 5.84082C14.2035 5.79608 14.158 5.71872 14.1289 5.62671C14.1104 5.56791 14.1038 5.49575 14.1014 5.43273C14.0986 5.36223 14.1004 5.27686 14.1088 5.18026C14.1255 4.98688 14.169 4.74093 14.2599 4.46994C14.3568 4.18145 14.428 3.99816 14.5439 3.83211C14.6162 3.72854 14.7653 3.41829 15.1152 3.26169C15.2625 3.19576 15.4367 3.1252 15.6057 3.07439C15.7654 3.02638 15.9563 2.98443 16.1213 3.00566ZM17.1113 3.73859C16.7689 3.66082 16.3661 3.58841 16.0536 3.54823C16.0061 3.54213 15.9065 3.55429 15.7583 3.59887C15.6193 3.64067 15.4679 3.70135 15.332 3.76219C15.1576 3.84026 15.1168 3.95635 14.9826 4.14863C14.9164 4.24333 14.8659 4.35801 14.7691 4.64658C14.693 4.87299 14.6579 5.07543 14.6447 5.22811C14.6381 5.3045 14.6372 5.36661 14.6389 5.41136C14.6401 5.4431 14.6424 5.4596 14.643 5.46438C14.6516 5.48965 14.6659 5.51673 14.6946 5.56718C14.7177 5.60778 14.7671 5.69062 14.7883 5.78533C14.821 5.9319 14.768 6.07045 14.7169 6.14971C14.6197 6.30053 14.4798 6.35642 14.3947 6.38366C14.3736 6.39041 14.3534 6.39616 14.3383 6.40042C14.3253 6.40411 14.3163 6.40678 14.3087 6.40909C14.2977 6.42324 14.2842 6.44725 14.2723 6.48684C14.2558 6.54182 14.2473 6.61122 14.2472 6.68653C14.247 6.76099 14.2549 6.83161 14.2654 6.88451C14.2689 6.90248 14.2726 6.9166 14.2755 6.92694C14.3079 6.96226 14.3498 6.9994 14.4066 7.04481C14.4663 7.09257 14.5651 7.16662 14.6499 7.23701C14.9219 7.46319 15.1 7.52877 15.4153 7.63167C15.7079 7.72719 16.0565 7.81005 16.3637 7.86087C16.517 7.88626 16.6562 7.90301 16.7703 7.9098C16.891 7.917 16.9616 7.91148 16.9897 7.90481C17.1857 7.85815 17.4416 7.76467 17.6988 7.66004C17.8709 7.59003 17.9486 7.505 18.0441 7.39416C18.1416 7.28117 18.2258 7.15837 18.3131 6.99812C18.3437 6.94203 18.4025 6.78447 18.4651 6.50521C18.5261 6.23362 18.5867 5.86442 18.6294 5.3984C18.6387 5.29713 18.6195 5.04768 18.5664 4.87621C18.5524 4.83098 18.4969 4.72386 18.4008 4.58163C18.3098 4.44691 18.1991 4.30519 18.0961 4.19525C18.0591 4.15575 18.0117 4.11974 17.9444 4.07405C17.8857 4.03411 17.7999 3.97924 17.7231 3.91704C17.7264 3.91954 17.7181 3.91369 17.6885 3.90129C17.6555 3.88755 17.6098 3.87129 17.5514 3.85311C17.435 3.8169 17.2827 3.7775 17.1113 3.73859Z" fill="black"/>
<path d="M20.5478 5.25996C20.4091 5.43084 20.2804 5.69281 20.2418 5.82831C19.976 6.762 19.9245 7.36386 19.9551 7.57333C19.9845 7.774 20.0265 7.94104 20.0888 8.10535C20.1472 8.25918 20.2116 8.41789 20.4049 8.59282C20.6214 8.78888 20.8522 8.98442 21.0471 9.1138C21.2901 9.27526 22.1652 9.44926 22.8437 9.48745C23.206 9.50785 23.4474 9.51371 23.8489 9.38469C24.0685 9.31413 24.2574 9.27857 24.4106 9.19451C24.4995 9.14575 24.8166 8.61584 24.6414 8.31224C24.5911 8.22512 24.41 8.17825 24.3719 8.00886C24.3612 7.9608 24.3654 7.89441 24.3955 7.85047C24.4505 7.76975 24.5654 7.7149 24.646 7.61647C24.7061 7.5431 24.8632 7.16891 24.8824 6.63619C24.8934 6.32712 24.8886 6.16354 24.847 6.00634C24.7999 5.828 24.785 5.59101 24.5699 5.38266C24.3375 5.15755 24.0248 4.89267 23.805 4.83964C23.1403 4.67914 22.0751 4.50941 21.8762 4.57185C21.706 4.62528 21.525 4.63745 21.3631 4.71234C21.0473 4.85862 20.6652 5.11541 20.5478 5.25996Z" fill="#325530"/>
<path d="M23.8581 4.58758C23.5193 4.50568 23.0818 4.42223 22.7031 4.36682C22.5139 4.33914 22.3351 4.31781 22.1882 4.30755C22.115 4.30244 22.0458 4.29984 21.985 4.30109C21.9378 4.30207 21.8768 4.30538 21.8186 4.31995L21.7939 4.32694L21.7423 4.34171C21.69 4.35524 21.6341 4.36605 21.5606 4.38223C21.4712 4.40193 21.3608 4.42886 21.2512 4.47967C21.0789 4.55954 20.893 4.66726 20.7344 4.7739C20.5837 4.87524 20.4294 4.99441 20.3428 5.10102C20.182 5.29921 20.0367 5.59273 19.988 5.76404C19.8534 6.23745 19.7719 6.6306 19.728 6.93568C19.6852 7.23275 19.6751 7.46647 19.6962 7.61128C19.7278 7.82721 19.7738 8.01283 19.8437 8.19726C19.9068 8.36369 19.9897 8.57054 20.2304 8.78867C20.4469 8.98485 20.6887 9.19079 20.9003 9.33148C20.9955 9.39481 21.127 9.44526 21.2577 9.48615C21.3951 9.5291 21.5568 9.56914 21.7286 9.60439C22.0719 9.67484 22.4708 9.72948 22.8222 9.74929C23.1945 9.77027 23.4747 9.77789 23.9218 9.63406C24.0308 9.59896 24.1097 9.57938 24.2197 9.54625C24.3179 9.5167 24.4255 9.48024 24.528 9.42394C24.5867 9.39173 24.6288 9.34447 24.649 9.32073C24.6756 9.28937 24.7019 9.25311 24.7263 9.21519C24.7753 9.13916 24.8259 9.04279 24.8669 8.93723C24.9402 8.74789 25.0186 8.43356 24.8649 8.1668L24.849 8.14165C24.8106 8.08542 24.764 8.04726 24.7376 8.02654C24.7207 8.01327 24.7032 8.00058 24.6905 7.99136C24.6764 7.98112 24.6661 7.97354 24.6563 7.96594C24.6557 7.96551 24.6553 7.96496 24.6547 7.96455C24.6585 7.96148 24.6626 7.95796 24.667 7.95441C24.7082 7.92182 24.7812 7.86562 24.8435 7.78948C24.8836 7.74053 24.9168 7.67474 24.9423 7.61629C24.9709 7.55078 25.0004 7.46963 25.0278 7.37558C25.0824 7.18729 25.1301 6.93979 25.1405 6.65117C25.1515 6.34444 25.1491 6.14525 25.0965 5.94574C25.0638 5.82221 25.0314 5.47455 24.7465 5.19819C24.6267 5.08201 24.4822 4.95164 24.3358 4.8417C24.1973 4.73774 24.0265 4.62829 23.8581 4.58758ZM22.6208 4.91779C22.9841 4.97094 23.4043 5.05129 23.7245 5.12869C23.7738 5.14061 23.867 5.18898 23.9955 5.28545C24.1161 5.37597 24.242 5.48879 24.3525 5.59602C24.4939 5.73322 24.491 5.85614 24.5519 6.08662C24.5816 6.19911 24.589 6.32469 24.5779 6.63144C24.5694 6.87151 24.5296 7.07402 24.4867 7.22181C24.4652 7.29578 24.4436 7.35425 24.4256 7.39538C24.4129 7.42459 24.4048 7.43902 24.4025 7.44304C24.3852 7.46306 24.3615 7.48292 24.3154 7.51945C24.2781 7.54894 24.199 7.60889 24.1432 7.69073C24.0563 7.81815 24.0572 7.96981 24.0784 8.06399C24.1185 8.24286 24.2356 8.34712 24.3082 8.40372C24.3263 8.41781 24.3441 8.43069 24.3571 8.44024C24.3684 8.44837 24.3762 8.45418 24.3826 8.45906C24.388 8.47584 24.3923 8.50249 24.3895 8.54285C24.3855 8.59973 24.3686 8.66733 24.3414 8.73773C24.3144 8.80732 24.2809 8.8704 24.2515 8.91599C24.2419 8.93104 24.2334 8.94263 24.227 8.95111C24.1824 8.9723 24.1279 8.99167 24.0559 9.01337C23.9799 9.03624 23.8563 9.06936 23.7478 9.10429C23.3988 9.21658 23.2003 9.21261 22.8543 9.19311C22.5331 9.17501 22.1618 9.12441 21.843 9.05897C21.6837 9.02628 21.5414 8.9906 21.4274 8.95493C21.3067 8.91719 21.2394 8.88597 21.2141 8.86919C21.0395 8.75307 20.8236 8.57092 20.6106 8.37792C20.4682 8.24881 20.4235 8.14056 20.3708 8.00163C20.3171 7.85991 20.28 7.71385 20.2533 7.53145C20.244 7.46831 20.2443 7.29935 20.2854 7.01421C20.3252 6.73697 20.401 6.3681 20.5299 5.91487C20.5577 5.81719 20.6673 5.59063 20.7817 5.44963C20.8117 5.41277 20.9048 5.33283 21.0508 5.23461C21.189 5.14164 21.349 5.04932 21.49 4.984C21.5406 4.9605 21.6003 4.94413 21.6828 4.92596C21.755 4.91007 21.8589 4.89021 21.9568 4.86008C21.9524 4.86124 21.9628 4.8586 21.9968 4.8579C22.0341 4.85713 22.0848 4.8588 22.1487 4.86324C22.2758 4.87212 22.4391 4.89119 22.6208 4.91779Z" fill="black"/>
<path d="M18.316 6.10896C18.1378 7.06977 18.0655 7.5355 18.1874 7.68697C18.6146 8.21817 19.6042 8.17487 20.0494 8.19532C20.4946 8.21576 20.6655 8.11608 20.7822 7.88265C20.9598 7.29283 21.0258 6.82456 20.965 6.61913C20.8368 6.18667 20.73 5.55911 20.3168 5.49166C19.8471 5.41501 19.2037 5.18121 18.8539 5.50374C18.6885 5.65631 18.3798 5.76499 18.316 6.10896Z" fill="#325530"/>
<path d="M20.2872 5.23494C20.6524 5.28955 20.8499 5.57153 20.9636 5.81387C21.075 6.0512 21.151 6.35446 21.2104 6.5378C21.2646 6.70567 21.2527 6.92806 21.2183 7.14754C21.1819 7.37998 21.1119 7.65604 21.0131 7.9568L21.0052 7.98092L20.9931 8.00327C20.9076 8.15992 20.7872 8.29442 20.5935 8.37545C20.4148 8.45015 20.1996 8.46796 19.9459 8.45728C19.7276 8.44809 19.3098 8.45299 18.9063 8.39268C18.5079 8.33313 18.0403 8.20078 17.7417 7.86047C17.6538 7.76027 17.624 7.63631 17.6133 7.53257C17.6022 7.42534 17.6079 7.302 17.6221 7.16839C17.6508 6.90098 17.7212 6.53567 17.8165 6.06474C17.8692 5.80478 18.0251 5.6405 18.1678 5.53016C18.2368 5.4769 18.3087 5.43175 18.3633 5.39693C18.4233 5.3586 18.4613 5.33348 18.489 5.31002C18.769 5.07338 19.1382 5.06261 19.4366 5.09141C19.5923 5.10643 19.7491 5.13464 19.8922 5.16216C20.0401 5.19061 20.1684 5.21718 20.2872 5.23494ZM19.786 5.70954C19.6452 5.68248 19.5103 5.65873 19.3826 5.64641C19.1141 5.62051 18.9483 5.65346 18.8516 5.73511C18.7903 5.78691 18.72 5.83168 18.6655 5.8664C18.6057 5.90463 18.5567 5.93572 18.5116 5.97051C18.4265 6.03629 18.3819 6.09544 18.3657 6.1749C18.2691 6.65213 18.2047 6.99079 18.1793 7.2276C18.1666 7.34607 18.1655 7.42495 18.1706 7.47555C18.1722 7.49062 18.1741 7.50068 18.1756 7.50679C18.3393 7.68278 18.6291 7.7874 18.9896 7.84128C19.3536 7.89569 19.7084 7.88922 19.9695 7.90021C20.1952 7.90971 20.3118 7.88845 20.3764 7.86142C20.421 7.84275 20.4534 7.81656 20.4888 7.75754C20.5765 7.4871 20.6352 7.2503 20.6647 7.06151C20.6973 6.85386 20.6883 6.74373 20.6771 6.70881C20.5983 6.46539 20.5477 6.24557 20.456 6.04994C20.3664 5.85929 20.2837 5.79827 20.204 5.78632C20.0698 5.76627 19.9219 5.73568 19.786 5.70954Z" fill="black"/>
<path fill-rule="evenodd" clip-rule="evenodd" d="M16.8797 13.0857C16.8895 13.0893 16.8992 13.0926 16.9092 13.0957C17.1951 13.185 17.5 13.1232 17.7245 13.0171C17.9562 12.9075 18.2332 12.6879 18.3398 12.3215C18.3814 12.1784 18.4083 12.0033 18.3717 11.8174C18.332 11.6158 18.2273 11.4502 18.0853 11.3317C17.8476 11.1332 17.539 11.0976 17.3666 11.0829C17.3476 11.0813 17.3253 11.0792 17.3013 11.077C17.2363 11.071 17.1582 11.0637 17.0935 11.0607C16.9998 11.0563 16.8626 11.0553 16.7186 11.0952C16.5576 11.1397 16.4002 11.2316 16.2759 11.3884C16.1614 11.533 16.1021 11.6985 16.0679 11.8484C16.0154 12.0791 16.083 12.2762 16.1315 12.3831C16.1846 12.5006 16.2561 12.6004 16.3191 12.6761C16.433 12.8127 16.6053 12.9712 16.7824 13.0516C16.8144 13.0661 16.847 13.0774 16.8797 13.0857Z" fill="white"/>
<path fill-rule="evenodd" clip-rule="evenodd" d="M8.46709 13.0857C8.4757 13.0893 8.48443 13.0926 8.49328 13.0957C8.74744 13.185 9.01838 13.1232 9.21799 13.0171C9.42395 12.9075 9.67017 12.6879 9.76495 12.3215C9.80196 12.1784 9.8258 12.0033 9.79327 11.8173C9.75803 11.6158 9.66493 11.4502 9.53875 11.3317C9.32744 11.1332 9.05305 11.0976 8.89986 11.0829C8.88293 11.0813 8.86318 11.0792 8.84181 11.077C8.78408 11.071 8.71454 11.0637 8.65706 11.0607C8.57377 11.0563 8.45192 11.0553 8.32387 11.0952C8.18072 11.1397 8.04086 11.2316 7.93035 11.3884C7.8285 11.533 7.77582 11.6985 7.74546 11.8484C7.69874 12.0791 7.75891 12.2762 7.80192 12.3831C7.84921 12.5006 7.91268 12.6004 7.9688 12.6761C8.06999 12.8127 8.22314 12.9712 8.38056 13.0516C8.409 13.0661 8.43794 13.0774 8.46709 13.0857Z" fill="white"/>
<path d="M26.9809 13.4248C27.059 13.3763 27.1602 13.4023 27.2073 13.4829C27.2542 13.5635 27.229 13.6681 27.151 13.7166C25.2439 14.9021 21.985 16.3791 18.3503 16.7129C14.9618 17.0242 12.3274 17.377 7.9578 16.4058C7.86661 16.3856 7.58162 16.2912 7.22144 16.1671C6.85514 16.0407 6.39709 15.8783 5.94926 15.7163C5.50156 15.5542 5.06312 15.3922 4.73624 15.2664C4.57308 15.2036 4.4363 15.1493 4.33966 15.1083C4.2918 15.0881 4.25114 15.0701 4.22136 15.0552C4.20716 15.048 4.19096 15.0394 4.17658 15.0301C4.17006 15.0258 4.15785 15.0175 4.14535 15.0056C4.13916 14.9997 4.12823 14.9885 4.11787 14.9724C4.1086 14.958 4.08984 14.9241 4.08984 14.8766C4.08984 14.7825 4.16366 14.7062 4.25474 14.7062C4.29511 14.7062 4.33204 14.7213 4.3607 14.7462C4.362 14.7469 4.36347 14.7477 4.36511 14.7485C4.38555 14.7587 4.41866 14.7737 4.46484 14.7932C4.55638 14.8321 4.68916 14.8847 4.85143 14.9472C5.17545 15.0719 5.61158 15.2331 6.05834 15.3948C6.505 15.5564 6.96145 15.7182 7.3259 15.8439C7.69646 15.9717 7.95863 16.0574 8.02716 16.0726C12.3422 17.0318 14.9307 16.6851 18.3211 16.3736C21.8935 16.0455 25.1046 14.5912 26.9809 13.4248ZM4.41417 14.8339C4.41376 14.8323 4.41342 14.8308 4.41298 14.8292C4.41342 14.8308 4.41377 14.8324 4.41417 14.8339ZM4.41964 14.8766C4.41964 14.8649 4.41841 14.854 4.41653 14.8441C4.4185 14.8546 4.41964 14.8654 4.41964 14.8766Z" fill="black"/>
<path d="M19.1695 15.8365C19.1795 15.7737 19.2359 15.7313 19.2956 15.7418C19.4294 15.7654 19.6103 15.8351 19.7783 15.9039C19.931 15.9663 20.0748 16.029 20.1856 16.0695L20.231 16.0854L20.2335 16.0862L20.2359 16.0873C20.5013 16.191 20.7181 16.2797 21.1777 16.4136L21.3904 16.4739L21.3926 16.4745C21.5361 16.5173 21.5832 16.5378 21.6735 16.551C21.7334 16.5596 21.7753 16.6179 21.7671 16.6809C21.7587 16.7439 21.7034 16.7879 21.6435 16.7791C21.5335 16.7632 21.4598 16.7341 21.3348 16.6967L21.1182 16.6353C20.6501 16.4989 20.4271 16.4078 20.1594 16.3031H20.1593C20.0357 16.2612 19.8619 16.1853 19.6988 16.1185C19.5268 16.0482 19.3672 15.9881 19.2595 15.9691C19.1998 15.9586 19.1594 15.8992 19.1695 15.8365Z" fill="black"/>
<path d="M21.4317 14.969C21.4951 14.9943 21.5232 15.0598 21.4942 15.1154C21.4293 15.2399 21.3017 15.3988 21.1788 15.5454C21.067 15.6787 20.9578 15.8033 20.8819 15.9012L20.8515 15.9415L20.8498 15.9437L20.8481 15.9458C20.659 16.1786 20.5004 16.3677 20.2216 16.7825L20.0942 16.9747L20.0931 16.9767C20.0048 17.1059 19.9691 17.1467 19.9283 17.2314C19.9011 17.2876 19.827 17.314 19.7627 17.2903C19.6984 17.2665 19.6684 17.2016 19.6955 17.1454C19.7452 17.0423 19.798 16.9777 19.875 16.8651L20.0045 16.6694C20.2885 16.2471 20.4516 16.0526 20.6422 15.8177C20.7236 15.7077 20.8558 15.557 20.9751 15.4145C21.101 15.2645 21.2121 15.1239 21.2644 15.0237C21.2933 14.9682 21.3682 14.9436 21.4317 14.969Z" fill="black"/>
<path d="M15.2701 16.0768C15.2866 16.0182 15.3442 15.9851 15.3989 16.0028C15.5211 16.0425 15.6824 16.1322 15.8316 16.2194C15.9672 16.2986 16.0946 16.3768 16.1935 16.4297L16.2341 16.4508L16.2363 16.4519L16.2385 16.4532C16.4747 16.5863 16.6672 16.6988 17.0817 16.8855L17.2736 16.9705L17.2756 16.9713C17.4049 17.0307 17.4466 17.0563 17.5294 17.0804C17.5845 17.0964 17.617 17.1573 17.6021 17.2164C17.5872 17.2754 17.5304 17.3102 17.4753 17.2941C17.3745 17.2649 17.3088 17.2277 17.1961 17.1758L17.0007 17.0894C16.5787 16.8991 16.3806 16.7835 16.1424 16.6493C16.0316 16.5933 15.8777 16.4986 15.7327 16.4139C15.58 16.3247 15.4376 16.2468 15.3391 16.2148C15.2845 16.1971 15.2535 16.1353 15.2701 16.0768Z" fill="black"/>
<path d="M17.2979 15.7563C17.349 15.7875 17.3647 15.8534 17.333 15.9037C17.2621 16.0162 17.1332 16.1551 17.01 16.2827C16.898 16.3986 16.7892 16.5065 16.7121 16.5924L16.6811 16.6278L16.6795 16.6297L16.6776 16.6315C16.4873 16.8347 16.3283 16.9993 16.0384 17.3675L15.9057 17.5384L15.9044 17.5402C15.8129 17.6547 15.7773 17.6901 15.7319 17.767C15.7017 17.8181 15.6351 17.8355 15.5833 17.8057C15.5315 17.7761 15.5139 17.7104 15.5441 17.6593C15.5993 17.5657 15.6524 17.5093 15.7323 17.4095L15.8673 17.2354C16.1625 16.8606 16.3259 16.6913 16.518 16.4863L16.5181 16.4862C16.6013 16.3893 16.733 16.259 16.8526 16.135C16.9787 16.0045 17.0913 15.8815 17.1484 15.7908C17.1801 15.7406 17.247 15.7252 17.2979 15.7563Z" fill="black"/>
<path d="M10.864 16.0454C10.8933 15.9999 10.9576 15.9844 11.0076 16.0112C11.1198 16.071 11.2592 16.1813 11.3874 16.2869C11.5039 16.3829 11.6125 16.4762 11.6986 16.5421L11.7341 16.5686L11.736 16.57L11.7379 16.5715C11.9419 16.7346 12.1073 16.8708 12.4756 17.1176L12.6466 17.2306L12.6483 17.2316C12.763 17.3096 12.7985 17.3401 12.8751 17.3782C12.9259 17.4036 12.9446 17.4619 12.9168 17.5083C12.889 17.5547 12.8252 17.5717 12.7742 17.5463C12.6811 17.4998 12.6245 17.4544 12.5246 17.3864L12.3505 17.2715C11.9755 17.0201 11.8053 16.8801 11.5995 16.7156C11.5024 16.6445 11.3711 16.5316 11.2466 16.4291C11.1154 16.3209 10.9919 16.2247 10.9016 16.1764C10.8516 16.1497 10.8347 16.0911 10.864 16.0454Z" fill="black"/>
<path d="M12.9003 16.0279C12.9398 16.0674 12.9395 16.1311 12.8995 16.1701C12.8098 16.2577 12.6613 16.3567 12.5206 16.4467C12.3927 16.5285 12.2695 16.6036 12.1802 16.6653L12.144 16.691L12.1421 16.6924L12.14 16.6938C11.9212 16.8382 11.7397 16.9542 11.3935 17.2281L11.2345 17.3556L11.2329 17.3569C11.124 17.4419 11.0837 17.4664 11.0252 17.527C10.9864 17.5671 10.9218 17.5686 10.8811 17.5302C10.8404 17.4919 10.839 17.4281 10.8778 17.3879C10.949 17.3143 11.01 17.2742 11.105 17.2003L11.2668 17.0704C11.6193 16.7917 11.806 16.6722 12.0268 16.5265L12.0268 16.5264C12.1242 16.4557 12.2732 16.3651 12.4099 16.2778C12.5539 16.1857 12.6839 16.0976 12.7562 16.0271C12.7961 15.988 12.8607 15.9884 12.9003 16.0279Z" fill="black"/>
<path d="M7.23957 14.9881C7.28274 14.9466 7.34967 14.9498 7.38901 14.9954C7.47719 15.0976 7.57505 15.2646 7.6636 15.4228C7.74408 15.5667 7.81783 15.705 7.87893 15.8057L7.90437 15.8464L7.90576 15.8486L7.90707 15.8509C8.04965 16.0971 8.16393 16.3012 8.43702 16.6928L8.56429 16.8727L8.5656 16.8745C8.65024 16.9976 8.6744 17.0429 8.73546 17.1097C8.77604 17.154 8.77488 17.2249 8.73285 17.2678C8.69082 17.3106 8.6238 17.3092 8.58322 17.2649C8.50889 17.1835 8.46938 17.1149 8.39568 17.0076L8.26607 16.8245C7.98802 16.4258 7.87042 16.2159 7.72656 15.9674C7.65651 15.8576 7.56746 15.6903 7.48143 15.5365C7.39083 15.3746 7.30366 15.2282 7.23268 15.146C7.19335 15.1004 7.19641 15.0297 7.23957 14.9881Z" fill="black"/>
<path d="M9.27334 15.5402C9.30127 15.5944 9.28015 15.6611 9.22612 15.6891C9.10499 15.7519 8.91952 15.808 8.74493 15.8568C8.58624 15.9012 8.4346 15.9402 8.32223 15.9761L8.27656 15.9913L8.27414 15.9922L8.27155 15.993C7.99857 16.0737 7.77336 16.1369 7.32678 16.3121L7.12101 16.3946L7.11898 16.3954C6.97892 16.4493 6.92927 16.4621 6.84919 16.5066C6.79598 16.5362 6.72885 16.5169 6.69934 16.4635C6.66986 16.4102 6.6892 16.3429 6.74241 16.3132C6.83988 16.2591 6.91589 16.2368 7.038 16.1898L7.24741 16.1059C7.70217 15.9274 7.9338 15.8625 8.20922 15.7809C8.33272 15.7382 8.51617 15.6914 8.68578 15.6438C8.86442 15.5939 9.02733 15.5434 9.12485 15.4929C9.17889 15.4648 9.24539 15.486 9.27334 15.5402Z" fill="black"/>
<path d="M16.3378 12.0962C16.3942 12.4068 16.8402 12.6939 17.05 12.8784C17.2053 12.7634 17.4242 12.689 17.5447 12.6245C17.7586 12.5099 18.1066 12.4252 18.127 12.0586C18.1473 11.692 17.9799 11.5163 17.8878 11.438C17.7383 11.311 17.4007 11.3065 17.2986 11.5299C17.2883 11.5525 17.2202 11.9412 17.1709 11.7216C17.1485 11.6224 17.0833 11.4411 16.9867 11.3831C16.7987 11.2704 16.4941 11.3071 16.4095 11.4758C16.2756 11.7428 16.3014 11.8951 16.3378 12.0962Z" fill="#CC2936"/>
<path d="M8.07504 12.2915C8.1897 12.5711 8.67722 12.7486 8.91621 12.8784C9.04442 12.7387 9.24201 12.624 9.34634 12.5387C9.53139 12.3874 9.85215 12.2365 9.80095 11.8888C9.74976 11.541 9.55361 11.4107 9.44919 11.3562C9.27984 11.2679 8.95188 11.333 8.89622 11.5634C8.89061 11.5867 8.89979 11.965 8.80955 11.7693C8.76878 11.6809 8.67041 11.5244 8.56562 11.4899C8.36184 11.4228 8.07375 11.5199 8.02444 11.6953C7.94637 11.9731 8.00082 12.1106 8.07504 12.2915Z" fill="#CC2936"/>
<path d="M238.326 22.1568C238.15 22.1568 237.998 22.0968 237.87 21.9768C237.742 21.8488 237.678 21.6968 237.678 21.5208C237.678 21.3448 237.742 21.1968 237.87 21.0768C237.998 20.9488 238.15 20.8848 238.326 20.8848H241.038C241.214 20.8848 241.366 20.9488 241.494 21.0768C241.622 21.1968 241.686 21.3448 241.686 21.5208C241.686 21.6968 241.622 21.8488 241.494 21.9768C241.366 22.0968 241.214 22.1568 241.038 22.1568H238.326Z" fill="#282828"/>
<path d="M226.025 19.2759C225.849 19.2759 225.697 19.2159 225.569 19.0959C225.449 18.9679 225.389 18.8159 225.389 18.6399C225.389 18.4639 225.449 18.3159 225.569 18.1959C225.697 18.0679 225.849 18.0039 226.025 18.0039H229.865C229.937 18.0039 229.973 17.9679 229.973 17.8959V17.1879C229.973 17.1159 229.937 17.0799 229.865 17.0799H226.625C226.457 17.0799 226.313 17.0239 226.193 16.9119C226.081 16.7919 226.025 16.6479 226.025 16.4799C226.025 16.3119 226.081 16.1719 226.193 16.0599C226.313 15.9399 226.457 15.8799 226.625 15.8799H229.865C229.937 15.8799 229.973 15.8439 229.973 15.7719V15.6759C229.973 15.4919 230.037 15.3359 230.165 15.2079C230.301 15.0719 230.461 15.0039 230.645 15.0039H230.933C231.117 15.0039 231.273 15.0719 231.401 15.2079C231.537 15.3359 231.605 15.4919 231.605 15.6759V15.7719C231.605 15.8439 231.641 15.8799 231.713 15.8799H234.953C235.121 15.8799 235.261 15.9399 235.373 16.0599C235.493 16.1719 235.553 16.3119 235.553 16.4799C235.553 16.6479 235.493 16.7919 235.373 16.9119C235.261 17.0239 235.121 17.0799 234.953 17.0799H231.713C231.641 17.0799 231.605 17.1159 231.605 17.1879V17.8959C231.605 17.9679 231.641 18.0039 231.713 18.0039H235.553C235.729 18.0039 235.877 18.0679 235.997 18.1959C236.125 18.3159 236.189 18.4639 236.189 18.6399C236.189 18.8159 236.125 18.9679 235.997 19.0959C235.877 19.2159 235.729 19.2759 235.553 19.2759H234.329C234.257 19.2759 234.229 19.3079 234.245 19.3719C234.261 19.4759 234.249 19.5799 234.209 19.6839C233.993 20.2199 233.801 20.6559 233.633 20.9919C233.625 21.0079 233.625 21.0279 233.633 21.0519C233.649 21.0679 233.669 21.0759 233.693 21.0759H235.433C235.609 21.0759 235.757 21.1399 235.877 21.2679C236.005 21.3959 236.069 21.5479 236.069 21.7239C236.069 21.8999 236.005 22.0519 235.877 22.1799C235.757 22.2999 235.609 22.3599 235.433 22.3599H231.713C231.641 22.3599 231.605 22.3959 231.605 22.4679V23.2839C231.605 23.3479 231.641 23.3799 231.713 23.3799H235.109C235.277 23.3799 235.417 23.4399 235.529 23.5599C235.649 23.6719 235.709 23.8119 235.709 23.9799C235.709 24.1479 235.649 24.2919 235.529 24.4119C235.417 24.5239 235.277 24.5799 235.109 24.5799H231.713C231.641 24.5799 231.605 24.6159 231.605 24.6879V25.5639C231.605 25.7479 231.537 25.9039 231.401 26.0319C231.273 26.1679 231.117 26.2359 230.933 26.2359H230.645C230.461 26.2359 230.301 26.1679 230.165 26.0319C230.037 25.9039 229.973 25.7479 229.973 25.5639V24.6879C229.973 24.6159 229.937 24.5799 229.865 24.5799H226.469C226.301 24.5799 226.157 24.5239 226.037 24.4119C225.925 24.2919 225.869 24.1479 225.869 23.9799C225.869 23.8119 225.925 23.6719 226.037 23.5599C226.157 23.4399 226.301 23.3799 226.469 23.3799H229.865C229.937 23.3799 229.973 23.3479 229.973 23.2839V22.4679C229.973 22.3959 229.937 22.3599 229.865 22.3599H226.145C225.969 22.3599 225.817 22.2999 225.689 22.1799C225.569 22.0519 225.509 21.8999 225.509 21.7239C225.509 21.5479 225.569 21.3959 225.689 21.2679C225.817 21.1399 225.969 21.0759 226.145 21.0759H227.885C227.949 21.0759 227.973 21.0479 227.957 20.9919C227.765 20.3999 227.617 19.9599 227.513 19.6719C227.473 19.5759 227.461 19.4759 227.477 19.3719C227.493 19.3079 227.469 19.2759 227.405 19.2759H226.025ZM232.589 19.2759H229.145C229.081 19.2759 229.057 19.3119 229.073 19.3839C229.217 19.7839 229.357 20.1919 229.493 20.6079C229.525 20.7359 229.525 20.8599 229.493 20.9799C229.477 21.0439 229.497 21.0759 229.553 21.0759H231.797C231.861 21.0759 231.905 21.0439 231.929 20.9799C231.929 20.9719 231.933 20.9599 231.941 20.9439C232.205 20.4319 232.441 19.9079 232.649 19.3719C232.665 19.3079 232.645 19.2759 232.589 19.2759Z" fill="#282828"/>
<path d="M218.346 15.6393C218.522 15.5673 218.698 15.5633 218.874 15.6273C219.058 15.6913 219.19 15.8113 219.27 15.9873C219.462 16.3953 219.638 16.7873 219.798 17.1633C219.87 17.3393 219.87 17.5153 219.798 17.6913C219.734 17.8593 219.614 17.9793 219.438 18.0513L219.414 18.0633C219.238 18.1353 219.062 18.1353 218.886 18.0633C218.718 17.9833 218.594 17.8553 218.514 17.6793C218.266 17.1193 218.09 16.7273 217.986 16.5033C217.906 16.3353 217.898 16.1673 217.962 15.9993C218.034 15.8233 218.154 15.7033 218.322 15.6393H218.346ZM223.854 15.5553C224.03 15.6193 224.158 15.7353 224.238 15.9033C224.318 16.0713 224.326 16.2433 224.262 16.4193C224.118 16.7873 223.938 17.2153 223.722 17.7033C223.642 17.8793 223.514 18.0033 223.338 18.0753C223.17 18.1393 222.994 18.1393 222.81 18.0753L222.738 18.0513C222.562 17.9873 222.438 17.8673 222.366 17.6913C222.302 17.5153 222.31 17.3433 222.39 17.1753C222.702 16.4393 222.878 16.0233 222.918 15.9273C222.982 15.7513 223.098 15.6273 223.266 15.5553C223.442 15.4753 223.618 15.4673 223.794 15.5313L223.854 15.5553ZM213.222 25.1673L213.21 25.1193C213.194 24.9353 213.246 24.7713 213.366 24.6273C213.486 24.4753 213.638 24.3833 213.822 24.3513C213.934 24.3353 214.246 24.2793 214.758 24.1833C214.838 24.1673 214.878 24.1233 214.878 24.0513V21.7353C214.878 21.6713 214.842 21.6393 214.77 21.6393H214.626C214.562 21.6393 214.53 21.6713 214.53 21.7353C214.53 21.8953 214.47 22.0353 214.35 22.1553C214.238 22.2673 214.102 22.3233 213.942 22.3233C213.782 22.3233 213.642 22.2673 213.522 22.1553C213.41 22.0353 213.354 21.8953 213.354 21.7353V17.3193C213.354 17.1353 213.422 16.9753 213.558 16.8393C213.694 16.7033 213.854 16.6353 214.038 16.6353H214.53H214.734C214.798 16.6353 214.83 16.6033 214.83 16.5393V15.9153C214.83 15.7313 214.898 15.5753 215.034 15.4473C215.17 15.3113 215.33 15.2433 215.514 15.2433H215.67C215.854 15.2433 216.014 15.3113 216.15 15.4473C216.286 15.5753 216.354 15.7313 216.354 15.9153V16.5393C216.354 16.6033 216.39 16.6353 216.462 16.6353H216.654H217.074C217.258 16.6353 217.418 16.7033 217.554 16.8393C217.69 16.9753 217.758 17.1353 217.758 17.3193V20.9553C217.758 21.1393 217.69 21.2993 217.554 21.4353C217.418 21.5713 217.258 21.6393 217.074 21.6393H216.414C216.35 21.6393 216.318 21.6713 216.318 21.7353V23.7273C216.318 23.7913 216.35 23.8153 216.414 23.7993L216.954 23.6553C217.018 23.6393 217.042 23.5993 217.026 23.5353C216.978 23.3593 216.898 23.1033 216.786 22.7673C216.738 22.6153 216.75 22.4713 216.822 22.3353C216.902 22.1913 217.018 22.0993 217.17 22.0593C217.33 22.0193 217.482 22.0353 217.626 22.1073C217.77 22.1793 217.866 22.2913 217.914 22.4433C218.002 22.7313 218.086 23.0313 218.166 23.3433C218.166 23.3513 218.17 23.3553 218.178 23.3553C218.186 23.3553 218.19 23.3513 218.19 23.3433V19.1193C218.19 18.9353 218.258 18.7753 218.394 18.6393C218.53 18.5033 218.69 18.4353 218.874 18.4353H220.23C220.302 18.4353 220.338 18.4033 220.338 18.3393V15.8793C220.338 15.6953 220.402 15.5353 220.53 15.3993C220.666 15.2633 220.826 15.1953 221.01 15.1953H221.13C221.314 15.1953 221.474 15.2633 221.61 15.3993C221.746 15.5353 221.814 15.6953 221.814 15.8793V18.3393C221.814 18.4033 221.85 18.4353 221.922 18.4353H223.53C223.714 18.4353 223.874 18.5033 224.01 18.6393C224.146 18.7753 224.214 18.9353 224.214 19.1193V24.1593C224.214 24.4953 224.21 24.7513 224.202 24.9273C224.202 25.0953 224.178 25.2593 224.13 25.4193C224.09 25.5873 224.042 25.6993 223.986 25.7553C223.938 25.8193 223.842 25.8753 223.698 25.9233C223.562 25.9793 223.418 26.0073 223.266 26.0073C223.122 26.0153 222.906 26.0193 222.618 26.0193C222.554 26.0193 222.298 26.0113 221.85 25.9953C221.666 25.9873 221.51 25.9113 221.382 25.7673C221.254 25.6313 221.186 25.4713 221.178 25.2873C221.17 25.1113 221.23 24.9593 221.358 24.8313C221.486 24.7033 221.642 24.6473 221.826 24.6633C221.986 24.6713 222.15 24.6753 222.318 24.6753C222.486 24.6753 222.582 24.6553 222.606 24.6153C222.638 24.5673 222.654 24.4033 222.654 24.1233V23.8953C222.654 23.8233 222.622 23.7873 222.558 23.7873H219.834C219.77 23.7873 219.738 23.8233 219.738 23.8953V25.3593C219.738 25.5433 219.67 25.7033 219.534 25.8393C219.398 25.9753 219.238 26.0433 219.054 26.0433H218.874C218.586 26.0433 218.382 25.9153 218.262 25.6593C218.23 25.5953 218.186 25.5753 218.13 25.5993C218.122 25.5993 218.118 25.5993 218.118 25.5993C218.118 25.6073 218.114 25.6113 218.106 25.6113C217.962 25.6513 217.822 25.6313 217.686 25.5513C217.558 25.4793 217.478 25.3673 217.446 25.2153L217.41 25.0353C217.394 24.9633 217.354 24.9353 217.29 24.9513C216.154 25.3033 215.042 25.5673 213.954 25.7433C213.77 25.7753 213.606 25.7313 213.462 25.6113C213.318 25.4993 213.238 25.3513 213.222 25.1673ZM219.738 19.8273V20.4033C219.738 20.4753 219.77 20.5113 219.834 20.5113H222.558C222.622 20.5113 222.654 20.4753 222.654 20.4033V19.8273C222.654 19.7633 222.622 19.7313 222.558 19.7313H219.834C219.77 19.7313 219.738 19.7633 219.738 19.8273ZM219.738 21.8313V22.4673C219.738 22.5393 219.77 22.5753 219.834 22.5753H222.558C222.622 22.5753 222.654 22.5393 222.654 22.4673V21.8313C222.654 21.7673 222.622 21.7353 222.558 21.7353H219.834C219.77 21.7353 219.738 21.7673 219.738 21.8313ZM216.234 18.0633V20.2593C216.234 20.3233 216.27 20.3553 216.342 20.3553H216.558C216.622 20.3553 216.654 20.3233 216.654 20.2593V18.0633C216.654 17.9913 216.622 17.9553 216.558 17.9553H216.342C216.27 17.9553 216.234 17.9913 216.234 18.0633ZM214.854 20.3553C214.918 20.3553 214.95 20.3233 214.95 20.2593V18.0633C214.95 17.9913 214.918 17.9553 214.854 17.9553H214.638C214.566 17.9553 214.53 17.9913 214.53 18.0633V20.2593C214.53 20.3233 214.566 20.3553 214.638 20.3553H214.854Z" fill="#282828"/>
<path d="M201.45 18.1126L201.402 17.9686C201.338 17.7766 201.334 17.5846 201.39 17.3926C201.446 17.2006 201.554 17.0406 201.714 16.9126C202.194 16.5126 202.622 16.0766 202.998 15.6046C203.11 15.4606 203.258 15.3766 203.442 15.3526C203.626 15.3206 203.794 15.3566 203.946 15.4606C204.098 15.5726 204.19 15.7206 204.222 15.9046C204.254 16.0886 204.214 16.2606 204.102 16.4206C203.486 17.2606 202.862 17.9126 202.23 18.3766C202.094 18.4806 201.942 18.5046 201.774 18.4486C201.614 18.3846 201.506 18.2726 201.45 18.1126ZM211.818 15.5566C212.002 15.5566 212.162 15.6246 212.298 15.7606C212.434 15.8966 212.502 16.0566 212.502 16.2406V23.1166C212.502 23.8126 212.442 24.2606 212.322 24.4606C212.202 24.6526 211.91 24.7526 211.446 24.7606C211.254 24.7686 211.082 24.7086 210.93 24.5806C210.786 24.4446 210.694 24.2806 210.654 24.0886L210.642 24.0286C210.618 23.9006 210.682 23.7486 210.834 23.5726C210.986 23.3886 211.066 23.2446 211.074 23.1406C211.082 23.0846 211.086 22.9726 211.086 22.8046V16.9846C211.086 16.9126 211.054 16.8766 210.99 16.8766H210.594C210.522 16.8766 210.486 16.9126 210.486 16.9846V25.4446C210.486 25.6286 210.418 25.7846 210.282 25.9126C210.146 26.0486 209.986 26.1166 209.802 26.1166H209.742C209.558 26.1166 209.398 26.0486 209.262 25.9126C209.126 25.7846 209.058 25.6286 209.058 25.4446V16.2406C209.058 16.0566 209.126 15.8966 209.262 15.7606C209.398 15.6246 209.558 15.5566 209.742 15.5566H211.818ZM208.122 23.5006C208.282 23.4606 208.422 23.4886 208.542 23.5846C208.67 23.6726 208.738 23.7966 208.746 23.9566C208.754 24.1406 208.702 24.3126 208.59 24.4726C208.478 24.6246 208.334 24.7246 208.158 24.7726C207.078 25.0766 205.874 25.3526 204.546 25.6006C204.37 25.6326 204.206 25.5966 204.054 25.4926C203.91 25.3886 203.826 25.2446 203.802 25.0606L203.778 24.8326C203.762 24.7126 203.79 24.6046 203.862 24.5086C203.934 24.4046 204.03 24.3446 204.15 24.3286C204.19 24.3126 204.21 24.2886 204.21 24.2566V21.2566C204.21 21.0886 204.27 20.9446 204.39 20.8246C204.51 20.7046 204.654 20.6446 204.822 20.6446C204.99 20.6446 205.134 20.7046 205.254 20.8246C205.374 20.9446 205.434 21.0886 205.434 21.2566V23.9926C205.434 24.0646 205.47 24.0926 205.542 24.0766C205.582 24.0686 205.638 24.0606 205.71 24.0526C205.782 24.0366 205.834 24.0246 205.866 24.0166C205.93 24.0006 205.962 23.9566 205.962 23.8846V20.0686C205.962 19.9966 205.93 19.9606 205.866 19.9606H204.774C204.606 19.9606 204.47 19.9126 204.366 19.8166C204.35 19.8006 204.326 19.7926 204.294 19.7926C204.262 19.7926 204.242 19.8046 204.234 19.8286C203.97 20.2046 203.774 20.4686 203.646 20.6206C203.598 20.6846 203.574 20.7446 203.574 20.8006V25.4446C203.574 25.6286 203.506 25.7846 203.37 25.9126C203.242 26.0486 203.086 26.1166 202.902 26.1166H202.782C202.598 26.1166 202.438 26.0486 202.302 25.9126C202.166 25.7846 202.098 25.6286 202.098 25.4446V22.0606C202.098 22.0446 202.09 22.0326 202.074 22.0246C202.058 22.0166 202.042 22.0206 202.026 22.0366C202.002 22.0606 201.966 22.0966 201.918 22.1446C201.878 22.1926 201.846 22.2286 201.822 22.2526C201.71 22.3566 201.582 22.3846 201.438 22.3366C201.294 22.2886 201.21 22.1886 201.186 22.0366L201.126 21.7246C201.054 21.2926 201.194 20.9206 201.546 20.6086C202.186 20.0486 202.754 19.3966 203.25 18.6526C203.362 18.4926 203.506 18.3926 203.682 18.3526C203.866 18.3126 204.038 18.3406 204.198 18.4366L204.27 18.4726C204.35 18.5286 204.414 18.5846 204.462 18.6406C204.502 18.6886 204.55 18.7086 204.606 18.7006C204.67 18.6846 204.726 18.6766 204.774 18.6766H205.866C205.93 18.6766 205.962 18.6446 205.962 18.5806V17.6206C205.962 17.5566 205.93 17.5246 205.866 17.5246H205.71C205.638 17.5246 205.586 17.5526 205.554 17.6086C205.49 17.7366 205.41 17.8646 205.314 17.9926C205.21 18.1446 205.066 18.2326 204.882 18.2566C204.698 18.2806 204.53 18.2366 204.378 18.1246L204.354 18.1126C204.21 18.0006 204.126 17.8526 204.102 17.6686C204.078 17.4766 204.118 17.3046 204.222 17.1526C204.526 16.6886 204.778 16.1846 204.978 15.6406C205.042 15.4646 205.15 15.3286 205.302 15.2326C205.462 15.1286 205.634 15.0926 205.818 15.1246C205.994 15.1566 206.134 15.2486 206.238 15.4006C206.342 15.5446 206.366 15.7006 206.31 15.8686C206.302 15.9086 206.286 15.9606 206.262 16.0246C206.238 16.0886 206.218 16.1406 206.202 16.1806C206.186 16.2446 206.21 16.2766 206.274 16.2766H208.026C208.202 16.2766 208.346 16.3366 208.458 16.4566C208.578 16.5766 208.638 16.7246 208.638 16.9006C208.638 17.0766 208.578 17.2246 208.458 17.3446C208.346 17.4646 208.202 17.5246 208.026 17.5246H207.558C207.494 17.5246 207.462 17.5566 207.462 17.6206V18.5806C207.462 18.6446 207.494 18.6766 207.558 18.6766H208.086C208.262 18.6766 208.41 18.7406 208.53 18.8686C208.658 18.9966 208.722 19.1486 208.722 19.3246C208.722 19.5006 208.658 19.6526 208.53 19.7806C208.41 19.9006 208.262 19.9606 208.086 19.9606H207.558C207.494 19.9606 207.462 19.9966 207.462 20.0686V20.9926C207.462 21.0646 207.494 21.1006 207.558 21.1006H208.038C208.206 21.1006 208.346 21.1606 208.458 21.2806C208.578 21.3926 208.638 21.5326 208.638 21.7006C208.638 21.8686 208.578 22.0126 208.458 22.1326C208.346 22.2446 208.206 22.3006 208.038 22.3006H207.558C207.494 22.3006 207.462 22.3366 207.462 22.4086V23.5606C207.462 23.6246 207.498 23.6486 207.57 23.6326C207.626 23.6166 207.714 23.5966 207.834 23.5726C207.962 23.5406 208.058 23.5166 208.122 23.5006Z" fill="#282828"/>
<path d="M196.537 22.1568C196.361 22.1568 196.209 22.0968 196.081 21.9768C195.953 21.8488 195.889 21.6968 195.889 21.5208C195.889 21.3448 195.953 21.1968 196.081 21.0768C196.209 20.9488 196.361 20.8848 196.537 20.8848H199.249C199.425 20.8848 199.577 20.9488 199.705 21.0768C199.833 21.1968 199.897 21.3448 199.897 21.5208C199.897 21.6968 199.833 21.8488 199.705 21.9768C199.577 22.0968 199.425 22.1568 199.249 22.1568H196.537Z" fill="#282828"/>
<path d="M183.495 5.82047C183.695 5.50047 183.985 5.28047 184.365 5.16047C184.745 5.04047 185.215 4.98047 185.775 4.98047C186.355 4.98047 186.815 5.03047 187.155 5.13047C187.495 5.23047 187.755 5.35047 187.935 5.49047C188.115 5.63047 188.245 5.84047 188.325 6.12047C188.445 6.46047 188.505 6.98047 188.505 7.68047V16.7405C188.505 19.3805 187.685 21.7805 186.045 23.9405C185.245 24.9605 184.215 25.7905 182.955 26.4305C181.695 27.0505 180.295 27.3605 178.755 27.3605C177.235 27.3605 175.845 27.0405 174.585 26.4005C173.345 25.7605 172.335 24.9205 171.555 23.8805C169.935 21.7605 169.125 19.3605 169.125 16.6805V7.65047C169.125 7.17047 169.135 6.82047 169.155 6.60047C169.195 6.36047 169.295 6.09047 169.455 5.79047C169.615 5.49047 169.885 5.28047 170.265 5.16047C170.645 5.04047 171.155 4.98047 171.795 4.98047C172.435 4.98047 172.945 5.04047 173.325 5.16047C173.705 5.28047 173.965 5.49047 174.105 5.79047C174.345 6.25047 174.465 6.88047 174.465 7.68047V16.6805C174.465 17.9005 174.765 19.0605 175.365 20.1605C175.665 20.7205 176.115 21.1705 176.715 21.5105C177.315 21.8505 178.025 22.0205 178.845 22.0205C180.305 22.0205 181.395 21.4805 182.115 20.4005C182.835 19.3205 183.195 18.0705 183.195 16.6505V7.47047C183.195 6.69047 183.295 6.14047 183.495 5.82047Z" fill="#282828"/>
<path d="M154.457 4.74023C157.417 4.74023 159.987 5.81023 162.167 7.95023C164.347 10.0902 165.438 12.7502 165.438 15.9302C165.438 19.0902 164.398 21.7902 162.318 24.0302C160.238 26.2502 157.677 27.3602 154.637 27.3602C151.597 27.3602 149.008 26.2602 146.868 24.0602C144.748 21.8602 143.688 19.2402 143.688 16.2002C143.688 14.5402 143.988 12.9902 144.588 11.5502C145.188 10.0902 145.988 8.87024 146.988 7.89023C147.988 6.91023 149.137 6.14023 150.438 5.58023C151.738 5.02023 153.077 4.74023 154.457 4.74023ZM148.997 16.0502C148.997 17.8302 149.567 19.2802 150.707 20.4002C151.867 21.5002 153.157 22.0502 154.577 22.0502C155.997 22.0502 157.278 21.5102 158.418 20.4302C159.558 19.3502 160.128 17.9002 160.128 16.0802C160.128 14.2602 159.548 12.8002 158.388 11.7002C157.248 10.6002 155.968 10.0502 154.548 10.0502C153.128 10.0502 151.847 10.6102 150.707 11.7302C149.567 12.8302 148.997 14.2702 148.997 16.0502Z" fill="#282828"/>
<path d="M134.781 15.9604C137.841 18.9004 140.011 21.1104 141.291 22.5904C141.951 23.3304 142.281 23.9604 142.281 24.4804C142.281 24.9804 141.881 25.5804 141.081 26.2804C140.281 26.9604 139.621 27.3004 139.101 27.3004C138.601 27.3004 137.991 26.8804 137.271 26.0404L130.671 18.5104V24.3604C130.671 24.8404 130.651 25.1904 130.611 25.4104C130.591 25.6304 130.501 25.8904 130.341 26.1904C130.061 26.7304 129.281 27.0004 128.001 27.0004C126.601 27.0004 125.781 26.6204 125.541 25.8604C125.421 25.5404 125.361 25.0304 125.361 24.3304V7.65039C125.361 7.19039 125.371 6.85039 125.391 6.63039C125.431 6.39039 125.531 6.12039 125.691 5.82039C125.971 5.28039 126.751 5.01039 128.031 5.01039C129.431 5.01039 130.261 5.38039 130.521 6.12039C130.621 6.46039 130.671 6.98039 130.671 7.68039V13.4104C133.391 10.3504 135.591 7.84039 137.271 5.88039C137.971 5.06039 138.581 4.65039 139.101 4.65039C139.621 4.65039 140.281 5.00039 141.081 5.70039C141.881 6.38039 142.281 6.98039 142.281 7.50039C142.281 8.00039 141.981 8.60039 141.381 9.30039C140.221 10.6404 138.421 12.4804 135.981 14.8204L134.781 15.9604Z" fill="#282828"/>
<path d="M113.387 6.57172L121.487 23.3117C121.827 23.9917 121.997 24.5017 121.997 24.8417C121.997 25.5617 121.417 26.2117 120.257 26.7917C119.577 27.1317 119.037 27.3017 118.637 27.3017C118.257 27.3017 117.937 27.2117 117.677 27.0317C117.437 26.8517 117.257 26.6617 117.137 26.4617C117.037 26.2617 116.887 25.9617 116.687 25.5617L115.127 22.3217H106.817L105.257 25.5617C105.057 25.9617 104.897 26.2517 104.777 26.4317C104.677 26.6117 104.497 26.8017 104.237 27.0017C103.997 27.1817 103.677 27.2717 103.277 27.2717C102.897 27.2717 102.367 27.1017 101.687 26.7617C100.527 26.2017 99.9473 25.5617 99.9473 24.8417C99.9473 24.5017 100.117 23.9917 100.457 23.3117L108.557 6.54172C108.777 6.08172 109.107 5.71172 109.547 5.43172C110.007 5.15172 110.487 5.01172 110.987 5.01172C112.067 5.01172 112.867 5.53172 113.387 6.57172ZM110.957 13.7717L108.977 17.8817H112.967L110.957 13.7717Z" fill="#282828"/>
<path d="M82.981 4.98047H99.661C100.301 4.98047 100.771 5.06047 101.071 5.22047C101.371 5.36047 101.571 5.59047 101.671 5.91047C101.771 6.23047 101.821 6.65047 101.821 7.17047C101.821 7.69047 101.771 8.11047 101.671 8.43047C101.571 8.73047 101.401 8.94047 101.161 9.06047C100.801 9.24047 100.291 9.33047 99.631 9.33047H93.901V24.4205C93.901 24.8805 93.881 25.2205 93.841 25.4405C93.821 25.6605 93.731 25.9205 93.571 26.2205C93.431 26.5005 93.171 26.7005 92.791 26.8205C92.411 26.9405 91.911 27.0005 91.291 27.0005C90.671 27.0005 90.171 26.9405 89.791 26.8205C89.431 26.7005 89.171 26.5005 89.011 26.2205C88.871 25.9205 88.781 25.6605 88.741 25.4405C88.721 25.2005 88.711 24.8505 88.711 24.3905V9.33047H82.951C82.311 9.33047 81.841 9.26047 81.541 9.12047C81.241 8.96047 81.041 8.72047 80.941 8.40047C80.841 8.08047 80.791 7.66047 80.791 7.14047C80.791 6.62047 80.841 6.21047 80.941 5.91047C81.041 5.59047 81.211 5.37047 81.451 5.25047C81.811 5.07047 82.321 4.98047 82.981 4.98047Z" fill="#282828"/>
<path d="M68.6606 4.74023C71.6206 4.74023 74.1906 5.81023 76.3706 7.95023C78.5506 10.0902 79.6406 12.7502 79.6406 15.9302C79.6406 19.0902 78.6006 21.7902 76.5206 24.0302C74.4406 26.2502 71.8806 27.3602 68.8406 27.3602C65.8006 27.3602 63.2106 26.2602 61.0706 24.0602C58.9506 21.8602 57.8906 19.2402 57.8906 16.2002C57.8906 14.5402 58.1906 12.9902 58.7906 11.5502C59.3906 10.0902 60.1906 8.87024 61.1906 7.89023C62.1906 6.91023 63.3406 6.14023 64.6406 5.58023C65.9406 5.02023 67.2806 4.74023 68.6606 4.74023ZM63.2006 16.0502C63.2006 17.8302 63.7706 19.2802 64.9106 20.4002C66.0706 21.5002 67.3606 22.0502 68.7806 22.0502C70.2006 22.0502 71.4806 21.5102 72.6206 20.4302C73.7606 19.3502 74.3306 17.9002 74.3306 16.0802C74.3306 14.2602 73.7506 12.8002 72.5906 11.7002C71.4506 10.6002 70.1706 10.0502 68.7506 10.0502C67.3306 10.0502 66.0506 10.6102 64.9106 11.7302C63.7706 12.8302 63.2006 14.2702 63.2006 16.0502Z" fill="#282828"/>
<path d="M46.66 13.7411H51.94C53.02 13.7811 53.68 14.0611 53.92 14.5811C54.12 14.9611 54.22 15.5211 54.22 16.2611V22.8611C54.22 23.5011 53.94 24.1111 53.38 24.6911C51.7 26.4311 49.18 27.3011 45.82 27.3011C42.84 27.3011 40.25 26.1811 38.05 23.9411C35.85 21.6811 34.75 18.9611 34.75 15.7811C34.75 12.6011 35.87 9.95109 38.11 7.83109C40.35 5.69109 42.99 4.62109 46.03 4.62109C48.39 4.62109 50.62 5.40109 52.72 6.96109C53.26 7.36109 53.53 7.8111 53.53 8.31109C53.53 8.79109 53.3 9.35109 52.84 9.99109C52.06 11.0511 51.35 11.5811 50.71 11.5811C50.33 11.5811 49.72 11.3111 48.88 10.7711C48.04 10.2111 47.04 9.9311 45.88 9.9311C44.36 9.9311 43.01 10.4711 41.83 11.5511C40.65 12.6111 40.06 14.0111 40.06 15.7511C40.06 17.4711 40.66 18.9411 41.86 20.1611C43.06 21.3611 44.42 21.9611 45.94 21.9611C47.04 21.9611 48.03 21.7811 48.91 21.4211V18.1511H46.54C45.92 18.1511 45.48 18.0711 45.22 17.9111C44.96 17.7511 44.79 17.5211 44.71 17.2211C44.63 16.9011 44.59 16.4811 44.59 15.9611C44.59 15.4211 44.63 14.9911 44.71 14.6711C44.81 14.3511 44.98 14.1311 45.22 14.0111C45.58 13.8311 46.06 13.7411 46.66 13.7411Z" fill="#282828"/>
</svg>
