<svg width="74" height="60" viewBox="0 0 74 60" fill="none" xmlns="http://www.w3.org/2000/svg">
<mask id="mask0_1_2534" style="mask-type:alpha" maskUnits="userSpaceOnUse" x="0" y="0" width="74" height="60">
<rect width="74" height="60" fill="#D9D9D9"/>
</mask>
<g mask="url(#mask0_1_2534)">
<g filter="url(#filter0_d_1_2534)">
<path d="M54.5003 61.1509C54.3907 59.1426 54.3138 58.2827 53.9857 57.9037C53.6082 57.4675 53.0825 57.0931 52.7947 57.0274C52.1012 56.9266 51.6051 57.0807 51.2834 57.2716C50.858 57.5239 50.1651 57.8763 50.0164 58.566C49.8503 59.3372 49.734 64.9388 50.0383 65.8346C50.1697 66.1164 50.4326 66.647 50.6482 66.896C50.9942 67.2958 51.8885 67.9751 52.5679 67.6315C52.8899 67.4686 53.4777 67.1206 53.6297 66.669C54.0748 65.3475 54.3246 64.6278 54.4076 63.8504C54.495 63.0316 54.5583 62.2122 54.5003 61.1509Z" fill="black" stroke="black" stroke-width="0.837049" stroke-linecap="round"/>
<path d="M43.8968 61.1509C43.7872 59.1426 43.7103 58.2827 43.3822 57.9037C43.0047 57.4675 42.479 57.0931 42.1912 57.0274C41.4977 56.9266 41.0015 57.0807 40.6798 57.2716C40.2545 57.5239 39.5616 57.8763 39.4129 58.566C39.2467 59.3372 39.1305 64.9388 39.4348 65.8346C39.5662 66.1164 39.8291 66.647 40.0447 66.896C40.3907 67.2958 41.285 67.9751 41.9644 67.6315C42.2864 67.4686 42.8742 67.1206 43.0262 66.669C43.4712 65.3475 43.7211 64.6278 43.8041 63.8504C43.8915 63.0316 43.9548 62.2122 43.8968 61.1509Z" fill="black" stroke="black" stroke-width="0.837049" stroke-linecap="round"/>
<path d="M38.3453 59.4955C39.3902 61.9658 40.9492 62.4873 41.7414 62.6908C41.9669 62.7487 42.7404 62.8127 42.9537 62.8127H45.6848C46.8367 62.8127 50.0015 62.5235 52.2071 61.464C52.6065 61.203 52.934 60.9387 53.3175 60.6125C53.937 60.0856 54.4508 59.3573 54.8564 58.4259C55.2273 57.5741 55.5126 56.4265 55.7014 55.4201C55.8387 54.6879 55.8867 53.2735 55.8116 52.4008C55.7657 51.2861 54.7766 47.4216 52.5645 45.465C52.5645 45.465 51.7252 44.0456 48.9223 43.5725C48.9223 43.5725 44.186 43.3425 42.1659 44.8999C40.3339 46.3123 38.3255 48.9634 37.7109 55.1376C37.7109 55.1376 37.7109 58.4259 38.3453 59.4955Z" fill="white" stroke="black" stroke-width="1.11606" stroke-linecap="round"/>
<path d="M37.8394 54.4141C38.9787 56.0954 39.4923 56.7991 39.9709 56.9497C40.5216 57.1231 41.1672 57.1626 41.4482 57.0635C42.0952 56.7749 42.4405 56.3723 42.617 56.0325C42.8503 55.5832 43.261 54.902 43.0294 54.2236C42.7705 53.465 42.1964 52.3138 41.4693 51.7023C40.8812 51.2078 40.0983 50.4764 40.117 49.6122C40.1329 48.8773 39.9414 48.4116 39.2273 47.9351C38.968 47.762 38.4664 47.4447 38.1519 47.3457C37.6471 47.1868 36.5267 47.0828 36.1231 47.749C35.9318 48.0648 35.6089 48.6851 35.7136 49.159C36.0199 50.5457 36.1802 51.305 36.5138 52.0238C36.865 52.781 37.2373 53.5255 37.8394 54.4141Z" fill="black" stroke="black" stroke-width="0.837049" stroke-linecap="round"/>
<path d="M52.9344 49.1872C53.1766 46.8879 53.2459 45.8986 52.94 45.4163C52.5879 44.8613 52.0549 44.3531 51.7377 44.2332C50.9628 44.0096 50.3669 44.1067 49.964 44.2729C49.4311 44.4927 48.5739 44.7842 48.2776 45.5446C47.9463 46.3947 47.6012 47.818 47.7853 48.8837C47.9343 49.7457 47.7451 50.8306 47.4286 51.6951C47.141 52.4808 46.7005 52.8688 46.9723 53.8075C47.071 54.1485 47.2747 54.7927 47.4758 55.1096C47.7985 55.6183 48.6972 56.5309 49.5374 56.2473C49.9356 56.1129 50.6718 55.8099 50.9284 55.3207C51.6794 53.889 52.097 53.1106 52.3342 52.2402C52.5841 51.3235 52.8064 50.4023 52.9344 49.1872Z" fill="black" stroke="black" stroke-width="0.837049" stroke-linecap="round"/>
<path d="M61.1081 13.3474C60.0514 13.7413 58.5403 13.1178 57.22 13.1603C52.8719 13.3 51.7668 10.1619 51.7659 9.51292C51.7636 7.93703 52.5855 6.33164 53.2666 5.43845C53.9476 4.54527 54.7733 3.73435 55.8672 3.2881C57.1748 2.75464 62.3886 3.08777 63.904 5.79872C64.6159 7.07217 64.1179 9.26059 63.4938 10.7651C63.0524 11.8293 62.1227 12.9691 61.1081 13.3474Z" fill="black"/>
<path d="M64.1464 5.66195C63.3279 4.19788 61.5425 3.4134 59.865 3.05337C59.017 2.87137 58.1754 2.79302 57.4596 2.79448C56.7536 2.79593 56.1385 2.87493 55.7605 3.02915C54.6017 3.5019 53.7393 4.35618 53.0434 5.26875C52.3417 6.18911 51.4833 7.85301 51.4856 9.51257C51.4859 9.72951 51.5712 10.0882 51.751 10.4897C51.9344 10.8991 52.226 11.3757 52.6609 11.8256C53.5373 12.7322 54.9774 13.5107 57.2277 13.4383C57.8545 13.4182 58.5225 13.556 59.2201 13.6608C59.8903 13.7614 60.6001 13.8334 61.2042 13.6083C61.7676 13.3982 62.2897 12.9849 62.723 12.4985C63.1579 12.0103 63.5174 11.4327 63.7502 10.8715C64.0694 10.1019 64.3579 9.15419 64.4753 8.22972C64.5916 7.31349 64.5455 6.37602 64.1464 5.66195ZM63.2347 10.6576C63.0261 11.1605 62.7001 11.6851 62.3062 12.1273C61.9106 12.5713 61.4605 12.9171 61.0093 13.0853C60.5568 13.254 59.9826 13.211 59.303 13.109C58.6509 13.0111 57.9032 12.8584 57.2097 12.8807C55.1119 12.9482 53.8256 12.2275 53.0622 11.4378C52.6772 11.0395 52.4204 10.6186 52.2605 10.2615C52.097 9.89647 52.0438 9.61953 52.0437 9.51194C52.0416 8.01982 52.8268 6.47313 53.4872 5.60711C54.1534 4.73333 54.9423 3.96555 55.9712 3.54579C56.247 3.43329 56.774 3.35384 57.4606 3.35243C58.1376 3.35104 58.9395 3.42541 59.7478 3.59888C61.3829 3.94979 62.9621 4.68734 63.6591 5.93415C63.9718 6.49351 64.0326 7.287 63.9218 8.15942C63.8121 9.02366 63.5396 9.92263 63.2347 10.6576Z" fill="black"/>
<path d="M16.0846 29.0403C16.0899 30.168 14.9836 31.3714 14.5681 32.6253C13.1997 36.7548 9.87294 36.7098 9.26347 36.4869C7.7835 35.9455 6.56004 34.6204 5.95655 33.6731C5.35306 32.7257 4.87666 31.671 4.83505 30.4904C4.78529 29.079 6.89614 24.3 9.96342 23.8125C11.4043 23.5835 13.2867 24.8057 14.4836 25.9104C15.3302 26.6917 16.0795 27.9575 16.0846 29.0403Z" fill="black"/>
<path d="M9.91978 23.5375C8.26328 23.8008 6.91115 25.2061 5.99466 26.6565C5.53137 27.3898 5.16758 28.1527 4.92209 28.825C4.67996 29.4882 4.54196 30.0929 4.55635 30.5009C4.60044 31.7516 5.10488 32.8557 5.72148 33.8236C6.34333 34.7997 7.6091 36.1793 9.16764 36.7495C9.37137 36.824 9.7375 36.8676 10.1764 36.8373C10.6239 36.8064 11.1718 36.6971 11.7441 36.444C12.8973 35.9341 14.1247 34.8508 14.8329 32.7137C15.0302 32.1183 15.3899 31.5389 15.7288 30.9202C16.0544 30.3258 16.3669 29.6844 16.3639 29.0397C16.361 28.4384 16.1531 27.8058 15.846 27.2314C15.5377 26.6548 15.1195 26.1182 14.673 25.7061C14.0608 25.141 13.2707 24.5433 12.4434 24.1143C11.6235 23.6892 10.7277 23.4091 9.91978 23.5375ZM14.2946 26.1161C14.6946 26.4854 15.0746 26.9723 15.3538 27.4946C15.6342 28.019 15.8034 28.5608 15.8057 29.0422C15.808 29.5252 15.5696 30.0494 15.2395 30.6521C14.9227 31.2304 14.5215 31.8796 14.3033 32.5382C13.6431 34.5306 12.523 35.4894 11.5185 35.9336C11.0118 36.1576 10.5282 36.2535 10.1378 36.2804C9.73884 36.308 9.46057 36.2624 9.35952 36.2254C7.95822 35.7128 6.77725 34.4423 6.19211 33.5238C5.60172 32.597 5.15313 31.5917 5.11398 30.4812C5.10349 30.1836 5.21067 29.6615 5.44615 29.0165C5.67831 28.3806 6.0247 27.6535 6.4663 26.9547C7.3596 25.5409 8.59653 24.313 10.0072 24.0887C10.6401 23.9882 11.4059 24.2048 12.1866 24.6096C12.96 25.0106 13.7098 25.5764 14.2946 26.1161Z" fill="black"/>
<path d="M18.8037 50.6703C23.653 53.5939 28.6731 52.5681 31.1808 51.9423C31.8948 51.7642 34.249 50.9236 34.886 50.6618L43.0409 47.3094C46.4804 45.8955 55.7278 41.5185 61.5718 37.0071C62.5818 36.0725 63.3747 35.2205 64.2917 34.1942C65.7725 32.5368 66.7969 30.666 67.3561 28.5821C67.8674 26.6766 67.9158 24.3724 67.7751 22.4271C67.6727 21.0117 66.8261 18.5444 65.9908 17.1508C65.0736 15.3091 59.4153 9.94302 51.4406 9.32683C51.4406 9.32683 47.9408 7.94035 39.2406 10.5752C39.2406 10.5752 24.9372 15.9973 19.9956 21.1286C15.514 25.7821 11.3725 32.7615 13.8593 44.0288C13.8593 44.0288 16.1609 49.6277 18.8037 50.6703Z" fill="white"/>
<path d="M36.6614 10.8573C37.3746 10.5614 37.9564 10.3282 38.3604 10.1686C38.5624 10.0888 38.7201 10.0272 38.8275 9.9857C38.8812 9.96495 38.9225 9.94912 38.9504 9.93844C38.9643 9.93312 38.9751 9.92925 38.9823 9.9265C38.9859 9.92515 38.9885 9.9239 38.9904 9.92318C38.9913 9.92282 38.9922 9.9227 38.9928 9.9225L38.9933 9.92229C38.9938 9.92337 39.0021 9.9447 39.1557 10.3496L38.9935 9.92219L39.0159 9.91358L39.0388 9.90683C43.446 8.57215 46.5665 8.24671 48.6096 8.26469C49.6312 8.27368 50.3825 8.36833 50.8893 8.46532C51.1426 8.5138 51.3345 8.56285 51.4683 8.60175C51.5138 8.61499 51.5524 8.6277 51.5846 8.63818C55.675 8.97261 59.162 10.5093 61.7437 12.1943C63.0449 13.0436 64.1237 13.9353 64.9413 14.74C65.7324 15.5186 66.3143 16.2512 66.6 16.8097C67.0471 17.5603 67.4824 18.5661 67.8186 19.5556C68.1557 20.5477 68.4136 21.5828 68.471 22.376C68.6143 24.3572 68.5701 26.7495 68.0301 28.7622C67.4415 30.9554 66.3628 32.9225 64.8122 34.6581C63.8892 35.6911 63.0795 36.5619 62.0459 37.5184L62.023 37.5393L61.9982 37.5586C56.0809 42.1265 46.7664 46.5314 43.3064 47.9537L35.1515 51.3061C34.5022 51.573 32.1121 52.4282 31.35 52.6184C28.8225 53.2491 23.5798 54.338 18.4886 51.2932C17.7008 50.9656 16.9936 50.3394 16.3915 49.6511C15.7658 48.9358 15.2056 48.0989 14.7405 47.3132C14.2738 46.5249 13.8936 45.7725 13.6303 45.2183C13.4985 44.9408 13.3954 44.7117 13.3248 44.5511C13.2896 44.4707 13.2624 44.4072 13.2439 44.3634C13.2346 44.3415 13.2274 44.3245 13.2224 44.3127L13.2146 44.2936C13.2145 44.2934 13.2143 44.293 13.8595 44.0278L13.2143 44.293L13.1915 44.2374L13.1783 44.1782C11.9095 38.429 12.3254 33.7362 13.6549 29.8709C14.9825 26.0115 17.2065 23.0186 19.4933 20.644C22.0635 17.9752 26.9866 15.2899 31.1716 13.297C33.2819 12.2921 35.2356 11.449 36.6614 10.8573ZM37.1961 12.1459C35.7857 12.7312 33.8546 13.5645 31.7713 14.5565C27.5692 16.5575 22.8697 19.1493 20.4983 21.6117C18.3036 23.8906 16.216 26.7143 14.9742 30.3246C13.7388 33.9162 13.326 38.3278 14.5278 43.8182L14.5283 43.8186C14.5447 43.8574 14.5695 43.9155 14.6024 43.9903C14.668 44.1398 14.7654 44.3562 14.8906 44.6198C15.1415 45.1479 15.5019 45.8605 15.9409 46.6022C16.3816 47.3465 16.8925 48.1049 17.4415 48.7325C17.999 49.3698 18.5502 49.8194 19.0598 50.0205L19.1143 50.042L19.1642 50.0722C23.7576 52.8415 28.5316 51.8838 31.0122 51.2648C31.6781 51.0986 33.9964 50.2726 34.6211 50.0157L42.776 46.6634C46.19 45.2599 55.3474 40.9219 61.1197 36.4741C62.0958 35.5691 62.8673 34.7408 63.7716 33.7286C65.1826 32.1493 66.1528 30.3749 66.6826 28.4004C67.1651 26.6022 67.2178 24.3859 67.0797 22.4766C67.0347 21.8545 66.8183 20.9481 66.4977 20.0043C66.1788 19.066 65.777 18.1497 65.3927 17.5084L65.3788 17.4853L65.3666 17.4608C65.1879 17.1021 64.7257 16.485 63.9627 15.7341C63.2123 14.9955 62.206 14.1618 60.9812 13.3624C58.5298 11.7624 55.2324 10.3187 51.387 10.0215L51.282 10.0134L51.1853 9.97514L51.1856 9.97529C51.1829 9.97431 51.1788 9.97285 51.1732 9.97096C51.1558 9.965 51.1244 9.9548 51.0786 9.9415C50.987 9.91486 50.8375 9.87591 50.6268 9.83559C50.2055 9.75497 49.5381 9.66793 48.5974 9.65964C46.7189 9.64311 43.7464 9.94071 39.4655 11.2351C39.4607 11.2369 39.4552 11.2392 39.449 11.2415C39.4225 11.2517 39.3826 11.2669 39.3304 11.2871C39.2259 11.3274 39.0715 11.3876 38.8728 11.466C38.4753 11.623 37.9011 11.8533 37.1961 12.1459ZM51.1891 9.97652C51.1887 9.97636 51.1879 9.97621 51.187 9.97588L51.1856 9.97529C51.1872 9.97585 51.1884 9.97629 51.1891 9.97652Z" fill="black"/>
<path d="M29.6254 32.6579C30.0061 33.4252 30.9141 33.4704 32.3543 32.7739C32.8031 32.5567 34.7592 31.9935 33.2111 30.2765C32.4975 29.6845 31.6175 30.218 30.9132 30.541C29.8127 31.0457 29.2969 31.8587 29.6254 32.6579Z" fill="black"/>
<path d="M30.6801 30.0337C30.9823 29.8951 31.459 29.6406 31.9225 29.5242C32.4079 29.4023 32.9892 29.3989 33.5162 29.8064L33.5671 29.8471L33.5981 29.873L33.6251 29.9028C34.0538 30.3783 34.3062 30.8446 34.3489 31.3095C34.3937 31.7986 34.1984 32.1862 33.9419 32.4652C33.6976 32.7311 33.3878 32.9118 33.1426 33.0333C33.0164 33.0959 32.8969 33.1476 32.8004 33.1884C32.6938 33.2335 32.6364 33.2571 32.597 33.2762C31.8472 33.6388 31.1598 33.8486 30.5675 33.8224C30.2622 33.8088 29.97 33.7319 29.7126 33.5702C29.4536 33.4074 29.26 33.1776 29.1251 32.9057L29.1164 32.8881L29.1089 32.87C28.8714 32.2922 28.9466 31.7021 29.2579 31.1964C29.5585 30.7082 30.0644 30.3161 30.6801 30.0337ZM32.1943 30.6068C31.9461 30.6691 31.7065 30.7825 31.4326 30.9131L31.1455 31.0482C30.6609 31.2705 30.3588 31.5372 30.2084 31.7814C30.0728 32.0016 30.0514 32.2119 30.1337 32.4266C30.187 32.528 30.2462 32.5874 30.3063 32.6252C30.3713 32.666 30.4677 32.7006 30.617 32.7073C30.9339 32.7213 31.4205 32.6053 32.1109 32.2714C32.1836 32.2362 32.2855 32.1947 32.3656 32.1608C32.4559 32.1226 32.5509 32.0809 32.647 32.0333C32.8464 31.9345 33.0131 31.8267 33.1203 31.71C33.2155 31.6064 33.2472 31.5176 33.2374 31.4115C33.2258 31.2848 33.1459 31.0476 32.8249 30.6831C32.659 30.5595 32.4712 30.5372 32.1943 30.6068Z" fill="black"/>
<path d="M37.6526 26.8429C38.4697 27.6766 40.3097 27.9816 41.5851 28.6871C45.7854 31.0105 48.6487 29.2286 49.0168 28.7439C49.9107 27.567 50.0102 25.9475 49.8453 24.9322C49.6804 23.917 49.3266 22.8894 48.5025 21.9976C47.5174 20.9315 42.1976 18.5199 39.1721 19.7731C37.7509 20.3618 37.0028 22.2518 36.7657 23.6951C36.598 24.7158 36.868 26.0423 37.6526 26.8429Z" fill="black"/>
<path d="M39.065 19.5156C40.6734 18.8493 42.8419 19.1662 44.6863 19.7499C45.6173 20.0445 46.4842 20.4129 47.1831 20.7768C47.8728 21.1359 48.4264 21.5048 48.7071 21.8086C49.5801 22.7534 49.9501 23.8386 50.1205 24.8876C50.2923 25.9457 50.1956 27.653 49.2387 28.9128C49.1097 29.0827 48.8186 29.3082 48.4184 29.5145C48.008 29.7261 47.4568 29.931 46.7838 30.0438C45.433 30.2701 43.6035 30.1227 41.4497 28.9313C40.836 28.5919 40.0887 28.35 39.3494 28.0747C38.6352 27.8088 37.9115 27.5062 37.453 27.0384C36.5915 26.1594 36.3117 24.7355 36.49 23.6501C36.6124 22.9047 36.867 22.0403 37.2793 21.2808C37.69 20.524 38.2729 19.8437 39.065 19.5156ZM37.0407 23.7406C36.8836 24.6966 37.144 25.9257 37.8516 26.6477C38.2102 27.0136 38.8152 27.2803 39.5441 27.5517C40.2478 27.8137 41.0583 28.0771 41.7199 28.4431C43.7664 29.5751 45.4686 29.6985 46.6916 29.4935C47.3054 29.3907 47.8015 29.2045 48.1627 29.0183C48.5342 28.8268 48.7393 28.6478 48.7944 28.5753C49.6252 27.4813 49.7275 25.9495 49.5695 24.9771C49.4101 23.9957 49.0723 23.0259 48.2973 22.1872C48.0854 21.958 47.6046 21.6255 46.9253 21.2718C46.2551 20.9229 45.4182 20.5668 44.518 20.2819C42.6998 19.7066 40.6955 19.4441 39.2785 20.0311C38.6495 20.2917 38.1477 20.8508 37.7699 21.5469C37.3934 22.2404 37.1553 23.0427 37.0407 23.7406Z" fill="black"/>
<path d="M27.282 31.5835C27.2821 32.5912 26.3385 33.9105 25.981 35.1234C24.8036 39.1181 21.9805 39.8076 21.4641 39.7418C20.2101 39.5821 19.177 38.6649 18.6685 37.9498C18.16 37.2346 17.7597 36.3956 17.729 35.3484C17.6922 34.0966 19.5022 29.3581 22.1073 28.2491C23.331 27.7282 24.9238 28.4087 25.9354 29.1345C26.6509 29.6478 27.2819 30.6158 27.282 31.5835Z" fill="black"/>
<path d="M21.9974 27.9921C20.6012 28.5865 19.4595 30.1243 18.6798 31.6157C18.2858 32.3695 17.9754 33.1285 17.7653 33.7812C17.5584 34.424 17.4391 34.9931 17.4497 35.3563C17.4826 36.4756 17.9117 37.3674 18.4406 38.1112C18.9748 38.8626 20.0692 39.845 21.4283 40.0182C21.6185 40.0424 21.9387 39.997 22.3093 39.8743C22.6911 39.7478 23.155 39.5301 23.6376 39.1811C24.6066 38.4804 25.6426 37.2568 26.2483 35.2019C26.4194 34.6212 26.7301 34.0176 27.0185 33.3933C27.2957 32.7931 27.5606 32.1575 27.5606 31.5833C27.5604 30.5058 26.8682 29.4604 26.0977 28.9075C25.5718 28.5302 24.8921 28.1622 24.1778 27.9559C23.4659 27.7503 22.6901 27.6972 21.9974 27.9921ZM25.7724 29.3609C26.4327 29.8347 27.0024 30.7256 27.0025 31.5833C27.0025 32.0167 26.7956 32.5445 26.5117 33.1591C26.239 33.7495 25.8992 34.4119 25.7129 35.0441C25.1412 36.9838 24.1769 38.1026 23.3108 38.7289C22.8761 39.0433 22.4636 39.2353 22.1341 39.3445C21.7934 39.4573 21.5668 39.4734 21.4988 39.4648C20.3501 39.3184 19.3782 38.4666 18.8954 37.7877C18.4074 37.1012 18.036 36.3149 18.0074 35.3399C17.9997 35.0772 18.0929 34.5846 18.2964 33.9523C18.4968 33.3298 18.7947 32.6 19.1742 31.8741C19.9416 30.4061 21.0072 29.02 22.216 28.5054C22.747 28.2794 23.3797 28.3063 24.0231 28.4921C24.6639 28.6772 25.2867 29.0124 25.7724 29.3609Z" fill="black"/>
<path d="M15.6309 42.4428C16.295 43.3547 17.3685 42.6949 18.2351 42.3387C19.0762 41.755 18.925 40.3617 18.1345 39.7918C17.4772 39.3178 16.8931 39.588 16.2402 39.8564C15.5431 40.1429 14.8248 40.6834 15.16 41.4987C15.298 41.8345 15.4176 42.15 15.6309 42.4428Z" fill="#325530"/>
<path d="M52.7243 27.7079C53.4644 28.6962 54.7078 27.9468 55.7078 27.5357C56.6836 26.8751 56.5413 25.3458 55.649 24.7363C54.9071 24.2295 54.2324 24.5396 53.4791 24.8493C52.6748 25.1799 51.8405 25.7903 52.2062 26.6797C52.3567 27.0461 52.4866 27.3905 52.7243 27.7079Z" fill="#325530"/>
<path d="M38.9844 6.23031C39.3366 6.65245 39.6699 7.30416 39.7736 7.64275C40.488 9.97573 40.654 11.486 40.5923 12.0143C40.5332 12.5203 40.441 12.9425 40.2986 13.3589C40.1652 13.7487 40.0174 14.1512 39.5539 14.6013C39.0344 15.1058 38.4799 15.6097 38.0097 15.9454C37.4228 16.3643 35.2836 16.8486 33.6185 16.981C32.7295 17.0516 32.1367 17.0793 31.1415 16.7764C30.5973 16.6108 30.1308 16.5315 29.7487 16.3284C29.527 16.2106 28.713 14.8954 29.1236 14.1228C29.2414 13.9011 29.6837 13.7736 29.766 13.3457C29.7894 13.2243 29.7746 13.0576 29.698 12.9488C29.5573 12.7488 29.2716 12.6171 29.0669 12.3739C28.9143 12.1927 28.5036 11.2604 28.4217 9.92224C28.3742 9.14586 28.3756 8.73436 28.4675 8.33695C28.5718 7.88609 28.5927 7.28949 29.1076 6.75421C29.6639 6.17584 30.4154 5.49321 30.9518 5.34811C32.575 4.90904 35.1819 4.42527 35.6747 4.57161C36.0964 4.69681 36.5423 4.71772 36.9446 4.89732C37.7306 5.24813 38.6864 5.87323 38.9844 6.23031Z" fill="#325530"/>
<path d="M30.7695 4.67488C31.6042 4.44907 32.6834 4.21401 33.6189 4.05316C34.0863 3.97281 34.5283 3.90913 34.8921 3.87519C35.0735 3.85827 35.2454 3.84764 35.3964 3.84754C35.5135 3.84746 35.6655 3.85301 35.8111 3.88685L35.8733 3.90303L36.0019 3.93755C36.1324 3.96897 36.2715 3.99357 36.455 4.03062C36.6783 4.07573 36.9536 4.13762 37.2288 4.26041C37.6611 4.45335 38.1291 4.71631 38.529 4.9777C38.9095 5.22636 39.2994 5.51943 39.5199 5.78361C39.9305 6.27573 40.3091 7.00964 40.4404 7.43869C40.8052 8.62993 41.033 9.62061 41.1618 10.3901C41.2873 11.1399 41.3278 11.7294 41.2851 12.0951C41.2211 12.6428 41.1195 13.1145 40.9586 13.5847C40.8136 14.0086 40.6219 14.5361 40.0398 15.1015C39.516 15.61 38.9302 16.145 38.4147 16.5129C38.1821 16.6789 37.8586 16.814 37.537 16.9247C37.1989 17.041 36.8001 17.1513 36.3763 17.25C35.5296 17.447 34.544 17.6069 33.6735 17.6761C32.7513 17.7494 32.0565 17.7839 30.9381 17.4436C30.6654 17.3606 30.4687 17.3155 30.1935 17.2375C29.9482 17.1679 29.6786 17.0812 29.4208 16.9442C29.274 16.8662 29.1672 16.7494 29.1159 16.6909C29.0481 16.6134 28.9814 16.5234 28.9187 16.4291C28.7928 16.2398 28.661 15.9992 28.5529 15.735C28.3592 15.2608 28.1462 14.4748 28.5073 13.7954C28.6026 13.6163 28.7395 13.4957 28.8131 13.4338C28.8543 13.3993 28.8968 13.3665 28.9276 13.3424C28.9619 13.3157 28.9874 13.2957 29.0111 13.2759C29.0155 13.2722 29.0193 13.2681 29.0232 13.2647C29.0103 13.2546 28.9965 13.2425 28.9803 13.23C28.8759 13.1495 28.6917 13.0119 28.5329 12.8234C28.4315 12.7029 28.3455 12.5392 28.2786 12.3929C28.2037 12.2292 28.1251 12.0261 28.0514 11.7899C27.9039 11.3172 27.7697 10.6941 27.725 9.965C27.6775 9.18881 27.6706 8.68615 27.7876 8.18005C27.8606 7.86439 27.9174 6.98535 28.6046 6.27094C28.8939 5.97017 29.2434 5.63192 29.5994 5.34542C29.9358 5.07472 30.353 4.78754 30.7695 4.67488ZM33.8552 5.42789C32.9582 5.58212 31.922 5.80839 31.1336 6.02166C31.0136 6.05415 30.7866 6.181 30.4742 6.4324C30.1813 6.66806 29.8771 6.96048 29.6101 7.23804C29.2675 7.59418 29.2822 7.90834 29.1467 8.49438C29.0799 8.78302 29.0701 9.10335 29.1176 9.87972C29.1549 10.4888 29.2669 11.0012 29.3833 11.3744C29.4416 11.5611 29.4996 11.7086 29.5471 11.8125C29.5809 11.8862 29.6024 11.9228 29.6085 11.9335C29.6536 11.9847 29.7142 12.0344 29.8319 12.1252C29.9267 12.1982 30.1255 12.3449 30.2681 12.5475C30.4887 12.8611 30.4963 13.2402 30.4506 13.4775C30.3636 13.9293 30.0821 14.1991 29.9045 14.3473C29.8605 14.384 29.8175 14.4175 29.7856 14.4424C29.758 14.4639 29.7388 14.4792 29.7231 14.492C29.7103 14.5363 29.701 14.6063 29.7109 14.7114C29.7247 14.8574 29.7716 15.0295 29.8443 15.2074C29.9162 15.3832 30.0038 15.5419 30.0801 15.6565C30.106 15.6954 30.1285 15.7251 30.1455 15.7466C30.2574 15.798 30.394 15.8443 30.5743 15.8955C30.764 15.9492 31.0728 16.0265 31.3442 16.1091C32.2162 16.3744 32.7071 16.3535 33.563 16.2855C34.3576 16.2223 35.2742 16.0741 36.0601 15.8912C36.4526 15.7998 36.8028 15.7021 37.083 15.6057C37.3794 15.5036 37.5433 15.4211 37.6042 15.3776C38.0292 15.0742 38.5526 14.6012 39.0679 14.1008C39.4127 13.766 39.5167 13.4887 39.6384 13.133C39.7625 12.7704 39.8451 12.3977 39.8994 11.9334C39.9184 11.7709 39.9067 11.3411 39.786 10.6205C39.6687 9.91965 39.4561 8.98876 39.1065 7.84714C39.0305 7.59905 38.7426 7.02941 38.4488 6.67727C38.3713 6.58438 38.1342 6.38636 37.7658 6.14553C37.4168 5.91744 37.0139 5.69222 36.6602 5.53438C36.5331 5.47766 36.3843 5.43949 36.1788 5.39797C35.9991 5.36168 35.7403 5.31673 35.4956 5.24576C35.5061 5.24835 35.4806 5.24269 35.3973 5.24275C35.305 5.24281 35.1795 5.24953 35.0217 5.26425C34.7074 5.29358 34.304 5.35074 33.8552 5.42789Z" fill="black"/>
<path d="M43.6538 5.66662C43.4999 6.18912 43.4552 6.91162 43.4956 7.25919C43.774 9.65415 44.2258 11.0861 44.4935 11.539C44.7499 11.9729 45.0031 12.3178 45.3001 12.6373C45.5781 12.9365 45.8744 13.2412 46.4788 13.4629C47.1564 13.7113 47.8657 13.9452 48.4306 14.0607C49.1356 14.2049 51.2885 13.7875 52.8665 13.2415C53.709 12.9499 54.2631 12.7379 55.0535 12.0662C55.4857 11.6989 55.8813 11.4407 56.1501 11.1043C56.306 10.9092 56.5257 9.39461 55.8407 8.86023C55.6442 8.70689 55.1882 8.76837 54.9416 8.41445C54.8717 8.31403 54.8186 8.15743 54.8453 8.02838C54.8942 7.7913 55.1032 7.55799 55.1935 7.2563C55.2608 7.03146 55.2642 6.02438 54.8042 4.78171C54.5373 4.06075 54.3715 3.68924 54.1285 3.36666C53.8527 3.0007 53.595 2.46969 52.9094 2.19156C52.1687 1.89105 51.2075 1.57427 50.6582 1.65754C48.9959 1.90951 46.4149 2.51435 46.0219 2.84372C45.6858 3.12551 45.2858 3.32267 44.989 3.64592C44.4094 4.27734 43.7839 5.22463 43.6538 5.66662Z" fill="#325530"/>
<path d="M50.5536 0.967527C49.699 1.09707 48.6169 1.31594 47.696 1.54447C47.2358 1.65865 46.8056 1.77778 46.4591 1.89245C46.2864 1.9496 46.1252 2.00882 45.9872 2.06894C45.88 2.11564 45.7431 2.18085 45.6236 2.26945L45.5737 2.30889L45.4695 2.39175C45.3625 2.47238 45.2446 2.55009 45.0916 2.6568C44.9053 2.78677 44.6781 2.95305 44.4752 3.17406C44.1564 3.52139 43.8326 3.94621 43.5707 4.34263C43.3218 4.71937 43.0813 5.14093 42.9846 5.46941C42.8048 6.07996 42.7512 6.89687 42.8026 7.33961C42.9449 8.56309 43.1325 9.55059 43.3224 10.2987C43.5072 11.0271 43.7064 11.5782 43.8928 11.8937C44.1708 12.3641 44.4532 12.7506 44.789 13.112C45.0921 13.4381 45.4791 13.8392 46.2386 14.1176C46.9216 14.3681 47.672 14.6173 48.2909 14.7438C48.5695 14.8008 48.919 14.7937 49.2576 14.7653C49.6134 14.7353 50.0224 14.6756 50.4498 14.5954C51.3037 14.4351 52.2699 14.1859 53.0945 13.9006C53.9678 13.5984 54.6173 13.352 55.5051 12.5976C55.7217 12.4135 55.8838 12.2938 56.1045 12.1134C56.3012 11.9525 56.5133 11.7665 56.6948 11.5395C56.7985 11.4097 56.85 11.2605 56.8737 11.1865C56.9051 11.0887 56.9306 10.98 56.9505 10.8691C56.9902 10.6469 57.0147 10.3759 57.008 10.0928C56.9959 9.58503 56.8761 8.78309 56.2697 8.30999L56.2094 8.26669C56.068 8.17255 55.9248 8.12809 55.8444 8.10501C55.793 8.09023 55.7408 8.0773 55.703 8.06789C55.661 8.05745 55.6299 8.0497 55.6002 8.04129C55.5986 8.04083 55.597 8.03998 55.5954 8.03952C55.6012 8.02881 55.607 8.01689 55.6139 8.00445C55.6773 7.89016 55.7912 7.69113 55.8616 7.45603C55.9068 7.30491 55.9203 7.12119 55.9231 6.96172C55.9263 6.78304 55.9167 6.56726 55.8897 6.32365C55.8356 5.83602 55.7093 5.21771 55.4582 4.53937C55.1913 3.81847 54.9964 3.35925 54.6856 2.94674C54.4931 2.69136 54.0877 1.91658 53.1714 1.54488C52.7862 1.38861 52.3309 1.22277 51.8905 1.10612C51.474 0.995816 50.9784 0.903158 50.5536 0.967527ZM48.032 2.89829C48.9154 2.67908 49.9549 2.46937 50.7625 2.34694C50.887 2.32807 51.1467 2.35225 51.5333 2.45461C51.8958 2.55064 52.2917 2.69347 52.6472 2.83769C53.1021 3.02223 53.2123 3.30974 53.5714 3.78626C53.7466 4.01886 53.8831 4.30279 54.15 5.02372C54.3589 5.58797 54.4607 6.0945 54.5031 6.47726C54.5243 6.66883 54.5303 6.82471 54.5283 6.93692C54.5269 7.01661 54.5219 7.05773 54.5207 7.06909C54.5001 7.1318 54.4646 7.20017 54.3936 7.32826C54.3363 7.43169 54.2121 7.64508 54.1621 7.88721C54.0843 8.26426 54.231 8.61467 54.369 8.81294C54.6313 9.18948 54.9988 9.32077 55.2194 9.38334C55.2743 9.39892 55.3272 9.41205 55.3664 9.42179C55.3997 9.43008 55.4232 9.43618 55.4426 9.44142C55.4708 9.47528 55.506 9.53297 55.538 9.6291C55.5831 9.76461 55.6088 9.93707 55.6134 10.1258C55.6178 10.3125 55.6011 10.4902 55.5772 10.6234C55.5694 10.6674 55.5611 10.7022 55.5543 10.7279C55.4725 10.819 55.366 10.9152 55.2215 11.0334C55.0691 11.1579 54.8173 11.3511 54.6017 11.5344C53.9086 12.1234 53.4499 12.3011 52.6383 12.582C51.8849 12.8427 50.9857 13.0753 50.1925 13.2242C49.7962 13.2986 49.4359 13.3501 49.1405 13.3749C48.8279 13.4012 48.644 13.3923 48.5702 13.3772C48.0593 13.2727 47.3909 13.0543 46.7189 12.8079C46.2694 12.6431 46.064 12.4344 45.811 12.1621C45.5529 11.8845 45.3287 11.5811 45.0938 11.1838C45.0125 11.0462 44.8521 10.6546 44.6747 9.9554C44.5021 9.27557 44.3246 8.3497 44.1884 7.17836C44.1591 6.92591 44.1948 6.29774 44.3227 5.86332C44.3562 5.74979 44.4936 5.47682 44.7348 5.11165C44.9631 4.76608 45.2419 4.40146 45.5027 4.11737C45.5965 4.01515 45.7177 3.921 45.8896 3.80115C46.0399 3.69632 46.2591 3.55244 46.4548 3.3904C46.446 3.39713 46.4672 3.3813 46.5444 3.34765C46.6292 3.31069 46.7472 3.26674 46.8976 3.21697C47.1975 3.11773 47.5901 3.00797 48.032 2.89829Z" fill="black"/>
<path d="M38.7174 9.78256C39.1773 12.1584 39.4355 13.2956 39.8798 13.5173C41.4379 14.2949 43.8512 13.1872 44.9744 12.7801C46.0976 12.3729 46.4279 11.9711 46.4983 11.319C46.3847 9.79107 46.1092 8.65426 45.7653 8.24722C45.0413 7.39035 44.1875 6.06601 43.0993 6.3333C41.8627 6.63706 40.0477 6.75898 39.483 7.85214C39.2159 8.36922 38.5527 8.932 38.7174 9.78256Z" fill="#325530"/>
<path d="M42.9328 5.65617C43.8257 5.43684 44.5486 5.90245 45.0411 6.35554C45.5234 6.79929 45.9869 7.42908 46.298 7.79722C46.5827 8.13425 46.7669 8.66014 46.8964 9.20064C47.0336 9.773 47.1351 10.4781 47.1937 11.2676L47.1984 11.3309L47.1916 11.3941C47.1438 11.8375 46.9946 12.2627 46.6255 12.6336C46.2852 12.9756 45.8065 13.2206 45.2121 13.436C44.7005 13.6215 43.7433 14.0282 42.7565 14.2707C41.7825 14.5101 40.5797 14.6464 39.5683 14.1417C39.2704 13.993 39.084 13.7344 38.9606 13.5045C38.8331 13.2668 38.7287 12.976 38.6346 12.6533C38.4463 12.0073 38.2608 11.0954 38.0324 9.91537C37.9063 9.26397 38.1091 8.73623 38.3329 8.34575C38.4409 8.15725 38.5635 7.98472 38.6561 7.85245C38.7581 7.70687 38.8215 7.61282 38.8631 7.53224C39.2829 6.71953 40.1226 6.34522 40.8374 6.1293C41.2103 6.01663 41.5981 5.93354 41.9539 5.86172C42.3216 5.7875 42.6424 5.72751 42.9328 5.65617ZM42.2298 7.229C41.8799 7.29963 41.5468 7.37237 41.2409 7.46479C40.5978 7.65906 40.2475 7.89222 40.1026 8.17265C40.0107 8.35055 39.8912 8.52078 39.7989 8.65267C39.6972 8.79787 39.614 8.9162 39.5435 9.03929C39.41 9.27209 39.3634 9.45124 39.402 9.65034C39.6335 10.8462 39.8072 11.6909 39.974 12.2629C40.0574 12.5491 40.1298 12.7327 40.19 12.8448C40.2079 12.8782 40.2218 12.8997 40.2309 12.9125C40.7754 13.1647 41.5424 13.1325 42.4236 12.9159C43.3138 12.6972 44.1249 12.3463 44.7365 12.1246C45.2652 11.9329 45.5134 11.7734 45.6366 11.6497C45.7217 11.5642 45.7713 11.4729 45.7968 11.3028C45.7414 10.594 45.6511 9.99051 45.5397 9.52561C45.4172 9.01426 45.2917 8.76795 45.2325 8.69778C44.8196 8.20908 44.4941 7.74821 44.0966 7.38245C43.7091 7.02599 43.4607 6.96303 43.2654 7.01099C42.9376 7.09151 42.5678 7.16078 42.2298 7.229Z" fill="black"/>
<path d="M66.5296 18.7948C66.6675 18.6093 66.9296 18.5707 67.1152 18.7085C67.3007 18.8464 67.3394 19.1085 67.2015 19.294C63.8322 23.8285 57.5619 30.3298 49.3417 34.5961C41.6783 38.5733 35.8238 41.9173 24.659 43.9267C24.426 43.9686 23.669 44.0294 22.7074 44.0947C21.7295 44.161 20.5026 44.234 19.2999 44.2979C18.0976 44.3617 16.917 44.4164 16.0321 44.446C15.5905 44.4608 15.2187 44.4694 14.9536 44.4696C14.8223 44.4697 14.7099 44.4679 14.6261 44.4628C14.5862 44.4604 14.5401 44.4564 14.4976 44.449C14.4783 44.4457 14.4419 44.4385 14.4014 44.4235C14.3814 44.416 14.3453 44.4014 14.3059 44.3747C14.2707 44.3508 14.1951 44.2921 14.1506 44.184C14.0627 43.9702 14.1648 43.7256 14.3786 43.6377C14.4733 43.5988 14.5741 43.5973 14.6646 43.6262C14.6683 43.6265 14.6725 43.627 14.6771 43.6272C14.7347 43.6307 14.8263 43.6327 14.953 43.6326C15.2041 43.6324 15.5651 43.6242 16.0044 43.6096C16.8815 43.5802 18.0559 43.5257 19.2556 43.462C20.4552 43.3983 21.6778 43.3255 22.6507 43.2595C23.64 43.1924 24.3355 43.1342 24.5106 43.1027C35.5361 41.1184 41.2882 37.8327 48.9561 33.8531C57.0355 29.6599 63.2146 23.2563 66.5296 18.7948ZM14.8721 43.774C14.8696 43.7708 14.8674 43.7675 14.8649 43.7645C14.8674 43.7676 14.8697 43.7708 14.8721 43.774ZM14.8485 43.7453C14.8471 43.7438 14.8457 43.7423 14.8443 43.7409C14.8457 43.7424 14.8471 43.7438 14.8485 43.7453ZM14.9248 43.8657C14.9138 43.839 14.9008 43.8155 14.8871 43.7949C14.9016 43.8169 14.9144 43.8404 14.9248 43.8657Z" fill="black"/>
<path d="M50.6508 31.5339C50.6166 31.3837 50.7106 31.2341 50.8608 31.1999C51.1976 31.1232 51.6877 31.1041 52.1467 31.0955C52.5639 31.0877 52.9603 31.0886 53.2586 31.0722L53.3802 31.064L53.3867 31.0634L53.3935 31.0633C54.1139 31.039 54.706 31.0278 55.9118 30.8826L56.4685 30.812L56.474 30.8111C56.8515 30.7683 56.9813 30.7686 57.2058 30.7106C57.355 30.672 57.5074 30.7618 57.546 30.911C57.5845 31.0602 57.4945 31.2124 57.3453 31.2509C57.072 31.3215 56.8716 31.3278 56.5425 31.3649L55.976 31.4371C54.748 31.5848 54.139 31.5964 53.4122 31.621L53.4119 31.6212C53.0822 31.6469 52.6029 31.6452 52.157 31.6535C51.6874 31.6623 51.256 31.6823 50.9849 31.7439C50.8347 31.7781 50.6851 31.6841 50.6508 31.5339Z" fill="black"/>
<path d="M54.6938 27.8162C54.8477 27.8221 54.9679 27.9516 54.9621 28.1055C54.949 28.4506 54.8406 28.9291 54.7301 29.3746C54.6297 29.7796 54.5262 30.1623 54.4648 30.4546L54.4413 30.5742L54.4402 30.5806L54.4385 30.5872C54.2756 31.2894 54.1332 31.8642 53.9612 33.0666L53.8854 33.6225L53.8848 33.6281C53.8285 34.0038 53.7946 34.1291 53.7926 34.361C53.7912 34.5151 53.665 34.639 53.5109 34.6377C53.3568 34.6362 53.2331 34.51 53.2345 34.3559C53.237 34.0736 53.2828 33.8784 53.3321 33.5509L53.4091 32.985C53.5843 31.7607 53.7306 31.1694 53.895 30.461L53.8949 30.4607C53.9554 30.1355 54.0811 29.673 54.1885 29.2402C54.3015 28.7843 54.3939 28.3624 54.4045 28.0846C54.4103 27.9306 54.5398 27.8104 54.6938 27.8162Z" fill="black"/>
<path d="M41.3642 36.4145C41.3494 36.2611 41.4617 36.1247 41.615 36.1098C41.9588 36.0767 42.4474 36.12 42.9038 36.1699C43.3185 36.2153 43.7116 36.2667 44.0095 36.2884L44.1312 36.2956L44.1377 36.2959L44.1445 36.2967C44.8621 36.3642 45.4508 36.4284 46.6654 36.4379L47.2264 36.4387L47.2321 36.4385C47.6119 36.4441 47.7406 36.4609 47.9707 36.4319C48.1236 36.4127 48.2633 36.5211 48.2826 36.674C48.3018 36.8269 48.1932 36.9664 48.0403 36.9857C47.7603 37.0209 47.5606 37.0016 47.2295 36.9966L46.6584 36.996C45.4217 36.9862 44.8161 36.9203 44.092 36.8522L44.0918 36.8523C43.7615 36.8359 43.2863 36.7732 42.843 36.7247C42.376 36.6736 41.9456 36.6386 41.6689 36.6653C41.5155 36.6801 41.3791 36.5678 41.3642 36.4145Z" fill="black"/>
<path d="M45.8479 33.2413C45.9999 33.2667 46.1026 33.4105 46.0773 33.5624C46.0203 33.903 45.852 34.3638 45.6857 34.7917C45.5345 35.1805 45.3831 35.547 45.2851 35.8291L45.2466 35.9447L45.2446 35.9509L45.2421 35.9573C44.9912 36.633 44.7768 37.185 44.4532 38.3557L44.3073 38.8975L44.306 38.903C44.2023 39.2685 44.1528 39.3884 44.1212 39.6182C44.1002 39.7708 43.9593 39.8777 43.8066 39.8567C43.654 39.8357 43.5473 39.6947 43.5683 39.5421C43.6067 39.2624 43.677 39.0746 43.7676 38.7561L43.9159 38.2046C44.2455 37.0125 44.4659 36.4447 44.7191 35.7629L44.719 35.7626C44.8204 35.4478 45.004 35.005 45.1655 34.5894C45.3357 34.1515 45.481 33.7449 45.5268 33.4706C45.5522 33.3187 45.696 33.216 45.8479 33.2413Z" fill="black"/>
<path d="M30.8301 40.1981C30.8515 40.0455 30.9926 39.9391 31.1451 39.9604C31.4871 40.0085 31.9521 40.1647 32.3842 40.3198C32.7769 40.4608 33.1471 40.6025 33.4317 40.6932L33.5483 40.7287L33.5546 40.7304L33.561 40.7328C34.243 40.966 34.8005 41.1659 35.9792 41.4588L36.5246 41.5905L36.5301 41.5917C36.8982 41.6858 37.0194 41.7322 37.2499 41.7577C37.403 41.7747 37.5136 41.9128 37.4966 42.066C37.4796 42.2191 37.3414 42.3294 37.1883 42.3124C36.9077 42.2813 36.7181 42.2159 36.3973 42.1337L35.8421 41.9998C34.6419 41.7015 34.0685 41.496 33.3803 41.2607L33.38 41.2608C33.0627 41.1676 32.6153 40.9957 32.1955 40.845C31.7534 40.6864 31.3431 40.5518 31.0678 40.5131C30.9152 40.4917 30.8087 40.3506 30.8301 40.1981Z" fill="black"/>
<path d="M35.9317 38.1589C36.0736 38.2191 36.1399 38.3829 36.0798 38.5247C35.9449 38.8426 35.6736 39.2513 35.4119 39.6285C35.1742 39.9713 34.9414 40.2923 34.7802 40.5437L34.7157 40.6472L34.7124 40.6528L34.7085 40.6584C34.3067 41.2568 33.9693 41.7435 33.3813 42.8063L33.1129 43.299L33.1104 43.304C32.9242 43.6352 32.848 43.7403 32.7637 43.9563C32.7076 44.0998 32.5456 44.1708 32.4021 44.1148C32.2586 44.0587 32.1878 43.8967 32.2438 43.7532C32.3465 43.4903 32.4587 43.324 32.6212 43.0355L32.8942 42.5338C33.493 41.4517 33.8399 40.951 34.2453 40.3472L34.2453 40.3469C34.4174 40.0645 34.6993 39.6768 34.9534 39.3103C35.2211 38.9244 35.4573 38.5629 35.566 38.3069C35.6261 38.1651 35.7899 38.0988 35.9317 38.1589Z" fill="black"/>
<path d="M21.5918 41.4132C21.6577 41.2739 21.8241 41.2143 21.9633 41.2801C22.2755 41.4278 22.6728 41.7154 23.0391 41.9922C23.372 42.2437 23.6833 42.4892 23.928 42.6605L24.0287 42.7292L24.0342 42.7327L24.0396 42.7368C24.6212 43.1626 25.0939 43.5195 26.1319 44.15L26.6133 44.4382L26.6182 44.441C26.9416 44.6405 27.0435 44.7208 27.2559 44.8138C27.397 44.8757 27.4614 45.0404 27.3996 45.1816C27.3378 45.3227 27.173 45.3868 27.0319 45.325C26.7733 45.2118 26.6118 45.0929 26.33 44.9189L25.8399 44.6257C24.7829 43.9835 24.2967 43.6166 23.7099 43.187L23.7096 43.187C23.4344 43.0036 23.0585 42.7062 22.7026 42.4374C22.3279 42.1543 21.9762 41.9036 21.7249 41.7847C21.5856 41.7188 21.526 41.5524 21.5918 41.4132Z" fill="black"/>
<path d="M27.0682 40.9858C27.1856 41.0854 27.2002 41.2615 27.1005 41.379C26.8771 41.6424 26.4964 41.9517 26.1343 42.2339C25.8052 42.4904 25.4874 42.7275 25.2587 42.9195L25.1663 42.999L25.1615 43.0034L25.1561 43.0075C24.5943 43.4592 24.1273 43.8233 23.2495 44.6628L22.8465 45.0532L22.8426 45.0572C22.5662 45.3179 22.4622 45.3956 22.3174 45.5767C22.2211 45.697 22.0453 45.7166 21.925 45.6203C21.8047 45.5241 21.7854 45.3483 21.8816 45.228C22.0579 45.0076 22.2146 44.8823 22.4556 44.6552L22.8656 44.2576C23.7595 43.4029 24.2397 43.0282 24.8066 42.5725L24.8067 42.5723C25.0551 42.3539 25.4396 42.0678 25.7913 41.7936C26.1618 41.5049 26.495 41.2301 26.6749 41.0181C26.7746 40.9007 26.9507 40.8861 27.0682 40.9858Z" fill="black"/>
</g>
</g>
<defs>
<filter id="filter0_d_1_2534" x="2.55518" y="0.946289" width="67.9858" height="71.198" filterUnits="userSpaceOnUse" color-interpolation-filters="sRGB">
<feFlood flood-opacity="0" result="BackgroundImageFix"/>
<feColorMatrix in="SourceAlpha" type="matrix" values="0 0 0 0 0 0 0 0 0 0 0 0 0 0 0 0 0 0 127 0" result="hardAlpha"/>
<feOffset dy="2"/>
<feGaussianBlur stdDeviation="1"/>
<feComposite in2="hardAlpha" operator="out"/>
<feColorMatrix type="matrix" values="0 0 0 0 1 0 0 0 0 1 0 0 0 0 1 0 0 0 1 0"/>
<feBlend mode="normal" in2="BackgroundImageFix" result="effect1_dropShadow_1_2534"/>
<feBlend mode="normal" in="SourceGraphic" in2="effect1_dropShadow_1_2534" result="shape"/>
</filter>
</defs>
</svg>
