<svg width="95" height="93" viewBox="0 0 95 93" fill="none" xmlns="http://www.w3.org/2000/svg">
<path d="M38.4412 81.7903C38.5913 79.0388 38.6967 77.8606 39.1462 77.3414C39.6634 76.7438 40.3837 76.2308 40.778 76.1408C41.7281 76.0027 42.4079 76.2139 42.8487 76.4753C43.4314 76.821 44.3808 77.3039 44.5844 78.2488C44.8121 79.3054 44.9713 86.98 44.5545 88.2072C44.3745 88.5934 44.0143 89.3203 43.7189 89.6615C43.2448 90.2092 42.0196 91.1399 41.0887 90.6691C40.6476 90.446 39.8423 89.9692 39.634 89.3505C39.0242 87.54 38.6819 86.554 38.5682 85.4888C38.4485 84.367 38.3618 83.2444 38.4412 81.7903Z" fill="black"/>
<path d="M38.4241 76.7154C38.7336 76.3578 39.0975 76.0317 39.4459 75.7779C39.7668 75.5442 40.1738 75.2982 40.5657 75.2087L40.6032 75.2002L40.6411 75.1946C41.8079 75.025 42.7082 75.2803 43.3366 75.6531C43.584 75.7998 44.0615 76.0584 44.474 76.4051C44.902 76.7647 45.3565 77.2927 45.5191 78.0469C45.5964 78.4058 45.6502 79.1731 45.6895 80.0341C45.7305 80.9351 45.7591 82.0442 45.7672 83.1567C45.7754 84.2679 45.7633 85.3928 45.7222 86.3236C45.7017 86.7883 45.6733 87.2146 45.6353 87.5711C45.5998 87.9042 45.549 88.2515 45.4598 88.5143L45.4429 88.5634L45.4209 88.6105C45.3259 88.8143 45.1815 89.1129 45.0185 89.4102C44.8646 89.6909 44.6601 90.0341 44.4417 90.2864C44.1345 90.6413 43.6133 91.0946 43.0047 91.4006C42.4191 91.6951 41.5258 91.9603 40.658 91.5215C40.4085 91.3954 40.0334 91.1868 39.6799 90.906C39.3453 90.6401 38.9204 90.2244 38.7286 89.6549C38.1325 87.8848 37.7457 86.7833 37.6183 85.5896C37.4959 84.4429 37.4042 83.2637 37.4875 81.7377C37.562 80.3721 37.6274 79.3451 37.7359 78.5919C37.8395 77.873 38.004 77.2008 38.4241 76.7154ZM39.8692 77.9663C39.84 78.0002 39.7271 78.1767 39.628 78.8645C39.5339 79.518 39.4716 80.4561 39.396 81.8419C39.3206 83.2239 39.4019 84.2899 39.519 85.3868C39.619 86.3233 39.9169 87.1942 40.5402 89.0451C40.5569 89.0944 40.6388 89.2263 40.8689 89.4092C41.0805 89.5772 41.329 89.7189 41.5207 89.8159C41.5839 89.8477 41.7684 89.8827 42.1462 89.6927C42.5013 89.5142 42.8297 89.2283 42.9966 89.0355C43.0735 88.9466 43.1972 88.7558 43.3422 88.4913C43.4637 88.2698 43.5759 88.0397 43.6593 87.8632C43.677 87.7911 43.7064 87.635 43.7348 87.3687C43.767 87.0665 43.7932 86.6832 43.8128 86.2394C43.8519 85.353 43.8639 84.2633 43.8558 83.1705C43.8478 82.0789 43.8197 80.9945 43.7799 80.1211C43.7383 79.2077 43.687 78.6193 43.6505 78.4498C43.6094 78.2591 43.4875 78.0729 43.2442 77.8685C42.9855 77.6511 42.6968 77.4958 42.3615 77.2969C42.1154 77.151 41.6746 76.9895 40.9764 77.0786C40.9581 77.0861 40.9265 77.1002 40.8807 77.1246C40.7961 77.1699 40.6903 77.2363 40.5713 77.3229C40.3317 77.4975 40.0769 77.7264 39.8692 77.9663Z" fill="black"/>
<path d="M54.115 81.0256C54.2652 78.2742 54.3706 77.096 54.82 76.5767C55.3372 75.9792 56.0576 75.4662 56.4518 75.3761C57.4019 75.2381 58.0817 75.4492 58.5225 75.7107C59.1052 76.0564 60.0546 76.5393 60.2582 77.4842C60.4859 78.5407 60.6451 86.2153 60.2283 87.4426C60.0483 87.8287 59.6881 88.5556 59.3927 88.8969C58.9186 89.4446 57.6934 90.3753 56.7626 89.9045C56.3214 89.6814 55.5161 89.2045 55.3078 88.5859C54.6981 86.7753 54.3557 85.7893 54.242 84.7242C54.1223 83.6023 54.0356 82.4797 54.115 81.0256Z" fill="black"/>
<path d="M54.0979 75.9507C54.4074 75.5932 54.7714 75.2671 55.1197 75.0133C55.4406 74.7795 55.8476 74.5336 56.2395 74.4441L56.277 74.4356L56.315 74.4299C57.4818 74.2604 58.382 74.5156 59.0104 74.8884C59.2578 75.0352 59.7353 75.2938 60.1478 75.6404C60.5758 76.0001 61.0303 76.5281 61.1929 77.2822C61.2703 77.6412 61.3241 78.4085 61.3633 79.2694C61.4044 80.1705 61.4329 81.2796 61.4411 82.392C61.4492 83.5032 61.4372 84.6282 61.3961 85.559C61.3755 86.0237 61.3471 86.4499 61.3091 86.8065C61.2736 87.1396 61.2228 87.4869 61.1336 87.7496L61.1167 87.7987L61.0947 87.8458C60.9997 88.0497 60.8553 88.3482 60.6924 88.6455C60.5384 88.9263 60.3339 89.2695 60.1155 89.5218C59.8083 89.8767 59.2872 90.33 58.6785 90.636C58.0929 90.9304 57.1996 91.1957 56.3318 90.7569C56.0824 90.6307 55.7072 90.4221 55.3538 90.1413C55.0192 89.8755 54.5942 89.4597 54.4025 88.8903C53.8064 87.1202 53.4195 86.0187 53.2921 84.825C53.1697 83.6783 53.078 82.4991 53.1613 80.9731C53.2358 79.6075 53.3013 78.5804 53.4098 77.8272C53.5133 77.1083 53.6778 76.4361 54.0979 75.9507ZM55.5431 77.2017C55.5138 77.2355 55.4009 77.4121 55.3018 78.0998C55.2077 78.7534 55.1455 79.6914 55.0698 81.0772C54.9944 82.4593 55.0758 83.5253 55.1928 84.6222C55.2928 85.5587 55.5907 86.4296 56.214 88.2805C56.2307 88.3298 56.3126 88.4617 56.5428 88.6445C56.7543 88.8126 57.0029 88.9543 57.1945 89.0512C57.2577 89.083 57.4422 89.118 57.82 88.9281C58.1752 88.7495 58.5035 88.4636 58.6704 88.2708C58.7474 88.1819 58.871 87.9912 59.016 87.7267C59.1375 87.5051 59.2498 87.275 59.3331 87.0986C59.3508 87.0264 59.3802 86.8704 59.4086 86.6041C59.4408 86.3018 59.467 85.9186 59.4866 85.4747C59.5257 84.5884 59.5377 83.4986 59.5297 82.4058C59.5217 81.3142 59.4935 80.2298 59.4537 79.3564C59.4121 78.443 59.3608 77.8546 59.3244 77.6852C59.2833 77.4945 59.1613 77.3083 58.9181 77.1039C58.6593 76.8865 58.3706 76.7312 58.0353 76.5323C57.7892 76.3863 57.3485 76.2249 56.6502 76.3139C56.632 76.3214 56.6003 76.3355 56.5546 76.36C56.4699 76.4053 56.3641 76.4716 56.2452 76.5583C56.0056 76.7328 55.7507 76.9618 55.5431 77.2017Z" fill="black"/>
<path d="M62.8649 70.0044C60.11 69.2059 58.9409 68.8223 58.5301 68.245C58.0574 67.5807 57.7231 66.7304 57.7338 66.3098C57.8398 65.3148 58.2304 64.6757 58.6101 64.2906C59.1121 63.7814 59.8484 62.933 60.8607 62.9487C61.9925 62.9662 63.7893 63.2362 64.9274 63.9468C65.8479 64.5215 66.6534 64.8534 68.3243 64.8534C69.3624 64.8534 70.0137 64.5666 70.9648 65.3183C71.3103 65.5914 71.9551 66.1271 72.225 66.5065C72.6583 67.1155 73.2859 68.5754 72.5667 69.4078C72.2258 69.8023 71.533 70.5062 70.8508 70.5719C68.8543 70.7643 67.7644 70.8795 66.6534 70.7445C65.4832 70.6023 64.3208 70.4264 62.8649 70.0044Z" fill="black"/>
<path d="M57.7515 68.7984C57.4689 68.4014 57.2323 67.9565 57.0652 67.5447C56.9204 67.1881 56.7859 66.755 56.7783 66.3624L56.7783 66.2845L56.7794 66.2462L56.7833 66.2077C56.9125 64.9945 57.4002 64.1554 57.9293 63.6188C58.1452 63.3997 58.5262 62.9831 58.9787 62.6512C59.4461 62.3085 60.0849 61.98 60.8753 61.9922C62.0706 62.0107 64.0762 62.2878 65.4337 63.1353C65.855 63.3983 66.204 63.5772 66.6144 63.6981C67.0284 63.8202 67.5519 63.8969 68.3241 63.8969C68.5442 63.8969 68.744 63.8818 68.9761 63.866C69.1949 63.851 69.4574 63.8344 69.7287 63.8491C70.3319 63.8817 70.9227 64.0662 71.5572 64.5677C71.7394 64.7117 72.0051 64.9283 72.2645 65.1631C72.5095 65.3849 72.8047 65.6718 73.0037 65.9516C73.2841 66.3457 73.6083 66.9791 73.7608 67.6653C73.9087 68.331 73.9402 69.2791 73.2899 70.0318C73.0987 70.2531 72.7935 70.5798 72.4225 70.8675C72.0707 71.1403 71.5521 71.4636 70.9426 71.5224C68.9886 71.7107 67.7765 71.8431 66.5379 71.6925C65.3431 71.5473 64.1243 71.3636 62.5989 70.9215C61.2314 70.5252 60.207 70.2178 59.4718 69.9316C58.7707 69.6586 58.1339 69.3357 57.7515 68.7984ZM59.3086 67.69C59.337 67.7299 59.4902 67.8877 60.165 68.1505C60.8057 68.3999 61.7435 68.6836 63.1308 69.0856C64.5172 69.4875 65.6231 69.6559 66.7686 69.7952C67.752 69.9147 68.7201 69.8162 70.759 69.6197C70.8316 69.6127 71.0007 69.5512 71.2511 69.3571C71.4822 69.1778 71.6939 68.9552 71.8435 68.7821C71.9124 68.7022 71.9894 68.5043 71.8952 68.08C71.8054 67.6759 71.5993 67.2746 71.4464 67.0597C71.3755 66.9601 71.2132 66.7896 70.9821 66.5804C70.7654 66.3843 70.5356 66.1963 70.3723 66.0673C70.0558 65.8171 69.8452 65.7694 69.6255 65.7575C69.4854 65.7499 69.3309 65.7576 69.106 65.773C68.8942 65.7874 68.6231 65.8083 68.3242 65.8083C67.4257 65.8083 66.7108 65.7191 66.0743 65.5316C65.4342 65.3429 64.9201 65.0682 64.421 64.7566C63.5022 64.183 61.9144 63.92 60.846 63.9034C60.6242 63.9 60.3883 63.988 60.109 64.1928C59.8149 64.4085 59.5766 64.6706 59.2905 64.9607C59.0662 65.1882 58.7828 65.6109 58.6917 66.3503C58.6945 66.371 58.7006 66.4084 58.7145 66.4642C58.7388 66.5614 58.7789 66.6846 58.8362 66.8257C58.9516 67.1102 59.1185 67.4227 59.3086 67.69Z" fill="black"/>
<path d="M60.5762 79.5224C59.1445 82.9069 57.0086 83.6213 55.9233 83.9002C55.6143 83.9796 54.5547 84.0671 54.2624 84.0671H50.5206C48.9424 84.0671 44.6064 83.671 41.5846 82.2193C41.0374 81.8618 40.5887 81.4997 40.0632 81.0527C39.2145 80.3309 38.5106 79.3331 37.9548 78.0569C37.4467 76.89 37.0559 75.3176 36.7972 73.9388C36.609 72.9356 36.5432 70.9978 36.6462 69.8021C36.7091 68.2749 38.0642 62.9803 41.0949 60.2996C41.0949 60.2996 42.2449 58.355 46.085 57.7068C46.085 57.7068 52.5741 57.3917 55.3417 59.5254C57.8516 61.4605 60.6034 65.0927 61.4453 73.5518C61.4453 73.5518 61.4453 78.0569 60.5762 79.5224Z" fill="white"/>
<path d="M47.1472 56.7349C46.8108 56.7329 46.5367 56.7373 46.3454 56.7419C46.2497 56.7443 46.1745 56.7467 46.1225 56.7487C46.0965 56.7496 46.0762 56.7503 46.062 56.7509C46.0549 56.7512 46.0492 56.7515 46.0452 56.7517C46.0433 56.7517 46.0416 56.752 46.0404 56.752H46.0385C46.0383 56.752 46.0382 56.752 46.0803 57.62L46.0381 56.752L45.9814 56.7546L45.9254 56.7643C43.8604 57.1129 42.4719 57.8192 41.5812 58.4775C41.138 58.805 40.8237 59.1164 40.6135 59.3574C40.5086 59.4777 40.4298 59.5805 40.3739 59.6586C40.3714 59.6621 40.3692 59.6657 40.3668 59.6691C38.7397 61.1496 37.6035 63.2576 36.8674 65.1344C36.1309 67.0122 35.7408 68.8 35.6933 69.7198L35.675 69.965C35.5933 71.2323 35.6628 73.0786 35.8572 74.1147C36.1203 75.5175 36.5269 77.1727 37.0779 78.4381C37.6781 79.8164 38.4605 80.9442 39.4436 81.7803C39.9795 82.2361 40.4638 82.6287 41.0611 83.019L41.1138 83.0533L41.1702 83.0806C44.3793 84.6223 48.8815 85.0225 50.5201 85.0225H54.2618C54.4565 85.0225 54.8331 84.9966 55.1749 84.9647C55.4983 84.9344 55.9191 84.8874 56.1605 84.8254C56.7591 84.6716 57.7011 84.3839 58.6927 83.6402C59.6775 82.9014 60.6592 81.7521 61.4316 79.9496C61.7164 79.4423 61.8946 78.7787 62.0162 78.1532C62.1476 77.4777 62.2326 76.7394 62.2884 76.0664C62.3445 75.3905 62.3723 74.7639 62.3862 74.3074C62.3932 74.0787 62.3968 73.8916 62.3985 73.7608C62.3994 73.6954 62.3998 73.644 62.4 73.6085C62.4001 73.5908 62.4004 73.577 62.4004 73.5675V73.5518C62.4004 73.5517 62.4004 73.5514 61.4447 73.5514H62.4004V73.504L62.3955 73.457C61.5335 64.7964 58.6866 60.8977 55.9245 58.7683C55.0928 58.1271 54.0337 57.7049 52.9773 57.4184C51.9105 57.1291 50.7825 56.9615 49.7657 56.8644C48.746 56.767 47.8189 56.7388 47.1472 56.7349ZM47.136 58.6462C47.7675 58.6499 48.6354 58.6766 49.5838 58.7672C50.5352 58.858 51.5487 59.0116 52.477 59.2633C53.4156 59.5178 54.2055 59.8564 54.7576 60.2821C57.0108 62.0192 59.6614 65.3748 60.489 73.5958L60.4887 73.5966C60.4885 73.6278 60.4883 73.6746 60.4875 73.7351C60.4859 73.8564 60.4826 74.0326 60.476 74.2491C60.4627 74.6831 60.4363 75.2747 60.3838 75.9081C60.331 76.5445 60.253 77.2073 60.14 77.7885C60.0368 78.3192 59.9175 78.7079 59.8025 78.9432L59.7536 79.0346L59.7208 79.0902L59.6954 79.1496C59.0397 80.6998 58.2481 81.5843 57.5458 82.1111C56.8402 82.6404 56.1716 82.8491 55.6849 82.9742C55.6839 82.9744 55.6784 82.9757 55.6673 82.9779C55.6544 82.9805 55.6373 82.9839 55.6154 82.9876C55.5712 82.9951 55.5153 83.0032 55.4493 83.0119C55.3173 83.0292 55.1591 83.0464 54.9969 83.0615C54.6587 83.0932 54.3595 83.1112 54.2618 83.1112H50.5201C49.0124 83.1112 44.888 82.7237 42.0549 81.3839C41.5809 81.07 41.1787 80.747 40.6819 80.3244C39.9675 79.7169 39.3418 78.849 38.8306 77.675C38.3653 76.6066 37.9902 75.1172 37.7361 73.7623C37.567 72.8612 37.5008 71.0124 37.5979 69.884L37.5994 69.8627L37.6005 69.8411C37.6261 69.2201 37.9438 67.6238 38.6466 65.8321C39.3472 64.0458 40.3747 62.2118 41.7275 61.0152L41.8402 60.9156L41.9164 60.7864V60.7868L41.9157 60.7879C41.9153 60.7885 41.9149 60.7892 41.9145 60.7898C41.9139 60.7909 41.9132 60.7918 41.9127 60.7928C41.9115 60.7946 41.9107 60.7962 41.9101 60.7972C41.9098 60.7977 41.9095 60.7981 41.9093 60.7984C41.9111 60.7956 41.9174 60.786 41.9284 60.7707C41.9503 60.74 41.9914 60.6856 42.0542 60.6136C42.1796 60.4697 42.3929 60.2544 42.7172 60.0148C43.3549 59.5435 44.4462 58.9609 46.1901 58.6585C46.1911 58.6585 46.1923 58.6586 46.1934 58.6585C46.2378 58.6569 46.3047 58.6547 46.3917 58.6526C46.566 58.6483 46.8209 58.6444 47.136 58.6462Z" fill="black"/>
<path d="M38.2817 68.1525C36.1972 65.7674 35.3394 64.7137 35.3018 63.9321C35.2586 63.0327 35.455 62.043 35.7158 61.6585C36.4077 60.7969 37.1519 60.4358 37.7344 60.3043C38.5047 60.1304 39.6951 59.7809 40.6266 60.3992C41.6681 61.0904 43.1772 62.4128 43.8113 63.7521C44.3241 64.8352 45.3916 65.9016 46.4279 66.6206C47.3698 67.2741 48.1692 67.3614 48.605 68.6274C48.7632 69.0872 49.043 69.9697 49.0677 70.4833C49.1073 71.3078 48.82 73.0389 47.655 73.3837C47.1029 73.5472 46.0392 73.7882 45.3659 73.4424C43.3955 72.4307 42.3138 71.8878 41.3616 71.0997C40.3588 70.2697 39.3833 69.413 38.2817 68.1525Z" fill="black"/>
<path d="M34.3478 63.9774C34.3224 63.4481 34.3672 62.9014 34.4561 62.426C34.5336 62.0116 34.6639 61.5437 34.8808 61.1906L34.9253 61.1216L34.947 61.0895L34.9713 61.0596C35.8006 60.0269 36.7343 59.5498 37.5244 59.3714C37.8608 59.2955 38.4528 59.1383 39.061 59.1003C39.6877 59.0613 40.4529 59.136 41.1556 59.6023C42.25 60.3286 43.9309 61.7698 44.6756 63.3427C45.0916 64.2213 46.0162 65.1706 46.9734 65.8347C47.167 65.9691 47.3573 66.0774 47.5716 66.1973C47.7735 66.3104 48.0223 66.4473 48.2567 66.6122C48.7814 66.9814 49.2212 67.4795 49.5091 68.3158C49.5921 68.5571 49.709 68.9146 49.8093 69.2847C49.9046 69.636 50.0051 70.0699 50.0227 70.4371C50.0478 70.9592 49.9731 71.7278 49.7108 72.4423C49.4558 73.1372 48.9357 74.0012 47.9268 74.2998C47.6203 74.3905 47.1488 74.5101 46.6414 74.5555C46.1584 74.5986 45.5063 74.5883 44.9298 74.2923C42.9973 73.3 41.8038 72.7055 40.7527 71.8355C39.7307 70.9896 38.7119 70.0957 37.5627 68.7808C36.5272 67.596 35.7615 66.7029 35.2519 66.0026C34.764 65.332 34.3812 64.6731 34.3478 63.9774ZM36.257 63.8857C36.2611 63.9716 36.3261 64.2304 36.7976 64.8782C37.2474 65.4965 37.9528 66.323 39.0018 67.5232C40.0557 68.7292 40.9878 69.5489 41.9714 70.3631C42.8245 71.0692 43.7948 71.5605 45.8031 72.5917C45.8998 72.6414 46.1162 72.6833 46.4712 72.6516C46.8021 72.622 47.1388 72.5395 47.3844 72.4669C47.5405 72.4206 47.7464 72.2465 47.9163 71.7835C48.079 71.3403 48.1281 70.8312 48.1136 70.5288C48.1066 70.3824 48.055 70.118 47.9646 69.7847C47.8794 69.4703 47.7772 69.1565 47.702 68.9381C47.5541 68.5085 47.3761 68.3296 47.1567 68.1753C47.0192 68.0785 46.8643 67.9919 46.638 67.8653C46.4238 67.7454 46.1611 67.5976 45.8838 67.4052C44.7685 66.6313 43.5579 65.4482 42.9482 64.1607C42.4247 63.0552 41.0875 61.8513 40.0988 61.195C39.87 61.0432 39.574 60.9836 39.1802 61.0082C38.7678 61.0339 38.3793 61.138 37.9454 61.236C37.5785 61.3188 37.0405 61.556 36.4981 62.2129C36.4868 62.2357 36.4661 62.2809 36.441 62.355C36.4038 62.4652 36.3666 62.6085 36.335 62.7776C36.2713 63.1179 36.2392 63.5156 36.257 63.8857Z" fill="black"/>
<path d="M10.3451 27.9748C11.8893 27.9236 13.4794 26.3464 15.1745 25.7124C20.7571 23.6245 20.5228 19.0723 20.1859 18.2494C19.3678 16.2513 17.4901 14.6451 16.1618 13.8681C14.8335 13.091 13.3648 12.4936 11.7462 12.4979C9.81137 12.5031 3.37812 15.6412 2.86994 19.8658C2.63123 21.8504 4.40223 24.3641 5.97687 25.9455C7.09056 27.064 8.86237 28.0241 10.3451 27.9748Z" fill="black"/>
<path d="M2.48978 19.8204C2.76423 17.5388 4.61806 15.6146 6.55622 14.2846C7.53599 13.6122 8.56159 13.0745 9.46935 12.7035C10.3648 12.3376 11.1854 12.1173 11.7447 12.1158C13.4594 12.1112 14.9972 12.7445 16.3543 13.5384C17.723 14.3391 19.6775 16.0004 20.5391 18.1046C20.6517 18.3796 20.7304 18.8786 20.7117 19.481C20.6926 20.0954 20.5713 20.8511 20.2546 21.6478C19.6163 23.2532 18.1969 24.9898 15.3078 26.0703C14.503 26.3713 13.7284 26.8939 12.8989 27.3901C12.1021 27.8667 11.2402 28.3278 10.3574 28.3571C9.53402 28.3845 8.65716 28.1327 7.85471 27.742C7.04933 27.3499 6.29292 26.8052 5.70555 26.2153C4.90015 25.4065 4.04086 24.3558 3.41059 23.2455C2.78593 22.1451 2.35596 20.9331 2.48978 19.8204ZM6.24731 25.6759C6.77361 26.2044 7.45999 26.6993 8.18957 27.0545C8.92206 27.4111 9.6726 27.6147 10.3319 27.5929C10.9933 27.5709 11.6985 27.2173 12.5065 26.7341C13.2818 26.2703 14.1498 25.6874 15.0401 25.3544C17.7336 24.3471 18.9881 22.7638 19.5441 21.3654C19.8245 20.6601 19.9306 19.993 19.9473 19.4572C19.9643 18.9095 19.8874 18.5309 19.8315 18.3945C19.0569 16.5026 17.2562 14.9517 15.9683 14.1983C14.6689 13.4382 13.2692 12.8762 11.7468 12.8803C11.3387 12.8813 10.6296 13.0552 9.75874 13.4111C8.90023 13.7619 7.92274 14.2739 6.98884 14.9148C5.09969 16.2112 3.48281 17.9684 3.24903 19.9115C3.14418 20.7831 3.48051 21.8203 4.07528 22.8681C4.66449 23.9061 5.47807 24.9033 6.24731 25.6759Z" fill="black"/>
<path d="M75.571 24.4083C76.1517 25.84 78.1805 26.7886 79.3602 28.1611C83.2453 32.6811 87.4375 30.8912 88.0936 30.2912C89.687 28.8341 90.5471 26.5177 90.8183 25.0029C91.0896 23.4881 91.1438 21.9035 90.5815 20.3857C89.9094 18.5713 84.7451 13.6151 80.6044 14.5951C78.6593 15.0555 76.9106 17.5847 75.9693 19.6082C75.3035 21.0393 75.0134 23.0335 75.571 24.4083Z" fill="black"/>
<path d="M80.518 14.2229C82.7543 13.6936 85.1997 14.7701 87.1166 16.1306C88.0856 16.8184 88.944 17.5957 89.6053 18.3198C90.2576 19.034 90.7475 19.7283 90.9418 20.2528C91.5374 21.8607 91.4734 23.5226 91.1962 25.0703C90.9167 26.6311 90.0314 29.0387 88.3535 30.5731C88.1341 30.7736 87.6929 31.0196 87.121 31.2098C86.5377 31.4037 85.7865 31.5506 84.9296 31.528C83.2026 31.4826 81.0829 30.7492 79.0723 28.41C78.5122 27.7584 77.7545 27.2115 77.0027 26.6041C76.2805 26.0205 75.5505 25.3705 75.2185 24.552C74.9088 23.7886 74.8427 22.8787 74.9327 21.9907C75.023 21.0995 75.2734 20.2017 75.6245 19.4469C76.1059 18.412 76.7958 17.2431 77.6206 16.2685C78.4381 15.3027 79.4274 14.4811 80.518 14.2229ZM76.3177 19.7694C76.0031 20.4457 75.7753 21.2606 75.6935 22.068C75.6114 22.8785 75.6791 23.6532 75.927 24.2645C76.1757 24.8777 76.7508 25.4177 77.4831 26.0095C78.1858 26.5773 79.0323 27.191 79.6519 27.9118C81.5264 30.0926 83.4452 30.7241 84.9496 30.7637C85.7083 30.7837 86.371 30.6532 86.8797 30.4841C87.3997 30.3111 87.7285 30.1084 87.8373 30.0089C89.346 28.6294 90.1807 26.4042 90.4437 24.9355C90.709 23.4536 90.7538 21.946 90.2249 20.5184C90.0832 20.1358 89.6754 19.5301 89.041 18.8354C88.4156 18.1506 87.5979 17.4097 86.6743 16.7541C84.8058 15.428 82.5988 14.5163 80.6944 14.967C79.84 15.1692 78.9825 15.8426 78.2041 16.7623C77.433 17.6733 76.7775 18.7809 76.3177 19.7694Z" fill="black"/>
<path d="M83.3954 53.2328C78.7734 59.4636 71.8778 60.7788 68.374 61.2922C67.3765 61.4383 63.9555 61.5995 63.0119 61.5995H50.9319C45.837 61.5995 31.8388 60.8703 22.0834 58.1978C20.3166 57.5395 18.8681 56.873 17.1716 56.0502C14.4317 54.7213 12.1591 52.8843 10.365 50.5349C8.72449 48.3867 7.46276 45.492 6.62775 42.9537C6.02023 41.1069 5.80782 37.5393 6.14028 35.3382C6.34319 32.5266 10.7179 22.7795 20.5023 17.8445C20.5023 17.8445 24.2149 14.2645 36.6121 13.0712C36.6121 13.0712 57.5615 12.4911 66.4964 16.4192C74.5994 19.9815 83.483 26.6683 86.2012 42.2412C86.2012 42.2412 86.2012 50.5349 83.3954 53.2328Z" fill="white"/>
<path d="M40.0275 12.0858C38.9697 12.0823 38.111 12.0899 37.5159 12.0982C37.2183 12.1023 36.9864 12.1064 36.8286 12.1097C36.7498 12.1114 36.6892 12.1128 36.6483 12.1138C36.6279 12.1143 36.6122 12.1151 36.6016 12.1153C36.5965 12.1155 36.5925 12.1153 36.5897 12.1153C36.5883 12.1154 36.5871 12.1157 36.5863 12.1157H36.5856C36.5854 12.1174 36.586 12.1487 36.6024 12.7418L36.5852 12.1157L36.5524 12.1165L36.5199 12.1198C30.2399 12.7243 26.1161 13.9375 23.5365 15.0246C22.2467 15.5681 21.344 16.0794 20.7523 16.4663C20.4566 16.6597 20.239 16.8218 20.0897 16.9408C20.0389 16.9813 19.9966 17.0175 19.9613 17.0475C14.9523 19.602 11.3341 23.3657 8.94038 26.8458C7.73393 28.5999 6.83133 30.2917 6.21446 31.7373C5.61762 33.136 5.26183 34.3675 5.19084 35.2241C5.01521 36.408 4.98754 37.9093 5.07698 39.3383C5.16666 40.7711 5.37896 42.2171 5.71945 43.2521C6.56988 45.8373 7.87207 48.8457 9.60487 51.1148C11.4931 53.5874 13.8847 55.5182 16.7538 56.9097C18.4614 57.7379 19.941 58.4196 21.7491 59.0932L21.789 59.1078L21.8305 59.1194C31.7082 61.8253 45.8059 62.5549 50.9312 62.555H63.0112C63.973 62.555 67.4472 62.3936 68.5119 62.2376C72.0434 61.7202 79.254 60.369 84.1194 53.8587C84.9469 53.0332 85.5169 51.8713 85.9213 50.6855C86.3416 49.4531 86.6155 48.1007 86.7956 46.8628C86.9763 45.6209 87.0662 44.4693 87.1111 43.6299C87.1335 43.2096 87.145 42.8657 87.1506 42.6253C87.1535 42.5051 87.1548 42.4105 87.1555 42.3454C87.1559 42.3128 87.1561 42.2875 87.1562 42.27V42.2416C87.1562 42.2414 87.1562 42.2408 86.2006 42.2408H87.1562V42.1583L87.1421 42.0766C85.7551 34.1304 82.7835 28.4004 79.0852 24.195C75.3926 19.9959 71.0154 17.362 66.8806 15.5442C62.2335 13.5012 54.5962 12.663 48.2549 12.3177C45.0574 12.1436 42.1426 12.0929 40.0275 12.0858ZM40.0212 13.9972C42.1134 14.0042 44.9945 14.0542 48.1512 14.226C54.5183 14.5727 61.8234 15.4089 66.1112 17.2939C70.0794 19.0385 74.1955 21.5291 77.6499 25.4571C81.0862 29.3648 83.9074 34.74 85.2445 42.3233L85.2441 42.3241C85.2435 42.3817 85.2423 42.4683 85.2397 42.5802C85.2344 42.8039 85.2237 43.1288 85.2023 43.528C85.1595 44.3279 85.0741 45.4186 84.9041 46.5873C84.7334 47.76 84.4811 48.9871 84.1123 50.0684C83.7378 51.1664 83.2735 52.0232 82.7325 52.5435L82.6746 52.5991L82.6272 52.6633C78.2492 58.5653 71.7007 59.8387 68.2349 60.3464C67.3046 60.4827 63.9366 60.6436 63.0112 60.6436H50.9312C45.874 60.6436 32.0102 59.9168 22.3789 57.2875C20.6704 56.6492 19.2614 56.0014 17.5881 55.1899C14.9775 53.9237 12.8238 52.1806 11.1239 49.9546C9.5757 47.9272 8.35443 45.1463 7.53487 42.6548C7.26784 41.8431 7.0699 40.5818 6.9846 39.2189C6.89979 37.8638 6.93167 36.4933 7.08465 35.4805L7.09025 35.444L7.09286 35.4066C7.13242 34.859 7.39677 33.8363 7.97238 32.4873C8.5386 31.1604 9.37941 29.5798 10.515 27.9288C12.7879 24.6243 16.2142 21.0772 20.9323 18.6976L21.0611 18.6326L21.1637 18.5337L21.1633 18.5341C21.1663 18.5314 21.1708 18.5274 21.1768 18.5221C21.1957 18.5055 21.2303 18.4762 21.2813 18.4355C21.3835 18.354 21.5527 18.2268 21.7987 18.0659C22.2906 17.7443 23.0909 17.2864 24.2786 16.7858C26.6504 15.7863 30.5721 14.615 36.6711 14.0252C36.6781 14.025 36.6862 14.025 36.6953 14.0248C36.7342 14.0239 36.7926 14.0223 36.8693 14.0207C37.0227 14.0175 37.2498 14.0132 37.5424 14.0091C38.1278 14.001 38.9755 13.9937 40.0212 13.9972ZM21.1596 18.5374C21.1601 18.537 21.161 18.5364 21.1619 18.5355L21.1633 18.5341C21.1617 18.5356 21.1603 18.5368 21.1596 18.5374Z" fill="black"/>
<path d="M60.2988 36.0459C60.2161 37.2165 59.0891 37.7468 56.9013 37.6143C56.2194 37.573 53.4473 37.8782 54.5147 34.8961C55.1104 33.7741 56.5035 33.9917 57.5643 34.0342C59.2217 34.1005 60.2988 34.862 60.2988 36.0459Z" fill="black"/>
<path d="M57.5941 33.2707C57.1389 33.2524 56.4023 33.1782 55.7544 33.2722C55.0758 33.3706 54.3374 33.6691 53.8818 34.46L53.8385 34.5381L53.8128 34.587L53.7941 34.6389C53.4985 35.4647 53.4216 36.1871 53.6097 36.7985C53.8076 37.4416 54.2571 37.831 54.7274 38.0509C55.1755 38.2605 55.6622 38.3282 56.0362 38.3544C56.2288 38.3679 56.4071 38.3712 56.5506 38.3727C56.7092 38.3744 56.7943 38.3743 56.8542 38.3779C57.9931 38.4469 58.9735 38.3547 59.7104 38.0128C60.0902 37.8367 60.4204 37.587 60.6623 37.2479C60.9057 36.9069 61.0313 36.5147 61.0606 36.1L61.0625 36.0731V36.0462C61.0625 35.1903 60.6599 34.4818 60.0019 34.0031C59.3668 33.541 58.5214 33.3078 57.5941 33.2707ZM55.9739 34.7856C56.3209 34.7352 56.6836 34.7542 57.0987 34.777L57.5328 34.7986C58.2627 34.8278 58.7845 35.0084 59.1022 35.2395C59.3888 35.448 59.5254 35.7033 59.533 36.0182C59.5183 36.1745 59.4742 36.2807 59.4177 36.3598C59.3567 36.4453 59.2525 36.5395 59.0668 36.6256C58.6725 36.8085 57.9954 36.915 56.9467 36.8515C56.8362 36.8448 56.6855 36.8452 56.5663 36.844C56.4319 36.8426 56.2899 36.8394 56.1434 36.8291C55.8392 36.8077 55.5718 36.7579 55.3751 36.6659C55.2005 36.5843 55.1142 36.4882 55.0712 36.3486C55.02 36.1821 54.9976 35.8399 55.2146 35.2108C55.3604 34.9677 55.5867 34.8417 55.9739 34.7856Z" fill="black"/>
<path d="M47.0953 32.8593C46.4942 34.3414 44.3216 35.6865 43.0729 37.2448C38.9607 42.377 34.4041 41.6104 33.6852 41.188C31.9394 40.1623 30.9697 38.162 30.6498 36.7896C30.3299 35.4172 30.2429 33.9308 30.8226 32.3714C31.5155 30.5074 37.0005 24.6802 41.4871 24.6922C43.5946 24.6979 45.5273 26.7032 46.5795 28.4085C47.3236 29.6147 47.6725 31.4362 47.0953 32.8593Z" fill="black"/>
<path d="M41.4885 24.3096C39.1032 24.3033 36.5205 25.8344 34.4874 27.5348C33.4611 28.3931 32.5545 29.3116 31.8585 30.1367C31.1716 30.9511 30.6622 31.7068 30.4647 32.238C29.8506 33.8901 29.9471 35.4579 30.2776 36.8759C30.611 38.3063 31.623 40.4193 33.4918 41.5173C33.7437 41.6653 34.2301 41.7995 34.8447 41.8524C35.475 41.9067 36.2802 41.8793 37.1918 41.6716C39.0213 41.2548 41.2629 40.1149 43.3715 37.4834C43.9723 36.7335 44.7932 36.0378 45.5867 35.3038C46.3532 34.5947 47.1126 33.8343 47.4499 33.0028C48.0837 31.4401 47.6965 29.4901 46.9052 28.2075C46.3618 27.3268 45.5888 26.364 44.6709 25.6163C43.7561 24.8713 42.6632 24.3128 41.4885 24.3096ZM46.2545 28.609C46.9516 29.7387 47.2619 31.4317 46.7413 32.7153C46.4775 33.3657 45.8498 34.0188 45.0676 34.7424C44.3123 35.441 43.4225 36.197 42.7747 37.0054C40.7711 39.5059 38.6784 40.5489 37.0219 40.9263C36.1906 41.1157 35.4649 41.1383 34.9102 41.0905C34.3398 41.0413 33.9866 40.9213 33.879 40.8581C32.2563 39.9047 31.3288 38.0168 31.0224 36.7024C30.7132 35.3757 30.6361 33.9709 31.1813 32.5043C31.3303 32.1035 31.7664 31.4318 32.443 30.6297C33.1104 29.8384 33.9855 28.9513 34.9778 28.1213C36.9821 26.4451 39.3852 25.0685 41.4865 25.0742C42.4193 25.0767 43.3464 25.5238 44.1878 26.2091C45.0261 26.8918 45.7458 27.7844 46.2545 28.609Z" fill="black"/>
<path d="M62.7073 33.4639C63.2321 34.7409 65.1151 35.9211 66.1999 37.2719C69.7727 41.7206 73.7094 41.1236 74.3294 40.7713C75.8352 39.9156 76.6667 38.2153 76.9385 37.0442C77.2103 35.8731 77.2804 34.6013 76.7739 33.2584C76.1684 31.653 71.4064 26.5913 67.5276 26.543C65.7056 26.5204 64.0417 28.2124 63.138 29.6591C62.4987 30.6823 62.2034 32.2376 62.7073 33.4639Z" fill="black"/>
<path d="M67.5313 26.1602C69.6101 26.1861 71.858 27.5399 73.6228 29.0236C74.5148 29.7736 75.3035 30.5736 75.9097 31.2913C76.5068 31.9982 76.9544 32.6571 77.1301 33.1229C77.6715 34.5583 77.5923 35.912 77.3096 37.1301C77.024 38.3604 76.1491 40.1754 74.517 41.1028C74.2886 41.2326 73.8592 41.3418 73.3257 41.3794C72.776 41.418 72.0748 41.3838 71.2813 41.193C69.6885 40.8098 67.7383 39.799 65.9004 37.5105C65.381 36.8639 64.6729 36.2608 63.9823 35.6199C63.3184 35.0038 62.6516 34.3364 62.3525 33.6087C61.7914 32.2432 62.124 30.558 62.8123 29.456C63.2821 28.704 63.9518 27.8836 64.7495 27.25C65.5444 26.6186 66.4999 26.1473 67.5313 26.1602ZM63.4608 29.8611C62.8708 30.8055 62.613 32.2311 63.0596 33.318C63.2854 33.8673 63.8225 34.4283 64.5024 35.0592C65.1555 35.6653 65.9311 36.3277 66.4966 37.0317C68.2315 39.1919 70.0362 40.1073 71.4599 40.4498C72.1746 40.6217 72.7972 40.6501 73.2717 40.6167C73.7622 40.5822 74.0577 40.4847 74.1394 40.4382C75.5187 39.6545 76.3066 38.0688 76.5647 36.957C76.8256 35.8329 76.8865 34.643 76.4149 33.3926C76.2878 33.0558 75.913 32.48 75.3258 31.7849C74.7477 31.1004 73.9899 30.3308 73.131 29.6086C71.3938 28.1481 69.3215 26.9469 67.5217 26.9245C66.7311 26.9146 65.9433 27.2783 65.2248 27.8489C64.5092 28.4173 63.8947 29.1665 63.4608 29.8611Z" fill="black"/>
<path d="M83.1291 41.1546C82.7625 42.656 81.0586 42.3792 79.7748 42.3792C78.4049 42.0778 77.8707 40.2335 78.5755 39.0994C79.1616 38.1565 80.0425 38.1945 81.0096 38.1945C82.0422 38.1945 83.234 38.5052 83.234 39.7129C83.234 40.2103 83.2468 40.6724 83.1291 41.1546Z" fill="#325530"/>
<path d="M28.4488 41.8056C28.0259 43.4434 26.0598 43.1415 24.5785 43.1415C22.9978 42.8127 22.3815 40.8007 23.1947 39.5636C23.8709 38.5349 24.8874 38.5764 26.0033 38.5764C27.1948 38.5764 28.5698 38.9153 28.5698 40.2328C28.5698 40.7754 28.5847 41.2796 28.4488 41.8056Z" fill="#325530"/>
<path d="M34.6726 7.43305C34.4461 8.15146 34.3633 9.15092 34.4083 9.63397C34.7183 12.9624 35.2947 14.9627 35.648 15.5999C35.9865 16.2104 36.3232 16.6973 36.7207 17.1508C37.0927 17.5753 37.4896 18.0083 38.3114 18.3372C39.2325 18.7058 40.1977 19.0556 40.9684 19.236C41.9302 19.4611 44.8933 18.9605 47.0722 18.2609C48.2355 17.8873 49.0012 17.6135 50.1045 16.7113C50.7079 16.218 51.2577 15.8745 51.6361 15.4181C51.8557 15.1533 52.202 13.0627 51.2792 12.2976C51.0144 12.0781 50.3876 12.1468 50.0603 11.6475C49.9675 11.5059 49.8994 11.287 49.9398 11.1091C50.0139 10.7824 50.3073 10.4667 50.4401 10.0519C50.539 9.74281 50.5738 8.34754 49.9805 6.60914C49.6362 5.60058 49.4202 5.07984 49.0967 4.62413C48.7297 4.10712 48.3924 3.36206 47.4611 2.95197C46.4548 2.50887 45.147 2.03529 44.3917 2.13085C42.1061 2.42001 38.5508 3.16496 38.0024 3.60715C37.5333 3.98546 36.9792 4.24421 36.5629 4.68139C35.7497 5.53536 34.8642 6.82534 34.6726 7.43305Z" fill="#325530"/>
<path d="M44.2716 1.18197C43.0961 1.33069 41.6062 1.59498 40.337 1.87847C39.7029 2.0201 39.1095 2.1697 38.6309 2.31617C38.3923 2.3892 38.1688 2.46531 37.9775 2.54381C37.829 2.60475 37.6394 2.69092 37.4724 2.80968L37.4021 2.86256L37.2571 2.97331C37.1081 3.08108 36.9446 3.18475 36.7315 3.32725C36.472 3.50073 36.1553 3.72259 35.8706 4.02154C35.4233 4.49121 34.9672 5.06823 34.5966 5.60778C34.2441 6.12104 33.9025 6.69556 33.7608 7.14517C33.4968 7.98267 33.3995 9.10984 33.4565 9.72196C33.6148 11.4215 33.8422 12.7955 34.0798 13.8377C34.3113 14.8531 34.5671 15.6213 34.8118 16.0625C35.1781 16.7232 35.5527 17.268 36.0014 17.7799C36.406 18.2415 36.9237 18.8102 37.9558 19.2233C38.8844 19.5949 39.9055 19.9676 40.7503 20.1653C41.1315 20.2546 41.6118 20.2572 42.077 20.2299C42.5661 20.2012 43.1289 20.1333 43.7173 20.0375C44.8929 19.8461 46.2251 19.5352 47.3642 19.1695C48.5709 18.782 49.4694 18.4639 50.7093 17.45C51.0117 17.2028 51.2374 17.0432 51.5455 16.8009C51.8201 16.585 52.1166 16.3348 52.3719 16.0268C52.5172 15.8515 52.5918 15.6479 52.6263 15.547C52.6718 15.4134 52.7095 15.2647 52.7398 15.1125C52.8008 14.8071 52.8425 14.4335 52.8417 14.0424C52.8402 13.3407 52.7006 12.2337 51.8891 11.5609C51.6751 11.3835 51.4389 11.3021 51.3132 11.262C51.2432 11.2397 51.1722 11.2202 51.1206 11.2058C51.0632 11.1898 51.0205 11.1777 50.9802 11.165C50.9726 11.1626 50.9657 11.1594 50.959 11.1571C50.97 11.1376 50.9813 11.1151 50.9953 11.0908C51.0857 10.9344 51.2474 10.664 51.3503 10.3425C51.4161 10.137 51.4398 9.88478 51.4484 9.6645C51.4581 9.41809 51.4518 9.11975 51.4221 8.78214C51.3628 8.10627 51.2084 7.24668 50.8851 6.2996C50.541 5.29129 50.2879 4.65071 49.876 4.07036C49.619 3.70839 49.0892 2.62406 47.8462 2.07675C47.323 1.84634 46.7039 1.59976 46.1035 1.42217C45.5362 1.25439 44.858 1.10777 44.2716 1.18197ZM40.7536 3.7436C41.9706 3.47177 43.4016 3.2187 44.5118 3.07824C44.6807 3.05692 45.0344 3.09942 45.5613 3.25525C46.0551 3.40131 46.593 3.61338 47.0759 3.82602C47.6955 4.09886 47.8406 4.50459 48.3176 5.17661C48.5525 5.5076 48.7318 5.90841 49.076 6.91696C49.3461 7.70822 49.4711 8.41578 49.5179 8.94939C49.5414 9.21636 49.5447 9.43345 49.5386 9.58983C49.5342 9.70077 49.526 9.75845 49.5239 9.77515C49.4934 9.86347 49.4425 9.95811 49.3406 10.1344C49.2585 10.2763 49.083 10.5659 49.0079 10.8969C48.8917 11.4091 49.0796 11.8934 49.2611 12.1704C49.6067 12.6975 50.1039 12.8928 50.4061 12.988C50.481 13.0116 50.5529 13.0317 50.6064 13.0466C50.6526 13.0595 50.6848 13.0688 50.7115 13.0769C50.7507 13.1264 50.7989 13.2103 50.8411 13.3486C50.8997 13.5408 50.9299 13.7834 50.9305 14.0466C50.931 14.3068 50.9026 14.5536 50.8657 14.7385C50.8531 14.8013 50.84 14.8506 50.8297 14.8868C50.7147 15.0102 50.5657 15.14 50.3638 15.2988C50.1515 15.4657 49.8005 15.7245 49.4995 15.9705C48.5328 16.761 47.8999 16.9902 46.7798 17.3498C45.74 17.6837 44.5013 17.9733 43.4102 18.1509C42.8651 18.2397 42.3705 18.2982 41.9653 18.322C41.5365 18.3471 41.2858 18.3278 41.186 18.3045C40.4894 18.1415 39.5798 17.8148 38.6662 17.4491C38.0548 17.2044 37.7786 16.9072 37.439 16.5199C37.0929 16.125 36.7941 15.6958 36.4835 15.1357C36.3748 14.9397 36.1657 14.389 35.9432 13.413C35.7268 12.4638 35.5113 11.1734 35.3596 9.54467C35.3266 9.19073 35.3947 8.31892 35.5836 7.71962C35.6335 7.56155 35.8307 7.18714 36.1721 6.69005C36.4955 6.21924 36.8888 5.72393 37.2547 5.33968C37.3863 5.20158 37.5548 5.07575 37.7937 4.91608C38.0024 4.77649 38.307 4.58469 38.5801 4.36731C38.5682 4.37604 38.5975 4.35559 38.7032 4.31225C38.8202 4.26425 38.9827 4.20739 39.1902 4.14388C39.6038 4.0173 40.1448 3.87959 40.7536 3.7436Z" fill="black"/>
<path d="M28.4603 9.15065C28.9274 9.73261 29.3604 10.6248 29.4903 11.0863C30.385 14.2662 30.5585 16.316 30.4552 17.0294C30.3563 17.7128 30.2151 18.2817 30.0052 18.8413C29.8088 19.3652 29.5921 19.9057 28.9416 20.5015C28.2125 21.1692 27.4355 21.8352 26.7798 22.2758C25.9616 22.8257 23.016 23.4183 20.732 23.5484C19.5126 23.6178 18.7 23.6378 17.3485 23.1983C16.6095 22.958 15.9737 22.8369 15.4579 22.5507C15.1586 22.3846 14.0912 20.5799 14.6808 19.5459C14.85 19.2492 15.4599 19.0895 15.588 18.5126C15.6243 18.349 15.6099 18.1229 15.509 17.9732C15.3235 17.6983 14.9371 17.5115 14.6655 17.1763C14.4631 16.9264 13.9342 15.652 13.8698 13.8377C13.8324 12.7851 13.8489 12.228 13.9889 11.6926C14.1477 11.0853 14.1977 10.2781 14.9215 9.56855C15.7037 8.80187 16.7566 7.89977 17.4961 7.71914C19.7337 7.17255 23.3194 6.59447 23.9889 6.80715C24.5617 6.98911 25.1712 7.03059 25.7156 7.28562C26.779 7.7838 28.0651 8.65837 28.4603 9.15065Z" fill="#325530"/>
<path d="M17.2693 6.79078C18.4197 6.50977 19.905 6.2234 21.191 6.03327C21.8335 5.93827 22.4408 5.8651 22.9396 5.82991C23.1882 5.81237 23.4233 5.80343 23.6295 5.80773C23.7897 5.81108 23.997 5.82243 24.1946 5.87244L24.2784 5.89641L24.4537 5.94711C24.6313 5.99353 24.8211 6.03062 25.0706 6.08614C25.3744 6.15376 25.7489 6.24615 26.1211 6.42052C26.7061 6.69456 27.3376 7.06422 27.876 7.43013C28.3876 7.77788 28.912 8.18678 29.2057 8.55263C29.7515 9.23267 30.245 10.2399 30.4105 10.8277C30.8675 12.4522 31.1442 13.8013 31.2933 14.8481C31.4385 15.8675 31.4732 16.6695 31.4013 17.1664C31.294 17.9073 31.1377 18.5442 30.9003 19.1771C30.6862 19.7482 30.4046 20.458 29.5873 21.2065C28.8522 21.8797 28.0312 22.5863 27.3129 23.0691C26.9895 23.2864 26.5429 23.4595 26.099 23.5998C25.6325 23.7472 25.0832 23.8846 24.4999 24.0056C23.3343 24.2473 21.9801 24.4348 20.7866 24.5028C19.5225 24.5748 18.5711 24.6009 17.0532 24.1074C16.6828 23.9869 16.4151 23.9197 16.0414 23.806C15.7084 23.7047 15.3427 23.5795 14.9945 23.3863C14.7954 23.2758 14.6525 23.1137 14.5838 23.0322C14.4931 22.9246 14.4042 22.8002 14.3213 22.67C14.1551 22.4091 13.9829 22.0785 13.844 21.7162C13.5948 21.0665 13.3288 19.988 13.8508 19.0726L13.9047 18.9863C14.0349 18.7933 14.1932 18.6624 14.283 18.5913C14.3404 18.5458 14.3998 18.5022 14.4428 18.4706C14.4906 18.4355 14.526 18.4094 14.5592 18.3833C14.561 18.3819 14.5626 18.38 14.5644 18.3786C14.5514 18.368 14.5379 18.356 14.5226 18.3438C14.3828 18.232 14.1348 18.0391 13.9232 17.7778C13.7872 17.6099 13.6743 17.3841 13.5876 17.1835C13.4905 16.9588 13.3904 16.6803 13.2977 16.3576C13.1122 15.7115 12.9501 14.8622 12.915 13.8718C12.8776 12.8193 12.8854 12.1358 13.0644 11.4512C13.1752 11.0273 13.2854 9.83436 14.2528 8.88605C14.6596 8.48735 15.1501 8.04004 15.6475 7.66278C16.1178 7.30606 16.6974 6.93051 17.2693 6.79078ZM21.4704 7.92386C20.2368 8.10625 18.8103 8.382 17.7231 8.64756C17.5556 8.68849 17.2391 8.85443 16.8026 9.18548C16.3931 9.49606 15.966 9.88323 15.5906 10.2512C15.1103 10.722 15.1204 11.1437 14.9136 11.9346C14.8127 12.3206 14.7876 12.7515 14.825 13.8041C14.8543 14.6279 14.9891 15.3228 15.1347 15.8299C15.2076 16.0837 15.2812 16.2844 15.3422 16.4255C15.3855 16.5258 15.4132 16.5753 15.4207 16.5891C15.4795 16.6578 15.5601 16.7259 15.7167 16.8513C15.8433 16.9525 16.1118 17.1582 16.3012 17.439C16.5963 17.8762 16.593 18.3966 16.5213 18.7198C16.3851 19.3336 15.9878 19.6914 15.7409 19.8856C15.6794 19.9339 15.6192 19.9781 15.5746 20.0109C15.5367 20.0387 15.5101 20.0587 15.4883 20.0755C15.4702 20.133 15.4556 20.2245 15.4652 20.363C15.4786 20.5582 15.5358 20.7901 15.6284 21.0317C15.72 21.2705 15.8338 21.4869 15.9334 21.6434C15.9663 21.695 15.995 21.7348 16.0168 21.7639C16.168 21.8366 16.3531 21.9031 16.5978 21.9775C16.8557 22.056 17.2755 22.1696 17.6442 22.2895C18.8292 22.6748 19.5031 22.6612 20.6778 22.5943C21.7683 22.5322 23.0289 22.3585 24.1116 22.134C24.6525 22.0218 25.1359 21.8994 25.5232 21.777C25.933 21.6475 26.1613 21.5404 26.247 21.4828C26.84 21.0843 27.5732 20.4593 28.2964 19.797C28.7801 19.354 28.9317 18.9825 29.1105 18.5058C29.2928 18.0195 29.419 17.5183 29.5096 16.8924C29.5409 16.6758 29.5402 16.096 29.4009 15.1176C29.2654 14.1662 29.008 12.9005 28.5704 11.3453C28.4761 11.0101 28.1036 10.2327 27.7153 9.74883C27.6137 9.62239 27.2974 9.34806 26.8015 9.01099C26.3322 8.69201 25.7889 8.37523 25.3105 8.15109C25.1383 8.07044 24.9357 8.01427 24.6555 7.95191C24.4105 7.89736 24.0577 7.82926 23.7253 7.72586C23.7399 7.72982 23.7049 7.72076 23.5895 7.71835C23.4628 7.71571 23.2904 7.72145 23.0739 7.73672C22.6422 7.76719 22.0875 7.83262 21.4704 7.92386Z" fill="black"/>
<path d="M36.859 11.7959C37.5138 15.0461 37.779 16.6216 37.3315 17.134C35.7622 18.9309 32.127 18.7845 30.4917 18.8536C28.8563 18.9228 28.2285 18.5856 27.7996 17.796C27.1475 15.8007 26.9045 14.2166 27.1282 13.5217C27.5993 12.0588 27.9913 9.93582 29.5095 9.70767C31.2348 9.44839 33.5982 8.65747 34.8832 9.74854C35.491 10.2646 36.6245 10.6323 36.859 11.7959Z" fill="#325530"/>
<path d="M29.3673 8.76208C28.1216 8.9493 27.4481 9.91587 27.06 10.7466C26.68 11.5601 26.4207 12.5996 26.2183 13.2281C26.0331 13.8036 26.0736 14.5659 26.1911 15.3183C26.3154 16.115 26.5541 17.0613 26.891 18.0923L26.9181 18.175L26.9596 18.2516C27.2513 18.7885 27.6617 19.2496 28.3226 19.5273C28.932 19.7834 29.6663 19.8444 30.5317 19.8078C31.2766 19.7763 32.7014 19.7932 34.0781 19.5864C35.4371 19.3823 37.0322 18.9286 38.051 17.7621C38.351 17.4186 38.4525 16.9937 38.4891 16.6381C38.5269 16.2705 38.5077 15.8477 38.4588 15.3897C38.361 14.473 38.1209 13.2208 37.7956 11.6065C37.6161 10.7154 37.0842 10.1523 36.5973 9.77408C36.3622 9.59149 36.117 9.43673 35.9307 9.31737C35.7257 9.18599 35.5963 9.09986 35.5016 9.01943C34.5462 8.20828 33.2872 8.17137 32.269 8.27008C31.7378 8.32158 31.2031 8.41828 30.7148 8.51262C30.2102 8.61012 29.7725 8.70119 29.3673 8.76208ZM31.0774 10.389C31.5576 10.2962 32.0176 10.2148 32.4534 10.1726C33.3695 10.0838 33.9348 10.1967 34.2645 10.4766C34.4736 10.6542 34.7137 10.8076 34.8994 10.9267C35.1039 11.0577 35.271 11.1643 35.4245 11.2835C35.7149 11.509 35.8672 11.7118 35.9221 11.9841C36.2517 13.62 36.4716 14.7809 36.5582 15.5927C36.6016 15.9988 36.6055 16.2691 36.5876 16.4426C36.5823 16.4943 36.5759 16.5287 36.571 16.5497C36.0124 17.1529 35.0237 17.5116 33.7942 17.6963C32.5522 17.8828 31.3417 17.8606 30.4512 17.8983C29.6814 17.9308 29.2838 17.858 29.0632 17.7653C28.9109 17.7013 28.8005 17.6115 28.6796 17.4092C28.3806 16.4822 28.1806 15.6705 28.0796 15.0233C27.9685 14.3115 27.9991 13.934 28.0376 13.8143C28.3062 12.9799 28.4786 12.2264 28.7919 11.5558C29.0971 10.9023 29.3791 10.6931 29.6515 10.6522C30.1089 10.5834 30.6136 10.4786 31.0774 10.389Z" fill="black"/>
<path fill-rule="evenodd" clip-rule="evenodd" d="M41.1236 35.8767C41.0899 35.8888 41.0556 35.9001 41.0209 35.9106C40.0238 36.2112 38.9609 36.003 38.1778 35.6458C37.3699 35.2772 36.4039 34.538 36.0321 33.3046C35.8869 32.8231 35.7934 32.2337 35.9209 31.6079C36.0592 30.9297 36.4244 30.3723 36.9195 29.9733C37.7485 29.3051 38.8249 29.1853 39.4259 29.136C39.4923 29.1305 39.5698 29.1236 39.6536 29.1161C39.8801 29.0958 40.1529 29.0713 40.3784 29.0611C40.7051 29.0463 41.1832 29.0432 41.6855 29.1773C42.2471 29.3273 42.7957 29.6364 43.2293 30.1643C43.6288 30.6507 43.8355 31.208 43.9546 31.7125C44.1379 32.4889 43.9019 33.1524 43.7331 33.512C43.5476 33.9074 43.2986 34.2434 43.0785 34.4983C42.6815 34.9579 42.0807 35.4915 41.4631 35.7619C41.3516 35.8108 41.238 35.8489 41.1236 35.8767Z" fill="white"/>
<path fill-rule="evenodd" clip-rule="evenodd" d="M70.9587 35.9284C70.9268 35.9399 70.8944 35.9506 70.8615 35.9605C69.9178 36.245 68.9118 36.048 68.1706 35.7099C67.4058 35.361 66.4916 34.6614 66.1396 33.494C66.0022 33.0382 65.9137 32.4804 66.0345 31.888C66.1653 31.2461 66.511 30.7186 66.9796 30.3409C67.7642 29.7085 68.783 29.5951 69.3518 29.5484C69.4147 29.5433 69.488 29.5367 69.5674 29.5296C69.7817 29.5104 70.0399 29.4872 70.2534 29.4775C70.5626 29.4635 71.0151 29.4606 71.4906 29.5875C72.0221 29.7295 72.5414 30.0221 72.9517 30.5217C73.3299 30.9821 73.5255 31.5096 73.6382 31.9871C73.8117 32.7219 73.5883 33.3499 73.4286 33.6903C73.253 34.0645 73.0173 34.3825 72.809 34.6238C72.4332 35.0588 71.8646 35.5639 71.2801 35.8198C71.1745 35.866 71.067 35.9021 70.9587 35.9284Z" fill="white"/>
<path d="M6.31116 37.7033C6.03983 37.54 5.68752 37.6276 5.52422 37.8989C5.36094 38.1702 5.44851 38.5225 5.71984 38.6858C12.3514 42.6766 23.6836 47.6486 36.3224 48.7727C48.1051 49.8207 57.2656 51.0083 72.4601 47.7386C72.7772 47.6704 73.7682 47.3531 75.0207 46.9349C76.2944 46.5096 77.8872 45.9629 79.4444 45.4174C81.0012 44.872 82.5258 44.3263 83.6624 43.9029C84.2298 43.6915 84.7054 43.5088 85.0415 43.3709C85.2079 43.3026 85.3493 43.2418 85.4528 43.1917C85.5022 43.1678 85.5585 43.1389 85.6085 43.1073C85.6312 43.093 85.6737 43.065 85.7171 43.0248C85.7386 43.005 85.7767 42.9676 85.8127 42.9132C85.8449 42.8646 85.9101 42.7509 85.9101 42.5907C85.9101 42.274 85.6534 42.0173 85.3367 42.0173C85.1964 42.0173 85.068 42.0679 84.9683 42.1517C84.9638 42.1539 84.9587 42.1568 84.953 42.1595C84.8819 42.1939 84.7668 42.2441 84.6062 42.31C84.2879 42.4406 83.8262 42.6183 83.2619 42.8285C82.1352 43.2482 80.6186 43.7909 79.0651 44.3352C77.5119 44.8793 75.9247 45.4239 74.6574 45.8471C73.3689 46.2773 72.4573 46.5659 72.2189 46.6172C57.2141 49.8461 48.2136 48.679 36.424 47.6304C24.0016 46.5256 12.836 41.6298 6.31116 37.7033ZM84.7824 42.447C84.7838 42.4416 84.785 42.4364 84.7865 42.4313C84.785 42.4365 84.7837 42.4417 84.7824 42.447ZM84.7973 42.3984C84.7983 42.3958 84.7993 42.3932 84.8003 42.3906C84.7993 42.3932 84.7982 42.3958 84.7973 42.3984ZM84.7633 42.5907C84.7633 42.5511 84.7676 42.5146 84.7742 42.4813C84.7673 42.5167 84.7633 42.5532 84.7633 42.5907Z" fill="black"/>
<path d="M33.0704 45.5742C33.0355 45.366 32.8384 45.2254 32.6303 45.2602C32.1636 45.3385 31.5325 45.5696 30.9465 45.7978C30.4138 46.0052 29.9119 46.2129 29.5254 46.3475L29.367 46.4004L29.3585 46.4031L29.3498 46.4065C28.4243 46.7509 27.6681 47.0451 26.0645 47.4894L25.3224 47.6898L25.3149 47.6916C24.8142 47.834 24.6499 47.9019 24.3351 47.9454C24.126 47.9742 23.9797 48.1674 24.0086 48.3766C24.0375 48.5857 24.2308 48.7317 24.4399 48.7028C24.823 48.6499 25.0803 48.5534 25.5166 48.4291L26.272 48.2254C27.905 47.7728 28.6828 47.4704 29.6167 47.1229L29.617 47.123C30.0483 46.9838 30.6547 46.7319 31.2241 46.5102C31.8237 46.2767 32.3808 46.0774 32.7565 46.0143C32.9646 45.9794 33.1053 45.7823 33.0704 45.5742Z" fill="black"/>
<path d="M26.0094 42.9686C25.8174 43.0562 25.7326 43.2829 25.8201 43.475C26.0165 43.9054 26.403 44.4552 26.7752 44.9623C27.1134 45.4231 27.4439 45.8541 27.6739 46.1926L27.766 46.3319L27.7708 46.3394L27.7763 46.3469C28.3486 47.1518 28.8285 47.806 29.6727 49.2401L30.0583 49.905L30.062 49.9118C30.3291 50.3586 30.4373 50.4997 30.5607 50.7925C30.6427 50.987 30.8672 51.0783 31.0618 50.9963C31.2563 50.9143 31.3472 50.6898 31.2652 50.4953C31.115 50.1389 30.9552 49.9154 30.7221 49.5261L30.3299 48.8491C29.4701 47.3889 28.9767 46.7159 28.3993 45.9038L28.3993 45.9034C28.1532 45.5229 27.753 45.0023 27.3915 44.5097C27.0107 43.9909 26.674 43.5044 26.5158 43.1579C26.4282 42.9659 26.2015 42.881 26.0094 42.9686Z" fill="black"/>
<path d="M47.3802 46.9204C47.3191 46.7183 47.1057 46.6039 46.9037 46.665C46.4508 46.802 45.8543 47.1115 45.302 47.4125C44.8001 47.686 44.3286 47.9559 43.9625 48.1385L43.8121 48.2111L43.804 48.2149L43.7958 48.2194C42.9216 48.6788 42.209 49.0668 40.675 49.7115L39.9644 50.0048L39.9572 50.0075C39.4787 50.2125 39.3243 50.3007 39.0177 50.3839C38.8139 50.4391 38.6934 50.6494 38.7487 50.8531C38.8039 51.0569 39.0142 51.1771 39.218 51.1218C39.5912 51.0206 39.8341 50.8922 40.2511 50.7133L40.9745 50.4151C42.5366 49.7585 43.2695 49.3595 44.1516 48.896L44.152 48.896C44.562 48.7031 45.1315 48.3761 45.668 48.0838C46.2331 47.7759 46.7602 47.5072 47.1248 47.3969C47.3269 47.3357 47.4413 47.1224 47.3802 46.9204Z" fill="black"/>
<path d="M40.0437 45.2351C39.8644 45.3465 39.8091 45.5822 39.9204 45.7615C40.1699 46.1635 40.6233 46.6596 41.0569 47.1152C41.451 47.5292 41.8337 47.9147 42.105 48.2211L42.214 48.3476L42.2197 48.3545L42.2262 48.3612C42.8962 49.0867 43.4554 49.6746 44.4752 50.9895L44.9424 51.6L44.9469 51.6062C45.2687 52.0154 45.3939 52.1416 45.5536 52.4163C45.6597 52.5988 45.894 52.6608 46.0765 52.5547C46.259 52.4486 46.3207 52.2143 46.2146 52.0318C46.0202 51.6975 45.8333 51.4961 45.5526 51.1397L45.0773 50.5181C44.0388 49.1792 43.4637 48.5744 42.7877 47.8424L42.7876 47.842C42.4951 47.4959 42.0319 47.0304 41.6106 46.5879C41.167 46.1218 40.7711 45.6821 40.5701 45.3585C40.4587 45.1792 40.2231 45.1239 40.0437 45.2351Z" fill="black"/>
<path d="M62.6995 46.228C62.5928 46.0458 62.3587 45.9844 62.1765 46.0909C61.7681 46.3299 61.2603 46.7702 60.7936 47.1917C60.3694 47.5749 59.974 47.9474 59.6607 48.2105L59.5314 48.3163L59.5244 48.3218L59.5175 48.328C58.7747 48.9789 58.1725 49.5226 56.8314 50.5077L56.2089 50.9588L56.2025 50.9631C55.7851 51.2741 55.6556 51.396 55.3769 51.5485C55.1917 51.6498 55.1236 51.8824 55.2249 52.0676C55.3262 52.2528 55.5587 52.3205 55.7439 52.2192C56.0832 52.0337 56.2895 51.8521 56.6531 51.5808L57.2869 51.1219C58.6524 50.1187 59.272 49.5596 60.0214 48.9029L60.0218 48.9029C60.3754 48.6195 60.8528 48.1686 61.3063 47.759C61.7838 47.3277 62.2337 46.9434 62.5624 46.7509C62.7446 46.6443 62.806 46.4101 62.6995 46.228Z" fill="black"/>
<path d="M55.1726 46.3018C55.0242 46.452 55.0255 46.6941 55.1755 46.8425C55.5121 47.175 56.0688 47.5516 56.5968 47.8933C57.0767 48.2039 57.5388 48.4894 57.8741 48.724L58.0097 48.8215L58.0168 48.8268L58.0247 48.8319C58.8456 49.3809 59.5266 49.8219 60.8253 50.8623L61.4221 51.3469L61.4279 51.3519C61.8364 51.6745 61.9876 51.7681 62.207 51.9978C62.3528 52.1505 62.5951 52.1561 62.7478 52.0103C62.9004 51.8645 62.9057 51.6224 62.7599 51.4697C62.4929 51.19 62.2641 51.0378 61.9079 50.7568L61.3007 50.2633C59.9782 49.204 59.2778 48.7502 58.4495 48.1963L58.4494 48.1959C58.0841 47.9277 57.525 47.5833 57.0121 47.2513C56.4718 46.9017 55.9842 46.5666 55.7132 46.2989C55.5631 46.1505 55.321 46.1518 55.1726 46.3018Z" fill="black"/>
<path d="M75.0403 42.9551C74.8843 42.8129 74.6424 42.824 74.5002 42.98C74.1816 43.3297 73.8279 43.9012 73.5079 44.4427C73.217 44.9348 72.9506 45.4081 72.7297 45.7527L72.6378 45.8921L72.6328 45.8994L72.628 45.9075C72.1128 46.75 71.6998 47.4484 70.7129 48.7882L70.253 49.4041L70.2482 49.4102C69.9424 49.8314 69.8551 49.9863 69.6344 50.2148C69.4877 50.3667 69.492 50.609 69.6438 50.7557C69.7957 50.9023 70.0379 50.8977 70.1845 50.7459C70.4531 50.4677 70.596 50.2329 70.8623 49.8656L71.3307 49.2389C72.3355 47.8745 72.7605 47.1562 73.2804 46.3062L73.2807 46.306C73.5339 45.9302 73.8554 45.3576 74.1662 44.8316C74.4937 44.2776 74.8087 43.7768 75.0652 43.4951C75.2073 43.3391 75.1962 43.0973 75.0403 42.9551Z" fill="black"/>
<path d="M67.8767 45.2667C67.7797 45.4542 67.853 45.685 68.0405 45.782C68.4608 45.9992 69.1044 46.1929 69.7102 46.3619C70.2608 46.5155 70.787 46.6504 71.1769 46.7745L71.3354 46.8272L71.3438 46.8302L71.3528 46.8326C72.2999 47.1123 73.0814 47.3304 74.631 47.9369L75.345 48.2218L75.3521 48.2248C75.8381 48.4112 76.0103 48.4555 76.2882 48.6095C76.4728 48.7118 76.7058 48.645 76.8081 48.4604C76.9104 48.2757 76.8434 48.043 76.6587 47.9406C76.3205 47.7532 76.0568 47.676 75.6331 47.5138L74.9064 47.2236C73.3284 46.6061 72.5247 46.3815 71.569 46.0994L71.5688 46.0991C71.1403 45.9518 70.504 45.7895 69.9154 45.6253C69.2956 45.4525 68.7303 45.2778 68.3919 45.1029C68.2044 45.006 67.9736 45.0793 67.8767 45.2667Z" fill="black"/>
<path d="M43.5441 32.7751C43.3319 33.8919 41.652 34.9241 40.8614 35.5873C40.2764 35.174 39.4521 34.9065 38.9978 34.6744C38.192 34.2626 36.881 33.9582 36.8044 32.6402C36.7277 31.3222 37.3583 30.6905 37.7054 30.4089C38.2684 29.9523 39.5404 29.9361 39.9249 30.7395C39.9637 30.8204 40.2203 32.2179 40.4061 31.4284C40.49 31.0717 40.7362 30.4199 41.1001 30.2115C41.8077 29.8063 42.9556 29.9383 43.2742 30.5446C43.7786 31.5046 43.6815 32.0524 43.5441 32.7751Z" fill="#CC2936"/>
<path d="M72.5373 33.5369C72.1243 34.5303 70.3679 35.161 69.507 35.6222C69.0451 35.1259 68.3332 34.7184 67.9574 34.4152C67.2907 33.8775 66.1352 33.3414 66.3196 32.1055C66.5041 30.8696 67.2107 30.4067 67.5869 30.2131C68.1969 29.8992 69.3784 30.1307 69.579 30.9495C69.5992 31.032 69.5661 32.3764 69.8912 31.681C70.0381 31.3668 70.3925 30.8107 70.77 30.6881C71.5041 30.4499 72.542 30.7947 72.7196 31.4182C73.0008 32.4053 72.8047 32.894 72.5373 33.5369Z" fill="#CC2936"/>
</svg>
