<svg width="104" height="102" viewBox="0 0 104 102" fill="none" xmlns="http://www.w3.org/2000/svg">
<mask id="mask0_14_55" style="mask-type:alpha" maskUnits="userSpaceOnUse" x="29" y="41" width="75" height="61">
<path d="M29.8999 41.4875H103.9V101.488H29.8999V41.4875Z" fill="#D9D9D9"/>
</mask>
<g mask="url(#mask0_14_55)">
<g filter="url(#filter0_d_14_55)">
<path d="M84.4002 102.638C84.2906 100.63 84.2137 99.7702 83.8856 99.3912C83.5081 98.9551 82.9824 98.5806 82.6946 98.5149C82.0011 98.4141 81.505 98.5683 81.1833 98.7591C80.7579 99.0114 80.065 99.3639 79.9163 100.054C79.7502 100.825 79.6339 106.426 79.9382 107.322C80.0696 107.604 80.3325 108.135 80.5481 108.384C80.8941 108.783 81.7884 109.463 82.4678 109.119C82.7898 108.956 83.3776 108.608 83.5296 108.157C83.9747 106.835 84.2245 106.115 84.3075 105.338C84.3949 104.519 84.4582 103.7 84.4002 102.638Z" fill="black"/>
<path d="M84.2027 99.1173C83.9918 98.8736 83.7416 98.65 83.5032 98.4764C83.3336 98.3528 83.1452 98.2359 82.965 98.1634L82.7884 98.1071L82.772 98.1032L82.7549 98.1012C81.9665 97.9867 81.3733 98.1595 80.9694 98.3991C80.7759 98.5138 80.4556 98.6882 80.1771 98.9222C79.8916 99.1621 79.6081 99.4975 79.5072 99.9657C79.4567 100.2 79.4184 100.734 79.3894 101.37C79.3597 102.023 79.3386 102.829 79.3327 103.638C79.3268 104.446 79.3354 105.263 79.3652 105.936C79.38 106.272 79.4007 106.576 79.4276 106.829C79.4533 107.07 79.488 107.297 79.5423 107.456L79.5497 107.478L79.5586 107.499C79.6265 107.645 79.7294 107.857 79.8445 108.067C79.9555 108.269 80.0931 108.497 80.2318 108.657C80.4356 108.893 80.7878 109.2 81.1951 109.405C81.5922 109.604 82.1412 109.754 82.6571 109.493C82.8307 109.405 83.0857 109.262 83.3228 109.074C83.5519 108.892 83.8125 108.63 83.9269 108.29C84.3659 106.986 84.6352 106.216 84.7242 105.382C84.8127 104.553 84.8778 103.708 84.8182 102.616C84.7636 101.616 84.7169 100.88 84.6398 100.344C84.5649 99.8243 84.4522 99.4057 84.2027 99.1173ZM83.5692 99.6657C83.6476 99.7564 83.7379 99.9578 83.8108 100.464C83.8815 100.956 83.927 101.653 83.982 102.661C84.0382 103.691 83.9777 104.485 83.8915 105.293C83.8145 106.014 83.5837 106.684 83.1327 108.023C83.095 108.135 82.9856 108.273 82.8023 108.419C82.6272 108.558 82.4272 108.67 82.2789 108.745C82.1156 108.828 81.8777 108.81 81.5716 108.656C81.2753 108.507 81.0069 108.274 80.8646 108.11C80.7878 108.021 80.6854 107.859 80.5783 107.664C80.4825 107.489 80.396 107.309 80.3331 107.175C80.3119 107.106 80.2831 106.965 80.2592 106.74C80.2348 106.512 80.2158 106.226 80.2014 105.899C80.1725 105.246 80.1634 104.445 80.1692 103.645C80.1751 102.845 80.1958 102.05 80.2251 101.408C80.2551 100.749 80.2934 100.293 80.326 100.142C80.3737 99.9205 80.5109 99.735 80.7152 99.5633C80.9264 99.3858 81.1648 99.2569 81.3966 99.1194C81.6332 98.979 82.0264 98.846 82.613 98.9267C82.678 98.9456 82.8196 99.0138 83.0101 99.1526C83.2009 99.2916 83.4027 99.4734 83.5692 99.6657Z" fill="black"/>
<path d="M73.7967 102.638C73.6871 100.63 73.6102 99.7702 73.2821 99.3912C72.9046 98.9551 72.3789 98.5806 72.0911 98.5149C71.3976 98.4141 70.9014 98.5683 70.5797 98.7591C70.1544 99.0114 69.4615 99.3639 69.3128 100.054C69.1466 100.825 69.0304 106.426 69.3347 107.322C69.4661 107.604 69.729 108.135 69.9446 108.384C70.2906 108.783 71.1849 109.463 71.8643 109.119C72.1863 108.956 72.7741 108.608 72.9261 108.157C73.3711 106.835 73.621 106.115 73.704 105.338C73.7914 104.519 73.8547 103.7 73.7967 102.638Z" fill="black"/>
<path d="M73.5992 99.1173C73.3882 98.8736 73.138 98.65 72.8997 98.4764C72.7301 98.3528 72.5417 98.2359 72.3615 98.1634L72.1848 98.1071L72.1685 98.1032L72.1513 98.1012C71.3629 97.9867 70.7698 98.1595 70.3659 98.3991C70.1724 98.5138 69.852 98.6882 69.5735 98.9222C69.2881 99.1621 69.0046 99.4975 68.9037 99.9657C68.8532 100.2 68.8149 100.734 68.7859 101.37C68.7562 102.023 68.7351 102.829 68.7292 103.638C68.7233 104.446 68.7319 105.263 68.7617 105.936C68.7765 106.272 68.7972 106.576 68.824 106.829C68.8498 107.07 68.8845 107.297 68.9387 107.456L68.9462 107.478L68.9551 107.499C69.0229 107.645 69.1259 107.857 69.241 108.067C69.352 108.269 69.4896 108.497 69.6283 108.657C69.8321 108.893 70.1843 109.2 70.5915 109.405C70.9887 109.604 71.5377 109.754 72.0536 109.493C72.2272 109.405 72.4822 109.262 72.7193 109.074C72.9483 108.892 73.209 108.63 73.3234 108.29C73.7624 106.986 74.0317 106.216 74.1206 105.382C74.2092 104.553 74.2743 103.708 74.2147 102.616C74.1601 101.616 74.1133 100.88 74.0363 100.344C73.9614 99.8243 73.8487 99.4057 73.5992 99.1173ZM72.9657 99.6657C73.0441 99.7564 73.1344 99.9578 73.2073 100.464C73.278 100.956 73.3235 101.653 73.3785 102.661C73.4347 103.691 73.3742 104.485 73.288 105.293C73.211 106.014 72.9801 106.684 72.5292 108.023C72.4914 108.135 72.3821 108.273 72.1988 108.419C72.0237 108.558 71.8237 108.67 71.6754 108.745C71.512 108.828 71.2742 108.81 70.9681 108.656C70.6718 108.507 70.4034 108.274 70.2611 108.11C70.1843 108.021 70.0819 107.859 69.9747 107.664C69.879 107.489 69.7925 107.309 69.7296 107.175C69.7084 107.106 69.6796 106.965 69.6557 106.74C69.6313 106.512 69.6123 106.226 69.5979 105.899C69.569 105.246 69.5598 104.445 69.5657 103.645C69.5716 102.845 69.5923 102.05 69.6215 101.408C69.6516 100.749 69.6899 100.293 69.7225 100.142C69.7702 99.9205 69.9074 99.735 70.1117 99.5633C70.3229 99.3858 70.5612 99.2569 70.7931 99.1194C71.0297 98.979 71.4229 98.846 72.0095 98.9267C72.0745 98.9456 72.216 99.0138 72.4065 99.1526C72.5973 99.2916 72.7992 99.4734 72.9657 99.6657Z" fill="black"/>
<path d="M68.2452 100.983C69.2901 103.453 70.8491 103.975 71.6413 104.178C71.8668 104.236 72.6403 104.3 72.8536 104.3H75.5847C76.7366 104.3 79.9014 104.011 82.107 102.952C82.5064 102.691 82.8339 102.426 83.2175 102.1C83.8369 101.573 84.3507 100.845 84.7563 99.9134C85.1272 99.0617 85.4125 97.914 85.6013 96.9076C85.7386 96.1754 85.7866 94.761 85.7115 93.8883C85.6656 92.7736 84.6765 88.9091 82.4644 86.9525C82.4644 86.9525 81.6251 85.5332 78.8222 85.0601C78.8222 85.0601 74.0859 84.8301 72.0658 86.3874C70.2338 87.7998 68.2254 90.4509 67.6108 96.6252C67.6108 96.6252 67.6108 99.9134 68.2452 100.983Z" fill="white"/>
<path d="M78.6284 84.4954C78.6976 84.497 78.7521 84.4989 78.7896 84.5002C78.8081 84.5009 78.8225 84.5018 78.8325 84.5022H78.8491L78.8823 84.5042L78.9155 84.51C80.4011 84.7609 81.3938 85.2675 82.0259 85.7346C82.3407 85.9673 82.5632 86.1879 82.7104 86.3567C82.7838 86.4408 82.8382 86.5122 82.8765 86.5657C82.8817 86.573 82.8865 86.5805 82.8911 86.5872C84.0613 87.6475 84.8842 89.1678 85.4194 90.5325C85.9551 91.8983 86.2346 93.1907 86.2671 93.8401C86.3356 94.7521 86.2984 96.2192 86.1499 97.011C85.9585 98.0312 85.6639 99.2269 85.2681 100.136C84.8365 101.127 84.2765 101.931 83.5786 102.525C83.1891 102.856 82.8411 103.138 82.4126 103.418L82.3813 103.439L82.3481 103.454C80.0332 104.566 76.7716 104.859 75.5845 104.859H72.854C72.719 104.859 72.449 104.84 72.1997 104.817C71.9613 104.794 71.6659 104.761 71.5024 104.719C71.0738 104.609 70.4064 104.404 69.7036 103.877C69.0028 103.352 68.2968 102.528 67.7407 101.223C67.5455 100.874 67.4185 100.409 67.3306 99.9573C67.236 99.4712 67.1748 98.9379 67.1343 98.4495C67.0936 97.9594 67.0731 97.5046 67.063 97.1731C67.0579 97.0071 67.0555 96.8704 67.0542 96.7756C67.0536 96.7287 67.0534 96.6918 67.0532 96.6663V96.5979L67.0552 96.5696C67.6814 90.2779 69.7459 87.4714 71.7251 85.9456C72.3117 85.4933 73.0651 85.1914 73.8276 84.9846C74.5962 84.7762 75.4115 84.6546 76.1489 84.5842C76.8878 84.5137 77.5601 84.4933 78.0474 84.4905C78.2914 84.4891 78.49 84.492 78.6284 84.4954ZM78.0542 85.6067C77.5903 85.6094 76.9519 85.629 76.2544 85.6956C75.5553 85.7623 74.8072 85.8753 74.1196 86.0618C73.4261 86.2499 72.8301 86.503 72.4067 86.8293C70.7244 88.1264 68.7743 90.6167 68.1685 96.6545C68.1685 96.6558 68.1694 96.6571 68.1694 96.6584C68.1696 96.6815 68.1698 96.7164 68.1704 96.761C68.1716 96.8502 68.1734 96.98 68.1782 97.1389C68.1879 97.4573 68.208 97.8914 68.2466 98.3567C68.2853 98.8238 68.3424 99.3133 68.4263 99.7444C68.4913 100.079 68.5662 100.346 68.645 100.535L68.7251 100.698L68.7446 100.731L68.7593 100.766C69.2466 101.918 69.8387 102.584 70.3726 102.985C70.9083 103.386 71.4164 103.545 71.7798 103.638C71.8418 103.654 72.0462 103.681 72.3042 103.705C72.5513 103.728 72.7757 103.742 72.854 103.742H75.5845C76.6952 103.742 79.7363 103.457 81.8315 102.463C82.1881 102.228 82.4889 101.987 82.856 101.675C83.3969 101.215 83.865 100.562 84.2446 99.6907C84.5905 98.8965 84.8671 97.7973 85.0532 96.8049C85.1794 96.1323 85.2275 94.7692 85.1558 93.9358L85.1548 93.9241L85.1538 93.9114C85.1343 93.4373 84.8966 92.256 84.3804 90.9397C83.8654 89.6268 83.1053 88.2646 82.0942 87.3704L82.0288 87.3127L81.9839 87.2366V87.2356C81.9808 87.231 81.9757 87.2242 81.9692 87.2151C81.9507 87.1892 81.9176 87.1462 81.8687 87.0901C81.7709 86.978 81.6081 86.8133 81.3628 86.6321C80.8778 86.2737 80.0568 85.8391 78.7554 85.6155C78.753 85.6154 78.7502 85.6156 78.7476 85.6155C78.7146 85.6143 78.6651 85.6122 78.6011 85.6106C78.4726 85.6075 78.2855 85.6053 78.0542 85.6067Z" fill="black"/>
<path d="M67.7393 95.9016C68.8786 97.5829 69.3922 98.2866 69.8708 98.4373C70.4215 98.6106 71.0672 98.6502 71.3481 98.5511C71.9951 98.2625 72.3404 97.8599 72.5169 97.52C72.7502 97.0707 73.1609 96.3895 72.9294 95.7111C72.6704 94.9526 72.0963 93.8013 71.3692 93.1898C70.7811 92.6953 69.9982 91.964 70.0169 91.0997C70.0328 90.3649 69.8413 89.8992 69.1272 89.4227C68.8679 89.2496 68.3663 88.9323 68.0518 88.8333C67.547 88.6744 66.4266 88.5704 66.023 89.2366C65.8317 89.5523 65.5088 90.1727 65.6135 90.6465C65.9198 92.0333 66.0801 92.7925 66.4137 93.5114C66.7649 94.2685 67.1372 95.0131 67.7393 95.9016Z" fill="black"/>
<path d="M69.7448 98.8369C70.0533 98.934 70.3849 98.9923 70.6802 99.0136C70.8906 99.0288 71.1136 99.0276 71.3062 98.9926L71.4877 98.9463L71.5184 98.9335C72.2531 98.6057 72.6689 98.1358 72.8884 97.7133C72.995 97.5081 73.1782 97.1848 73.2946 96.8327C73.4135 96.473 73.4816 96.0331 73.3257 95.5761C73.0578 94.7912 72.4524 93.5538 71.6386 92.8694C71.3487 92.6256 71.036 92.344 70.799 92.0308C70.5612 91.7165 70.4286 91.4086 70.4351 91.1085C70.4438 90.7046 70.3971 90.328 70.2193 89.9758C70.0412 89.6228 69.7537 89.3376 69.3595 89.0745C69.2254 88.985 69.0265 88.8569 68.8186 88.7373C68.618 88.622 68.3811 88.4983 68.1778 88.4343C67.8795 88.3404 67.4166 88.2655 66.9601 88.3089C66.5126 88.3515 65.968 88.5207 65.6652 89.0203C65.5624 89.19 65.4184 89.4501 65.3138 89.74C65.2127 90.0202 65.1271 90.3845 65.2048 90.7367C65.507 92.1049 65.6768 92.9174 66.0339 93.6872C66.3898 94.4542 66.7736 95.2214 67.3935 96.1362C67.9606 96.9731 68.3843 97.5862 68.729 98.0083C69.0634 98.4178 69.3782 98.7214 69.7448 98.8369ZM69.9964 98.0377C69.8846 98.0024 69.7032 97.879 69.3767 97.4792C69.0602 97.0915 68.658 96.5114 68.0858 95.6671C67.5016 94.805 67.1403 94.0828 66.7937 93.3356C66.4839 92.6679 66.3324 91.9615 66.0221 90.5568C65.9953 90.4353 66.0187 90.2517 66.1006 90.0245C66.179 89.8072 66.2923 89.5994 66.3807 89.4534C66.4816 89.2869 66.6991 89.1748 67.0386 89.1424C67.3693 89.111 67.7201 89.1676 67.9265 89.2326C68.0376 89.2676 68.2083 89.3518 68.4017 89.463C68.5877 89.57 68.7693 89.6871 68.8946 89.7707C69.2141 89.984 69.3799 90.1702 69.472 90.3528C69.5645 90.5361 69.6052 90.7599 69.5981 91.0907C69.5859 91.6547 69.8361 92.1454 70.132 92.5365C70.4287 92.9285 70.8019 93.2601 71.0999 93.5107C71.7403 94.0494 72.2831 95.1145 72.533 95.8467C72.6085 96.068 72.5866 96.3076 72.4998 96.5703C72.4104 96.8405 72.2726 97.0831 72.1459 97.327C72.0139 97.5812 71.7431 97.9111 71.1968 98.1596C71.1312 98.1783 70.9754 98.1959 70.7413 98.179C70.5059 98.162 70.2385 98.1139 69.9964 98.0377Z" fill="black"/>
<path d="M82.8343 90.6747C83.0765 88.3755 83.1458 87.3861 82.8399 86.9039C82.4878 86.3489 81.9548 85.8407 81.6376 85.7207C80.8627 85.4971 80.2668 85.5942 79.8639 85.7605C79.3311 85.9803 78.4738 86.2718 78.1775 87.0321C77.8462 87.8823 77.5011 89.3055 77.6852 90.3713C77.8342 91.2332 77.645 92.3182 77.3285 93.1827C77.0409 93.9684 76.6004 94.3564 76.8722 95.2951C76.9709 95.636 77.1746 96.2802 77.3757 96.5972C77.6984 97.1059 78.5971 98.0185 79.4373 97.7349C79.8355 97.6005 80.5717 97.2975 80.8283 96.8083C81.5793 95.3766 81.9969 94.5981 82.2341 93.7277C82.484 92.811 82.7063 91.8899 82.8343 90.6747Z" fill="black"/>
<path d="M83.1938 86.6797C82.9991 86.3728 82.7562 86.0816 82.5177 85.8492C82.3185 85.655 82.0924 85.4722 81.8773 85.3685L81.7856 85.3295L81.77 85.3232L81.7533 85.3188C80.8862 85.0687 80.193 85.1716 79.7039 85.3734C79.4578 85.4749 79.0674 85.6189 78.7129 85.8367C78.3515 86.0588 77.9807 86.3845 77.7874 86.8807C77.4461 87.7568 77.0695 89.2659 77.2729 90.443C77.4048 91.2072 77.237 92.2139 76.9351 93.0386C76.8708 93.2141 76.7977 93.3696 76.7202 93.5312C76.6453 93.6872 76.5613 93.8601 76.4965 94.0408C76.3569 94.4302 76.308 94.8523 76.47 95.4119C76.5208 95.5874 76.5997 95.8429 76.6923 96.0978C76.7821 96.3449 76.8957 96.6225 77.0222 96.8218C77.2093 97.1168 77.5524 97.5145 77.9743 97.8068C78.3889 98.0939 78.967 98.3356 79.5716 98.1315C79.7838 98.0599 80.0961 97.9403 80.3954 97.7674C80.6855 97.5996 81.0157 97.3522 81.1989 97.0032C81.9412 95.588 82.3859 94.762 82.638 93.8373C82.8906 92.9102 83.1187 91.965 83.2499 90.7185C83.3705 89.5734 83.4512 88.7316 83.4609 88.1144C83.4704 87.5134 83.4182 87.0337 83.1938 86.6797ZM82.4863 87.1286C82.5676 87.257 82.6339 87.5129 82.6246 88.1014C82.6156 88.6742 82.5398 89.4768 82.4183 90.6309C82.2936 91.8145 82.0772 92.7115 81.8302 93.6177C81.6078 94.4337 81.2177 95.1658 80.4581 96.6139C80.3846 96.7539 80.2174 96.9027 79.9759 97.0424C79.7437 97.1765 79.489 97.2757 79.3032 97.3384C79.0677 97.4178 78.7762 97.3448 78.4507 97.1194C78.1328 96.8992 77.8645 96.5872 77.7289 96.3735C77.6543 96.2559 77.5663 96.0518 77.4793 95.8124C77.3953 95.5812 77.3221 95.3446 77.2742 95.1792C77.1645 94.8004 77.2002 94.5582 77.2847 94.3226C77.332 94.1908 77.3948 94.0601 77.4749 93.8931C77.5523 93.7316 77.6417 93.5436 77.7212 93.3263C78.0522 92.4222 78.2639 91.2595 78.0981 90.3C77.9333 89.3358 78.2461 88.0082 78.5673 87.1839C78.6702 86.92 78.8764 86.7188 79.1506 86.5502C79.4319 86.3773 79.7373 86.2659 80.0239 86.1476C80.3376 86.0183 80.8293 85.9279 81.5011 86.1172C81.5811 86.1517 81.7376 86.2578 81.9336 86.4488C82.1289 86.6392 82.3289 86.8806 82.4863 87.1286Z" fill="black"/>
<path d="M91.008 54.8349C89.9513 55.2288 88.4402 54.6054 87.1199 54.6478C82.7718 54.7876 81.6667 51.6494 81.6658 51.0005C81.6636 49.4246 82.4854 47.8192 83.1665 46.926C83.8475 46.0328 84.6732 45.2219 85.7671 44.7756C87.0747 44.2422 92.2885 44.5753 93.8039 47.2863C94.5158 48.5597 94.0178 50.7481 93.3937 52.2527C92.9523 53.3168 92.0226 54.4567 91.008 54.8349Z" fill="black"/>
<path d="M94.0463 47.1495C93.2278 45.6854 91.4424 44.9009 89.7649 44.5409C88.9169 44.3589 88.0753 44.2806 87.3595 44.282C86.6535 44.2835 86.0384 44.3625 85.6604 44.5167C84.5016 44.9895 83.6392 45.8437 82.9433 46.7563C82.2416 47.6767 81.3832 49.3406 81.3855 51.0001C81.3858 51.2171 81.4711 51.5758 81.6509 51.9772C81.8343 52.3867 82.1259 52.8632 82.5608 53.3131C83.4372 54.2197 84.8774 54.9982 87.1276 54.9259C87.7544 54.9057 88.4224 55.0436 89.12 55.1483C89.7902 55.2489 90.5 55.321 91.1041 55.0958C91.6675 54.8858 92.1896 54.4725 92.6229 53.986C93.0578 53.4978 93.4173 52.9202 93.6501 52.359C93.9693 51.5895 94.2578 50.6417 94.3752 49.7173C94.4915 48.801 94.4454 47.8636 94.0463 47.1495ZM93.1346 52.1452C92.926 52.6481 92.6 53.1726 92.2061 53.6149C91.8105 54.0589 91.3604 54.4046 90.9092 54.5728C90.4567 54.7415 89.8825 54.6986 89.2029 54.5965C88.5508 54.4986 87.8031 54.346 87.1096 54.3683C85.0118 54.4357 83.7255 53.715 82.9621 52.9253C82.5771 52.527 82.3203 52.1061 82.1604 51.749C81.9969 51.384 81.9437 51.1071 81.9436 50.9995C81.9415 49.5074 82.7267 47.9607 83.3871 47.0947C84.0533 46.2209 84.8422 45.4531 85.8711 45.0333C86.1469 44.9208 86.6739 44.8414 87.3605 44.84C88.0375 44.8386 88.8394 44.913 89.6477 45.0864C91.2828 45.4373 92.862 46.1749 93.559 47.4217C93.8717 47.9811 93.9325 48.7746 93.8217 49.647C93.712 50.5112 93.4396 51.4102 93.1346 52.1452Z" fill="black"/>
<path d="M45.9845 70.5279C45.9899 71.6556 44.8835 72.8589 44.468 74.1128C43.0996 78.2424 39.7728 78.1974 39.1634 77.9744C37.6834 77.433 36.4599 76.1079 35.8565 75.1606C35.253 74.2133 34.7766 73.1586 34.7349 71.9779C34.6852 70.5666 36.796 65.7876 39.8633 65.3C41.3042 65.071 43.1866 66.2932 44.3836 67.398C45.2301 68.1793 45.9794 69.445 45.9845 70.5279Z" fill="black"/>
<path d="M39.8197 65.025C38.1632 65.2883 36.8111 66.6937 35.8946 68.1441C35.4313 68.8773 35.0675 69.6402 34.822 70.3126C34.5799 70.9758 34.4419 71.5804 34.4562 71.9884C34.5003 73.2392 35.0048 74.3433 35.6214 75.3112C36.2432 76.2873 37.509 77.6669 39.0675 78.2371C39.2713 78.3116 39.6374 78.3552 40.0763 78.3249C40.5238 78.2939 41.0717 78.1846 41.644 77.9316C42.7972 77.4216 44.0246 76.3383 44.7328 74.2012C44.9301 73.6059 45.2898 73.0264 45.6287 72.4077C45.9543 71.8133 46.2668 71.1719 46.2638 70.5273C46.2609 69.926 46.053 69.2934 45.7459 68.7189C45.4376 68.1423 45.0194 67.6057 44.5729 67.1936C43.9607 66.6286 43.1706 66.0309 42.3434 65.6019C41.5234 65.1767 40.6276 64.8967 39.8197 65.025ZM44.1945 67.6037C44.5945 67.9729 44.9745 68.4598 45.2537 68.9822C45.5341 69.5065 45.7033 70.0483 45.7056 70.5298C45.7079 71.0128 45.4695 71.5369 45.1394 72.1396C44.8226 72.718 44.4214 73.3672 44.2032 74.0257C43.543 76.0181 42.4229 76.9769 41.4184 77.4211C40.9117 77.6452 40.4281 77.741 40.0377 77.768C39.6387 77.7956 39.3605 77.7499 39.2594 77.713C37.8581 77.2004 36.6772 75.9299 36.092 75.0113C35.5016 74.0846 35.053 73.0793 35.0139 71.9688C35.0034 71.6711 35.1106 71.1491 35.3461 70.5041C35.5782 69.8682 35.9246 69.1411 36.3662 68.4422C37.2595 67.0285 38.4964 65.8006 39.9071 65.5763C40.54 65.4757 41.3058 65.6923 42.0865 66.0971C42.8599 66.4982 43.6097 67.064 44.1945 67.6037Z" fill="black"/>
<path d="M48.7036 92.1578C53.5529 95.0814 58.573 94.0557 61.0807 93.4299C61.7947 93.2517 64.1489 92.4112 64.7859 92.1493L72.9408 88.797C76.3803 87.383 85.6277 83.0061 91.4717 78.4947C92.4818 77.56 93.2746 76.7081 94.1916 75.6818C95.6724 74.0244 96.6968 72.1535 97.256 70.0697C97.7673 68.1642 97.8157 65.8599 97.675 63.9146C97.5726 62.4993 96.726 60.032 95.8907 58.6383C94.9735 56.7966 89.3152 51.4306 81.3405 50.8144C81.3405 50.8144 77.8408 49.4279 69.1405 52.0627C69.1405 52.0627 54.8371 57.4849 49.8955 62.6161C45.4139 67.2697 41.2724 74.2491 43.7592 85.5163C43.7592 85.5163 46.0608 91.1152 48.7036 92.1578Z" fill="white"/>
<path d="M66.5613 52.3449C67.2745 52.0489 67.8563 51.8157 68.2603 51.6562C68.4623 51.5764 68.62 51.5148 68.7275 51.4733C68.7811 51.4525 68.8224 51.4367 68.8503 51.426C68.8642 51.4207 68.875 51.4168 68.8822 51.414C68.8858 51.4127 68.8884 51.4114 68.8903 51.4107C68.8912 51.4104 68.8921 51.4102 68.8927 51.41L68.8932 51.4098C68.8937 51.4109 68.9021 51.4322 69.0556 51.8371L68.8934 51.4097L68.9158 51.4011L68.9387 51.3944C73.3359 50.0597 76.4664 49.7343 78.5096 49.7522C79.5311 49.7612 80.2824 49.8559 80.7892 49.9529C81.0425 50.0014 81.2344 50.0504 81.3682 50.0893C81.4137 50.1025 81.4523 50.1152 81.4845 50.1257C85.5749 50.4602 89.0619 51.9968 91.6436 53.6819C92.9448 54.5312 94.0236 55.4228 94.8412 56.2275C95.6323 57.0061 96.2142 57.7387 96.4999 58.2973C96.947 59.0478 97.3823 60.0536 97.7185 61.0431C98.0556 62.0352 98.3135 63.0703 98.3709 63.8635C98.5142 65.8447 98.47 68.237 97.93 70.2497C97.3415 72.4429 96.2627 74.4101 94.7121 76.1456C93.7891 77.1786 92.9795 78.0494 91.9458 79.0059L91.9229 79.0268L91.8981 79.0461C85.9808 83.614 76.6663 88.0189 73.2063 89.4413L65.0514 92.7936C64.4021 93.0605 62.012 93.9157 61.2499 94.1059C58.7224 94.7367 53.4797 95.8255 48.3885 92.7807C47.6008 92.4531 46.8935 91.827 46.2914 91.1387C45.6657 90.4233 45.1055 89.5864 44.6404 88.8007C44.1737 88.0125 43.7935 87.26 43.5302 86.7058C43.3984 86.4283 43.2953 86.1993 43.2247 86.0386C43.1895 85.9583 43.1623 85.8947 43.1438 85.851C43.1335 85.8291 43.1273 85.8121 43.1223 85.8003L43.1145 85.7811C43.1144 85.781 43.1143 85.7806 43.7594 85.5154L43.1143 85.7806L43.0914 85.7249L43.0782 85.6658C41.8094 79.9166 42.2253 75.2238 43.5548 71.3585C44.8824 67.499 47.1064 64.5062 49.3932 62.1316C51.9634 59.4628 56.8865 56.7774 61.0715 54.7846C63.1818 53.7797 65.1355 52.9366 66.5613 52.3449ZM67.096 53.6334C65.6856 54.2187 63.7545 55.052 61.6712 56.0441C57.4691 58.0451 52.7696 60.6368 50.3982 63.0993C48.2035 65.3782 46.1159 68.2018 44.8741 71.8122C43.6387 75.4038 43.2259 79.8154 44.4277 85.3058L44.4282 85.3062C44.4446 85.3449 44.4694 85.403 44.5023 85.4778C44.5679 85.6274 44.6653 85.8438 44.7905 86.1073C45.0414 86.6354 45.4018 87.348 45.8409 88.0898C46.2815 88.8341 46.7924 89.5924 47.3414 90.2201C47.8989 90.8574 48.4502 91.307 48.9597 91.508L49.0142 91.5295L49.0641 91.5597C53.6575 94.329 58.4315 93.3714 60.9121 92.7524C61.578 92.5862 63.8963 91.7601 64.521 91.5033L72.6759 88.1509C76.0899 86.7475 85.2473 82.4094 91.0196 77.9617C91.9957 77.0567 92.7672 76.2283 93.6715 75.2161C95.0826 73.6369 96.0527 71.8625 96.5825 69.888C97.0651 68.0897 97.1178 65.8735 96.9796 63.9641C96.9346 63.342 96.7182 62.4356 96.3976 61.4919C96.0788 60.5535 95.6769 59.6372 95.2926 58.996L95.2787 58.9728L95.2665 58.9484C95.0879 58.5896 94.6256 57.9726 93.8626 57.2217C93.1122 56.4831 92.1059 55.6494 90.8811 54.85C88.4297 53.2499 85.1323 51.8062 81.2869 51.5091L81.1819 51.501L81.0852 51.4627L81.0855 51.4628C81.0828 51.4619 81.0787 51.4604 81.0731 51.4585C81.0558 51.4525 81.0243 51.4423 80.9785 51.429C80.8869 51.4024 80.7374 51.3635 80.5267 51.3231C80.1054 51.2425 79.438 51.1555 78.4973 51.1472C76.6188 51.1307 73.6463 51.4283 69.3654 52.7226C69.3606 52.7244 69.3551 52.7267 69.3489 52.7291C69.3224 52.7392 69.2825 52.7544 69.2303 52.7746C69.1258 52.815 68.9714 52.8751 68.7727 52.9536C68.3752 53.1106 67.801 53.3409 67.096 53.6334ZM81.089 51.4641C81.0886 51.4639 81.0878 51.4638 81.087 51.4634L81.0855 51.4628C81.0871 51.4634 81.0883 51.4638 81.089 51.4641Z" fill="black"/>
<path d="M59.5253 74.1454C59.906 74.9128 60.814 74.958 62.2542 74.2614C62.703 74.0443 64.6591 73.481 63.111 71.7641C62.3974 71.172 61.5174 71.7055 60.8131 72.0286C59.7126 72.5333 59.1968 73.3463 59.5253 74.1454Z" fill="black"/>
<path d="M60.58 71.5213C60.8822 71.3827 61.3589 71.1281 61.8224 71.0117C62.3078 70.8899 62.8891 70.8865 63.4161 71.294L63.467 71.3347L63.498 71.3605L63.525 71.3904C63.9537 71.8659 64.2061 72.3322 64.2488 72.7971C64.2936 73.2862 64.0983 73.6738 63.8418 73.9528C63.5975 74.2186 63.2877 74.3994 63.0425 74.5209C62.9163 74.5834 62.7968 74.6351 62.7003 74.676C62.5937 74.7211 62.5363 74.7447 62.4969 74.7637C61.7471 75.1264 61.0597 75.3362 60.4674 75.3099C60.1621 75.2964 59.8699 75.2194 59.6125 75.0577C59.3535 74.895 59.1599 74.6651 59.025 74.3933L59.0163 74.3757L59.0088 74.3575C58.7713 73.7797 58.8465 73.1897 59.1578 72.6839C59.4584 72.1957 59.9643 71.8037 60.58 71.5213ZM62.0942 72.0943C61.846 72.1566 61.6064 72.2701 61.3325 72.4007L61.0454 72.5358C60.5608 72.758 60.2587 73.0247 60.1083 73.2689C59.9727 73.4892 59.9513 73.6994 60.0336 73.9142C60.0869 74.0156 60.1461 74.075 60.2062 74.1128C60.2712 74.1536 60.3676 74.1882 60.5169 74.1948C60.8338 74.2088 61.3204 74.0928 62.0108 73.7589C62.0835 73.7237 62.1854 73.6822 62.2655 73.6483C62.3558 73.6101 62.4508 73.5685 62.5469 73.5209C62.7463 73.4221 62.913 73.3142 63.0202 73.1975C63.1154 73.094 63.1471 73.0052 63.1373 72.899C63.1257 72.7724 63.0458 72.5351 62.7248 72.1706C62.5589 72.047 62.3711 72.0248 62.0942 72.0943Z" fill="black"/>
<path d="M67.5525 68.3304C68.3696 69.1641 70.2096 69.4692 71.485 70.1747C75.6853 72.4981 78.5486 70.7161 78.9167 70.2314C79.8106 69.0545 79.9101 67.435 79.7452 66.4198C79.5803 65.4045 79.2265 64.377 78.4024 63.4852C77.4173 62.4191 72.0975 60.0074 69.072 61.2606C67.6508 61.8493 66.9027 63.7394 66.6656 65.1826C66.4979 66.2034 66.7679 67.5299 67.5525 68.3304Z" fill="black"/>
<path d="M68.9649 61.0031C70.5733 60.3368 72.7418 60.6538 74.5862 61.2374C75.5172 61.532 76.3841 61.9005 77.083 62.2644C77.7727 62.6235 78.3263 62.9923 78.607 63.2961C79.48 64.2409 79.85 65.3261 80.0204 66.3751C80.1922 67.4332 80.0955 69.1405 79.1386 70.4004C79.0096 70.5702 78.7185 70.7957 78.3183 71.0021C77.9079 71.2136 77.3567 71.4185 76.6837 71.5313C75.3329 71.7577 73.5034 71.6102 71.3496 70.4189C70.7359 70.0794 69.9887 69.8376 69.2493 69.5623C68.5351 69.2963 67.8114 68.9937 67.3529 68.526C66.4914 67.647 66.2117 66.2231 66.3899 65.1377C66.5123 64.3923 66.767 63.5278 67.1792 62.7683C67.5899 62.0115 68.1728 61.3312 68.9649 61.0031ZM66.9406 65.2281C66.7835 66.1842 67.0439 67.4132 67.7515 68.1353C68.1101 68.5012 68.7151 68.7678 69.444 69.0392C70.1477 69.3012 70.9582 69.5646 71.6198 69.9306C73.6663 71.0626 75.3685 71.186 76.5915 70.9811C77.2053 70.8782 77.7014 70.6921 78.0626 70.5059C78.4341 70.3144 78.6392 70.1354 78.6943 70.0629C79.5251 68.9689 79.6274 67.437 79.4694 66.4647C79.31 65.4832 78.9722 64.5135 78.1972 63.6747C77.9853 63.4455 77.5045 63.1131 76.8252 62.7594C76.155 62.4104 75.3181 62.0544 74.4179 61.7695C72.5997 61.1941 70.5954 60.9317 69.1784 61.5186C68.5494 61.7792 68.0476 62.3383 67.6698 63.0335C67.2933 63.728 67.0552 64.5303 66.9406 65.2281Z" fill="black"/>
<path d="M57.1819 73.071C57.182 74.0787 56.2384 75.398 55.8809 76.611C54.7035 80.6057 51.8804 81.2951 51.364 81.2294C50.11 81.0696 49.0769 80.1525 48.5684 79.4373C48.0599 78.7222 47.6596 77.8831 47.6289 76.836C47.5921 75.5842 49.4021 70.8456 52.0072 69.7366C53.2309 69.2157 54.8237 69.8962 55.8353 70.622C56.5508 71.1353 57.1818 72.1034 57.1819 73.071Z" fill="black"/>
<path d="M51.8973 69.4797C50.5011 70.0741 49.3594 71.6118 48.5798 73.1032C48.1857 73.8571 47.8753 74.616 47.6652 75.2687C47.4583 75.9116 47.339 76.4806 47.3496 76.8438C47.3825 77.9631 47.8116 78.855 48.3405 79.5988C48.8747 80.3501 49.9691 81.3326 51.3282 81.5057C51.5184 81.53 51.8386 81.4846 52.2092 81.3618C52.591 81.2354 53.0549 81.0177 53.5376 80.6687C54.5065 79.968 55.5425 78.7444 56.1482 76.6894C56.3193 76.1088 56.63 75.5051 56.9184 74.8808C57.1956 74.2807 57.4605 73.645 57.4605 73.0708C57.4603 71.9933 56.7681 70.9479 55.9976 70.3951C55.4717 70.0178 54.792 69.6498 54.0777 69.4434C53.3658 69.2378 52.59 69.1848 51.8973 69.4797ZM55.6723 70.8484C56.3326 71.3223 56.9023 72.2131 56.9024 73.0708C56.9024 73.5043 56.6955 74.0321 56.4116 74.6467C56.1389 75.2371 55.7991 75.8995 55.6128 76.5317C55.0411 78.4714 54.0768 79.5902 53.2107 80.2165C52.776 80.5309 52.3635 80.7228 52.034 80.832C51.6933 80.9448 51.4667 80.961 51.3987 80.9523C50.2501 80.806 49.2781 79.9542 48.7953 79.2752C48.3073 78.5888 47.9359 77.8024 47.9073 76.8275C47.8996 76.5648 47.9928 76.0721 48.1963 75.4399C48.3967 74.8174 48.6946 74.0875 49.0741 73.3616C49.8415 71.8936 50.9071 70.5076 52.1159 69.993C52.6469 69.7669 53.2796 69.7938 53.923 69.9797C54.5638 70.1648 55.1866 70.5 55.6723 70.8484Z" fill="black"/>
<path d="M45.5308 83.9304C46.1949 84.8422 47.2684 84.1825 48.135 83.8262C48.9761 83.2426 48.8249 81.8493 48.0344 81.2793C47.3771 80.8054 46.793 81.0755 46.1401 81.3439C45.443 81.6305 44.7247 82.1709 45.0599 82.9862C45.1979 83.322 45.3175 83.6375 45.5308 83.9304Z" fill="#325530"/>
<path d="M82.6242 69.1954C83.3643 70.1838 84.6077 69.4343 85.6077 69.0232C86.5835 68.3626 86.4412 66.8333 85.5489 66.2238C84.807 65.7171 84.1323 66.0272 83.379 66.3368C82.5747 66.6675 81.7404 67.2779 82.1061 68.1673C82.2566 68.5336 82.3865 68.8781 82.6242 69.1954Z" fill="#325530"/>
<path d="M68.8843 47.7179C69.2365 48.14 69.5698 48.7917 69.6735 49.1303C70.3879 51.4633 70.5539 52.9736 70.4922 53.5018C70.4331 54.0079 70.3409 54.43 70.1985 54.8464C70.0651 55.2363 69.9173 55.6387 69.4538 56.0888C68.9343 56.5933 68.3798 57.0972 67.9096 57.4329C67.3227 57.8518 65.1835 58.3361 63.5185 58.4685C62.6294 58.5392 62.0366 58.5668 61.0414 58.264C60.4972 58.0984 60.0307 58.0191 59.6486 57.816C59.4269 57.6982 58.6129 56.383 59.0235 55.6104C59.1413 55.3887 59.5836 55.2611 59.6659 54.8332C59.6893 54.7118 59.6745 54.5452 59.5979 54.4363C59.4572 54.2363 59.1715 54.1046 58.9668 53.8615C58.8142 53.6803 58.4035 52.748 58.3217 51.4098C58.2741 50.6334 58.2755 50.2219 58.3674 49.8245C58.4717 49.3736 58.4926 48.777 59.0075 48.2418C59.5638 47.6634 60.3153 46.9808 60.8517 46.8357C62.4749 46.3966 65.0818 45.9128 65.5746 46.0592C65.9963 46.1844 66.4422 46.2053 66.8445 46.3849C67.6305 46.7357 68.5863 47.3608 68.8843 47.7179Z" fill="#325530"/>
<path d="M60.6694 46.1624C61.5041 45.9366 62.5833 45.7016 63.5188 45.5407C63.9862 45.4604 64.4283 45.3967 64.792 45.3627C64.9734 45.3358 65.1453 45.3352 65.2963 45.3351C65.4134 45.335 65.5654 45.3406 65.711 45.3744L65.7732 45.3906L65.9018 45.4251C66.0323 45.4565 66.1714 45.4811 66.3549 45.5182C66.5782 45.5633 66.8535 45.6252 67.1287 45.748C67.561 45.9409 68.029 46.2039 68.4289 46.4652C68.8094 46.7139 69.1993 47.007 69.4198 47.2712C69.8304 47.7633 70.209 48.4972 70.3403 48.9262C70.7051 50.1175 70.9329 51.1082 71.0617 51.8777C71.1872 52.6274 71.2277 53.2169 71.185 53.5827C71.121 54.1304 71.0194 54.6021 70.8585 55.0722C70.7135 55.4961 70.5218 56.0237 69.9397 56.589C69.4159 57.0976 68.8301 57.6325 68.3146 58.0004C68.082 58.1665 67.7585 58.3015 67.4369 58.4122C67.0988 58.5286 66.7 58.6389 66.2762 58.7375C65.4295 58.9346 64.4439 59.0944 63.5734 59.1636C62.6512 59.2369 61.9564 59.2715 60.838 58.9311C60.5653 58.8482 60.3686 58.803 60.0934 58.725C59.8481 58.6555 59.5785 58.5688 59.3207 58.4318C59.1739 58.3537 59.0671 58.237 59.0158 58.1784C58.948 58.1009 58.8813 58.011 58.8186 57.9166C58.6927 57.7274 58.5609 57.4868 58.4528 57.2225C58.2591 56.7484 58.0461 55.9623 58.4072 55.2829C58.5025 55.1038 58.6394 54.9833 58.7131 54.9214C58.7542 54.8869 58.7967 54.854 58.8275 54.83C58.8618 54.8032 58.8873 54.7832 58.911 54.7634C58.9154 54.7597 58.9192 54.7557 58.9231 54.7523C58.9102 54.7421 58.8964 54.73 58.8802 54.7176C58.7758 54.6371 58.5916 54.4994 58.4328 54.3109C58.3314 54.1904 58.2454 54.0268 58.1785 53.8804C58.1036 53.7168 58.025 53.5136 57.9513 53.2775C57.8039 52.8048 57.6696 52.1816 57.6249 51.4526C57.5774 50.6764 57.5705 50.1737 57.6875 49.6676C57.7606 49.3519 57.8173 48.4729 58.5045 47.7585C58.7938 47.4577 59.1433 47.1195 59.4993 46.833C59.8357 46.5623 60.2529 46.2751 60.6694 46.1624ZM63.7551 46.9154C62.8581 47.0697 61.8219 47.2959 61.0335 47.5092C60.9135 47.5417 60.6865 47.6685 60.3741 47.92C60.0812 48.1556 59.777 48.448 59.51 48.7256C59.1674 49.0817 59.1821 49.3959 59.0466 49.9819C58.9798 50.2706 58.97 50.5909 59.0175 51.3673C59.0548 51.9764 59.1668 52.4887 59.2832 52.862C59.3415 53.0487 59.3995 53.1962 59.447 53.3C59.4808 53.3737 59.5023 53.4104 59.5084 53.4211C59.5535 53.4722 59.6141 53.522 59.7318 53.6127C59.8266 53.6858 60.0254 53.8325 60.168 54.0351C60.3886 54.3487 60.3962 54.7277 60.3505 54.9651C60.2635 55.4168 59.982 55.6867 59.8044 55.8348C59.7604 55.8715 59.7174 55.905 59.6855 55.9299C59.6579 55.9515 59.6387 55.9667 59.623 55.9795C59.6102 56.0238 59.6009 56.0938 59.6108 56.199C59.6246 56.335 59.6715 56.5171 59.7442 56.6949C59.8161 56.8707 59.9037 57.0295 59.98 57.1441C60.0059 57.183 60.0284 57.2126 60.0454 57.2342C60.1573 57.2856 60.2939 57.3319 60.4742 57.383C60.6639 57.4368 60.9727 57.514 61.2441 57.5966C62.1161 57.862 62.607 57.8411 63.4629 57.773C64.2575 57.7099 65.1741 57.5616 65.96 57.3787C66.3525 57.2874 66.7028 57.1896 66.9829 57.0932C67.2793 56.9912 67.4432 56.9086 67.5041 56.8652C67.9291 56.5618 68.4525 56.0888 68.9678 55.5884C69.3126 55.2535 69.4166 54.9763 69.5383 54.6206C69.6624 54.2579 69.745 53.8852 69.7993 53.4209C69.8183 53.2584 69.8066 52.8287 69.6859 52.1081C69.5686 51.4072 69.356 50.4763 69.0064 49.3347C68.9304 49.0866 68.6425 48.517 68.3487 48.1648C68.2712 48.0719 68.0341 47.8739 67.6657 47.6331C67.3167 47.405 66.9138 47.1798 66.5601 47.0219C66.433 46.9652 66.2842 46.927 66.0787 46.8855C65.899 46.8492 65.6402 46.8043 65.3955 46.7333C65.406 46.7359 65.3805 46.7302 65.2972 46.7303C65.2049 46.7304 65.0794 46.7371 64.9216 46.7518C64.6073 46.7811 64.2039 46.8383 63.7551 46.9154Z" fill="black"/>
<path d="M73.5537 47.1542C73.3998 47.6767 73.3551 48.3992 73.3955 48.7467C73.6739 51.1417 74.1257 52.5736 74.3934 53.0265C74.6498 53.4604 74.903 53.8053 75.2 54.1249C75.478 54.424 75.7743 54.7288 76.3787 54.9504C77.0563 55.1988 77.7656 55.4328 78.3305 55.5483C79.0355 55.6924 81.1884 55.2751 82.7664 54.729C83.6089 54.4375 84.163 54.2255 84.9534 53.5538C85.3856 53.1865 85.7812 52.9283 86.05 52.5919C86.2059 52.3967 86.4256 50.8822 85.7406 50.3478C85.5441 50.1944 85.0881 50.2559 84.8415 49.902C84.7716 49.8016 84.7185 49.645 84.7452 49.5159C84.7941 49.2788 85.0031 49.0455 85.0934 48.7439C85.1607 48.519 85.1641 47.5119 84.7041 46.2693C84.4372 45.5483 84.2715 45.1768 84.0284 44.8542C83.7526 44.4883 83.4949 43.9572 82.8093 43.6791C82.0686 43.3786 81.1074 43.0618 80.5581 43.1451C78.8958 43.3971 76.3148 44.0019 75.9218 44.3313C75.5857 44.6131 75.1857 44.8102 74.8889 45.1335C74.3093 45.7649 73.6838 46.7122 73.5537 47.1542Z" fill="#325530"/>
<path d="M80.4535 42.4551C79.5989 42.5846 78.5168 42.8035 77.5959 43.032C77.1357 43.1462 76.7055 43.2653 76.359 43.38C76.1863 43.4371 76.0251 43.4964 75.8871 43.5565C75.7799 43.6032 75.6431 43.6684 75.5235 43.757L75.4736 43.7964L75.3694 43.8793C75.2624 43.9599 75.1445 44.0376 74.9915 44.1443C74.8052 44.2743 74.578 44.4406 74.3751 44.6616C74.0563 45.0089 73.7325 45.4338 73.4706 45.8302C73.2218 46.2069 72.9812 46.6285 72.8845 46.957C72.7047 47.5675 72.6511 48.3844 72.7025 48.8272C72.8448 50.0506 73.0324 51.0381 73.2223 51.7862C73.4071 52.5147 73.6063 53.0657 73.7927 53.3812C74.0708 53.8516 74.3531 54.2382 74.6889 54.5996C74.992 54.9257 75.379 55.3267 76.1385 55.6052C76.8215 55.8556 77.5719 56.1048 78.1908 56.2314C78.4694 56.2883 78.8189 56.2813 79.1575 56.2528C79.5133 56.2229 79.9223 56.1632 80.3497 56.0829C81.2036 55.9227 82.1698 55.6734 82.9944 55.3881C83.8677 55.0859 84.5172 54.8395 85.405 54.0851C85.6216 53.901 85.7837 53.7814 86.0044 53.6009C86.2011 53.4401 86.4132 53.2541 86.5947 53.027C86.6984 52.8972 86.7499 52.7481 86.7736 52.674C86.805 52.5762 86.8305 52.4675 86.8504 52.3567C86.8901 52.1344 86.9146 51.8634 86.9079 51.5803C86.8958 51.0726 86.7761 50.2706 86.1696 49.7975L86.1093 49.7542C85.9679 49.6601 85.8247 49.6156 85.7443 49.5926C85.6929 49.5778 85.6407 49.5648 85.6029 49.5554C85.5609 49.545 85.5298 49.5372 85.5001 49.5288C85.4985 49.5284 85.4969 49.5275 85.4953 49.5271C85.5011 49.5164 85.5069 49.5044 85.5138 49.492C85.5772 49.3777 85.6911 49.1787 85.7615 48.9436C85.8067 48.7925 85.8202 48.6087 85.823 48.4493C85.8262 48.2706 85.8166 48.0548 85.7896 47.8112C85.7355 47.3236 85.6092 46.7053 85.3581 46.0269C85.0912 45.306 84.8963 44.8468 84.5855 44.4343C84.393 44.1789 83.9876 43.4041 83.0713 43.0324C82.6861 42.8762 82.2308 42.7103 81.7904 42.5937C81.3739 42.4834 80.8783 42.3907 80.4535 42.4551ZM77.9319 44.3858C78.8153 44.1666 79.8548 43.9569 80.6624 43.8335C80.7869 43.8156 81.0466 43.8398 81.4332 43.9422C81.7958 44.0382 82.1916 44.181 82.5471 44.3252C83.002 44.5098 83.1122 44.7973 83.4713 45.2738C83.6465 45.5064 83.783 45.7903 84.0499 46.5113C84.2588 47.0755 84.3606 47.582 84.403 47.9648C84.4242 48.1564 84.4302 48.3123 84.4282 48.4245C84.4268 48.5042 84.4218 48.5453 84.4206 48.5566C84.4 48.6193 84.3645 48.6877 84.2935 48.8158C84.2362 48.9192 84.112 49.1326 84.062 49.3748C83.9842 49.7518 84.1309 50.1022 84.269 50.3005C84.5312 50.677 84.8987 50.8083 85.1193 50.8709C85.1742 50.8865 85.2271 50.8996 85.2663 50.9093C85.2996 50.9176 85.3231 50.9237 85.3425 50.929C85.3707 50.9628 85.4059 51.0205 85.4379 51.1166C85.483 51.2522 85.5087 51.4246 85.5133 51.6134C85.5177 51.8 85.501 51.9777 85.4771 52.111C85.4693 52.155 85.461 52.1898 85.4543 52.2155C85.3724 52.3065 85.2659 52.4027 85.1214 52.5209C84.969 52.6455 84.7172 52.8387 84.5016 53.0219C83.8085 53.6109 83.3498 53.7887 82.5382 54.0695C81.7848 54.3302 80.8856 54.5629 80.0924 54.7117C79.6961 54.7861 79.3358 54.8376 79.0404 54.8625C78.7278 54.8888 78.5439 54.8798 78.4701 54.8647C77.9592 54.7603 77.2908 54.5418 76.6188 54.2954C76.1693 54.1306 75.9639 53.9219 75.7109 53.6497C75.4528 53.372 75.2286 53.0687 74.9937 52.6713C74.9124 52.5337 74.752 52.1422 74.5746 51.4429C74.402 50.7631 74.2245 49.8372 74.0883 48.6659C74.059 48.4135 74.0947 47.7853 74.2226 47.3509C74.2561 47.2373 74.3935 46.9644 74.6347 46.5992C74.863 46.2536 75.1418 45.889 75.4026 45.6049C75.4964 45.5027 75.6176 45.4086 75.7895 45.2887C75.9398 45.1839 76.159 45.04 76.3547 44.8779C76.3359 44.8847 76.3671 44.8689 76.4443 44.8352C76.5291 44.7982 76.6471 44.7543 76.7975 44.7045C77.0974 44.6053 77.49 44.4955 77.9319 44.3858Z" fill="black"/>
<path d="M68.6173 51.2701C69.0772 53.646 69.3354 54.7832 69.7797 55.0049C71.3378 55.7824 73.7511 54.6748 74.8743 54.2676C75.9975 53.8605 76.3278 53.4586 76.3982 52.8065C76.2846 51.2786 76.0091 50.1418 75.6652 49.7348C74.9412 48.8779 74.0874 47.5536 72.9992 47.8209C71.7626 48.1246 69.9476 48.2465 69.3829 49.3397C69.1158 49.8568 68.4526 50.4195 68.6173 51.2701Z" fill="#325530"/>
<path d="M72.8327 47.1437C73.7256 46.9244 74.4485 47.39 74.941 47.8431C75.4234 48.2868 75.8868 48.9166 76.1979 49.2848C76.4826 49.6218 76.6668 50.1477 76.7963 50.6882C76.9335 51.2606 77.035 51.9656 77.0936 52.7551L77.0983 52.8184L77.0915 52.8817C77.0437 53.3251 76.8945 53.7503 76.5254 54.1212C76.1851 54.4631 75.7064 54.7081 75.112 54.9236C74.6004 55.109 73.6432 55.5158 72.6564 55.7583C71.6824 55.9976 70.4796 56.134 69.4682 55.6292C69.1703 55.4806 68.9839 55.2219 68.8605 54.992C68.733 54.7544 68.6286 54.4636 68.5335 54.1408C68.3462 53.4949 68.1607 52.5829 67.9323 51.4029C67.8062 50.7515 68.009 50.2238 68.2328 49.8333C68.3408 49.6448 68.4634 49.4723 68.556 49.34C68.658 49.1944 68.7214 49.1004 68.763 49.0198C69.1829 48.2071 70.0225 47.8328 70.7373 47.6168C71.1102 47.5042 71.498 47.4211 71.8538 47.3493C72.2215 47.275 72.5423 47.2151 72.8327 47.1437ZM72.1297 48.7166C71.7798 48.7872 71.4467 48.8599 71.1408 48.9523C70.4977 49.1466 70.1474 49.3798 70.0025 49.6602C69.9106 49.8381 69.7911 50.0083 69.6988 50.1402C69.5971 50.2854 69.5139 50.4037 69.4434 50.5268C69.3099 50.7596 69.2633 50.9388 69.3019 51.1379C69.5334 52.3337 69.7071 53.1784 69.8739 53.7505C69.9573 54.0366 70.0297 54.2202 70.0899 54.3324C70.1078 54.3658 70.1217 54.3873 70.1308 54.4001C70.6753 54.6523 71.4423 54.62 72.3235 54.4035C73.2137 54.1847 74.0248 53.8338 74.6364 53.6121C75.1651 53.4205 75.4133 53.261 75.5365 53.1372C75.6216 53.0517 75.6712 52.9605 75.6967 52.7903C75.6413 52.0815 75.551 51.4781 75.4396 51.0132C75.3171 50.5018 75.1916 50.2555 75.1324 50.1853C74.7195 49.6966 74.394 49.2358 73.9965 48.87C73.609 48.5135 73.3606 48.4506 73.1653 48.4985C72.8375 48.5791 72.4677 48.6483 72.1297 48.7166Z" fill="black"/>
<path d="M96.4296 60.2824C96.5674 60.0969 96.8296 60.0582 97.0151 60.1961C97.2006 60.3339 97.2393 60.5961 97.1014 60.7816C93.7321 65.316 87.4618 71.8173 79.2416 76.0836C71.5782 80.0609 65.7237 83.4048 54.5589 85.4142C54.3259 85.4561 53.5689 85.517 52.6073 85.5822C51.6294 85.6486 50.4025 85.7216 49.1998 85.7854C47.9975 85.8493 46.8169 85.904 45.932 85.9336C45.4904 85.9483 45.1186 85.957 44.8535 85.9571C44.7222 85.9572 44.6099 85.9554 44.526 85.9503C44.4861 85.9479 44.44 85.944 44.3975 85.9366C44.3782 85.9332 44.3418 85.9261 44.3013 85.911C44.2813 85.9036 44.2452 85.8889 44.2058 85.8622C44.1706 85.8383 44.095 85.7796 44.0505 85.6715C43.9626 85.4577 44.0647 85.2132 44.2785 85.1253C44.3732 85.0863 44.474 85.0849 44.5645 85.1138C44.5682 85.114 44.5724 85.1145 44.577 85.1148C44.6346 85.1183 44.7262 85.1202 44.8529 85.1201C45.104 85.1199 45.465 85.1118 45.9043 85.0971C46.7814 85.0678 47.9558 85.0133 49.1556 84.9496C50.3551 84.8859 51.5777 84.8131 52.5507 84.747C53.5399 84.6799 54.2354 84.6217 54.4105 84.5902C65.436 82.6059 71.1881 79.3203 78.856 75.3406C86.9354 71.1474 93.1145 64.7438 96.4296 60.2824ZM44.772 85.2615C44.7695 85.2583 44.7673 85.2551 44.7648 85.2521C44.7673 85.2551 44.7696 85.2583 44.772 85.2615ZM44.7484 85.2329C44.747 85.2314 44.7456 85.2299 44.7442 85.2284C44.7456 85.2299 44.747 85.2314 44.7484 85.2329ZM44.8247 85.3532C44.8137 85.3265 44.8007 85.3031 44.787 85.2824C44.8015 85.3044 44.8143 85.328 44.8247 85.3532Z" fill="black"/>
<path d="M80.5507 73.0215C80.5165 72.8713 80.6105 72.7217 80.7607 72.6874C81.0975 72.6108 81.5876 72.5916 82.0466 72.583C82.4638 72.5752 82.8602 72.5762 83.1585 72.5598L83.2801 72.5515L83.2866 72.551L83.2934 72.5509C84.0138 72.5265 84.6059 72.5153 85.8117 72.3702L86.3684 72.2995L86.3739 72.2987C86.7514 72.2559 86.8812 72.2561 87.1057 72.1981C87.2549 72.1596 87.4073 72.2494 87.4459 72.3986C87.4844 72.5478 87.3944 72.6999 87.2452 72.7385C86.9719 72.8091 86.7715 72.8154 86.4424 72.8525L85.8759 72.9246C84.6479 73.0723 84.0389 73.084 83.3121 73.1085L83.3118 73.1087C82.9821 73.1344 82.5028 73.1327 82.0569 73.141C81.5873 73.1498 81.1559 73.1698 80.8848 73.2315C80.7346 73.2657 80.585 73.1717 80.5507 73.0215Z" fill="black"/>
<path d="M84.5937 69.3038C84.7476 69.3096 84.8678 69.4392 84.862 69.5931C84.8489 69.9382 84.7405 70.4166 84.63 70.8622C84.5296 71.2671 84.4261 71.6499 84.3647 71.9422L84.3412 72.0618L84.3401 72.0682L84.3384 72.0748C84.1755 72.777 84.0331 73.3518 83.8611 74.5541L83.7853 75.1101L83.7847 75.1156C83.7284 75.4914 83.6945 75.6167 83.6925 75.8485C83.6911 76.0026 83.5649 76.1266 83.4108 76.1252C83.2567 76.1238 83.133 75.9975 83.1344 75.8434C83.1369 75.5612 83.1827 75.3659 83.232 75.0384L83.309 74.4726C83.4842 73.2482 83.6305 72.657 83.7949 71.9485L83.7948 71.9482C83.8553 71.6231 83.981 71.1606 84.0884 70.7277C84.2014 70.2718 84.2938 69.85 84.3044 69.5721C84.3102 69.4182 84.4398 69.298 84.5937 69.3038Z" fill="black"/>
<path d="M71.2641 77.902C71.2493 77.7487 71.3616 77.6122 71.5149 77.5974C71.8587 77.5642 72.3473 77.6076 72.8037 77.6575C73.2184 77.7028 73.6115 77.7542 73.9094 77.7759L74.0311 77.7832L74.0376 77.7835L74.0444 77.7842C74.762 77.8517 75.3507 77.916 76.5653 77.9255L77.1263 77.9262L77.132 77.9261C77.5119 77.9317 77.6405 77.9484 77.8706 77.9195C78.0235 77.9002 78.1632 78.0087 78.1825 78.1616C78.2017 78.3144 78.0931 78.454 77.9402 78.4732C77.6602 78.5084 77.4605 78.4892 77.1294 78.4841L76.5583 78.4836C75.3216 78.4738 74.716 78.4079 73.9919 78.3397L73.9917 78.3399C73.6614 78.3234 73.1862 78.2607 72.7429 78.2123C72.2759 78.1612 71.8455 78.1261 71.5688 78.1528C71.4154 78.1676 71.279 78.0553 71.2641 77.902Z" fill="black"/>
<path d="M75.7478 74.7288C75.8998 74.7542 76.0025 74.898 75.9772 75.0499C75.9202 75.3906 75.7519 75.8513 75.5856 76.2792C75.4344 76.6681 75.283 77.0335 75.185 77.3166L75.1465 77.4323L75.1445 77.4385L75.142 77.4448C74.8911 78.1206 74.6767 78.6726 74.3531 79.8433L74.2072 80.385L74.2059 80.3905C74.1022 80.756 74.0527 80.876 74.0211 81.1057C74.0001 81.2584 73.8592 81.3653 73.7065 81.3443C73.5539 81.3233 73.4472 81.1823 73.4682 81.0296C73.5066 80.75 73.5769 80.5621 73.6675 80.2436L73.8158 79.6921C74.1454 78.5001 74.3658 77.9322 74.619 77.2504L74.6189 77.2502C74.7203 76.9353 74.9039 76.4926 75.0654 76.0769C75.2356 75.6391 75.3809 75.2324 75.4267 74.9582C75.4521 74.8062 75.5959 74.7035 75.7478 74.7288Z" fill="black"/>
<path d="M60.73 81.6856C60.7514 81.5331 60.8925 81.4266 61.045 81.448C61.387 81.496 61.852 81.6523 62.2841 81.8074C62.6768 81.9483 63.047 82.0901 63.3316 82.1807L63.4482 82.2162L63.4545 82.218L63.4609 82.2203C64.1429 82.4536 64.7004 82.6535 65.8791 82.9463L66.4245 83.0781L66.43 83.0792C66.7981 83.1734 66.9193 83.2197 67.1498 83.2453C67.3029 83.2623 67.4135 83.4004 67.3965 83.5535C67.3795 83.7067 67.2413 83.8169 67.0882 83.8C66.8076 83.7688 66.618 83.7035 66.2972 83.6212L65.742 83.4874C64.5418 83.1891 63.9684 82.9836 63.2802 82.7482L63.2799 82.7483C62.9626 82.6552 62.5152 82.4832 62.0954 82.3326C61.6533 82.1739 61.243 82.0393 60.9677 82.0006C60.8151 81.9792 60.7086 81.8382 60.73 81.6856Z" fill="black"/>
<path d="M65.8316 79.6464C65.9735 79.7066 66.0398 79.8704 65.9797 80.0122C65.8448 80.3301 65.5735 80.7388 65.3118 81.1161C65.0741 81.4589 64.8413 81.7799 64.6801 82.0313L64.6156 82.1347L64.6123 82.1403L64.6084 82.1459C64.2066 82.7443 63.8692 83.231 63.2812 84.2938L63.0128 84.7865L63.0103 84.7915C62.8241 85.1227 62.7479 85.2278 62.6636 85.4438C62.6075 85.5874 62.4455 85.6584 62.302 85.6023C62.1585 85.5463 62.0877 85.3843 62.1438 85.2407C62.2464 84.9778 62.3586 84.8116 62.5211 84.523L62.7941 84.0214C63.3929 82.9392 63.7398 82.4385 64.1452 81.8347L64.1452 81.8335C64.3173 81.552 64.5992 81.1643 64.8533 80.7979C65.121 80.4119 65.3572 80.0504 65.4659 79.7945C65.526 79.6527 65.6898 79.5863 65.8316 79.6464Z" fill="black"/>
<path d="M51.4917 82.9007C51.5576 82.7615 51.724 82.7018 51.8632 82.7677C52.1754 82.9153 52.5727 83.203 52.939 83.4797C53.272 83.7312 53.5832 83.9768 53.8279 84.1481L53.9286 84.2167L53.9341 84.2203L53.9395 84.2244C54.5211 84.6502 54.9938 85.007 56.0318 85.6376L56.5132 85.9258L56.5181 85.9285C56.8415 86.128 56.9434 86.2084 57.1558 86.3014C57.297 86.3632 57.3613 86.528 57.2995 86.6691C57.2377 86.8102 57.0729 86.8744 56.9318 86.8126C56.6732 86.6993 56.5117 86.5804 56.2299 86.4064L55.7398 86.1133C54.6828 85.4711 54.1967 85.1041 53.6098 84.6745L53.6095 84.6745C53.3343 84.4911 52.9584 84.1938 52.6025 83.9249C52.2278 83.6418 51.8761 83.3911 51.6248 83.2722C51.4855 83.2063 51.4259 83.04 51.4917 82.9007Z" fill="black"/>
<path d="M56.9681 82.4733C57.0855 82.573 57.1001 82.7491 57.0004 82.8666C56.777 83.1299 56.3963 83.4393 56.0342 83.7215C55.7051 83.9779 55.3873 84.215 55.1586 84.407L55.0662 84.4866L55.0614 84.4909L55.056 84.4951C54.4942 84.9467 54.0272 85.3109 53.1494 86.1503L52.7464 86.5408L52.7425 86.5448C52.4661 86.8055 52.3621 86.8831 52.2173 87.0642C52.121 87.1846 51.9452 87.2041 51.8249 87.1079C51.7046 87.0116 51.6853 86.8359 51.7815 86.7155C51.9578 86.4951 52.1145 86.3698 52.3555 86.1427L52.7655 85.7452C53.6594 84.8904 54.1396 84.5158 54.7065 84.0601L54.7066 84.0598C54.955 83.8415 55.3395 83.5553 55.6912 83.2812C56.0617 82.9924 56.3949 82.7177 56.5748 82.5057C56.6745 82.3882 56.8506 82.3737 56.9681 82.4733Z" fill="black"/>
</g>
</g>
<path d="M12.3666 10.7233C-6.31781 15.3806 3.58854 28.2474 10.8773 34.0986C18.166 39.9498 43.2268 37.5937 59.1723 37.2099C79.1042 36.7302 78.7524 33.4512 89.7268 23.9828C96.513 18.1278 91.7437 5.52561 67.6847 4.78926C59.1787 4.52893 35.7222 4.90159 12.3666 10.7233Z" fill="white"/>
<path d="M12.2461 10.2384C35.662 4.40165 59.1684 4.02808 67.7004 4.2892C79.7939 4.65936 87.172 8.01367 90.6554 12.1446C92.4018 14.2158 93.1684 16.4866 93.0277 18.6494C92.8869 20.8124 91.8414 22.8189 90.0536 24.3615C87.3134 26.7257 85.3014 28.6845 83.461 30.3478C81.631 32.0016 79.9885 33.346 78.0485 34.4062C74.1607 36.5309 69.1606 37.4692 59.1848 37.7093C51.2477 37.9003 40.9498 38.5872 31.7732 38.4927C27.1781 38.4454 22.8335 38.2027 19.1746 37.6008C15.5316 37.0017 12.4908 36.0354 10.564 34.4887C8.71787 33.0066 6.70398 31.0786 5.0151 28.9424C3.33034 26.8114 1.94436 24.4418 1.39501 22.0764C0.841227 19.692 1.13772 17.2977 2.83811 15.2027C4.52004 13.1305 7.52491 11.4152 12.2461 10.2384ZM67.6701 5.28934C59.1901 5.0298 35.7828 5.40174 12.4877 11.2084C7.86685 12.3602 5.10266 13.9994 3.61478 15.8324C2.14554 17.6425 1.87127 19.7044 2.36959 21.8501C2.87234 24.0148 4.16163 26.2504 5.80019 28.3229C7.43468 30.3902 9.39245 32.265 11.1905 33.7084C12.9079 35.0872 15.733 36.0213 19.3368 36.614C22.9239 37.2039 27.2096 37.4456 31.7838 37.4927C40.946 37.587 51.1518 36.9029 59.1602 36.7101C69.1159 36.4705 73.9066 35.5302 77.5694 33.5284C79.4046 32.5254 80.9779 31.2441 82.7911 29.6054C84.5941 27.9759 86.654 25.9744 89.4007 23.6045C91.0059 22.2196 91.908 20.4542 92.0298 18.5846C92.1514 16.7151 91.4953 14.6915 89.8906 12.7885C86.6711 8.97066 79.6349 5.65562 67.6701 5.28934Z" fill="black"/>
<path d="M35.635 55.0976C35.3366 56.6531 37.9246 57.3224 39.2558 57.4626C40.5871 57.6029 41.6037 55.8956 42.4273 54.918C43.4567 53.696 42.9177 53.3973 42.0262 51.8278C41.475 50.8572 39.2138 49.9108 37.7628 51.2577C37.2498 51.7339 36.008 53.1533 35.635 55.0976Z" fill="white"/>
<path d="M35.1438 55.003C35.5445 52.9148 36.8675 51.4062 37.4225 50.891C38.3015 50.0751 39.415 49.971 40.3448 50.187C41.2491 50.3972 42.0954 50.9376 42.4608 51.5807C42.6814 51.9692 42.8674 52.2569 43.0389 52.5442C43.1993 52.813 43.3504 53.0871 43.4288 53.3698C43.5136 53.6757 43.5119 53.9825 43.3951 54.3091C43.2853 54.6157 43.0818 54.9175 42.8096 55.2407C42.6111 55.4764 42.4059 55.7489 42.1643 56.0565C41.9298 56.3552 41.6698 56.674 41.3877 56.9604C40.8411 57.5153 40.1088 58.0548 39.2039 57.9597C38.505 57.8861 37.4618 57.6746 36.6147 57.2607C36.1915 57.0538 35.7797 56.7784 35.4932 56.4114C35.1945 56.0288 35.0387 55.5509 35.1438 55.003ZM38.1026 51.6241C37.6315 52.0614 36.4707 53.392 36.1254 55.192C36.0814 55.4217 36.1379 55.6111 36.2821 55.7957C36.4385 55.9961 36.7007 56.1893 37.0536 56.3617C37.7587 56.7063 38.6757 56.8991 39.3081 56.9657C39.7341 57.0106 40.1754 56.7666 40.6757 56.2587C40.917 56.0137 41.1486 55.7308 41.3779 55.4388C41.6001 55.1558 41.8317 54.8489 42.0449 54.5958C42.2872 54.3081 42.4026 54.1135 42.4534 53.9715C42.497 53.8495 42.4985 53.7543 42.4658 53.6367C42.4268 53.4959 42.3395 53.3242 42.1805 53.0577C42.0324 52.8096 41.8167 52.4709 41.5918 52.075C41.4059 51.7477 40.8456 51.3295 40.119 51.1606C39.4177 50.9975 38.6745 51.0932 38.1026 51.6241Z" fill="black"/>
<path d="M25.7524 46.9942C25.4064 48.7981 28.4077 49.5743 29.9517 49.737C31.4956 49.8996 32.6746 47.9196 33.6297 46.7858C34.8236 45.3686 34.1985 45.0222 33.1646 43.2019C32.5253 42.0764 29.903 40.9787 28.2202 42.5408C27.6252 43.0931 26.185 44.7392 25.7524 46.9942Z" fill="white"/>
<path d="M25.2617 46.8996C25.722 44.5008 27.2433 42.7655 27.8802 42.1743C28.8752 41.2507 30.1373 41.13 31.1973 41.3764C32.232 41.617 33.1899 42.2347 33.5992 42.9553C33.8556 43.4066 34.0738 43.7442 34.2708 44.0744C34.4568 44.3861 34.6272 44.6951 34.715 45.0117C34.8091 45.3513 34.8071 45.6903 34.6774 46.0526C34.5548 46.3951 34.3257 46.7357 34.0124 47.1076C33.7809 47.3824 33.5417 47.702 33.2631 48.0568C32.9916 48.4026 32.6918 48.7692 32.3679 49.0981C31.7375 49.738 30.9109 50.3409 29.8993 50.2344C29.0941 50.1495 27.8949 49.9052 26.9238 49.4306C26.4387 49.1936 25.9733 48.881 25.6515 48.4688C25.3174 48.0408 25.1447 47.5096 25.2617 46.8996ZM28.5603 42.9073C28.0073 43.4207 26.6482 44.9779 26.2433 47.0885C26.1874 47.3804 26.2609 47.6232 26.4404 47.8531C26.6322 48.0987 26.9481 48.329 27.3628 48.5317C28.1917 48.9369 29.2653 49.1617 30.004 49.2395C30.5364 49.2956 31.0719 48.9892 31.6558 48.3964C31.9388 48.1091 32.21 47.7788 32.4762 47.4398C32.7354 47.1098 33.0012 46.7557 33.2472 46.4636C33.5307 46.1271 33.6721 45.8929 33.7357 45.715C33.7921 45.5573 33.7927 45.4303 33.7507 45.279C33.7023 45.1042 33.5968 44.8962 33.412 44.5866C33.2384 44.2957 32.9912 43.9073 32.7307 43.4487C32.5008 43.0439 31.8279 42.5501 30.9711 42.3508C30.1394 42.1575 29.2481 42.2689 28.5603 42.9073Z" fill="black"/>
<path d="M76.5081 19.7035C76.5721 19.7675 76.7321 19.9115 76.9881 20.1355C77.2494 20.3542 77.4681 20.5515 77.6441 20.7275C77.8201 20.8982 77.9881 21.1222 78.1481 21.3995C78.3081 21.6769 78.3881 21.9462 78.3881 22.2075C78.3881 22.7569 78.1054 23.2289 77.5401 23.6235C77.4921 23.6609 77.4387 23.6742 77.3801 23.6635C77.3214 23.6529 77.2734 23.6235 77.2361 23.5755C77.1987 23.5329 77.1827 23.4822 77.1881 23.4235C77.1987 23.3649 77.2254 23.3169 77.2681 23.2795C77.4867 23.1035 77.6387 22.9409 77.7241 22.7915C77.8094 22.6422 77.8521 22.4742 77.8521 22.2875C77.8521 22.0582 77.7267 21.8155 77.4761 21.5595C77.2307 21.3035 76.8734 21.0715 76.4041 20.8635C76.3667 20.8422 76.3481 20.8555 76.3481 20.9035V24.3675C76.3481 24.7462 76.2414 25.0422 76.0281 25.2555C75.8147 25.4635 75.5214 25.5675 75.1481 25.5675C74.8921 25.5675 74.6814 25.5009 74.5161 25.3675C74.3507 25.2289 74.2681 25.0555 74.2681 24.8475C74.2681 24.5862 74.3721 24.3675 74.5801 24.1915C74.7881 24.0155 75.0574 23.9275 75.3881 23.9275C75.5107 23.9275 75.6414 23.9489 75.7801 23.9915C75.7854 23.9915 75.7907 23.9889 75.7961 23.9835C75.8014 23.9835 75.8041 23.9809 75.8041 23.9755V19.7595C75.8041 19.6849 75.8307 19.6209 75.8841 19.5675C75.9374 19.5142 76.0014 19.4875 76.0761 19.4875C76.2201 19.4875 76.3641 19.5595 76.5081 19.7035Z" fill="black"/>
<path d="M69.9798 23.0796C70.1078 22.9676 70.1718 22.8236 70.1718 22.6476C70.1718 22.4716 70.1078 22.3276 69.9798 22.2156C69.8571 22.1036 69.6945 22.0476 69.4918 22.0476C69.2891 22.0476 69.1238 22.1036 68.9958 22.2156C68.8731 22.3276 68.8118 22.4716 68.8118 22.6476C68.8118 22.8236 68.8731 22.9676 68.9958 23.0796C69.1238 23.1916 69.2891 23.2476 69.4918 23.2476C69.6945 23.2476 69.8571 23.1916 69.9798 23.0796ZM66.8598 20.7676C66.7371 20.7676 66.6305 20.7223 66.5398 20.6316C66.4491 20.5409 66.4038 20.4343 66.4038 20.3116V20.1916C66.4038 20.0689 66.4491 19.9649 66.5398 19.8796C66.6305 19.7889 66.7371 19.7436 66.8598 19.7436H69.9878C70.0358 19.7436 70.0598 19.7196 70.0598 19.6716V19.3916C70.0598 19.2689 70.1051 19.1649 70.1958 19.0796C70.2865 18.9889 70.3931 18.9436 70.5158 18.9436H70.8358C70.9585 18.9436 71.0625 18.9889 71.1478 19.0796C71.2385 19.1703 71.2838 19.2769 71.2838 19.3996V19.6716C71.2838 19.7196 71.3078 19.7436 71.3558 19.7436H72.9398C73.0625 19.7436 73.1691 19.7889 73.2598 19.8796C73.3505 19.9649 73.3958 20.0689 73.3958 20.1916V20.3116C73.3958 20.4343 73.3505 20.5409 73.2598 20.6316C73.1691 20.7223 73.0625 20.7676 72.9398 20.7676H71.3558C71.3078 20.7676 71.2838 20.7916 71.2838 20.8396V22.2156C71.2838 22.2423 71.2945 22.2823 71.3158 22.3356C71.4598 22.6609 71.5318 23.0103 71.5318 23.3836C71.5318 24.1516 71.3211 24.7409 70.8998 25.1516C70.4838 25.5569 69.7905 25.8289 68.8198 25.9676C68.6918 25.9889 68.5771 25.9596 68.4758 25.8796C68.3745 25.8049 68.3105 25.7036 68.2838 25.5756L68.2518 25.3596C68.2305 25.2423 68.2545 25.1356 68.3238 25.0396C68.3985 24.9383 68.4971 24.8796 68.6198 24.8636C69.1958 24.7889 69.5931 24.6929 69.8118 24.5756C70.0305 24.4529 70.1771 24.2769 70.2518 24.0476C70.2518 24.0423 70.2545 24.0369 70.2598 24.0316C70.2651 24.0209 70.2678 24.0129 70.2678 24.0076C70.2678 23.9969 70.2651 23.9916 70.2598 23.9916H70.2438C69.9718 24.1516 69.6625 24.2316 69.3158 24.2316C68.8091 24.2316 68.3958 24.0849 68.0758 23.7916C67.7611 23.4983 67.6038 23.1169 67.6038 22.6476C67.6038 22.1783 67.7638 21.7969 68.0838 21.5036C68.4091 21.2103 68.8358 21.0636 69.3638 21.0636C69.5931 21.0636 69.8171 21.1063 70.0358 21.1916C70.0411 21.1916 70.0438 21.1943 70.0438 21.1996C70.0438 21.1996 70.0465 21.1996 70.0518 21.1996C70.0571 21.1996 70.0598 21.1943 70.0598 21.1836V20.8396C70.0598 20.7916 70.0358 20.7676 69.9878 20.7676H66.8598Z" fill="black"/>
<path d="M61.0197 24.9116C61.3291 24.9116 61.5397 24.869 61.6517 24.7836C61.7691 24.693 61.8331 24.517 61.8437 24.2556C61.8437 24.213 61.8251 24.1836 61.7877 24.1676C61.5637 24.0823 61.3531 24.0396 61.1557 24.0396C60.6491 24.0396 60.3957 24.181 60.3957 24.4636C60.3957 24.7623 60.6037 24.9116 61.0197 24.9116ZM59.1957 20.8876C59.0731 20.8876 58.9664 20.8423 58.8757 20.7516C58.7851 20.661 58.7397 20.5543 58.7397 20.4316V20.2476C58.7397 20.125 58.7851 20.0183 58.8757 19.9276C58.9664 19.837 59.0731 19.7916 59.1957 19.7916H61.7797C61.8224 19.7916 61.8437 19.7703 61.8437 19.7276V19.5436C61.8437 19.421 61.8891 19.3143 61.9797 19.2236C62.0704 19.133 62.1771 19.0876 62.2997 19.0876H62.6197C62.7424 19.0876 62.8491 19.133 62.9397 19.2236C63.0304 19.3143 63.0757 19.421 63.0757 19.5436V19.7276C63.0757 19.7703 63.0971 19.7916 63.1397 19.7916H64.6037C64.7264 19.7916 64.8331 19.837 64.9237 19.9276C65.0144 20.0183 65.0597 20.125 65.0597 20.2476V20.4316C65.0597 20.5543 65.0144 20.661 64.9237 20.7516C64.8331 20.8423 64.7264 20.8876 64.6037 20.8876H63.1397C63.0971 20.8876 63.0757 20.9116 63.0757 20.9596V21.3276C63.0757 21.3703 63.0971 21.3916 63.1397 21.3916H64.2997C64.4224 21.3916 64.5291 21.437 64.6197 21.5276C64.7104 21.6183 64.7557 21.725 64.7557 21.8476V22.0076C64.7557 22.1303 64.7104 22.237 64.6197 22.3276C64.5291 22.4183 64.4224 22.4636 64.2997 22.4636H63.1397C63.0971 22.4636 63.0757 22.485 63.0757 22.5276V23.5276C63.0757 23.5703 63.0971 23.605 63.1397 23.6316C63.5664 23.8876 64.0384 24.2423 64.5557 24.6956C64.6517 24.781 64.7024 24.8876 64.7077 25.0156C64.7131 25.1383 64.6731 25.245 64.5877 25.3356L64.4437 25.4956C64.3584 25.5863 64.2544 25.6343 64.1317 25.6396C64.0091 25.6503 63.9024 25.613 63.8117 25.5276C63.5024 25.2556 63.2464 25.045 63.0437 24.8956C63.0117 24.8743 62.9904 24.885 62.9797 24.9276C62.8677 25.3063 62.6544 25.581 62.3397 25.7516C62.0251 25.9223 61.5851 26.0076 61.0197 26.0076C60.4331 26.0076 59.9744 25.8716 59.6437 25.5996C59.3184 25.333 59.1557 24.9543 59.1557 24.4636C59.1557 24.005 59.3104 23.6423 59.6197 23.3756C59.9344 23.109 60.4011 22.9756 61.0197 22.9756C61.2597 22.9756 61.5131 23.005 61.7797 23.0636C61.8224 23.0743 61.8437 23.0556 61.8437 23.0076V22.5276C61.8437 22.485 61.8224 22.4636 61.7797 22.4636H59.4997C59.3771 22.4636 59.2704 22.4183 59.1797 22.3276C59.0891 22.237 59.0437 22.1303 59.0437 22.0076V21.8476C59.0437 21.725 59.0891 21.6183 59.1797 21.5276C59.2704 21.437 59.3771 21.3916 59.4997 21.3916H61.7797C61.8224 21.3916 61.8437 21.3703 61.8437 21.3276V20.9596C61.8437 20.9116 61.8224 20.8876 61.7797 20.8876H59.1957Z" fill="black"/>
<path d="M51.0519 20.9035C50.9239 20.9035 50.8146 20.8609 50.7239 20.7755C50.6332 20.6902 50.5879 20.5835 50.5879 20.4555V20.1995C50.5879 20.0769 50.6306 19.9729 50.7159 19.8875C50.8066 19.7969 50.9132 19.7515 51.0359 19.7515C52.9559 19.7409 54.8652 19.6929 56.7639 19.6075C56.8866 19.6022 56.9932 19.6422 57.0839 19.7275C57.1746 19.8129 57.2226 19.9169 57.2279 20.0395L57.2359 20.2955C57.2412 20.4235 57.2012 20.5355 57.1159 20.6315C57.0359 20.7222 56.9319 20.7755 56.8039 20.7915C55.7266 20.9142 54.9159 21.1782 54.3719 21.5835C53.8279 21.9889 53.5559 22.4795 53.5559 23.0555C53.5559 23.5462 53.7239 23.9382 54.0599 24.2315C54.3959 24.5195 54.8359 24.6635 55.3799 24.6635C55.5559 24.6635 55.7266 24.6529 55.8919 24.6315C56.0146 24.6155 56.1239 24.6449 56.2199 24.7195C56.3212 24.7889 56.3799 24.8849 56.3959 25.0075L56.4359 25.2875C56.4519 25.4155 56.4199 25.5302 56.3399 25.6315C56.2652 25.7382 56.1639 25.7995 56.0359 25.8155C55.8439 25.8422 55.6039 25.8555 55.3159 25.8555C54.3612 25.8555 53.5959 25.6129 53.0199 25.1275C52.4439 24.6422 52.1559 23.9942 52.1559 23.1835C52.1559 22.7569 52.2866 22.3382 52.5479 21.9275C52.8092 21.5115 53.1692 21.1595 53.6279 20.8715C53.6332 20.8715 53.6359 20.8662 53.6359 20.8555C53.6359 20.8502 53.6332 20.8475 53.6279 20.8475C52.8492 20.8742 51.9906 20.8929 51.0519 20.9035Z" fill="black"/>
<path d="M45.7559 25.9516C45.1212 25.9516 44.6279 25.8583 44.2759 25.6716C43.9292 25.4849 43.6759 25.1676 43.5159 24.7196C43.3559 24.2663 43.2759 23.6289 43.2759 22.8076C43.2759 21.7249 43.3025 20.6929 43.3559 19.7116C43.3665 19.5836 43.4172 19.4769 43.5079 19.3916C43.5985 19.3063 43.7079 19.2663 43.8359 19.2716L44.2599 19.2796C44.3825 19.2849 44.4839 19.3329 44.5639 19.4236C44.6492 19.5143 44.6892 19.6209 44.6839 19.7436C44.6252 20.7889 44.5959 21.8103 44.5959 22.8076C44.5959 23.5809 44.6785 24.0956 44.8439 24.3516C45.0145 24.6023 45.3185 24.7276 45.7559 24.7276C46.1772 24.7276 46.5612 24.5863 46.9079 24.3036C47.2545 24.0209 47.5745 23.5649 47.8679 22.9356C47.9212 22.8183 48.0039 22.7356 48.1159 22.6876C48.2332 22.6396 48.3505 22.6369 48.4679 22.6796L48.7799 22.7996C48.9025 22.8423 48.9879 22.9223 49.0359 23.0396C49.0892 23.1516 49.0892 23.2663 49.0359 23.3836C48.2999 25.0956 47.2065 25.9516 45.7559 25.9516Z" fill="black"/>
<path d="M35.1 21.0636C34.9774 21.0636 34.8707 21.0182 34.78 20.9276C34.6894 20.8369 34.644 20.7302 34.644 20.6076V20.4236C34.644 20.3009 34.6894 20.1942 34.78 20.1036C34.8707 20.0129 34.9774 19.9676 35.1 19.9676H36.284C36.3267 19.9676 36.3534 19.9462 36.364 19.9036C36.3747 19.8502 36.3854 19.7756 36.396 19.6796C36.412 19.5836 36.4227 19.5142 36.428 19.4716C36.444 19.3489 36.5 19.2476 36.596 19.1676C36.6974 19.0876 36.812 19.0502 36.94 19.0556L37.26 19.0796C37.3827 19.0849 37.4814 19.1356 37.556 19.2316C37.636 19.3222 37.668 19.4289 37.652 19.5516C37.6467 19.5942 37.636 19.6556 37.62 19.7356C37.6094 19.8156 37.6014 19.8716 37.596 19.9036C37.5854 19.9462 37.604 19.9676 37.652 19.9676H40.7C40.8227 19.9676 40.9294 20.0129 41.02 20.1036C41.1107 20.1942 41.156 20.3009 41.156 20.4236V20.6076C41.156 20.7302 41.1107 20.8369 41.02 20.9276C40.9294 21.0182 40.8227 21.0636 40.7 21.0636H37.412C37.364 21.0636 37.3347 21.0849 37.324 21.1276C37.26 21.3622 37.1534 21.6902 37.004 22.1116V22.1276H37.012C37.0174 22.1329 37.0227 22.1356 37.028 22.1356C37.54 21.9702 38.012 21.8876 38.444 21.8876C39.1854 21.8876 39.7534 22.0582 40.148 22.3996C40.5427 22.7409 40.74 23.2156 40.74 23.8236C40.74 24.4582 40.468 24.9676 39.924 25.3516C39.3854 25.7356 38.6574 25.9276 37.74 25.9276C37.2014 25.9276 36.6654 25.8822 36.132 25.7916C36.0094 25.7702 35.9134 25.7062 35.844 25.5996C35.7747 25.4982 35.7534 25.3836 35.78 25.2556L35.82 25.0556C35.8414 24.9329 35.9027 24.8369 36.004 24.7676C36.1107 24.6982 36.2254 24.6742 36.348 24.6956C36.86 24.7862 37.324 24.8316 37.74 24.8316C38.268 24.8316 38.684 24.7329 38.988 24.5356C39.292 24.3382 39.444 24.0769 39.444 23.7516C39.444 23.2396 39.0894 22.9836 38.38 22.9836C37.7987 22.9836 37.26 23.1169 36.764 23.3836C36.5027 23.5276 36.236 23.5462 35.964 23.4396L35.684 23.3276C35.5667 23.2796 35.484 23.1996 35.436 23.0876C35.3934 22.9702 35.3987 22.8556 35.452 22.7436C35.74 22.0982 35.948 21.5596 36.076 21.1276C36.0867 21.0849 36.0707 21.0636 36.028 21.0636H35.1Z" fill="black"/>
<path d="M28.3317 19.0636L28.4757 19.1676C28.577 19.2423 28.6357 19.341 28.6517 19.4636C28.6677 19.5863 28.6357 19.6956 28.5557 19.7916C28.1344 20.2876 27.6544 20.7196 27.1157 21.0876C27.0144 21.157 26.905 21.173 26.7877 21.1356C26.6757 21.0983 26.5957 21.0263 26.5477 20.9196L26.4437 20.6796C26.3904 20.5623 26.3824 20.4423 26.4197 20.3196C26.457 20.1916 26.529 20.093 26.6357 20.0236C27.0304 19.757 27.3744 19.461 27.6677 19.1356C27.753 19.045 27.857 18.9943 27.9797 18.9836C28.1077 18.9676 28.225 18.9943 28.3317 19.0636ZM26.3237 23.6796L26.2357 23.2556C26.1664 22.9676 26.2517 22.7276 26.4917 22.5356C26.9664 22.1516 27.393 21.693 27.7717 21.1596C27.8464 21.053 27.945 20.9863 28.0677 20.9596C28.1904 20.9276 28.3077 20.9436 28.4197 21.0076L28.6277 21.1276C28.649 21.1383 28.6624 21.1463 28.6677 21.1516C28.6997 21.173 28.737 21.1756 28.7797 21.1596C28.8544 21.1223 28.9237 21.1036 28.9877 21.1036H30.2437C30.2864 21.1036 30.3077 21.0823 30.3077 21.0396V20.5916C30.3077 20.5436 30.2864 20.5196 30.2437 20.5196H29.2837C29.161 20.5196 29.0544 20.4743 28.9637 20.3836C28.873 20.293 28.8277 20.1863 28.8277 20.0636V19.9916C28.8277 19.869 28.873 19.765 28.9637 19.6796C29.0544 19.589 29.161 19.5436 29.2837 19.5436H30.2437C30.2864 19.5436 30.3077 19.5196 30.3077 19.4716V19.2476C30.3077 19.125 30.353 19.0183 30.4437 18.9276C30.5344 18.837 30.641 18.7916 30.7637 18.7916H31.1077C31.2304 18.7916 31.337 18.837 31.4277 18.9276C31.5184 19.0183 31.5637 19.125 31.5637 19.2476V19.4716C31.5637 19.5196 31.5877 19.5436 31.6357 19.5436H32.9077C33.0304 19.5436 33.137 19.589 33.2277 19.6796C33.3184 19.765 33.3637 19.869 33.3637 19.9916V20.0636C33.3637 20.1863 33.3184 20.293 33.2277 20.3836C33.137 20.4743 33.0304 20.5196 32.9077 20.5196H31.6357C31.5877 20.5196 31.5637 20.5436 31.5637 20.5916V21.0396C31.5637 21.0823 31.5877 21.1036 31.6357 21.1036H33.2437C33.3664 21.1036 33.473 21.149 33.5637 21.2396C33.6544 21.3303 33.6997 21.437 33.6997 21.5596V21.6636C33.6997 21.7863 33.6544 21.893 33.5637 21.9836C33.473 22.0743 33.3664 22.1196 33.2437 22.1196H32.9717C32.9237 22.1196 32.8997 22.1436 32.8997 22.1916V22.5676C32.8997 22.6103 32.9237 22.6316 32.9717 22.6316H33.2437C33.3664 22.6316 33.473 22.677 33.5637 22.7676C33.6544 22.8583 33.6997 22.965 33.6997 23.0876V23.1916C33.6997 23.3143 33.6544 23.421 33.5637 23.5116C33.473 23.6023 33.3664 23.6476 33.2437 23.6476H32.9717C32.9237 23.6476 32.8997 23.6716 32.8997 23.7196V24.7756C32.8997 25.021 32.8944 25.2156 32.8837 25.3596C32.8784 25.4983 32.8544 25.629 32.8117 25.7516C32.7744 25.8743 32.729 25.9623 32.6757 26.0156C32.6224 26.069 32.5317 26.1143 32.4037 26.1516C32.281 26.1943 32.1477 26.2183 32.0037 26.2236C31.865 26.2343 31.6704 26.2396 31.4197 26.2396C31.377 26.2396 31.217 26.2343 30.9397 26.2236C30.8117 26.213 30.6997 26.1623 30.6037 26.0716C30.513 25.9863 30.465 25.8796 30.4597 25.7516L30.4517 25.6396C30.441 25.517 30.4784 25.413 30.5637 25.3276C30.649 25.2423 30.753 25.205 30.8757 25.2156C31.057 25.2263 31.161 25.2316 31.1877 25.2316C31.417 25.2316 31.5504 25.2183 31.5877 25.1916C31.6304 25.1596 31.6517 25.0583 31.6517 24.8876V23.7196C31.6517 23.6716 31.6277 23.6476 31.5797 23.6476H29.7877C29.7824 23.653 29.7797 23.6583 29.7797 23.6636C29.8437 23.6903 29.897 23.725 29.9397 23.7676C30.169 23.9863 30.393 24.2103 30.6117 24.4396C30.697 24.5303 30.737 24.6396 30.7317 24.7676C30.7317 24.8903 30.6864 24.997 30.5957 25.0876L30.4517 25.2236C30.361 25.309 30.2544 25.349 30.1317 25.3436C30.009 25.3383 29.9024 25.2903 29.8117 25.1996C29.6677 25.045 29.4437 24.8236 29.1397 24.5356C29.0544 24.4503 29.0117 24.3463 29.0117 24.2236C29.0117 24.101 29.0544 23.997 29.1397 23.9116L29.2837 23.7756C29.3317 23.7276 29.3904 23.6903 29.4597 23.6636C29.4597 23.6583 29.457 23.653 29.4517 23.6476H28.9797C28.857 23.6476 28.7504 23.6023 28.6597 23.5116C28.569 23.421 28.5237 23.3143 28.5237 23.1916V23.0876C28.5237 22.965 28.569 22.8583 28.6597 22.7676C28.7504 22.677 28.857 22.6316 28.9797 22.6316H31.5797C31.6277 22.6316 31.6517 22.6103 31.6517 22.5676V22.1916C31.6517 22.1436 31.6277 22.1196 31.5797 22.1196H28.9877C28.881 22.1196 28.785 22.085 28.6997 22.0156C28.6624 21.9783 28.633 21.9783 28.6117 22.0156C28.3984 22.3143 28.2757 22.4823 28.2437 22.5196C28.217 22.557 28.2037 22.5943 28.2037 22.6316V25.8076C28.2037 25.9303 28.1584 26.037 28.0677 26.1276C27.977 26.2183 27.8704 26.2636 27.7477 26.2636H27.4437C27.321 26.2636 27.2144 26.2183 27.1237 26.1276C27.033 26.037 26.9877 25.9303 26.9877 25.8076V23.6236C26.9877 23.613 26.9824 23.605 26.9717 23.5996C26.9664 23.5943 26.9584 23.597 26.9477 23.6076C26.8624 23.7036 26.7984 23.773 26.7557 23.8156C26.681 23.885 26.5957 23.9063 26.4997 23.8796C26.409 23.8476 26.3504 23.781 26.3237 23.6796Z" fill="black"/>
<path d="M20.556 23.1756C19.9587 23.3782 19.66 23.6769 19.66 24.0716C19.66 24.2369 19.7267 24.3889 19.86 24.5276C19.9987 24.6662 20.1454 24.7356 20.3 24.7356C20.428 24.7356 20.5134 24.7116 20.556 24.6636C20.5987 24.6156 20.62 24.5116 20.62 24.3516V23.2236C20.62 23.1809 20.5987 23.1649 20.556 23.1756ZM20.436 25.8476C19.876 25.8476 19.4014 25.6796 19.012 25.3436C18.628 25.0022 18.436 24.5782 18.436 24.0716C18.436 23.6076 18.62 23.1889 18.988 22.8156C19.356 22.4422 19.8787 22.1676 20.556 21.9916C20.5987 21.9809 20.62 21.9516 20.62 21.9036V21.0476C20.62 21.0049 20.596 20.9836 20.548 20.9836H19.26C19.1374 20.9836 19.0307 20.9382 18.94 20.8476C18.8494 20.7569 18.804 20.6502 18.804 20.5276V20.4076C18.804 20.2849 18.8494 20.1782 18.94 20.0876C19.0307 19.9969 19.1374 19.9516 19.26 19.9516H20.548C20.596 19.9516 20.62 19.9302 20.62 19.8876V19.4716C20.62 19.3489 20.6654 19.2449 20.756 19.1596C20.8467 19.0689 20.9534 19.0236 21.076 19.0236H21.396C21.5187 19.0236 21.6227 19.0689 21.708 19.1596C21.7987 19.2449 21.844 19.3489 21.844 19.4716V19.8876C21.844 19.9302 21.868 19.9516 21.916 19.9516H23.036C23.1587 19.9516 23.2627 19.9969 23.348 20.0876C23.4387 20.1782 23.484 20.2849 23.484 20.4076V20.5276C23.484 20.6502 23.4387 20.7569 23.348 20.8476C23.2627 20.9382 23.1587 20.9836 23.036 20.9836H21.916C21.868 20.9836 21.844 21.0049 21.844 21.0476V21.7356C21.844 21.7782 21.868 21.7996 21.916 21.7996C21.948 21.7996 21.996 21.7996 22.06 21.7996C22.124 21.7942 22.172 21.7916 22.204 21.7916C22.988 21.7916 23.6227 21.9809 24.108 22.3596C24.5987 22.7382 24.844 23.1996 24.844 23.7436C24.844 24.8956 24.2227 25.6049 22.98 25.8716C22.8574 25.8982 22.7427 25.8742 22.636 25.7996C22.5347 25.7302 22.468 25.6316 22.436 25.5036L22.38 25.2876C22.3534 25.1702 22.372 25.0609 22.436 24.9596C22.5 24.8582 22.5907 24.7916 22.708 24.7596C23.2947 24.6102 23.588 24.2929 23.588 23.8076C23.588 23.5729 23.46 23.3729 23.204 23.2076C22.948 23.0369 22.6147 22.9516 22.204 22.9516C22.1667 22.9516 22.116 22.9542 22.052 22.9596C21.988 22.9596 21.94 22.9596 21.908 22.9596C21.8654 22.9596 21.844 22.9836 21.844 23.0316V24.4316C21.844 24.9756 21.7427 25.3462 21.54 25.5436C21.3374 25.7462 20.9694 25.8476 20.436 25.8476ZM24.796 20.0156C25.1374 20.5276 25.3774 20.8982 25.516 21.1276C25.58 21.2342 25.596 21.3489 25.564 21.4716C25.532 21.5942 25.4627 21.6849 25.356 21.7436L25.252 21.7996C25.14 21.8582 25.0227 21.8716 24.9 21.8396C24.7827 21.8076 24.692 21.7382 24.628 21.6316C24.42 21.2956 24.1934 20.9409 23.948 20.5676C23.8787 20.4662 23.8547 20.3542 23.876 20.2316C23.9027 20.1089 23.9667 20.0129 24.068 19.9436L24.164 19.8876C24.2654 19.8182 24.3774 19.7969 24.5 19.8236C24.628 19.8502 24.7267 19.9142 24.796 20.0156Z" fill="black"/>
<defs>
<filter id="filter0_d_14_55" x="32.4551" y="42.4338" width="67.9858" height="71.1982" filterUnits="userSpaceOnUse" color-interpolation-filters="sRGB">
<feFlood flood-opacity="0" result="BackgroundImageFix"/>
<feColorMatrix in="SourceAlpha" type="matrix" values="0 0 0 0 0 0 0 0 0 0 0 0 0 0 0 0 0 0 127 0" result="hardAlpha"/>
<feOffset dy="2"/>
<feGaussianBlur stdDeviation="1"/>
<feComposite in2="hardAlpha" operator="out"/>
<feColorMatrix type="matrix" values="0 0 0 0 1 0 0 0 0 1 0 0 0 0 1 0 0 0 1 0"/>
<feBlend mode="normal" in2="BackgroundImageFix" result="effect1_dropShadow_14_55"/>
<feBlend mode="normal" in="SourceGraphic" in2="effect1_dropShadow_14_55" result="shape"/>
</filter>
</defs>
</svg>
