<svg width="20" height="20" viewBox="0 0 20 20" fill="none" xmlns="http://www.w3.org/2000/svg">
<path d="M9.73266 0C6.01383 0 3 3.01387 3 6.73266C3 10.528 4.88117 11.3366 6.96039 13.8614C9.44734 16.8813 9.73266 20 9.73266 20C9.73266 20 10.018 16.8813 12.5049 13.8614C14.5841 11.3366 16.4653 10.528 16.4653 6.7327C16.4653 3.01387 13.4515 0 9.73266 0ZM9.73266 9.05941C8.44762 9.05941 7.40594 8.0177 7.40594 6.7327C7.40594 5.4477 8.44766 4.40598 9.73266 4.40598C11.0177 4.40598 12.0594 5.4477 12.0594 6.7327C12.0594 8.0177 11.0177 9.05941 9.73266 9.05941Z" fill="#A01D10"/>
</svg>
