<svg width="20" height="21" viewBox="0 0 20 21" fill="none" xmlns="http://www.w3.org/2000/svg">
<path d="M5.70884 4.15885C6.35135 4.15885 6.87239 3.63781 6.87239 2.99493V1.16355C6.87239 0.521036 6.35135 0 5.70884 0C5.06596 0 4.54492 0.521036 4.54492 1.16355V2.99497C4.54492 3.63781 5.06596 4.15885 5.70884 4.15885Z" fill="#A01D10"/>
<path d="M14.2908 4.15885C14.9334 4.15885 15.4544 3.63781 15.4544 2.99493V1.16355C15.4544 0.521036 14.9334 0 14.2908 0C13.648 0 13.127 0.521036 13.127 1.16355V2.99497C13.127 3.63781 13.648 4.15885 14.2908 4.15885Z" fill="#A01D10"/>
<path d="M17.1975 1.6582H16.4774V2.99454C16.4774 4.20039 15.4966 5.1812 14.2911 5.1812C13.0852 5.1812 12.1044 4.20039 12.1044 2.99454V1.6582H7.89557V2.99454C7.89557 4.20039 6.9148 5.1812 5.7093 5.1812C4.50349 5.1812 3.52264 4.20039 3.52264 2.99454V1.6582H2.80255C1.25479 1.6582 0 2.91295 0 4.46075V17.7653C0 19.3131 1.25483 20.5679 2.80255 20.5679H17.1975C18.7452 20.5679 20 19.3131 20 17.7653V4.46075C20 2.91299 18.7452 1.6582 17.1975 1.6582ZM17.7944 17.2733C17.7944 17.9894 17.2118 18.572 16.4956 18.572H3.50436C2.78825 18.572 2.20563 17.9894 2.20563 17.2733V6.86411H17.7944L17.7944 17.2733Z" fill="#A01D10"/>
<path d="M9.4344 14.9346H7.37793V16.9911H9.4344V14.9346Z" fill="#A01D10"/>
<path d="M9.4344 11.7471H7.37793V13.8035H9.4344V11.7471Z" fill="#A01D10"/>
<path d="M6.24686 14.9346H4.19043V16.9911H6.24686V14.9346Z" fill="#A01D10"/>
<path d="M6.24686 11.7471H4.19043V13.8035H6.24686V11.7471Z" fill="#A01D10"/>
<path d="M15.8094 8.55933H13.7529V10.6158H15.8094V8.55933Z" fill="#A01D10"/>
<path d="M12.6222 8.55933H10.5654V10.6158H12.6222V8.55933Z" fill="#A01D10"/>
<path d="M12.6222 11.7471H10.5654V13.8035H12.6222V11.7471Z" fill="#A01D10"/>
<path d="M15.8094 14.9346H13.7529V16.9911H15.8094V14.9346Z" fill="#A01D10"/>
<path d="M15.8094 11.7471H13.7529V13.8035H15.8094V11.7471Z" fill="#A01D10"/>
<path d="M12.6222 14.9346H10.5654V16.9911H12.6222V14.9346Z" fill="#A01D10"/>
<path d="M9.4344 8.55933H7.37793V10.6158H9.4344V8.55933Z" fill="#A01D10"/>
<path d="M6.24686 8.55933H4.19043V10.6158H6.24686V8.55933Z" fill="#A01D10"/>
</svg>
